<svg width="115" height="23" viewBox="0 0 115 23" fill="none" xmlns="http://www.w3.org/2000/svg">
<path d="M7.238 18.176C5.918 18.176 4.862 18.0147 4.07 17.692C3.29267 17.3693 2.728 16.834 2.376 16.086C2.024 15.338 1.848 14.326 1.848 13.05V8.76H0.088V5.856H1.87V2.688H5.566V5.856H8.888V8.76H5.544V13.16C5.544 14.2747 6.10133 14.832 7.216 14.832H8.888V18.176H7.238ZM11.034 18V1.94H15.038V7.814C15.6687 6.24467 16.8347 5.46 18.536 5.46H18.712C20.032 5.46 21.0367 5.93667 21.726 6.89C22.43 7.84333 22.782 9.244 22.782 11.092V18H18.778V10.938C18.778 10.3807 18.6094 9.926 18.272 9.574C17.9347 9.20733 17.4874 9.024 16.93 9.024C16.3727 9.024 15.918 9.20733 15.566 9.574C15.214 9.926 15.038 10.3953 15.038 10.982V18H11.034ZM27.6715 4.888C26.9529 4.888 26.4175 4.70467 26.0655 4.338C25.7282 3.95667 25.5595 3.47267 25.5595 2.886C25.5595 2.29933 25.7282 1.82267 26.0655 1.456C26.4175 1.07467 26.9529 0.883999 27.6715 0.883999C28.4049 0.883999 28.9402 1.07467 29.2775 1.456C29.6149 1.82267 29.7835 2.29933 29.7835 2.886C29.7835 3.47267 29.6149 3.95667 29.2775 4.338C28.9402 4.70467 28.4049 4.888 27.6715 4.888ZM26.0435 18V8.76H24.5035V5.856H30.0475V18H26.0435ZM32.9911 18V5.856H36.1591V9.046C36.3937 7.84333 36.8557 6.94867 37.5451 6.362C38.2344 5.76067 39.1291 5.46 40.2291 5.46H40.4051C41.7837 5.46 42.8471 5.922 43.5951 6.846C44.3577 7.75533 44.7391 9.156 44.7391 11.048V18H40.7351V10.938C40.7351 10.3807 40.5664 9.926 40.2291 9.574C39.9064 9.20733 39.4591 9.024 38.8871 9.024C38.3151 9.024 37.8531 9.20733 37.5011 9.574C37.1637 9.926 36.9951 10.3953 36.9951 10.982V18H32.9911ZM52.2906 22.862C51.6892 22.862 51.0659 22.84 50.4206 22.796C49.7899 22.752 49.2179 22.6933 48.7046 22.62V19.276C49.2179 19.3347 49.7899 19.386 50.4206 19.43C51.0512 19.4887 51.6306 19.518 52.1586 19.518C53.5079 19.518 54.4979 19.298 55.1286 18.858C55.7739 18.4327 56.0966 17.758 56.0966 16.834V15.778C55.7299 16.5113 55.2019 17.0833 54.5126 17.494C53.8379 17.89 53.0239 18.088 52.0706 18.088C50.9706 18.088 50.0172 17.8313 49.2106 17.318C48.4186 16.8047 47.8026 16.1007 47.3626 15.206C46.9372 14.2967 46.7246 13.2627 46.7246 12.104V11.576C46.7246 10.4173 46.9592 9.38333 47.4286 8.474C47.8979 7.55 48.5506 6.824 49.3866 6.296C50.2226 5.768 51.1979 5.504 52.3126 5.504C53.3686 5.504 54.2706 5.76067 55.0186 6.274C55.7666 6.78733 56.3166 7.53533 56.6686 8.518V5.856H59.8366V16.57C59.8366 18.8287 59.2059 20.442 57.9446 21.41C56.6832 22.378 54.7986 22.862 52.2906 22.862ZM53.4126 14.788C54.1312 14.788 54.7399 14.546 55.2386 14.062C55.7519 13.578 56.0086 12.8887 56.0086 11.994V11.466C56.0086 10.6153 55.7446 9.96267 55.2166 9.508C54.7032 9.03867 54.1019 8.804 53.4126 8.804C52.6206 8.804 51.9752 9.08267 51.4766 9.64C50.9779 10.1827 50.7286 10.916 50.7286 11.84C50.7286 12.764 50.9779 13.49 51.4766 14.018C51.9752 14.5313 52.6206 14.788 53.4126 14.788ZM67.436 18.396C65.676 18.396 64.29 18.0367 63.278 17.318C62.266 16.5847 61.7233 15.558 61.65 14.238H65.17C65.2287 14.6047 65.456 14.92 65.852 15.184C66.248 15.448 66.8053 15.58 67.524 15.58C68.0373 15.58 68.4773 15.5067 68.844 15.36C69.2253 15.1987 69.416 14.942 69.416 14.59C69.416 14.282 69.2693 14.0327 68.976 13.842C68.6827 13.6367 68.1473 13.4973 67.37 13.424L66.534 13.336C64.9793 13.1747 63.8353 12.7493 63.102 12.06C62.3687 11.3707 62.002 10.5053 62.002 9.464C62.002 8.56933 62.222 7.836 62.662 7.264C63.102 6.67733 63.7107 6.23733 64.488 5.944C65.2653 5.65067 66.1527 5.504 67.15 5.504C68.778 5.504 70.0907 5.86333 71.088 6.582C72.0853 7.286 72.6133 8.30533 72.672 9.64H69.152C69.0933 9.27333 68.8953 8.96533 68.558 8.716C68.2207 8.452 67.7367 8.32 67.106 8.32C66.6513 8.32 66.2773 8.40067 65.984 8.562C65.7053 8.72333 65.566 8.95067 65.566 9.244C65.566 9.552 65.698 9.77933 65.962 9.926C66.2407 10.0727 66.6807 10.1827 67.282 10.256L68.118 10.344C69.6727 10.5053 70.868 10.938 71.704 11.642C72.5547 12.3313 72.98 13.2407 72.98 14.37C72.98 15.6167 72.4813 16.5993 71.484 17.318C70.5013 18.0367 69.152 18.396 67.436 18.396ZM75.1475 18V4.844H73.7835V1.94H79.1515V18H75.1475ZM85.6023 18.308C84.3117 18.308 83.2557 17.9707 82.4343 17.296C81.6277 16.6067 81.2243 15.6533 81.2243 14.436C81.2243 13.5267 81.4663 12.7933 81.9503 12.236C82.4343 11.664 83.1017 11.246 83.9523 10.982C84.803 10.718 85.7783 10.586 86.8783 10.586H88.7923C88.7777 10.0287 88.6383 9.62533 88.3743 9.376C88.125 9.112 87.7143 8.98 87.1423 8.98C86.8637 8.98 86.453 8.98733 85.9103 9.002C85.3677 9.01667 84.7957 9.03867 84.1943 9.068C83.593 9.09733 83.043 9.12667 82.5443 9.156V5.812C82.8963 5.78267 83.3143 5.75333 83.7983 5.724C84.2823 5.69467 84.781 5.67267 85.2943 5.658C85.8223 5.64333 86.3063 5.636 86.7463 5.636C88.6237 5.636 90.0683 6.04667 91.0803 6.868C92.107 7.68933 92.6203 8.94333 92.6203 10.63V18H89.4523V15.756C89.1883 16.5773 88.7337 17.208 88.0883 17.648C87.443 18.088 86.6143 18.308 85.6023 18.308ZM86.8783 15.624C87.3917 15.624 87.8243 15.4773 88.1763 15.184C88.543 14.876 88.7483 14.3187 88.7923 13.512V12.654H86.8783C86.3357 12.654 85.9177 12.7933 85.6243 13.072C85.331 13.336 85.1843 13.6953 85.1843 14.15C85.1843 14.59 85.331 14.9493 85.6243 15.228C85.9177 15.492 86.3357 15.624 86.8783 15.624ZM103.128 18.396C101.984 18.396 101.008 18.1247 100.202 17.582C99.3951 17.0393 98.8158 16.2473 98.4638 15.206V18H95.2957V1.94H99.2998V7.704C100.165 6.23733 101.507 5.504 103.326 5.504C104.426 5.504 105.372 5.768 106.164 6.296C106.97 6.824 107.586 7.55 108.012 8.474C108.452 9.398 108.672 10.454 108.672 11.642V12.17C108.672 13.358 108.444 14.4213 107.99 15.36C107.55 16.2987 106.919 17.0393 106.098 17.582C105.276 18.1247 104.286 18.396 103.128 18.396ZM101.984 15.096C102.776 15.096 103.421 14.8027 103.92 14.216C104.418 13.6147 104.668 12.8447 104.668 11.906C104.668 10.9673 104.418 10.2193 103.92 9.662C103.436 9.09 102.79 8.804 101.984 8.804C101.5 8.804 101.045 8.914 100.62 9.134C100.209 9.354 99.8718 9.67667 99.6078 10.102C99.3438 10.5273 99.2118 11.0407 99.2118 11.642V12.39C99.2118 12.962 99.3511 13.4533 99.6298 13.864C99.9084 14.26 100.26 14.568 100.686 14.788C101.111 14.9933 101.544 15.096 101.984 15.096Z" fill="#333333"/>
<path d="M110.3 18V13.644H114.612V18H110.3Z" fill="#FD435A"/>
</svg>
