<svg width="112" height="112" viewBox="0 0 112 112" fill="none" xmlns="http://www.w3.org/2000/svg">
<path d="M13.0669 22.4001H9.3335V84.0001H13.0669V22.4001Z" fill="black"/>
<path d="M24.2665 22.4001H18.6665V74.6667H24.2665V22.4001Z" fill="black"/>
<path d="M33.6001 22.4001H29.8667V74.6667H33.6001V22.4001Z" fill="black"/>
<path d="M42.9335 22.4001H37.3335V74.6667H42.9335V22.4001Z" fill="black"/>
<path d="M50.3999 22.4001H46.6665V74.6667H50.3999V22.4001Z" fill="black"/>
<path d="M1.86659 11.1999C0.746594 11.1999 0 11.9465 0 13.0665V22.3999H3.73341V14.9333H11.2V11.1999H1.86659Z" fill="#FD435A"/>
<path d="M57.8667 22.4001H54.1333V84.0001H57.8667V22.4001Z" fill="black"/>
<path d="M76.5336 22.4001H70.9336V74.6667H76.5336V22.4001Z" fill="black"/>
<path d="M85.8667 22.4001H82.1333V74.6667H85.8667V22.4001Z" fill="black"/>
<path d="M95.2001 22.4001H89.6001V74.6667H95.2001V22.4001Z" fill="black"/>
<path d="M102.667 22.4001H98.9336V84.0001H102.667V22.4001Z" fill="black"/>
<path d="M3.73341 97.0665V89.5999H0V98.9333C0 100.053 0.746594 100.8 1.86659 100.8H11.2V97.0665H3.73341Z" fill="#FD435A"/>
<path d="M108.266 89.5999V97.0665H100.8V100.8H110.133C111.253 100.8 112 100.053 112 98.9333V89.5999H108.266Z" fill="#FD435A"/>
<path d="M110.133 11H100.8V14.7334H108.266V22.2H112V12.8666C112 11.7466 111.253 11 110.133 11Z" fill="#FD435A"/>
<path d="M20.5332 78.4001H16.7998V84.0001H20.5332V78.4001Z" fill="black"/>
<path d="M28 78.4001H24.2666V84.0001H28V78.4001Z" fill="black"/>
<path d="M35.4668 78.4001H31.7334V84.0001H35.4668V78.4001Z" fill="black"/>
<path d="M42.9336 78.4001H39.2002V84.0001H42.9336V78.4001Z" fill="black"/>
<path d="M50.3999 78.4001H46.6665V84.0001H50.3999V78.4001Z" fill="black"/>
<path d="M65.3335 78.4001H61.6001V84.0001H65.3335V78.4001Z" fill="black"/>
<path d="M72.7998 78.4001H69.0664V84.0001H72.7998V78.4001Z" fill="black"/>
<path d="M80.2671 78.4001H76.5337V84.0001H80.2671V78.4001Z" fill="black"/>
<path d="M87.7334 78.4001H84V84.0001H87.7334V78.4001Z" fill="black"/>
<path d="M95.1997 78.4001H91.4663V84.0001H95.1997V78.4001Z" fill="black"/>
<path d="M67.1997 22.4001H63.4663V74.6667H67.1997V22.4001Z" fill="black"/>
</svg>
