<svg width="106" height="106" viewBox="0 0 106 106" fill="none" xmlns="http://www.w3.org/2000/svg">
<path d="M7.48234 40.2798C5.17255 48.6028 5.17255 57.3976 7.48234 65.7205L10.8537 64.7799C8.71559 57.0723 8.71559 48.9281 10.8537 41.2205L7.48234 40.2798Z" fill="black"/>
<path d="M52.9998 96.75C49.0186 96.7527 45.0555 96.2131 41.2199 95.1461L40.2793 98.5177C48.6022 100.827 57.397 100.827 65.7199 98.5177L64.7793 95.1461C60.9438 96.213 56.9809 96.7526 52.9998 96.75Z" fill="black"/>
<path d="M98.5179 65.72C100.828 57.3971 100.828 48.6023 98.5179 40.2794L95.1465 41.22C97.2846 48.9276 97.2846 57.0718 95.1465 64.7794L98.5179 65.72Z" fill="black"/>
<path d="M52.9999 9.24975C56.9811 9.24709 60.9442 9.78667 64.7798 10.8536L65.7204 7.48203C57.3975 5.17225 48.6027 5.17225 40.2798 7.48203L41.2204 10.8536C45.0559 9.78671 49.0188 9.24713 52.9999 9.24975Z" fill="black"/>
<path d="M63.5 86.25H42.5V89.75H63.5V86.25Z" fill="black"/>
<path d="M66.9106 76.9466L64.8324 70.7146L67.8995 72.4187L69.5992 69.3592L63.0726 65.7332L60.5053 60.5992L62.5218 59.2549C63.3616 58.6966 64.0503 57.9391 64.5264 57.05C65.0024 56.161 65.2511 55.1679 65.2502 54.1594V40.75C65.7144 40.75 66.1595 40.5656 66.4877 40.2374C66.8159 39.9093 67.0002 39.4641 67.0002 39V35.5875C66.9971 34.1724 66.5054 32.8017 65.6082 31.7074C64.711 30.613 63.4634 29.8621 62.0764 29.5815L56.8702 28.54C56.8139 28.5279 56.757 28.5186 56.6997 28.5122L56.656 28.5079H56.6475L56.6127 28.5055H56.5976H56.5709H56.549H56.5304L56.5002 28.5H45.5627C43.3589 28.5025 41.246 29.3791 39.6877 30.9374C38.1293 32.4958 37.2527 34.6087 37.2502 36.8125V44.25C37.2502 44.7141 37.4346 45.1593 37.7628 45.4874C38.091 45.8156 38.5361 46 39.0002 46H40.7502V54.1594C40.7491 55.168 40.9975 56.1613 41.4734 57.0506C41.9493 57.94 42.6379 58.6977 43.4778 59.2563L45.4943 60.6005L42.927 65.7345L36.4004 69.3605L38.1001 72.42L41.1672 70.7159L39.089 76.9479C38.9883 77.2501 38.972 77.5741 39.0418 77.8849C39.1116 78.1957 39.2649 78.4816 39.4852 78.7116C39.7056 78.9417 39.9845 79.1073 40.292 79.1905C40.5995 79.2738 40.9239 79.2715 41.2302 79.1839L53.0002 75.82L64.769 79.1826C65.0753 79.2702 65.3997 79.2725 65.7072 79.1892C66.0147 79.106 66.2936 78.9404 66.5139 78.7103C66.7342 78.4802 66.8876 78.1944 66.9574 77.8836C67.0272 77.5728 67.0113 77.2488 66.9106 76.9466ZM63.5002 35.5875V37.25H58.2502V32.3848L61.39 33.0126C61.9845 33.1329 62.5193 33.4549 62.9038 33.9241C63.2884 34.3933 63.499 34.9809 63.5002 35.5875ZM40.7502 36.8125C40.7517 35.5366 41.2592 34.3134 42.1614 33.4111C43.0636 32.5089 44.2868 32.0014 45.5627 32H54.7502V37.6875C54.7488 38.9634 54.2413 40.1867 53.3391 41.0889C52.4369 41.9911 51.2136 42.4986 49.9377 42.5H40.7502V36.8125ZM44.2502 54.1594V46H49.9377C51.6032 45.9982 53.2298 45.4969 54.6075 44.561C55.9851 43.6251 57.0504 42.2976 57.6657 40.75H61.7502V54.1594C61.7507 54.5916 61.6442 55.0173 61.4402 55.3984C61.2362 55.7795 60.9412 56.1042 60.5812 56.3436L54.4562 60.427C54.0254 60.7153 53.5186 60.8691 53.0002 60.8691C52.4818 60.8691 51.9751 60.7153 51.5442 60.427L45.4192 56.3436C45.0593 56.1042 44.7642 55.7795 44.5603 55.3984C44.3563 55.0173 44.2498 54.5916 44.2502 54.1594ZM49.6028 63.339C50.6081 64.0119 51.7906 64.3711 53.0002 64.3711C54.2099 64.3711 55.3924 64.0119 56.3976 63.339L57.5715 62.5565L59.5525 66.5181L53.0002 71.7589L46.448 66.5172L48.429 62.5557L49.6028 63.339ZM43.4597 74.9067L45.1167 69.9352L49.2596 73.2486L43.4597 74.9067ZM56.7409 73.2495L60.8838 69.9352L62.5408 74.9067L56.7409 73.2495Z" fill="#FD435A"/>
<path d="M19.75 38.9999C23.5573 38.9999 27.2791 37.871 30.4447 35.7557C33.6104 33.6405 36.0777 30.6341 37.5347 27.1166C38.9917 23.5991 39.3729 19.7286 38.6301 15.9945C37.8873 12.2603 36.054 8.8303 33.3618 6.13814C30.6696 3.44598 27.2396 1.6126 23.5055 0.869831C19.7714 0.127065 15.9008 0.50828 12.3833 1.96527C8.86587 3.42225 5.85943 5.88957 3.74421 9.05522C1.62899 12.2209 0.5 15.9427 0.5 19.7499C0.50579 24.8536 2.53577 29.7465 6.14459 33.3554C9.75341 36.9642 14.6464 38.9942 19.75 38.9999ZM19.75 3.99995C22.8651 3.99995 25.9102 4.92367 28.5002 6.6543C31.0903 8.38493 33.109 10.8447 34.3011 13.7227C35.4932 16.6006 35.8051 19.7674 35.1974 22.8226C34.5897 25.8778 33.0896 28.6842 30.8869 30.8869C28.6843 33.0896 25.8779 34.5896 22.8227 35.1973C19.7675 35.805 16.6007 35.4931 13.7227 34.3011C10.8448 33.109 8.38499 31.0903 6.65435 28.5002C4.92372 25.9101 4 22.865 4 19.7499C4.00469 15.5742 5.66557 11.5709 8.61825 8.61819C11.5709 5.66551 15.5743 4.00464 19.75 3.99995Z" fill="black"/>
<path d="M18 30.25H21.5V28.5C22.8924 28.5 24.2277 27.9469 25.2123 26.9623C26.1969 25.9777 26.75 24.6424 26.75 23.25C26.75 21.8576 26.1969 20.5223 25.2123 19.5377C24.2277 18.5531 22.8924 18 21.5 18H18C17.5359 18 17.0908 17.8156 16.7626 17.4874C16.4344 17.1592 16.25 16.7141 16.25 16.25C16.25 15.7859 16.4344 15.3408 16.7626 15.0126C17.0908 14.6844 17.5359 14.5 18 14.5H26.75V11H21.5V9.25H18V11C16.6076 11 15.2723 11.5531 14.2877 12.5377C13.3031 13.5223 12.75 14.8576 12.75 16.25C12.75 17.6424 13.3031 18.9777 14.2877 19.9623C15.2723 20.9469 16.6076 21.5 18 21.5H21.5C21.9641 21.5 22.4092 21.6844 22.7374 22.0126C23.0656 22.3408 23.25 22.7859 23.25 23.25C23.25 23.7141 23.0656 24.1592 22.7374 24.4874C22.4092 24.8156 21.9641 25 21.5 25H12.75V28.5H18V30.25Z" fill="black"/>
<path d="M86.25 38.9999C90.0573 38.9999 93.7791 37.871 96.9447 35.7557C100.11 33.6405 102.578 30.6341 104.035 27.1166C105.492 23.5991 105.873 19.7286 105.13 15.9945C104.387 12.2603 102.554 8.8303 99.8618 6.13814C97.1696 3.44598 93.7396 1.6126 90.0055 0.869831C86.2713 0.127065 82.4008 0.50828 78.8833 1.96527C75.3659 3.42225 72.3594 5.88957 70.2442 9.05522C68.129 12.2209 67 15.9427 67 19.7499C67.0058 24.8536 69.0358 29.7465 72.6446 33.3554C76.2534 36.9642 81.1464 38.9942 86.25 38.9999ZM86.25 3.99995C89.365 3.99995 92.4102 4.92367 95.0002 6.6543C97.5903 8.38493 99.609 10.8447 100.801 13.7227C101.993 16.6006 102.305 19.7674 101.697 22.8226C101.09 25.8778 99.5896 28.6842 97.3869 30.8869C95.1842 33.0896 92.3779 34.5896 89.3227 35.1973C86.2675 35.805 83.1007 35.4931 80.2227 34.3011C77.3448 33.109 74.885 31.0903 73.1544 28.5002C71.4237 25.9101 70.5 22.865 70.5 19.7499C70.5047 15.5742 72.1656 11.5709 75.1182 8.61819C78.0709 5.66551 82.0743 4.00464 86.25 3.99995Z" fill="black"/>
<path d="M84.5 22.7128L97.3645 17.8887C97.6981 17.7637 97.9856 17.5398 98.1885 17.247C98.3915 16.9542 98.5002 16.6064 98.5002 16.2501C98.5002 15.8938 98.3915 15.546 98.1885 15.2532C97.9856 14.9604 97.6981 14.7365 97.3645 14.6114L83.3645 9.36143C83.0997 9.26214 82.8148 9.22849 82.5342 9.26336C82.2536 9.29823 81.9856 9.40058 81.7532 9.56165C81.5208 9.72273 81.3308 9.93772 81.1997 10.1882C81.0685 10.4387 81 10.7173 81 11.0001V30.2501H84.5V22.7128ZM84.5 18.9748V13.5253L91.766 16.2501L84.5 18.9748Z" fill="black"/>
<path d="M86.25 67C82.4427 67 78.7209 68.129 75.5553 70.2442C72.3896 72.3594 69.9223 75.3659 68.4653 78.8833C67.0083 82.4008 66.6271 86.2713 67.3699 90.0055C68.1127 93.7396 69.946 97.1696 72.6382 99.8618C75.3304 102.554 78.7604 104.387 82.4945 105.13C86.2287 105.873 90.0992 105.492 93.6167 104.035C97.1341 102.578 100.141 100.11 102.256 96.9447C104.371 93.7791 105.5 90.0573 105.5 86.25C105.494 81.1464 103.464 76.2534 99.8554 72.6446C96.2466 69.0358 91.3536 67.0058 86.25 67ZM86.25 102C83.135 102 80.0898 101.076 77.4998 99.3456C74.9097 97.615 72.891 95.1552 71.6989 92.2773C70.5068 89.3993 70.1949 86.2325 70.8026 83.1773C71.4104 80.1221 72.9104 77.3157 75.1131 75.1131C77.3158 72.9104 80.1221 71.4103 83.1773 70.8026C86.2325 70.1949 89.3993 70.5068 92.2773 71.6989C95.1552 72.891 97.615 74.9097 99.3456 77.4998C101.076 80.0898 102 83.1349 102 86.25C101.995 90.4257 100.334 94.4291 97.3818 97.3817C94.4291 100.334 90.4257 101.995 86.25 102Z" fill="black"/>
<path d="M94.4349 82.7501L91.375 75.1002L88.1253 76.4L90.6654 82.7501H81.8349L84.375 76.4L81.1253 75.1002L78.0654 82.7501H75.7501C75.4728 82.75 75.1995 82.8159 74.9526 82.9423C74.7058 83.0686 74.4925 83.2518 74.3303 83.4768C74.1682 83.7017 74.0618 83.962 74.02 84.2361C73.9782 84.5103 74.0021 84.7904 74.0898 85.0535L77.5898 95.5535C77.706 95.902 77.9288 96.205 78.2268 96.4198C78.5248 96.6345 78.8828 96.7501 79.2501 96.7501H93.2501C93.6174 96.7501 93.9755 96.6345 94.2734 96.4198C94.5714 96.205 94.7943 95.902 94.9104 95.5535L98.4104 85.0535C98.4981 84.7904 98.5221 84.5103 98.4803 84.2361C98.4384 83.962 98.3321 83.7017 98.1699 83.4768C98.0078 83.2518 97.7945 83.0686 97.5476 82.9423C97.3008 82.8159 97.0274 82.75 96.7501 82.7501H94.4349ZM91.9888 93.2501H80.5114L78.1783 86.2501H94.322L91.9888 93.2501Z" fill="black"/>
<path d="M19.75 67C15.9427 67 12.2209 68.129 9.05528 70.2442C5.88964 72.3594 3.42231 75.3659 1.96533 78.8833C0.508341 82.4008 0.127127 86.2713 0.869892 90.0055C1.61266 93.7396 3.44604 97.1696 6.1382 99.8618C8.83036 102.554 12.2604 104.387 15.9945 105.13C19.7287 105.873 23.5992 105.492 27.1167 104.035C30.6341 102.578 33.6406 100.11 35.7558 96.9447C37.871 93.7791 39 90.0573 39 86.25C38.9942 81.1464 36.9642 76.2534 33.3554 72.6446C29.7466 69.0358 24.8536 67.0058 19.75 67ZM19.75 102C16.635 102 13.5899 101.076 10.9998 99.3456C8.4097 97.615 6.39099 95.1552 5.19891 92.2773C4.00683 89.3993 3.69492 86.2325 4.30264 83.1773C4.91036 80.1221 6.4104 77.3157 8.61308 75.1131C10.8158 72.9104 13.6221 71.4103 16.6773 70.8026C19.7325 70.1949 22.8993 70.5068 25.7773 71.6989C28.6552 72.891 31.115 74.9097 32.8457 77.4998C34.5763 80.0898 35.5 83.1349 35.5 86.25C35.4953 90.4257 33.8344 94.4291 30.8818 97.3817C27.9291 100.334 23.9257 101.995 19.75 102Z" fill="black"/>
<path d="M24.1071 80.5637L21.2852 75.0763C21.1381 74.7903 20.9151 74.5503 20.6405 74.3828C20.366 74.2152 20.0505 74.1266 19.7289 74.1266C19.4073 74.1266 19.0919 74.2152 18.8173 74.3828C18.5428 74.5503 18.3197 74.7903 18.1726 75.0763L15.3507 80.5639L9.01136 81.4481C8.68413 81.4938 8.37652 81.6312 8.12411 81.8444C7.87171 82.0576 7.68482 82.3379 7.58507 82.6529C7.48532 82.9679 7.47678 83.3047 7.56045 83.6243C7.64411 83.944 7.81655 84.2334 8.05783 84.4592L12.601 88.7095L11.532 94.6923C11.4748 95.0123 11.5079 95.3419 11.6275 95.6441C11.7472 95.9464 11.9486 96.2093 12.2093 96.4035C12.47 96.5977 12.7796 96.7154 13.1035 96.7435C13.4273 96.7716 13.7526 96.709 14.0428 96.5626L19.7288 93.6935L25.4154 96.5624C25.7057 96.7088 26.031 96.7715 26.3549 96.7435C26.6787 96.7154 26.9884 96.5977 27.2491 96.4035C27.5098 96.2093 27.7113 95.9463 27.831 95.644C27.9506 95.3417 27.9837 95.0121 27.9265 94.6921L26.8572 88.7093L31.4006 84.4589C31.6419 84.2332 31.8144 83.9437 31.898 83.624C31.9816 83.3044 31.9731 82.9675 31.8733 82.6525C31.7735 82.3375 31.5865 82.0572 31.3341 81.844C31.0816 81.6308 30.7739 81.4935 30.4467 81.4478L24.1071 80.5637ZM23.7713 86.8031C23.5582 87.0025 23.3984 87.252 23.3063 87.529C23.2143 87.8059 23.193 88.1015 23.2443 88.3888L23.8645 91.8597L20.5176 90.1707C20.2732 90.0474 20.0032 89.9831 19.7293 89.9831C19.4555 89.9831 19.1855 90.0474 18.9411 90.1707L15.5935 91.8597L16.2137 88.3888C16.265 88.1015 16.2437 87.8059 16.1516 87.5289C16.0595 87.252 15.8997 87.0024 15.6865 86.8031L13.1271 84.408L16.7343 83.9048C17.0122 83.8661 17.2766 83.7611 17.5054 83.5987C17.7341 83.4363 17.9205 83.2214 18.0488 82.9719L19.7297 79.7033L21.4105 82.9719C21.5388 83.2214 21.7252 83.4363 21.954 83.5987C22.1827 83.7611 22.4472 83.8661 22.725 83.9048L26.3322 84.408L23.7713 86.8031Z" fill="black"/>
</svg>
