<svg width="98" height="112" viewBox="0 0 98 112" fill="none" xmlns="http://www.w3.org/2000/svg">
<path d="M65.625 61.2507C64.6586 61.2507 63.875 62.0342 63.875 63.0007V94.5H4.375V17.5H23.625C24.5914 17.5 25.375 16.7164 25.375 15.75C25.375 14.7836 24.5914 14 23.625 14H4.375V12.25C4.375 7.42525 8.30025 3.5 13.125 3.5H55.125C56.0914 3.5 56.875 2.71644 56.875 1.75C56.875 0.783562 56.0914 0 55.125 0H13.125C6.37044 0 0.875 5.49544 0.875 12.25V99.75C0.875 106.505 6.37044 112 13.125 112H55.125C61.8796 112 67.375 106.505 67.375 99.75V63.0007C67.375 62.0342 66.5914 61.2507 65.625 61.2507ZM55.125 108.5H13.125C8.30025 108.5 4.375 104.575 4.375 99.75V98H63.875V99.75C63.875 104.575 59.9497 108.5 55.125 108.5Z" fill="black"/>
<path d="M37.625 101.5H30.625C29.6586 101.5 28.875 102.284 28.875 103.25C28.875 104.216 29.6586 105 30.625 105H37.625C38.5914 105 39.375 104.216 39.375 103.25C39.375 102.284 38.5914 101.5 37.625 101.5Z" fill="black"/>
<path d="M22.3869 7.51188C22.0609 7.83781 21.875 8.29062 21.875 8.75C21.875 9.20937 22.0609 9.66219 22.3869 9.98812C22.7128 10.3141 23.1634 10.5 23.625 10.5C24.0866 10.5 24.5372 10.3141 24.8631 9.98812C25.1891 9.66219 25.375 9.21156 25.375 8.75C25.375 8.28844 25.1891 7.83781 24.8631 7.51188C24.5372 7.18594 24.0866 7 23.625 7C23.1634 7 22.7128 7.18594 22.3869 7.51188Z" fill="black"/>
<path d="M39.375 29.75H49.875C50.8414 29.75 51.625 28.9664 51.625 28C51.625 27.0336 50.8414 26.25 49.875 26.25H39.375C38.4086 26.25 37.625 27.0336 37.625 28C37.625 28.9664 38.4086 29.75 39.375 29.75Z" fill="black"/>
<path d="M84.875 26.25H56.875C55.9086 26.25 55.125 27.0336 55.125 28C55.125 28.9664 55.9086 29.75 56.875 29.75H84.875C85.8414 29.75 86.625 28.9664 86.625 28C86.625 27.0336 85.8414 26.25 84.875 26.25Z" fill="black"/>
<path d="M84.875 35H74.375C73.4086 35 72.625 35.7836 72.625 36.75C72.625 37.7164 73.4086 38.5 74.375 38.5H84.875C85.8414 38.5 86.625 37.7164 86.625 36.75C86.625 35.7836 85.8414 35 84.875 35Z" fill="black"/>
<path d="M39.375 38.5H67.375C68.3414 38.5 69.125 37.7164 69.125 36.75C69.125 35.7836 68.3414 35 67.375 35H39.375C38.4086 35 37.625 35.7836 37.625 36.75C37.625 37.7164 38.4086 38.5 39.375 38.5Z" fill="black"/>
<path d="M84.875 17.5H39.375C38.4086 17.5 37.625 18.2836 37.625 19.25C37.625 20.2164 38.4086 21 39.375 21H84.875C85.8414 21 86.625 20.2164 86.625 19.25C86.625 18.2836 85.8414 17.5 84.875 17.5Z" fill="black"/>
<path d="M84.875 43.75H39.375C38.4086 43.75 37.625 44.5336 37.625 45.5C37.625 46.4664 38.4086 47.25 39.375 47.25H84.875C85.8414 47.25 86.625 46.4664 86.625 45.5C86.625 44.5336 85.8414 43.75 84.875 43.75Z" fill="black"/>
<path d="M84.875 7H39.375C32.6204 7 27.125 12.4954 27.125 19.25V45.5C27.125 51.6607 31.6962 56.7737 37.625 57.6253V64.0251C37.625 65.4458 38.4731 66.715 39.7856 67.2586C40.2213 67.4391 40.677 67.5268 41.1287 67.5268C42.0376 67.5268 42.9288 67.1711 43.5999 66.5L52.3499 57.75H84.875C91.6296 57.75 97.125 52.2546 97.125 45.5V19.25C97.125 12.4954 91.6296 7 84.875 7ZM93.625 45.5C93.625 50.3247 89.6997 54.25 84.875 54.25H51.625C51.1608 54.25 50.7157 54.4344 50.3875 54.7625L41.125 64.0237V56C41.125 55.0336 40.3414 54.25 39.375 54.25C34.5503 54.25 30.625 50.3247 30.625 45.5V19.25C30.625 14.4252 34.5503 10.5 39.375 10.5H84.875C89.6997 10.5 93.625 14.4252 93.625 19.25V45.5Z" fill="#FD435A"/>
</svg>
