<svg width="112" height="112" viewBox="0 0 112 112" fill="none" xmlns="http://www.w3.org/2000/svg">
<path d="M102.738 21.5125L85.2375 4.01248C84.9093 3.68435 84.4641 3.50001 84 3.5H40.25C38.3941 3.50212 36.6149 4.2403 35.3026 5.5526C33.9903 6.86489 33.2521 8.64414 33.25 10.5V61.25H36.75V10.5C36.7511 9.57207 37.1202 8.68245 37.7763 8.0263C38.4324 7.37015 39.3221 7.00106 40.25 7H82.25V17.5C82.2521 19.3559 82.9903 21.1351 84.3026 22.4474C85.6149 23.7597 87.3941 24.4979 89.25 24.5H99.75V101.5C99.7489 102.428 99.3799 103.318 98.7237 103.974C98.0676 104.63 97.1779 104.999 96.25 105H40.25C39.3892 105.001 38.5585 104.683 37.9172 104.109L35.5828 106.717C36.8657 107.866 38.5277 108.501 40.25 108.5H96.25C98.1059 108.498 99.8851 107.76 101.197 106.447C102.51 105.135 103.248 103.356 103.25 101.5V22.75C103.25 22.2859 103.066 21.8407 102.738 21.5125ZM85.75 17.5V9.47482L97.2752 21H89.25C88.3221 20.9989 87.4324 20.6298 86.7763 19.9737C86.1202 19.3176 85.7511 18.4279 85.75 17.5Z" fill="black"/>
<path d="M40.25 10.5H47.25V14H40.25V10.5Z" fill="black"/>
<path d="M50.75 10.5H63V14H50.75V10.5Z" fill="black"/>
<path d="M40.25 17.5H50.75V21H40.25V17.5Z" fill="black"/>
<path d="M40.25 28H52.5V31.5H40.25V28Z" fill="black"/>
<path d="M56 28H70V31.5H56V28Z" fill="black"/>
<path d="M40.25 35H56V38.5H40.25V35Z" fill="black"/>
<path d="M49 42H66.5V45.5H49V42Z" fill="black"/>
<path d="M70 42H85.75V45.5H70V42Z" fill="black"/>
<path d="M89.25 42H96.25V45.5H89.25V42Z" fill="black"/>
<path d="M40.25 49H57.75V52.5H40.25V49Z" fill="black"/>
<path d="M61.25 49H77V52.5H61.25V49Z" fill="black"/>
<path d="M80.5 49H96.25V52.5H80.5V49Z" fill="black"/>
<path d="M40.25 56H66.5V59.5H40.25V56Z" fill="black"/>
<path d="M70 56H85.75V59.5H70V56Z" fill="black"/>
<path d="M89.25 56H96.25V59.5H89.25V56Z" fill="black"/>
<path d="M50.75 89.25C50.2859 89.25 49.8408 89.4344 49.5126 89.7626C49.1844 90.0908 49 90.5359 49 91V101.5C49 101.964 49.1844 102.409 49.5126 102.737C49.8408 103.066 50.2859 103.25 50.75 103.25H61.25C61.7141 103.25 62.1592 103.066 62.4874 102.737C62.8156 102.409 63 101.964 63 101.5V91C63 90.5359 62.8156 90.0908 62.4874 89.7626C62.1592 89.4344 61.7141 89.25 61.25 89.25H50.75ZM59.5 99.75H52.5V92.75H59.5V99.75Z" fill="black"/>
<path d="M66.5 101.5C66.5 101.964 66.6844 102.409 67.0126 102.737C67.3408 103.066 67.7859 103.25 68.25 103.25H78.75C79.2141 103.25 79.6592 103.066 79.9874 102.737C80.3156 102.409 80.5 101.964 80.5 101.5V82.25C80.5 81.7859 80.3156 81.3408 79.9874 81.0126C79.6592 80.6844 79.2141 80.5 78.75 80.5H68.25C67.7859 80.5 67.3408 80.6844 67.0126 81.0126C66.6844 81.3408 66.5 81.7859 66.5 82.25V101.5ZM70 84H77V99.75H70V84Z" fill="black"/>
<path d="M85.75 103.25H96.25C96.7141 103.25 97.1592 103.066 97.4874 102.737C97.8156 102.409 98 101.964 98 101.5V75.25C98 74.7859 97.8156 74.3408 97.4874 74.0126C97.1592 73.6844 96.7141 73.5 96.25 73.5H85.75C85.2859 73.5 84.8408 73.6844 84.5126 74.0126C84.1844 74.3408 84 74.7859 84 75.25V101.5C84 101.964 84.1844 102.409 84.5126 102.737C84.8408 103.066 85.2859 103.25 85.75 103.25ZM87.5 77H94.5V99.75H87.5V77Z" fill="black"/>
<path d="M12.25 84C12.2549 79.9531 13.8154 76.0631 16.6087 73.1349C19.402 70.2067 23.2141 68.4645 27.2562 68.2689L25.0125 70.5125L27.4875 72.9875L32.7375 67.7375C33.0657 67.4093 33.2501 66.9641 33.2501 66.5C33.2501 66.0358 33.0657 65.5907 32.7375 65.2625L27.4875 60.0125L25.0125 62.4875L27.2896 64.7645C23.1157 64.9189 19.1052 66.4266 15.8633 69.0601C12.6213 71.6936 10.3238 75.31 9.3173 79.3636C8.31082 83.4173 8.64999 87.6884 10.2836 91.5324C11.9173 95.3764 14.7568 98.5849 18.3737 100.674L20.1263 97.6441C17.7353 96.2568 15.7499 94.2669 14.3679 91.8728C12.9859 89.4788 12.2556 86.7643 12.25 84Z" fill="#FD435A"/>
<path d="M47.2501 84C47.2434 80.622 46.3513 77.3048 44.6627 74.3792C42.9741 71.4536 40.548 69.0218 37.6263 67.3263L35.8738 70.3559C38.8215 72.0576 41.1388 74.6684 42.4785 77.7973C43.8183 80.9263 44.1085 84.405 43.3056 87.7127C42.5028 91.0203 40.6501 93.9789 38.0251 96.1455C35.4 98.3121 32.1437 99.5701 28.7438 99.7311L30.9876 97.4875L28.5125 95.0125L23.2625 100.262C22.9344 100.591 22.75 101.036 22.75 101.5C22.75 101.964 22.9344 102.409 23.2625 102.738L28.5125 107.988L30.9876 105.512L28.7105 103.235C33.6874 103.046 38.3978 100.937 41.8541 97.3514C45.3103 93.7653 47.2441 88.9805 47.2501 84Z" fill="#FD435A"/>
<path d="M29.2377 85.2375C29.5659 84.9093 29.7502 84.4641 29.7502 84V75.25H26.2502V83.2752L21.5127 88.0125L23.9877 90.4875L29.2377 85.2375Z" fill="#FD435A"/>
</svg>
