<svg width="111" height="112" viewBox="0 0 111 112" fill="none" xmlns="http://www.w3.org/2000/svg">
<path d="M102.682 0H16.8158C12.6923 0 9.34912 3.3432 9.34912 7.46667V52.2667H13.0825V7.46667C13.0825 5.40447 14.7536 3.73333 16.8158 3.73333H102.682C104.745 3.73333 106.416 5.40447 106.416 7.46667V82.1333C106.416 84.1955 104.745 85.8667 102.682 85.8667H63.4824V89.6H102.682C106.806 89.6 110.149 86.2568 110.149 82.1333V7.46667C110.149 3.3432 106.806 0 102.682 0Z" fill="black"/>
<path d="M16.8154 7.46655H20.5488V11.1999H16.8154V7.46655Z" fill="black"/>
<path d="M24.2822 7.46655H28.0156V11.1999H24.2822V7.46655Z" fill="black"/>
<path d="M31.749 7.46655H35.4824V11.1999H31.749V7.46655Z" fill="black"/>
<path d="M16.8154 14.9335H102.682V18.6668H16.8154V14.9335Z" fill="black"/>
<path d="M16.8154 44.8001C16.8154 45.8314 17.6508 46.6667 18.6821 46.6667H41.0821C42.1134 46.6667 42.9488 45.8314 42.9488 44.8001V29.8667C42.9488 28.8354 42.1134 28.0001 41.0821 28.0001H32.5216L29.3352 24.8137C28.9852 24.4637 28.5106 24.2667 28.0154 24.2667H18.6821C17.6508 24.2667 16.8154 25.1021 16.8154 26.1334V44.8001ZM20.5488 28.0001H27.2426L30.429 31.1865C30.779 31.5365 31.2536 31.7334 31.7488 31.7334H39.2154V42.9334H20.5488V28.0001Z" fill="black"/>
<path d="M72.8155 29.8667C72.8155 28.8354 71.9801 28.0001 70.9488 28.0001H62.3883L59.2019 24.8137C58.8519 24.4637 58.3773 24.2667 57.8821 24.2667H48.5488C47.5175 24.2667 46.6821 25.1021 46.6821 26.1334V44.8001C46.6821 45.8314 47.5175 46.6667 48.5488 46.6667H70.9488C71.9801 46.6667 72.8155 45.8314 72.8155 44.8001V29.8667ZM69.0821 42.9334H50.4155V28.0001H57.1093L60.2957 31.1865C60.6457 31.5365 61.1203 31.7334 61.6155 31.7334H69.0821V42.9334Z" fill="black"/>
<path d="M102.682 29.8667C102.682 28.8354 101.847 28.0001 100.816 28.0001H92.255L89.0686 24.8137C88.7186 24.4637 88.244 24.2667 87.7488 24.2667H78.4155C77.3842 24.2667 76.5488 25.1021 76.5488 26.1334V44.8001C76.5488 45.8314 77.3842 46.6667 78.4155 46.6667H100.816C101.847 46.6667 102.682 45.8314 102.682 44.8001V29.8667ZM98.9488 42.9334H80.2822V28.0001H86.976L90.1624 31.1865C90.5124 31.5365 90.987 31.7334 91.4822 31.7334H98.9488V42.9334Z" fill="black"/>
<path d="M63.4822 72.8001V76.5334H70.9489C71.9802 76.5334 72.8156 75.6981 72.8156 74.6668V59.7334C72.8156 58.7021 71.9802 57.8668 70.9489 57.8668H62.3884L59.202 54.6804C58.852 54.3304 58.3774 54.1334 57.8822 54.1334H52.2822V57.8668H57.1094L60.2958 61.0532C60.6458 61.4032 61.1204 61.6001 61.6156 61.6001H69.0822V72.8001H63.4822Z" fill="black"/>
<path d="M100.816 57.8668H92.255L89.0686 54.6804C88.7186 54.3304 88.244 54.1334 87.7488 54.1334H78.4155C77.3842 54.1334 76.5488 54.9688 76.5488 56.0001V74.6668C76.5488 75.6981 77.3842 76.5334 78.4155 76.5334H100.816C101.847 76.5334 102.682 75.6981 102.682 74.6668V59.7334C102.682 58.7021 101.847 57.8668 100.816 57.8668ZM98.9488 72.8001H80.2822V57.8668H86.976L90.1624 61.0532C90.5124 61.4032 90.987 61.6001 91.4822 61.6001H98.9488V72.8001Z" fill="black"/>
<path d="M6.81589 74.6667H1.88229C0.850959 74.6667 0.015625 75.5021 0.015625 76.5334V87.7334C0.015625 88.7647 0.850959 89.6001 1.88229 89.6001H6.81589C7.21163 90.8255 7.70443 92.0179 8.29056 93.1654L4.80363 96.6519C4.07563 97.3813 4.07563 98.5624 4.80363 99.2918L12.7239 107.212C13.4533 107.94 14.6344 107.94 15.3638 107.212L18.8503 103.725C19.9978 104.311 21.1902 104.804 22.4156 105.2V110.133C22.4156 111.165 23.251 112 24.2823 112H35.4823C36.5136 112 37.349 111.165 37.349 110.133V105.2C38.5744 104.804 39.7668 104.311 40.9143 103.725L44.4008 107.212C45.1302 107.94 46.3113 107.94 47.0407 107.212L54.961 99.2918C55.689 98.5624 55.689 97.3813 54.961 96.6519L51.474 93.1654C52.0602 92.0179 52.553 90.8255 52.9487 89.6001H57.8823C58.9136 89.6001 59.749 88.7647 59.749 87.7334V76.5334C59.749 75.5021 58.9136 74.6667 57.8823 74.6667H52.9487C52.553 73.4413 52.0602 72.2489 51.474 71.1014L54.961 67.6149C55.689 66.8855 55.689 65.7044 54.961 64.975L47.0407 57.0547C46.3113 56.3267 45.1302 56.3267 44.4008 57.0547L40.9143 60.5417C39.7668 59.9555 38.5744 59.4627 37.349 59.067V54.1334C37.349 53.1021 36.5136 52.2667 35.4823 52.2667H24.2823C23.251 52.2667 22.4156 53.1021 22.4156 54.1334V59.067C21.1902 59.4627 19.9978 59.9555 18.8503 60.5417L15.3638 57.0547C14.6344 56.3267 13.4533 56.3267 12.7239 57.0547L4.80363 64.975C4.07563 65.7044 4.07563 66.8855 4.80363 67.6149L8.29056 71.1014C8.13563 71.4038 7.98629 71.7123 7.84396 72.0212C7.45009 72.8817 7.10663 73.7656 6.81589 74.6667ZM10.0247 77.0001C10.5012 75.1465 11.2362 73.3694 12.2087 71.7211C12.6413 70.9885 12.5223 70.0551 11.9212 69.4531L8.76283 66.2952L14.0441 61.0139L17.202 64.1723C17.804 64.7734 18.7374 64.8924 19.47 64.4598C21.1183 63.4877 22.8963 62.7527 24.749 62.2758C25.5726 62.063 26.149 61.3201 26.149 60.4689V56.0001H33.6156V60.4689C33.6156 61.3201 34.192 62.063 35.0156 62.2758C36.8683 62.7527 38.6463 63.4877 40.2946 64.4598C41.0272 64.8924 41.9606 64.7734 42.5626 64.1723L45.7205 61.0139L51.0018 66.2952L47.8434 69.4531C47.2423 70.0551 47.1233 70.9885 47.5559 71.7211C48.528 73.3694 49.263 75.1474 49.7399 77.0001C49.9527 77.8237 50.6956 78.4001 51.5468 78.4001H56.0156V85.8667H51.5468C50.6956 85.8667 49.9527 86.4431 49.7399 87.2667C49.263 89.1194 48.528 90.8974 47.5559 92.5457C47.1233 93.2783 47.2423 94.2117 47.8434 94.8137L51.0018 97.9716L45.7205 103.253L42.5626 100.094C41.9606 99.4934 41.0272 99.3744 40.2946 99.807C38.6463 100.779 36.8683 101.514 35.0156 101.991C34.192 102.204 33.6156 102.947 33.6156 103.798V108.267H26.149V103.798C26.149 102.947 25.5726 102.204 24.749 101.991C22.8963 101.514 21.1183 100.779 19.47 99.807C18.7374 99.3744 17.804 99.4934 17.202 100.094L14.0441 103.253L8.76283 97.9716L11.9212 94.8137C12.5223 94.2117 12.6413 93.2783 12.2087 92.5457C11.2366 90.8974 10.5016 89.1194 10.0247 87.2667C9.8119 86.4431 9.06896 85.8667 8.21776 85.8667H3.74896V78.4001H8.21776C9.06896 78.4001 9.8119 77.8237 10.0247 77.0001Z" fill="#FD435A"/>
<path d="M29.8821 95.2002C37.0991 95.2002 42.9488 89.3505 42.9488 82.1335C42.9488 74.9166 37.0991 69.0669 29.8821 69.0669C22.6651 69.0669 16.8154 74.9166 16.8154 82.1335C16.8238 89.3463 22.6693 95.1918 29.8821 95.2002ZM29.8821 72.8002C35.0364 72.8002 39.2154 76.9792 39.2154 82.1335C39.2154 87.2879 35.0364 91.4669 29.8821 91.4669C24.7278 91.4669 20.5488 87.2879 20.5488 82.1335C20.5553 76.9816 24.7301 72.8068 29.8821 72.8002Z" fill="#FD435A"/>
</svg>
