<svg width="33" height="33" viewBox="0 0 33 33" fill="none" xmlns="http://www.w3.org/2000/svg">
<path d="M10.8281 1.54688H9.79688V7.21875H10.8281V1.54688Z" fill="#FD435A"/>
<path d="M12.8906 1.54688H11.8594V6.1875H12.8906V1.54688Z" fill="#FD435A"/>
<path d="M15.9844 1.54688H14.9531H13.9219V6.1875H14.9531H15.9844V1.54688Z" fill="#FD435A"/>
<path d="M18.0469 1.54688H17.0156V6.1875H18.0469V1.54688Z" fill="#FD435A"/>
<path d="M21.1406 1.54688H20.1094H19.0781V6.1875H20.1094H21.1406V1.54688Z" fill="#FD435A"/>
<path d="M23.2031 1.54688H22.1719V7.21875H23.2031V1.54688Z" fill="#FD435A"/>
<path d="M25.2656 1.54688H24.2344V7.21875H25.2656V1.54688Z" fill="#FD435A"/>
<path d="M8.76562 1.54688H7.73438V7.21875H8.76562V1.54688Z" fill="#FD435A"/>
<path d="M6.70302 9.79688V10.9787C6.70079 11.6494 6.8865 12.3074 7.2391 12.878C7.5917 13.4486 8.09708 13.909 8.69798 14.207L10.3248 15.0207C11.0977 15.4035 11.7479 15.9954 12.2014 16.7291C12.6549 17.4628 12.8937 18.3089 12.8905 19.1715V24.4112C12.8876 26.3379 13.6261 28.1918 14.953 29.5886V31.4531C14.953 31.5899 15.0073 31.721 15.104 31.8177C15.2007 31.9144 15.3319 31.9688 15.4686 31.9688H17.5311C17.6679 31.9688 17.7991 31.9144 17.8957 31.8177C17.9924 31.721 18.0468 31.5899 18.0468 31.4531V29.5886C19.3737 28.1918 20.1122 26.3379 20.1093 24.4112V19.1715C20.1061 18.3089 20.3449 17.4628 20.7984 16.7291C21.2519 15.9954 21.9021 15.4035 22.675 15.0207L24.3018 14.207C24.9027 13.909 25.4081 13.4486 25.7607 12.878C26.1133 12.3074 26.299 11.6494 26.2968 10.9787V9.79688C26.2968 9.38662 26.1338 8.99316 25.8437 8.70307C25.5536 8.41297 25.1602 8.25 24.7499 8.25H8.2499C7.83964 8.25 7.44619 8.41297 7.15609 8.70307C6.866 8.99316 6.70302 9.38662 6.70302 9.79688ZM17.0155 30.9375H15.9843V29.9062H17.0155V30.9375ZM23.8403 13.2846L22.2135 14.0982C21.269 14.5663 20.4745 15.2897 19.9203 16.1864C19.366 17.0832 19.0743 18.1173 19.078 19.1715V24.4112C19.0826 26.0702 18.451 27.6678 17.313 28.875H15.6868C14.5488 27.6678 13.9171 26.0702 13.9218 24.4112V19.1715C13.9255 18.1173 13.6338 17.0832 13.0795 16.1864C12.5253 15.2897 11.7308 14.5663 10.7863 14.0982L9.15946 13.2846C8.78586 13.0994 8.4631 12.8258 8.21923 12.4876C7.97536 12.1494 7.81774 11.7567 7.76005 11.3438H25.2397C25.1821 11.7567 25.0244 12.1494 24.7806 12.4876C24.5367 12.8258 24.2139 13.0994 23.8403 13.2846ZM8.2499 9.28125H24.7499C24.8866 9.28125 25.0178 9.33557 25.1145 9.43227C25.2112 9.52897 25.2655 9.66012 25.2655 9.79688V10.3125H7.73427V9.79688C7.73427 9.66012 7.7886 9.52897 7.8853 9.43227C7.98199 9.33557 8.11315 9.28125 8.2499 9.28125Z" fill="black"/>
</svg>
