<svg width="60" height="60" viewBox="0 0 60 60" fill="none" xmlns="http://www.w3.org/2000/svg">
<path d="M21.0279 18.4984L30 27.4705L38.9352 18.5354C39.0917 18.3687 39.2804 18.2354 39.4898 18.1434C39.6991 18.0514 39.9249 18.0026 40.1536 18C40.6432 18 41.1128 18.1945 41.459 18.5407C41.8052 18.8869 41.9997 19.3565 41.9997 19.8461C42.004 20.0724 41.962 20.2973 41.8763 20.5068C41.7906 20.7163 41.663 20.9061 41.5012 21.0645L32.4738 29.9997L41.5012 39.0272C41.8055 39.3248 41.9839 39.7279 41.9997 40.1533C41.9997 40.6429 41.8052 41.1125 41.459 41.4587C41.1128 41.8049 40.6432 41.9994 40.1536 41.9994C39.9183 42.0092 39.6836 41.9699 39.4643 41.8841C39.245 41.7983 39.0459 41.6678 38.8798 41.5009L30 32.5289L21.0464 41.4825C20.8904 41.6436 20.704 41.7722 20.4981 41.8609C20.2921 41.9497 20.0706 41.9967 19.8464 41.9994C19.3568 41.9994 18.8872 41.8049 18.541 41.4587C18.1948 41.1125 18.0003 40.6429 18.0003 40.1533C17.996 39.927 18.038 39.7021 18.1237 39.4926C18.2094 39.2831 18.337 39.0933 18.4987 38.9349L27.5262 29.9997L18.4987 20.9722C18.1945 20.6746 18.0161 20.2715 18.0003 19.8461C18.0003 19.3565 18.1948 18.8869 18.541 18.5407C18.8872 18.1945 19.3568 18 19.8464 18C20.2895 18.0055 20.7141 18.1846 21.0279 18.4984Z" fill="#FD435A"/>
<circle cx="30" cy="30" r="28.5" stroke="#FD435A" stroke-width="3"/>
</svg>
