<svg width="33" height="33" viewBox="0 0 33 33" fill="none" xmlns="http://www.w3.org/2000/svg">
<path d="M4.16687 17.0209V19.1043C4.16687 19.3713 4.3833 19.5877 4.65027 19.5877H28.3497C28.6166 19.5877 28.8331 19.3713 28.8331 19.1043V17.0209C28.8331 16.7538 28.6166 16.5375 28.3497 16.5375H4.65027C4.3833 16.5375 4.16687 16.7538 4.16687 17.0209ZM5.13367 17.5043H27.8663V18.6209H5.13367V17.5043Z" fill="black"/>
<path d="M31.2146 0.651001H1.78535C0.800895 0.651001 0 1.4519 0 2.43635V23.9224C0 24.9069 0.800895 25.7078 1.78535 25.7078H11.7085L10.3099 29.2985H8.68699C8.42003 29.2985 8.20359 29.5149 8.20359 29.7819V31.8656C8.20359 32.1327 8.42003 32.349 8.68699 32.349H24.313C24.58 32.349 24.7964 32.1327 24.7964 31.8656V29.7819C24.7964 29.5149 24.58 29.2985 24.313 29.2985H22.6901L21.2915 25.7078H25.7149C25.9818 25.7078 26.1983 25.4914 26.1983 25.2244C26.1983 24.9574 25.9818 24.741 25.7149 24.741H1.78535C1.33399 24.741 0.966797 24.3738 0.966797 23.9224V2.43635C0.966797 1.98499 1.33399 1.6178 1.78535 1.6178H31.2146C31.666 1.6178 32.0332 1.98499 32.0332 2.43635V23.9224C32.0332 24.3738 31.666 24.741 31.2146 24.741H27.9707C27.7038 24.741 27.4873 24.9574 27.4873 25.2244C27.4873 25.4914 27.7038 25.7078 27.9707 25.7078H31.2146C32.1991 25.7078 33 24.9069 33 23.9224V2.43635C33 1.4519 32.1991 0.651001 31.2146 0.651001ZM21.6526 29.2985H14.3202C14.0532 29.2985 13.8368 29.5149 13.8368 29.7819C13.8368 30.0489 14.0532 30.2653 14.3202 30.2653H23.8296V31.3822H9.17039V30.2653H12.0643C12.3313 30.2653 12.5477 30.0489 12.5477 29.7819C12.5477 29.5149 12.3313 29.2985 12.0643 29.2985H11.3474L12.7461 25.7078H20.2539L21.6526 29.2985Z" fill="black"/>
<path d="M4.64072 2.73474H3.08804C2.53433 2.73474 2.08386 3.1852 2.08386 3.73892V20.6669C2.08386 21.2206 2.53433 21.6711 3.08804 21.6711H29.9121C30.4659 21.6711 30.9163 21.2206 30.9163 20.6669V3.73892C30.9163 3.1852 30.4659 2.73474 29.9121 2.73474H6.89658C6.62961 2.73474 6.41318 2.95111 6.41318 3.21814C6.41318 3.48517 6.62961 3.70154 6.89658 3.70154H29.9121C29.9328 3.70154 29.9495 3.7183 29.9495 3.73892V20.6669C29.9495 20.6875 29.9328 20.7043 29.9121 20.7043H3.08804C3.06742 20.7043 3.05066 20.6875 3.05066 20.6669V3.73892C3.05066 3.7183 3.06742 3.70154 3.08804 3.70154H4.64072C4.90768 3.70154 5.12412 3.48517 5.12412 3.21814C5.12412 2.95111 4.90768 2.73474 4.64072 2.73474Z" fill="black"/>
<path d="M11.096 11.8957C12.1113 11.8957 12.9374 11.0697 12.9374 10.0544C12.9374 9.03904 12.1113 8.21301 11.096 8.21301C10.0807 8.21301 9.25464 9.03904 9.25464 10.0544C9.25464 11.0697 10.0806 11.8957 11.096 11.8957ZM11.096 9.17981C11.5782 9.17981 11.9706 9.57214 11.9706 10.0544C11.9706 10.5366 11.5782 10.9289 11.096 10.9289C10.6138 10.9289 10.2214 10.5366 10.2214 10.0544C10.2214 9.57214 10.6138 9.17981 11.096 9.17981Z" fill="#FD435A"/>
<path d="M6.23118 8.90503C6.0134 8.95685 5.85974 9.15144 5.85974 9.37528V10.7332C5.85974 10.9571 6.0134 11.1516 6.23118 11.2035L7.49943 11.5055C7.50832 11.5275 7.51741 11.5495 7.52676 11.5713L6.84349 12.6817C6.72618 12.8724 6.75506 13.1186 6.91336 13.2769L7.87358 14.237C8.03188 14.3953 8.27809 14.4242 8.46874 14.3069L9.57914 13.6236C9.60099 13.6329 9.6229 13.642 9.64488 13.6509L9.94691 14.9192C9.99873 15.1369 10.1933 15.2906 10.4172 15.2906H11.7751C11.999 15.2906 12.1936 15.1369 12.2454 14.9192L12.5474 13.6509C12.5694 13.642 12.5913 13.6329 12.6131 13.6236L13.7235 14.3069C13.9142 14.4243 14.1605 14.3953 14.3187 14.237L15.2789 13.2769C15.4372 13.1186 15.4661 12.8724 15.3488 12.6817L14.6655 11.5713C14.6748 11.5494 14.6839 11.5275 14.6928 11.5055L15.961 11.2035C16.1788 11.1516 16.3325 10.9571 16.3325 10.7332V9.37528C16.3325 9.15144 16.1788 8.95685 15.961 8.90503L14.6928 8.60307C14.684 8.58109 14.6749 8.55911 14.6655 8.53726L15.3488 7.42687C15.4661 7.23621 15.4372 6.99 15.2789 6.83177L14.3187 5.87148C14.1604 5.71325 13.9141 5.68444 13.7235 5.80162L12.6131 6.48495C12.5913 6.4756 12.5694 6.46651 12.5473 6.45762L12.2454 5.18938C12.1936 4.97165 11.999 4.81793 11.7751 4.81793H10.4172C10.1933 4.81793 9.99873 4.97165 9.94691 5.18938L9.64495 6.45762C9.6229 6.46651 9.60099 6.4756 9.57914 6.48495L8.46874 5.80162C8.27809 5.68431 8.03188 5.71331 7.87358 5.87148L6.91336 6.83177C6.75506 6.99 6.72618 7.23621 6.84349 7.42687L7.52682 8.53726C7.51748 8.55911 7.50839 8.58109 7.49949 8.60307L6.23118 8.90503ZM8.48672 8.25264L7.86688 7.24543L8.28711 6.82513L9.29432 7.44498C9.43831 7.53347 9.61807 7.54043 9.76857 7.46322C9.90914 7.39103 10.0553 7.33031 10.2029 7.28281C10.3637 7.23099 10.4859 7.09899 10.525 6.93464L10.7988 5.78473H11.3931L11.6669 6.93464C11.706 7.09906 11.8282 7.23106 11.989 7.28281C12.1366 7.33025 12.2828 7.39103 12.4234 7.46322C12.5738 7.54043 12.7536 7.53347 12.8976 7.44498L13.9048 6.82513L14.325 7.24543L13.7052 8.25264C13.6166 8.39656 13.6097 8.57639 13.6869 8.72676C13.7591 8.86746 13.8198 9.01364 13.8673 9.16117C13.9191 9.32204 14.0512 9.44418 14.2155 9.48331L15.3654 9.75704V10.3514L14.2154 10.6252C14.0511 10.6643 13.919 10.7865 13.8673 10.9474C13.8198 11.095 13.7591 11.2411 13.6869 11.3816C13.6096 11.5321 13.6165 11.7118 13.7052 11.8558L14.325 12.8631L13.9048 13.2833L12.8976 12.6636C12.7536 12.575 12.5739 12.568 12.4235 12.6452C12.2828 12.7174 12.1366 12.7782 11.9889 12.8258C11.8281 12.8776 11.706 13.0096 11.6669 13.1739L11.3931 14.3237H10.7988L10.525 13.1739C10.4859 13.0095 10.3638 12.8775 10.203 12.8258C10.0553 12.7782 9.90901 12.7174 9.76837 12.6452C9.618 12.568 9.43824 12.575 9.29432 12.6636L8.28711 13.2833L7.86688 12.8631L8.48672 11.8558C8.57535 11.7118 8.58224 11.532 8.50496 11.3816C8.43277 11.2411 8.37206 11.095 8.32456 10.9474C8.2728 10.7865 8.14074 10.6643 7.97638 10.6252L6.82647 10.3514V9.75704L7.97632 9.48331C8.14074 9.44418 8.27274 9.32204 8.32449 9.16117C8.372 9.01357 8.43271 8.86739 8.50496 8.72682C8.58231 8.57639 8.57535 8.39656 8.48672 8.25264Z" fill="#FD435A"/>
<path d="M18.1681 10.8508H19.6972V10.9225C19.6972 11.4953 20.1631 11.9611 20.7358 11.9611H21.8462C22.4188 11.9611 22.8847 11.4952 22.8847 10.9225V10.8508H27.3979C27.6649 10.8508 27.8813 10.6344 27.8813 10.3674C27.8813 10.1004 27.6649 9.88402 27.3979 9.88402H22.8847V9.81228C22.8847 9.23955 22.4188 8.77368 21.8462 8.77368H20.7358C20.1631 8.77368 19.6972 9.23961 19.6972 9.81228V9.88402H18.1681C17.9011 9.88402 17.6847 10.1004 17.6847 10.3674C17.6847 10.6344 17.9011 10.8508 18.1681 10.8508ZM20.664 9.81221C20.664 9.77264 20.6962 9.74041 20.7358 9.74041H21.8462C21.8857 9.74041 21.9179 9.77264 21.9179 9.81221V10.9225C21.9179 10.9621 21.8857 10.9943 21.8462 10.9943H20.7358C20.6962 10.9943 20.664 10.9621 20.664 10.9225V9.81221Z" fill="black"/>
<path d="M18.1681 14.1803H23.3753V14.252C23.3753 14.8247 23.8412 15.2905 24.4139 15.2905H25.5243C26.0969 15.2905 26.5628 14.8246 26.5628 14.252V14.1803H27.398C27.6649 14.1803 27.8814 13.9639 27.8814 13.6969C27.8814 13.4299 27.6649 13.2135 27.398 13.2135H26.5628V13.1417C26.5628 12.569 26.0969 12.1031 25.5243 12.1031H24.4139C23.8412 12.1031 23.3753 12.5691 23.3753 13.1417V13.2135H18.1681C17.9011 13.2135 17.6847 13.4299 17.6847 13.6969C17.6847 13.9639 17.9011 14.1803 18.1681 14.1803ZM24.342 13.1417C24.342 13.1021 24.3742 13.0699 24.4138 13.0699H25.5242C25.5638 13.0699 25.5959 13.1021 25.5959 13.1417V14.2521C25.5959 14.2917 25.5637 14.3238 25.5242 14.3238H24.4138C24.3742 14.3238 24.342 14.2917 24.342 14.2521V13.1417Z" fill="black"/>
<path d="M24.1363 4.81805H23.0259C22.4532 4.81805 21.9873 5.28399 21.9873 5.85659V5.92839H18.1681C17.9011 5.92839 17.6847 6.14476 17.6847 6.41179C17.6847 6.67882 17.9011 6.89519 18.1681 6.89519H21.9873V6.96692C21.9873 7.53965 22.4533 8.00552 23.0259 8.00552H24.1363C24.7089 8.00552 25.1749 7.53959 25.1749 6.96692V6.89519H27.3979C27.6649 6.89519 27.8813 6.67882 27.8813 6.41179C27.8813 6.14476 27.6649 5.92839 27.3979 5.92839H25.1748V5.85659C25.1748 5.28392 24.7089 4.81805 24.1363 4.81805ZM24.208 6.96699C24.208 7.00656 24.1758 7.03879 24.1362 7.03879H23.0258C22.9862 7.03879 22.9541 7.00656 22.9541 6.96699V5.85659C22.9541 5.81701 22.9863 5.78485 23.0258 5.78485H24.1362C24.1758 5.78485 24.208 5.81701 24.208 5.85659V6.96699Z" fill="black"/>
</svg>
