<svg width="33" height="33" viewBox="0 0 33 33" fill="none" xmlns="http://www.w3.org/2000/svg">
<path d="M12 0H3.00003C1.34543 0 0 1.34543 0 3.00003V12C0 13.6546 1.34543 15.0001 3.00003 15.0001H12C13.6546 15.0001 15.0001 13.6546 15.0001 12V3.00003C15 1.34543 13.6546 0 12 0ZM13.5 12C13.5 12.8269 12.8269 13.5 12 13.5H3.00003C2.17315 13.5 1.50005 12.8269 1.50005 12V3.00003C1.50005 2.17315 2.17315 1.50005 3.00003 1.50005H12C12.8269 1.50005 13.5 2.17315 13.5 3.00003V12Z" fill="black"/>
<path d="M30 0H21C19.3454 0 18 1.34543 18 3.00003V12C18 13.6546 19.3454 15.0001 21 15.0001H30C31.6545 15.0001 33 13.6546 33 12V3.00003C33 1.34543 31.6545 0 30 0ZM31.5 12C31.5 12.8269 30.8269 13.5 30 13.5H21C20.1731 13.5 19.5 12.8269 19.5 12V3.00003C19.5 2.17315 20.1731 1.50005 21 1.50005H30C30.8269 1.50005 31.5 2.17315 31.5 3.00003V12Z" fill="black"/>
<path d="M12 18H3.00003C1.34543 18 0 19.3454 0 21V30C0 31.6545 1.34543 33 3.00003 33H12C13.6546 33 15.0001 31.6546 15.0001 30V21C15 19.3454 13.6546 18 12 18ZM13.5 30C13.5 30.8269 12.8269 31.5 12 31.5H3.00003C2.17315 31.5 1.50005 30.8269 1.50005 30V21C1.50005 20.1731 2.17315 19.5 3.00003 19.5H12C12.8269 19.5 13.5 20.1731 13.5 21V30Z" fill="black"/>
<path d="M29.25 24.75H26.25V21.75C26.25 21.3354 25.9145 20.9999 25.5 20.9999C25.0854 20.9999 24.7499 21.3354 24.7499 21.75V24.75H21.7499C21.3353 24.75 20.9999 25.0854 20.9999 25.5C20.9999 25.9146 21.3353 26.25 21.7499 26.25H24.75V29.25C24.75 29.6646 25.0855 30 25.5 30C25.9146 30 26.25 29.6646 26.25 29.25V26.25H29.25C29.6646 26.25 30 25.9145 30 25.4999C30 25.0854 29.6646 24.75 29.25 24.75Z" fill="#FD435A"/>
</svg>
