<svg width="37" height="33" viewBox="0 0 37 33" fill="none" xmlns="http://www.w3.org/2000/svg">
<path d="M20.2233 18.4926C19.1123 18.0758 17.8878 18.0758 16.7767 18.4926C16.6287 18.5516 16.5097 18.6662 16.4451 18.8119C16.3806 18.9576 16.3757 19.1228 16.4315 19.272C16.4873 19.4213 16.5993 19.5427 16.7436 19.6104C16.8878 19.6781 17.0528 19.6865 17.2033 19.634C18.0379 19.3196 18.9584 19.3196 19.7931 19.634C19.9435 19.6865 20.1085 19.6781 20.2528 19.6104C20.3971 19.5427 20.5091 19.4213 20.5649 19.272C20.6206 19.1228 20.6157 18.9576 20.5512 18.8119C20.4867 18.6662 20.3677 18.5516 20.2197 18.4926H20.2233Z" fill="#FD435A"/>
<path d="M21.6828 16.5323C20.6993 16.0224 19.6078 15.7562 18.5 15.7562C17.3922 15.7562 16.3007 16.0224 15.3172 16.5323C15.1783 16.6091 15.0749 16.7372 15.029 16.8891C14.9831 17.0411 14.9982 17.2049 15.0713 17.3459C15.1443 17.4868 15.2695 17.5937 15.4201 17.6437C15.5708 17.6938 15.735 17.6831 15.8779 17.6139C16.6883 17.1947 17.5875 16.9759 18.5 16.9759C19.4125 16.9759 20.3117 17.1947 21.1221 17.6139C21.265 17.6831 21.4292 17.6938 21.5799 17.6437C21.7305 17.5937 21.8557 17.4868 21.9287 17.3459C22.0018 17.2049 22.0169 17.0411 21.971 16.8891C21.9251 16.7372 21.8217 16.6091 21.6828 16.5323Z" fill="#FD435A"/>
<path d="M14.5508 15.6468C15.7405 14.9216 17.1069 14.538 18.5001 14.538C19.8934 14.538 21.2598 14.9216 22.4495 15.6468C22.5878 15.7307 22.7537 15.7562 22.9108 15.7177C23.0678 15.6793 23.2032 15.58 23.2871 15.4417C23.371 15.3035 23.3965 15.1376 23.358 14.9805C23.3196 14.8234 23.2203 14.688 23.082 14.6042C21.7016 13.7633 20.1165 13.3185 18.5001 13.3185C16.8838 13.3185 15.2986 13.7633 13.9182 14.6042C13.78 14.688 13.6807 14.8234 13.6422 14.9805C13.6038 15.1376 13.6293 15.3035 13.7132 15.4417C13.7971 15.58 13.9324 15.6793 14.0895 15.7177C14.2466 15.7562 14.4125 15.7307 14.5508 15.6468Z" fill="#FD435A"/>
<path d="M3.87505 20.1218C4.3097 20.1211 4.74066 20.0422 5.14743 19.8891L8.91093 26.4094C8.44559 26.7781 8.07705 27.2547 7.83718 27.7978C7.59731 28.3409 7.49331 28.9343 7.53419 29.5267C7.57506 30.119 7.75957 30.6924 8.07177 31.1975C8.38398 31.7025 8.81448 32.1239 9.32606 32.4253C9.83764 32.7266 10.4149 32.8988 11.008 32.9271C11.6011 32.9553 12.1921 32.8386 12.73 32.5872C13.2678 32.3358 13.7364 31.9572 14.0952 31.4841C14.4539 31.011 14.692 30.4576 14.789 29.8718H22.2111C22.3086 30.4573 22.5472 31.0103 22.9062 31.483C23.2652 31.9557 23.7339 32.3338 24.2718 32.5848C24.8097 32.8357 25.4006 32.952 25.9935 32.9235C26.5864 32.8949 27.1634 32.7225 27.6747 32.421C28.186 32.1196 28.6162 31.6982 28.9282 31.1932C29.2402 30.6883 29.4246 30.115 29.4654 29.5228C29.5062 28.9307 29.4022 28.3375 29.1624 27.7945C28.9227 27.2515 28.5543 26.7751 28.0892 26.4063L31.8527 19.8891C32.4058 20.0965 33.001 20.1668 33.5873 20.0939C34.1736 20.0211 34.7335 19.8073 35.219 19.4708C35.7046 19.1342 36.1014 18.6851 36.3755 18.1617C36.6495 17.6384 36.7927 17.0564 36.7927 16.4656C36.7927 15.8748 36.6495 15.2928 36.3755 14.7695C36.1014 14.2461 35.7046 13.797 35.219 13.4604C34.7335 13.1239 34.1736 12.9101 33.5873 12.8373C33.001 12.7644 32.4058 12.8347 31.8527 13.0421L28.0892 6.52182C28.5545 6.15306 28.9231 5.67651 29.1629 5.13339C29.4028 4.59026 29.5068 3.99688 29.4659 3.40455C29.425 2.81222 29.2405 2.23875 28.9283 1.73372C28.6161 1.22868 28.1856 0.807278 27.674 0.505929C27.1625 0.20458 26.5852 0.0323521 25.9921 0.00413246C25.399 -0.0240871 24.808 0.0925504 24.2701 0.343964C23.7323 0.595377 23.2637 0.974001 22.905 1.44711C22.5462 1.92022 22.3081 2.47357 22.2111 3.05935H14.789C14.6915 2.47385 14.4529 1.92088 14.0939 1.44821C13.7349 0.975546 13.2662 0.597393 12.7283 0.346422C12.1904 0.0954509 11.5995 -0.0207924 11.0066 0.00773382C10.4138 0.03626 9.83674 0.208698 9.32543 0.510152C8.81412 0.811605 8.38389 1.23301 8.0719 1.73796C7.75991 2.24292 7.57555 2.81623 7.53475 3.40839C7.49394 4.00054 7.59791 4.59373 7.83768 5.13671C8.07745 5.67968 8.4458 6.15612 8.91093 6.52487L5.14743 13.0452C4.64546 12.8556 4.10792 12.7789 3.57296 12.8203C3.038 12.8618 2.51873 13.0206 2.052 13.2853C1.58527 13.55 1.18252 13.9142 0.872328 14.352C0.56214 14.7898 0.352118 15.2905 0.257166 15.8186C0.162215 16.3467 0.184661 16.8893 0.322913 17.4077C0.461164 17.9262 0.711831 18.4078 1.05713 18.8185C1.40242 19.2292 1.83388 19.5589 2.32088 19.7842C2.80788 20.0094 3.33849 20.1247 3.87505 20.1218ZM6.20469 19.2815C6.87911 18.722 7.33037 17.939 7.47646 17.075H11.2162C11.3015 18.149 11.6253 19.1904 12.1641 20.1234C12.7029 21.0563 13.4431 21.8573 14.3307 22.4679L12.3978 25.8165C11.6153 25.5362 10.7598 25.5362 9.97733 25.8165L6.20469 19.2815ZM12.4063 16.4656C12.4067 15.0465 12.9024 13.6721 13.8078 12.5793C14.7132 11.4866 15.9716 10.7442 17.3659 10.4801C18.7602 10.216 20.203 10.4467 21.4453 11.1326C22.6876 11.8185 23.6516 12.9164 24.171 14.2371C24.6904 15.5577 24.7326 17.0182 24.2903 18.3666C23.848 19.715 22.949 20.8668 21.7483 21.6232C20.5476 22.3796 19.1206 22.6933 17.7134 22.5101C16.3062 22.3269 15.007 21.6583 14.04 20.6197C12.987 19.4931 12.4028 18.0077 12.4063 16.4656ZM11.1876 31.7C10.7055 31.7 10.2342 31.557 9.83335 31.2892C9.43251 31.0213 9.12009 30.6407 8.9356 30.1953C8.75111 29.7499 8.70284 29.2598 8.79689 28.7869C8.89094 28.3141 9.12309 27.8798 9.46398 27.5389C9.80487 27.198 10.2392 26.9659 10.712 26.8718C11.1848 26.7778 11.6749 26.826 12.1203 27.0105C12.5657 27.195 12.9464 27.5074 13.2143 27.9083C13.4821 28.3091 13.6251 28.7804 13.6251 29.2625C13.6251 29.9089 13.3682 30.5289 12.9111 30.986C12.454 31.4432 11.834 31.7 11.1876 31.7ZM22.2111 28.6531H14.789C14.6386 27.7668 14.167 26.9669 13.4642 26.4063L15.3898 23.0718C16.3607 23.5368 17.4235 23.7781 18.5001 23.7781C19.5766 23.7781 20.6394 23.5368 21.6103 23.0718L23.5359 26.4063C22.8331 26.9669 22.3615 27.7668 22.2111 28.6531ZM28.2501 29.2625C28.2501 29.7446 28.1071 30.2158 27.8393 30.6167C27.5714 31.0175 27.1907 31.3299 26.7453 31.5144C26.2999 31.6989 25.8098 31.7472 25.337 31.6531C24.8642 31.5591 24.4299 31.3269 24.089 30.986C23.7481 30.6452 23.5159 30.2108 23.4219 29.738C23.3278 29.2652 23.3761 28.7751 23.5606 28.3297C23.7451 27.8843 24.0575 27.5036 24.4583 27.2358C24.8592 26.9679 25.3305 26.825 25.8126 26.825C26.459 26.825 27.079 27.0818 27.5361 27.5389C27.9932 27.996 28.2501 28.616 28.2501 29.2625ZM27.0228 25.8165C26.2403 25.5362 25.3848 25.5362 24.6023 25.8165L22.6694 22.4679C23.557 21.8573 24.2972 21.0563 24.836 20.1234C25.3748 19.1904 25.6986 18.149 25.7839 17.075H29.5236C29.6697 17.939 30.121 18.722 30.7954 19.2815L27.0228 25.8165ZM33.1251 14.0281C33.6071 14.0281 34.0784 14.1711 34.4793 14.4389C34.8801 14.7067 35.1925 15.0874 35.377 15.5328C35.5615 15.9782 35.6098 16.4683 35.5157 16.9411C35.4217 17.414 35.1895 17.8483 34.8486 18.1892C34.5077 18.5301 34.0734 18.7622 33.6006 18.8563C33.1278 18.9503 32.6377 18.902 32.1923 18.7176C31.7469 18.5331 31.3662 18.2206 31.0983 17.8198C30.8305 17.419 30.6876 16.9477 30.6876 16.4656C30.6876 15.8191 30.9444 15.1991 31.4015 14.742C31.8586 14.2849 32.4786 14.0281 33.1251 14.0281ZM30.7954 13.6497C30.121 14.2092 29.6697 14.9922 29.5236 15.8562H25.7839C25.6986 14.7822 25.3748 13.7408 24.836 12.8078C24.2972 11.8749 23.557 11.0739 22.6694 10.4633L24.6023 7.11474C25.3848 7.39504 26.2403 7.39504 27.0228 7.11474L30.7954 13.6497ZM25.8126 1.23122C26.2946 1.23122 26.7659 1.37418 27.1668 1.64202C27.5676 1.90985 27.88 2.29054 28.0645 2.73593C28.249 3.18133 28.2973 3.67143 28.2032 4.14426C28.1092 4.61709 27.877 5.05141 27.5361 5.3923C27.1952 5.73319 26.7609 5.96534 26.2881 6.05939C25.8153 6.15344 25.3252 6.10517 24.8798 5.92068C24.4344 5.73619 24.0537 5.42377 23.7858 5.02293C23.518 4.62208 23.3751 4.15082 23.3751 3.66872C23.3751 3.02226 23.6319 2.40227 24.089 1.94515C24.5461 1.48803 25.1661 1.23122 25.8126 1.23122ZM14.789 4.2781H22.2111C22.3615 5.16442 22.8331 5.96428 23.5359 6.52487L21.6079 9.85936C20.6369 9.39444 19.5741 9.1531 18.4976 9.1531C17.4211 9.1531 16.3583 9.39444 15.3874 9.85936L13.4617 6.52487C14.1654 5.96469 14.638 5.16478 14.789 4.2781ZM8.75005 3.66872C8.75005 3.18663 8.89301 2.71537 9.16085 2.31452C9.42868 1.91368 9.80937 1.60126 10.2548 1.41677C10.7002 1.23228 11.1903 1.18401 11.6631 1.27806C12.1359 1.37211 12.5702 1.60426 12.9111 1.94515C13.252 2.28604 13.4842 2.72036 13.5782 3.19319C13.6723 3.66602 13.624 4.15612 13.4395 4.60152C13.255 5.04691 12.9426 5.4276 12.5418 5.69543C12.1409 5.96327 11.6696 6.10622 11.1876 6.10622C10.5411 6.10622 9.9211 5.84942 9.46398 5.3923C9.00686 4.93518 8.75005 4.31519 8.75005 3.66872ZM9.97733 7.11474C10.7598 7.39504 11.6153 7.39504 12.3978 7.11474L14.3307 10.4633C13.4431 11.0739 12.7029 11.8749 12.1641 12.8078C11.6253 13.7408 11.3015 14.7822 11.2162 15.8562H7.47646C7.33037 14.9922 6.87911 14.2092 6.20469 13.6497L9.97733 7.11474ZM3.87505 14.0281C4.35714 14.0281 4.82841 14.1711 5.22926 14.4389C5.6301 14.7067 5.94252 15.0874 6.12701 15.5328C6.3115 15.9782 6.35977 16.4683 6.26572 16.9411C6.17167 17.414 5.93952 17.8483 5.59863 18.1892C5.25774 18.5301 4.82341 18.7622 4.35059 18.8563C3.87776 18.9503 3.38766 18.902 2.94226 18.7176C2.49687 18.5331 2.11618 18.2206 1.84835 17.8198C1.58051 17.419 1.43755 16.9477 1.43755 16.4656C1.43755 15.8191 1.69436 15.1991 2.15148 14.742C2.6086 14.2849 3.22859 14.0281 3.87505 14.0281Z" fill="black"/>
</svg>
