<svg width="24" height="24" viewBox="0 0 24 24" fill="none" xmlns="http://www.w3.org/2000/svg">
<path d="M12 0C5.38327 0 0 5.38327 0 12C0 18.6167 5.38327 24 12 24C18.6167 24 24 18.6167 24 12C24 5.38327 18.6167 0 12 0ZM18.9231 11.006H13.7885L15.9162 8.87827L15.5931 8.50269C15.0152 7.90276 14.2976 7.45537 13.5046 7.20054C12.7115 6.94571 11.8677 6.89137 11.0485 7.04238C10.2293 7.19338 9.46028 7.54504 8.81021 8.0659C8.16015 8.58675 7.64928 9.26058 7.32329 10.0271C6.99729 10.7937 6.86633 11.6291 6.94212 12.4586C7.0179 13.2882 7.29806 14.086 7.75756 14.7808C8.21706 15.4756 8.84156 16.0457 9.57525 16.4401C10.3089 16.8346 11.1289 17.0411 11.9619 17.0412C13.0044 17.0402 14.0211 16.7167 14.8724 16.115C15.7237 15.5133 16.368 14.663 16.7169 13.6806L17.0267 12.8077L18.7673 13.4233L18.4615 14.2962C18.0408 15.4868 17.3009 16.5389 16.3226 17.3375C15.3443 18.1361 14.1653 18.6503 12.9145 18.8241C11.6637 18.9979 10.3892 18.8244 9.23026 18.3228C8.07135 17.8212 7.07263 17.0106 6.34327 15.9797C5.6139 14.9488 5.18196 13.7372 5.09465 12.4774C5.00734 11.2176 5.26802 9.95805 5.8482 8.83639C6.42838 7.71473 7.30573 6.77414 8.38436 6.11742C9.463 5.4607 10.7014 5.11313 11.9642 5.11269C12.8962 5.10913 13.8191 5.29643 14.676 5.66305C15.5328 6.02967 16.3055 6.56784 16.9465 7.24442L16.9788 7.28019L17.2275 7.56865L18.9231 5.87365V11.006Z" fill="#FD435A"/>
</svg>
