<svg width="700" height="584" viewBox="0 0 700 584" fill="none" xmlns="http://www.w3.org/2000/svg">
<path d="M344.167 72.3333C384.793 73.7263 404.169 79.1832 444.889 115.889C475.823 143.774 482.611 155.944 508.667 167.611C527.486 176.038 623.778 192.889 648.278 271.056C674.291 354.051 647.235 428.017 582.944 461.222C512.167 497.778 456.512 466.655 423.5 452.667C377.611 433.222 358.923 424.858 281.167 463.944C208.444 500.5 127.944 479.111 80.8888 420C36.4753 364.208 20.1451 260.736 71.5555 197.167C114.852 143.63 164.5 159.833 205.333 139.222C237.59 122.94 276.111 70 344.167 72.3333Z" fill="url(#paint0_linear_50_323)"/>
<path d="M462.535 420.583C436.381 420.583 411.899 427.727 390.916 440.155C400.933 443.074 411.246 447.474 423.499 452.667C454.142 465.651 504.297 493.387 567.943 468.068C542.153 438.948 504.493 420.583 462.535 420.583Z" fill="url(#paint1_radial_50_323)"/>
<path d="M596.322 295.806C611.213 295.806 623.284 283.735 623.284 268.844C623.284 253.954 611.213 241.883 596.322 241.883C581.432 241.883 569.36 253.954 569.36 268.844C569.36 283.735 581.432 295.806 596.322 295.806Z" fill="url(#paint2_radial_50_323)"/>
<path d="M83.4808 280C98.2287 280 110.184 268.044 110.184 253.297C110.184 238.549 98.2287 226.593 83.4808 226.593C68.7329 226.593 56.7773 238.549 56.7773 253.297C56.7773 268.044 68.7329 280 83.4808 280Z" fill="url(#paint3_radial_50_323)"/>
<path d="M83.4814 270.667C93.0747 270.667 100.852 262.89 100.852 253.296C100.852 243.703 93.0747 235.926 83.4814 235.926C73.8882 235.926 66.1113 243.703 66.1113 253.296C66.1113 262.89 73.8882 270.667 83.4814 270.667Z" fill="url(#paint4_linear_50_323)"/>
<path d="M83.4814 270.667C93.0747 270.667 100.852 262.89 100.852 253.296C100.852 243.703 93.0747 235.926 83.4814 235.926C73.8882 235.926 66.1113 243.703 66.1113 253.296C66.1113 262.89 73.8882 270.667 83.4814 270.667Z" fill="url(#paint5_linear_50_323)"/>
<path d="M77.6479 254.722C75.2173 254.722 73.2402 252.745 73.2402 250.315C73.2402 247.884 75.2173 245.907 77.6479 245.907C80.0785 245.907 82.0556 247.884 82.0556 250.315C82.0556 252.745 80.0785 254.722 77.6479 254.722ZM77.6479 246.685C75.6467 246.685 74.018 248.313 74.018 250.315C74.018 252.317 75.6459 253.945 77.6479 253.945C79.6499 253.945 81.2778 252.317 81.2778 250.315C81.2778 248.313 79.6499 246.685 77.6479 246.685Z" fill="#FDE1A7"/>
<path d="M90.3789 265.137C88.7246 265.137 87.3176 264.428 86.5212 263.191C85.118 261.014 86.091 257.88 88.6888 256.205C89.7396 255.529 90.9148 255.171 92.0885 255.171C93.7428 255.171 95.1498 255.88 95.9463 257.118C97.3494 259.296 96.3772 262.429 93.7786 264.103C92.7278 264.78 91.5526 265.137 90.3789 265.137ZM92.0877 255.949C91.0642 255.949 90.0344 256.264 89.1096 256.859C86.8719 258.301 86.0032 260.952 87.1745 262.769C87.8255 263.779 88.9929 264.359 90.3789 264.359C91.4025 264.359 92.4323 264.044 93.357 263.449C95.5947 262.007 96.4635 259.355 95.2922 257.539C94.6412 256.528 93.4737 255.949 92.0877 255.949Z" fill="#DABACC"/>
<path d="M72.012 266.45L71.5532 265.822C72.5059 265.126 73.0527 264.06 73.0527 262.897C73.0527 260.895 71.4248 259.267 69.4228 259.267C68.7368 259.267 68.0625 259.467 67.4729 259.845L67.0537 259.19C67.7685 258.732 68.5883 258.489 69.4228 258.489C71.8534 258.489 73.8305 260.466 73.8305 262.897C73.8305 264.311 73.1678 265.606 72.012 266.45Z" fill="#FDE1A7"/>
<path d="M92.843 243.651C90.6987 243.651 88.9541 241.906 88.9541 239.762C88.9541 238.752 89.3438 237.792 90.0523 237.06L90.6115 237.601C90.0445 238.187 89.7327 238.954 89.7327 239.761C89.7327 241.477 91.128 242.872 92.8438 242.872C94.0485 242.872 95.1227 242.189 95.6453 241.089L96.3477 241.424C95.7037 242.776 94.3285 243.651 92.843 243.651Z" fill="#FDE1A7"/>
<path d="M596.322 287.511C606.631 287.511 614.989 279.154 614.989 268.844C614.989 258.535 606.631 250.178 596.322 250.178C586.013 250.178 577.655 258.535 577.655 268.844C577.655 279.154 586.013 287.511 596.322 287.511Z" fill="url(#paint6_linear_50_323)"/>
<path d="M613.592 276.324C613.546 276.324 613.5 276.317 613.454 276.299C610.423 275.144 604.991 270.924 599.616 265.549C594.24 260.174 590.021 254.742 588.868 251.711C588.791 251.51 588.892 251.285 589.092 251.209C589.293 251.132 589.518 251.233 589.594 251.435C590.712 254.371 594.862 259.695 600.166 264.999C605.47 270.303 610.795 274.453 613.731 275.571C613.932 275.648 614.033 275.872 613.956 276.074C613.897 276.229 613.749 276.324 613.592 276.324Z" fill="#0090B2"/>
<path d="M614.976 269.932C614.918 269.932 614.859 269.918 614.802 269.89C611.912 268.448 607.803 265.204 603.809 261.211C599.902 257.304 596.687 253.252 595.21 250.375C595.112 250.184 595.188 249.95 595.378 249.852C595.569 249.755 595.804 249.829 595.902 250.02C597.344 252.829 600.506 256.807 604.359 260.661C608.296 264.598 612.33 267.788 615.149 269.195C615.341 269.291 615.419 269.524 615.324 269.716C615.256 269.852 615.118 269.932 614.976 269.932Z" fill="#8A69E3"/>
<path d="M467.918 434.714C448.877 434.714 431.105 440.14 416.054 449.521C418.462 450.532 420.937 451.58 423.499 452.667C450.697 464.191 493.266 487.338 546.996 474.695C529.118 450.447 500.357 434.714 467.918 434.714Z" fill="url(#paint7_linear_50_323)"/>
<path d="M546.997 474.695C532.824 455.474 511.81 441.613 487.55 436.688C483.755 437.447 480.266 439.233 480.472 443.139C480.86 450.528 492.112 451.225 497.777 452.472C504.259 453.898 513.333 456.815 513.527 461.611C513.669 465.11 509.121 465.628 506.788 465.628C504.454 465.628 500.957 464.527 500.369 466.537C499.592 469.194 505.269 470.161 504.907 472.111C504.372 475.001 496.953 474.448 495.472 476.936C511.199 479.159 528.432 479.064 546.997 474.695Z" fill="url(#paint8_linear_50_323)"/>
<path d="M454.611 460.056C456.945 456.815 474.185 456.426 472.889 450.204C471.773 444.847 451.37 448.908 450.463 442.815C449.925 439.203 454.396 436.732 458.721 435.154C443.161 436.602 428.652 441.668 416.055 449.521C418.463 450.532 420.938 451.58 423.5 452.667C432.338 456.412 442.802 461.384 454.742 465.957C453.834 463.881 453.444 461.676 454.611 460.056Z" fill="url(#paint9_linear_50_323)"/>
<path d="M268.908 441.324C266.748 441.324 264.564 441.154 262.352 440.8C249.227 438.696 240.222 431.04 235.586 418.041C228.318 397.668 234.459 369.018 240.302 362.446C240.444 362.286 240.69 362.272 240.851 362.413C241.012 362.556 241.026 362.802 240.883 362.962C235.92 368.547 228.714 396.456 236.319 417.78C240.853 430.491 249.653 437.977 262.476 440.031C264.638 440.377 266.776 440.543 268.891 440.543C290.614 440.545 310.004 423.077 330.43 404.679C347.46 389.339 365.07 373.477 386.404 364.419C416.999 351.429 444.168 353.068 464.008 354.265C474.414 354.894 483.4 355.436 490.167 353.769C501.715 350.924 511.579 344.616 521.118 338.516C526.306 335.198 531.67 331.768 537.268 328.912C557.3 318.69 573.474 317.012 578.474 324.637C584.496 333.822 573.817 342.49 563.487 350.872C555.12 357.661 546.47 364.682 546.13 372.054C545.624 383.059 561.473 386.918 561.633 386.95C561.844 386.992 561.98 387.196 561.938 387.407C561.896 387.618 561.689 387.756 561.481 387.713C561.314 387.679 544.818 383.651 545.355 372.017C545.71 364.297 554.499 357.165 562.999 350.267C573.522 341.727 583.463 333.66 577.825 325.064C573.058 317.794 557.277 319.577 537.624 329.604C532.06 332.442 526.711 335.863 521.538 339.171C511.946 345.305 502.028 351.648 490.353 354.523C483.474 356.219 474.431 355.674 463.962 355.041C444.203 353.85 417.137 352.215 386.709 365.134C365.494 374.141 347.934 389.959 330.952 405.256C310.411 423.757 290.908 441.323 268.908 441.324Z" fill="#4578BA"/>
<path d="M514.72 344.736C515.669 344.736 516.439 343.966 516.439 343.016C516.439 342.067 515.669 341.297 514.72 341.297C513.77 341.297 513 342.067 513 343.016C513 343.966 513.77 344.736 514.72 344.736Z" fill="#4578BA"/>
<path d="M501.458 345.504C486.275 345.504 466.158 338.701 455.301 317.38C439.746 286.832 464.705 261.599 468.029 259.7C468.212 259.593 468.452 259.657 468.56 259.845C468.667 260.031 468.602 260.269 468.415 260.375C465.157 262.237 440.702 286.996 455.993 317.028C470.384 345.285 501.254 347.662 514.583 342.653C514.783 342.574 515.008 342.68 515.084 342.88C515.16 343.082 515.058 343.306 514.856 343.381C511.373 344.69 506.71 345.504 501.458 345.504Z" fill="#4578BA"/>
<path d="M583.43 336.292C583.324 336.292 583.219 336.249 583.143 336.165C582.998 336.006 583.009 335.76 583.168 335.616C586.302 332.758 587.044 326.102 586.371 324.273C586.296 324.072 586.4 323.848 586.601 323.774C586.799 323.697 587.026 323.803 587.1 324.004C587.848 326.03 587.108 333.076 583.692 336.19C583.617 336.258 583.523 336.292 583.43 336.292Z" fill="#4578BA"/>
<path d="M619.725 287.531C619.302 286.068 618.685 284.728 618.01 283.433C616.678 280.906 615.089 278.567 613.424 276.297C613.21 276.789 612.98 277.274 612.722 277.749C614.159 279.807 615.494 281.935 616.605 284.15C617.222 285.397 617.772 286.68 618.112 287.97C618.28 288.612 618.389 289.261 618.378 289.852C618.369 290.449 618.209 290.94 617.926 291.205C617.649 291.478 617.163 291.618 616.572 291.611C615.988 291.608 615.347 291.483 614.714 291.302C613.443 290.936 612.18 290.36 610.955 289.718C608.501 288.423 606.167 286.836 603.902 285.166C599.374 281.809 595.149 278.016 591.169 273.998C589.167 271.999 587.227 269.939 585.368 267.81C583.501 265.69 581.695 263.515 580.015 261.254C578.334 258.998 576.753 256.66 575.454 254.208C574.812 252.984 574.236 251.722 573.868 250.451C573.686 249.818 573.562 249.179 573.558 248.594C573.55 248.009 573.688 247.529 573.954 247.25C574.561 246.611 575.952 246.722 577.198 247.051C578.489 247.39 579.773 247.939 581.02 248.555C583.24 249.664 585.367 251.004 587.432 252.436C587.898 252.184 588.373 251.96 588.854 251.75C586.595 250.075 584.255 248.493 581.733 247.159C580.438 246.484 579.099 245.865 577.636 245.443C576.903 245.236 576.136 245.075 575.299 245.071C574.88 245.071 574.44 245.114 573.99 245.248C573.765 245.32 573.539 245.408 573.322 245.535C573.218 245.591 573.101 245.668 572.981 245.762C572.845 245.864 572.829 245.892 572.745 245.961L572.736 245.968L572.713 245.992C571.957 246.743 571.753 247.757 571.743 248.577C571.731 249.422 571.877 250.199 572.069 250.941C572.462 252.424 573.055 253.785 573.705 255.102C575.019 257.728 576.595 260.17 578.268 262.529C581.63 267.237 585.452 271.572 589.52 275.648C593.621 279.69 597.962 283.497 602.649 286.886C604.999 288.571 607.445 290.14 610.069 291.457C611.385 292.108 612.745 292.701 614.227 293.095C614.969 293.288 615.746 293.434 616.59 293.422C617.411 293.412 618.424 293.208 619.176 292.453C619.919 291.69 620.103 290.68 620.098 289.867C620.091 289.032 619.931 288.264 619.725 287.531Z" fill="url(#paint10_linear_50_323)"/>
<path d="M591.047 393.75L600.12 389.408C600.12 389.408 601.87 393.426 601.87 399.13C601.87 404.963 599.602 409.306 599.602 409.306L590.981 404.963L591.047 393.75Z" fill="url(#paint11_radial_50_323)"/>
<path d="M505.155 406.604C504.454 403.353 519.037 387.723 530.315 385.001C541.593 382.279 589.928 385.6 590.965 387.285C592.002 388.971 592.155 395.267 592.278 399.519C592.357 402.24 592.407 409.89 590.982 410.279C589.556 410.668 555.223 417.043 544.704 417.149C531.806 417.278 506.127 411.108 505.155 406.604Z" fill="url(#paint12_linear_50_323)"/>
<path d="M588.519 368.407V388.111H571.991C571.991 388.111 570.529 387.658 570.5 386.426C570.468 385.065 579.833 369.639 582.313 368.667C584.285 367.893 588.519 368.407 588.519 368.407Z" fill="url(#paint13_linear_50_323)"/>
<path d="M553.518 413.325C553.518 413.325 565.509 408.658 569.981 407.103C574.453 405.547 588.229 401.51 588.229 401.51C588.229 401.51 605.288 408.55 606.731 409.76C607.639 410.521 607.956 412.106 607.314 412.871C606.472 413.875 598.937 417.958 597.278 418.392C595.732 418.795 587.319 418.736 574.323 417.667C564.996 416.901 552.416 415.983 553.518 413.325Z" fill="url(#paint14_linear_50_323)"/>
<path d="M583.092 418.672C582.967 418.672 582.845 418.612 582.77 418.5C582.65 418.322 582.696 418.081 582.874 417.961C587.255 414.99 598.553 409.626 604.55 407.999C604.761 407.944 604.971 408.066 605.027 408.273C605.083 408.48 604.96 408.693 604.753 408.749C598.821 410.359 587.644 415.666 583.31 418.605C583.243 418.65 583.167 418.672 583.092 418.672Z" fill="#C0EAFB"/>
<path d="M512.319 396.489C507.851 400.844 504.826 405.082 505.155 406.604C505.593 408.636 511.064 411.004 518.114 412.983C519.126 402.878 515.166 398.469 512.319 396.489Z" fill="url(#paint15_linear_50_323)"/>
<path d="M539.13 392.908C541.032 391.581 541.729 386.867 541.98 384.005C536.928 384.107 532.754 384.412 530.315 385.001C526.579 385.902 522.482 388.225 518.695 391.042C523.133 392.455 536.139 394.994 539.13 392.908Z" fill="url(#paint16_linear_50_323)"/>
<path d="M547.881 401.723C549.599 401.723 550.992 400.33 550.992 398.612C550.992 396.894 549.599 395.501 547.881 395.501C546.162 395.501 544.77 396.894 544.77 398.612C544.77 400.33 546.162 401.723 547.881 401.723Z" fill="url(#paint17_radial_50_323)"/>
<path d="M558.315 400.686C559.926 400.686 561.232 399.38 561.232 397.77C561.232 396.159 559.926 394.853 558.315 394.853C556.704 394.853 555.398 396.159 555.398 397.77C555.398 399.38 556.704 400.686 558.315 400.686Z" fill="url(#paint18_radial_50_323)"/>
<path d="M567.972 399.844C569.44 399.844 570.63 398.654 570.63 397.186C570.63 395.718 569.44 394.529 567.972 394.529C566.504 394.529 565.314 395.718 565.314 397.186C565.314 398.654 566.504 399.844 567.972 399.844Z" fill="url(#paint19_radial_50_323)"/>
<path d="M584.792 386.783C584.578 386.783 584.403 386.608 584.403 386.394V368.243C584.403 368.028 584.578 367.854 584.792 367.854C585.007 367.854 585.181 368.028 585.181 368.243V386.394C585.181 386.608 585.007 386.783 584.792 386.783Z" fill="#C0EAFB"/>
<path d="M510.417 235.278C513.253 235.252 521.887 234.921 528.111 228.472C536.181 220.111 533.361 204.167 533.361 204.167C533.361 204.167 536.283 204.05 537.445 206.597C538.952 209.903 536.959 215.93 538.222 216.611C540.33 217.746 540.847 212.819 542.5 213.597C544.153 214.375 543.93 218.165 543.57 221.569C543.229 224.784 540.993 227.812 541.771 228.813C542.792 230.126 545.222 226.819 546 228.375C546.778 229.93 543.959 232.944 541.479 234.549C539.323 235.944 535.597 237.223 535.694 238.001C535.791 238.778 539.291 238.778 538.708 240.334C538.124 241.89 533.75 241.306 531.125 241.306C528.5 241.306 524.513 241.209 522.375 242.959C520.236 244.709 510.417 235.278 510.417 235.278Z" fill="url(#paint20_linear_50_323)"/>
<path d="M520.593 220.241C520.471 220.241 520.35 220.184 520.275 220.077C520.151 219.902 520.193 219.659 520.368 219.535C520.417 219.499 525.363 215.943 525.131 212.228C524.981 209.832 523.671 208.612 522.155 207.2C521.17 206.282 520.152 205.334 519.351 203.975C516.182 198.601 519.57 194.484 521.144 193.351C521.316 193.226 521.56 193.265 521.686 193.44C521.812 193.614 521.772 193.856 521.598 193.982C520.186 195 517.147 198.708 520.021 203.58C520.766 204.842 521.742 205.751 522.686 206.631C524.256 208.093 525.739 209.474 525.908 212.179C526.168 216.327 521.037 220.014 520.819 220.169C520.749 220.218 520.671 220.241 520.593 220.241Z" fill="#E8878E"/>
<path d="M514.63 210.259C514.552 210.259 514.473 210.236 514.405 210.187C511.756 208.304 511.019 205.765 510.868 203.967C510.655 201.428 511.504 199.095 512.41 198.188C512.562 198.036 512.809 198.036 512.96 198.188C513.112 198.34 513.112 198.586 512.96 198.738C512.166 199.532 511.456 201.681 511.643 203.901C511.78 205.536 512.449 207.843 514.856 209.554C515.031 209.678 515.071 209.921 514.947 210.096C514.872 210.202 514.752 210.259 514.63 210.259Z" fill="#E8878E"/>
<path d="M544.835 239.556C544.823 239.556 544.813 239.556 544.801 239.554C544.588 239.536 544.429 239.348 544.447 239.134C544.565 237.714 546.323 237.018 549.513 235.757C550.485 235.373 551.599 234.932 552.849 234.401C554.611 233.652 555.738 232.609 556.197 231.302C556.841 229.465 556.022 227.616 555.64 226.907C555.538 226.718 555.609 226.482 555.798 226.379C555.986 226.278 556.222 226.348 556.325 226.537C556.756 227.337 557.677 229.43 556.931 231.559C556.396 233.082 555.126 234.279 553.153 235.117C551.897 235.651 550.777 236.094 549.799 236.48C546.994 237.589 545.3 238.259 545.221 239.199C545.205 239.402 545.035 239.556 544.835 239.556Z" fill="#E8878E"/>
<path d="M474.646 190.141L475.265 190.188C475.542 190.222 475.858 190.255 476.102 190.301C476.608 190.387 477.109 190.493 477.596 190.633C478.575 190.905 479.512 191.275 480.397 191.721C482.169 192.616 483.733 193.81 485.074 195.181C487.752 197.932 489.563 201.385 490.462 205.024C491.339 208.587 491.516 212.266 490.951 215.935C490.366 219.584 489.063 223.28 486.447 226.509L480.138 221.101C481.629 219.493 482.734 217.103 483.266 214.554C483.812 212.001 483.833 209.236 483.336 206.63C482.863 204.105 481.744 201.707 480.107 199.829C479.29 198.893 478.343 198.095 477.323 197.507C476.813 197.213 476.285 196.97 475.75 196.787C475.482 196.692 475.213 196.621 474.944 196.558L474.61 196.486C474.471 196.461 474.233 196.438 474.05 196.414L474.646 190.141Z" fill="url(#paint21_linear_50_323)"/>
<path d="M480.68 201.049C480.487 201.049 480.319 200.906 480.295 200.709C480.269 200.496 480.419 200.301 480.633 200.275C481.976 200.106 484.385 199.31 485.444 195.87C485.506 195.665 485.726 195.549 485.929 195.613C486.135 195.676 486.25 195.894 486.187 196.099C485.001 199.957 482.259 200.855 480.73 201.046C480.713 201.049 480.696 201.049 480.68 201.049Z" fill="#FFA2BA"/>
<path d="M486.178 209.466C485.147 209.466 484.188 209.299 483.506 209.098C483.3 209.037 483.183 208.821 483.244 208.615C483.303 208.409 483.518 208.29 483.726 208.352C485.423 208.851 489.029 209.15 490.525 206.702C490.636 206.519 490.874 206.46 491.06 206.573C491.243 206.685 491.301 206.925 491.189 207.108C490.075 208.934 488.014 209.466 486.178 209.466Z" fill="#FFA2BA"/>
<path d="M488.163 218.482C484.949 218.482 483.209 216.819 482.535 215.979C482.4 215.811 482.427 215.567 482.595 215.432C482.762 215.299 483.006 215.325 483.141 215.492C483.881 216.415 486.08 218.45 490.499 217.418C490.715 217.369 490.917 217.499 490.967 217.708C491.016 217.917 490.886 218.126 490.677 218.175C489.754 218.39 488.917 218.482 488.163 218.482Z" fill="#FFA2BA"/>
<path d="M506.311 282.599C505.939 281.881 505.611 281.125 505.361 280.324C503.748 275.137 504.323 270.149 504.323 270.149C504.323 270.149 497.388 267.945 491.879 266.779C486.37 265.612 478.995 264.04 478.995 264.04C479.176 269.047 482.352 279.288 489.092 285.704C491.961 288.436 494.559 290.236 496.847 291.473C499.724 291.47 504.389 287.825 506.311 282.599Z" fill="url(#paint22_linear_50_323)"/>
<path d="M512.231 299.574C514.354 299.056 513.203 292.25 512.555 290.694C512.006 289.374 508.399 286.645 506.311 282.599C504.389 287.825 499.724 291.47 496.847 291.472C501.705 294.1 505.156 294.176 506.787 295.167C508.283 296.077 509.956 300.13 512.231 299.574Z" fill="url(#paint23_linear_50_323)"/>
<path d="M440.092 228.342C437.044 230.114 435.019 231.101 429.916 231.259C429.642 231.268 429.36 231.271 429.074 231.271C429.869 233.902 429.98 238.385 428.63 241.723C433.274 243.645 438.108 244.413 442.748 243.853C445.411 240.906 442.993 231.681 440.092 228.342Z" fill="url(#paint24_linear_50_323)"/>
<path d="M429.074 231.271C424.999 231.271 419.864 230.474 417.731 230.546C414.361 230.659 412.367 231.971 410.909 233.479C409.662 234.767 409.337 237.335 410.763 238.243C412.548 239.378 417.018 237.74 419.48 237.416C421.943 237.091 423.888 239.749 428.555 241.694C428.579 241.704 428.604 241.711 428.629 241.722C429.98 238.385 429.869 233.902 429.074 231.271Z" fill="url(#paint25_linear_50_323)"/>
<path d="M505.848 246.069C512.28 238.67 521.629 240.975 523.425 242.751C523.323 242.637 523.225 242.518 523.12 242.407C515.474 234.307 504.649 232.101 493.759 226.592C484.434 221.874 474.575 215.315 471.723 212.236C471.723 212.236 466.797 219.139 455.151 224.161C447.245 227.57 436.917 226.431 436.917 226.431C436.917 226.431 437.836 235.103 441.389 241.694C446.736 251.611 464.917 261.917 480.764 266.972C491.844 270.506 499.341 271.5 507.209 272.319C505.459 269.111 499.31 253.591 505.848 246.069Z" fill="url(#paint26_linear_50_323)"/>
<path d="M505.435 246.979C505.419 246.979 505.403 246.978 505.387 246.975C479.238 243.773 465.197 223.885 463.515 220.102C463.428 219.906 463.516 219.675 463.712 219.588C463.909 219.503 464.139 219.589 464.226 219.786C465.878 223.503 479.694 243.045 505.481 246.204C505.694 246.23 505.846 246.424 505.82 246.637C505.796 246.834 505.629 246.979 505.435 246.979Z" fill="#00E2EC"/>
<path d="M533.42 276.109C531.396 270.051 531.67 251.935 523.425 242.751C521.629 240.975 512.279 238.67 505.847 246.07C499.31 253.591 505.458 269.112 507.208 272.32C511.412 278.949 516.075 283.243 520.317 286.176C523.575 285.574 531.469 280.901 533.42 276.109Z" fill="url(#paint27_linear_50_323)"/>
<path d="M536.375 297.694C539.651 297.553 539.179 289.428 538.612 285.931C538.028 282.333 534.919 280.025 533.556 276.5C533.509 276.378 533.465 276.242 533.42 276.109C531.469 280.901 523.576 285.574 520.317 286.176C524.806 289.279 528.822 290.859 531.32 292.056C532.575 292.657 533.362 297.824 536.375 297.694Z" fill="url(#paint28_linear_50_323)"/>
<path d="M528.793 282.018C528.694 282.018 528.596 281.981 528.519 281.906C512.473 266.032 513.948 251.289 514.503 245.739C514.524 245.525 514.718 245.373 514.928 245.39C515.142 245.411 515.299 245.602 515.276 245.816C514.732 251.265 513.283 265.74 529.066 281.353C529.219 281.503 529.22 281.75 529.069 281.902C528.994 281.98 528.893 282.018 528.793 282.018Z" fill="#00E2EC"/>
<path d="M481.736 228.375C479.079 225.671 473.18 223.806 467.833 226.042C460.664 229.039 454.316 238.414 449.793 243.661C452.37 244.24 455.896 245.894 457.43 248.743C458.495 250.72 458.88 252.825 459.007 254.393C466.709 252.968 475.478 249.536 480.472 244.708C487.08 238.32 484.458 231.146 481.736 228.375Z" fill="url(#paint29_linear_50_323)"/>
<path d="M449.793 243.661C448.775 244.841 447.85 245.815 447.028 246.458C442.136 250.287 437.522 252.99 435.555 255.014C433.854 256.764 432.25 259.486 433.903 261.042C436.16 263.167 439.396 261.285 443.041 258.125C445.958 255.597 447.484 255.733 455.236 254.945C456.447 254.823 457.715 254.633 459.008 254.394C458.881 252.826 458.496 250.721 457.431 248.743C455.896 245.894 452.37 244.24 449.793 243.661Z" fill="url(#paint30_linear_50_323)"/>
<path d="M457.43 249.132C457.269 249.132 457.119 249.032 457.062 248.871C456.992 248.668 457.1 248.446 457.303 248.376C467.716 244.762 479.735 231.727 481.384 228.21C481.475 228.016 481.708 227.932 481.901 228.024C482.095 228.115 482.179 228.346 482.088 228.541C480.352 232.243 468.352 245.365 457.558 249.111C457.515 249.125 457.473 249.132 457.43 249.132Z" fill="#00E2EC"/>
<path d="M423.312 206.296C424.959 206.257 432.348 204.118 433.612 201.931C434.876 199.743 437.889 201.784 437.889 201.784C437.889 201.784 438.23 207.764 431.715 207.958C425.201 208.153 423.312 206.296 423.312 206.296Z" fill="url(#paint31_linear_50_323)"/>
<path d="M427.783 206.782C427.961 206.248 428.993 205.357 430.841 204.701C432.835 203.992 434.487 203.777 437.16 203.729C434.754 205.365 435.848 207.805 433.871 207.958C429.269 208.315 427.783 206.782 427.783 206.782Z" fill="#D039A3"/>
<path d="M440.871 183.037C440.612 180.962 441.067 170.917 441.909 170.657C442.751 170.397 448.778 177.009 448.844 182.064C446.057 183.555 440.871 183.037 440.871 183.037Z" fill="url(#paint32_linear_50_323)"/>
<path d="M412.806 186.958C413.396 186.146 414.264 186.181 415.139 186.181C416.014 186.181 432.736 186.375 432.736 186.375C432.736 186.375 439.056 182 443.917 181.417C448.778 180.833 455.292 181.514 455.292 181.514C455.292 181.514 458.111 178.597 460.542 176.458C462.972 174.319 465.792 171.5 466.861 171.792C467.931 172.083 467.15 179.632 465.889 183.361C464.722 186.813 461.903 190.264 461.903 190.264C461.903 190.264 462.972 196.778 465.5 202.319C467.701 207.146 471.722 212.236 471.722 212.236C471.722 212.236 466.77 220.019 456.75 223.611C443.868 228.23 436.917 226.431 436.917 226.431C436.917 226.431 436.764 223.028 436.82 220.111C436.888 216.566 437.014 213.597 437.014 213.597C437.014 213.597 432.677 213.022 429.334 211.653C425.298 210 423.403 208.493 423.311 206.296C424.126 206.545 426.421 207.154 430.209 206.403C436.577 205.139 436.917 202.319 436.917 202.319C436.917 202.319 432.328 203.691 425.056 200.764C417.084 197.556 410.473 190.167 412.806 186.958Z" fill="url(#paint33_linear_50_323)"/>
<path d="M420.52 186.236C417.713 186.205 415.447 186.181 415.139 186.181C414.264 186.181 413.396 186.146 412.806 186.958C411.644 188.556 412.701 191.189 415.037 193.827C417.073 192.813 420.24 190.259 420.52 186.236Z" fill="url(#paint34_linear_50_323)"/>
<path d="M439.51 188.676C440.333 188.676 441 188.009 441 187.185C441 186.362 440.333 185.694 439.51 185.694C438.686 185.694 438.019 186.362 438.019 187.185C438.019 188.009 438.686 188.676 439.51 188.676Z" fill="#212F66"/>
<path d="M439.097 187.136C439.41 187.136 439.664 186.883 439.664 186.569C439.664 186.256 439.41 186.002 439.097 186.002C438.784 186.002 438.53 186.256 438.53 186.569C438.53 186.883 438.784 187.136 439.097 187.136Z" fill="#0090B2"/>
<path d="M449.104 191.787C450.07 191.787 450.854 191.003 450.854 190.037C450.854 189.07 450.07 188.287 449.104 188.287C448.137 188.287 447.354 189.07 447.354 190.037C447.354 191.003 448.137 191.787 449.104 191.787Z" fill="#212F66"/>
<path d="M448.389 190.135C448.73 190.135 449.005 189.859 449.005 189.519C449.005 189.179 448.73 188.903 448.389 188.903C448.049 188.903 447.773 189.179 447.773 189.519C447.773 189.859 448.049 190.135 448.389 190.135Z" fill="#0090B2"/>
<path d="M460.494 160.748C444.26 150.656 422.918 155.636 412.827 171.869C402.736 188.103 407.715 209.445 423.95 219.537C440.183 229.629 461.526 224.649 471.616 208.416C481.707 192.182 476.73 170.84 460.494 160.748ZM467.102 205.93C459.028 218.919 441.952 222.903 428.963 214.828C415.974 206.753 411.99 189.678 420.065 176.688C428.139 163.7 445.216 159.715 458.204 167.79C471.193 175.864 475.177 192.94 467.102 205.93Z" fill="url(#paint35_radial_50_323)"/>
<g opacity="0.5">
<path opacity="0.5" d="M439.853 164.043L438.995 164.235L438.204 164.445C437.668 164.599 437.137 164.766 436.614 164.946C435.796 165.227 434.906 164.792 434.624 163.975C434.343 163.157 434.777 162.267 435.595 161.985C435.705 161.947 435.827 161.922 435.937 161.909C436.553 161.842 437.168 161.792 437.781 161.758L438.722 161.726L439.601 161.729C440.248 161.73 440.772 162.258 440.77 162.905C440.769 163.462 440.377 163.927 439.853 164.043Z" fill="white"/>
</g>
<g opacity="0.5">
<path opacity="0.5" d="M431.808 166.52L430.929 166.91L430.135 167.295C429.597 167.572 429.065 167.865 428.543 168.174C427.502 168.798 426.505 169.496 425.56 170.262C423.671 171.792 421.997 173.597 420.6 175.604C420.187 176.201 419.368 176.349 418.771 175.936C418.186 175.53 418.035 174.732 418.418 174.139C419.884 171.885 421.671 169.829 423.717 168.062C424.739 167.179 425.826 166.367 426.965 165.635C427.535 165.271 428.118 164.925 428.712 164.597L429.636 164.113L430.505 163.695C431.279 163.322 432.208 163.648 432.581 164.421C432.955 165.195 432.63 166.126 431.854 166.498C431.842 166.504 431.82 166.514 431.808 166.52Z" fill="white"/>
</g>
<path d="M473.727 214.06C472.891 213.373 472.201 212.752 471.722 212.236C471.722 212.236 471.148 211.508 470.315 210.344C462.53 221.192 449.437 226.315 436.847 224.342C436.878 225.569 436.917 226.43 436.917 226.43C436.917 226.43 437.041 227.599 437.373 229.402C451.037 231.082 465.04 225.53 473.727 214.06Z" fill="url(#paint36_linear_50_323)"/>
<path d="M475.775 181.648C474.745 177.71 473.021 173.962 470.704 170.63C468.384 167.301 465.478 164.386 462.152 162.079C458.837 159.748 455.134 157.994 451.224 156.948C447.321 155.894 443.232 155.554 439.21 155.919C431.159 156.639 423.408 160.288 417.786 166.08C412.139 171.839 408.607 179.628 408.084 187.668C407.468 195.697 409.803 203.921 414.573 210.43C419.31 216.961 426.447 221.705 434.307 223.578C442.165 225.485 450.685 224.462 457.902 220.788C461.519 218.975 464.824 216.522 467.591 213.552C470.365 210.59 472.609 207.127 474.205 203.385C472.668 207.152 470.474 210.66 467.732 213.681C464.996 216.711 461.704 219.238 458.076 221.128C450.803 224.892 442.176 225.972 434.188 224.082C426.198 222.223 418.915 217.445 414.05 210.813C409.156 204.207 406.717 195.828 407.31 187.612C407.89 179.391 411.54 171.464 417.325 165.628C423.086 159.755 430.99 156.091 439.164 155.405C447.339 154.67 455.726 156.982 462.371 161.769C465.696 164.154 468.578 167.14 470.861 170.522C473.137 173.91 474.806 177.696 475.775 181.648Z" fill="white"/>
<path d="M475.765 181.65C474.485 182.077 473.255 182.726 472.14 183.618C467.048 187.689 466.219 195.119 470.291 200.213C471.386 201.584 472.727 202.643 474.198 203.382C477.122 196.343 477.555 188.721 475.765 181.65Z" fill="url(#paint37_linear_50_323)"/>
<path d="M163.868 232.276C163.404 232.729 162.851 233.474 162.346 234.267C161.838 235.067 161.364 235.934 160.93 236.828C160.062 238.62 159.355 240.524 158.813 242.46C157.73 246.336 157.315 250.358 157.658 254.231C157.995 258.107 159.096 261.826 160.874 265.205C162.647 268.59 165.085 271.638 167.96 274.325L159.68 282.369C156.316 278.638 153.419 274.33 151.433 269.572C149.434 264.826 148.4 259.665 148.404 254.588C148.398 249.504 149.377 244.531 151.106 239.906C151.976 237.592 153.029 235.357 154.303 233.215C154.942 232.144 155.635 231.096 156.422 230.067C157.22 229.043 158.067 228.016 159.3 227.003L163.868 232.276Z" fill="url(#paint38_linear_50_323)"/>
<path d="M158.358 242.345C154.532 242.345 151.974 239.423 151.253 238.487C151.123 238.316 151.154 238.072 151.325 237.942C151.495 237.812 151.739 237.844 151.87 238.013C152.568 238.922 155.143 241.865 158.933 241.544C159.147 241.523 159.335 241.685 159.353 241.899C159.371 242.113 159.212 242.301 158.998 242.319C158.781 242.337 158.567 242.345 158.358 242.345Z" fill="#00E2EC"/>
<path d="M153.173 254.562C151.001 254.562 149.28 253.743 148.236 253.073C148.055 252.957 148.002 252.717 148.118 252.536C148.234 252.355 148.474 252.302 148.656 252.418C150.213 253.418 153.419 254.78 157.392 252.659C157.581 252.558 157.817 252.629 157.918 252.82C158.019 253.009 157.948 253.244 157.758 253.345C156.089 254.237 154.541 254.562 153.173 254.562Z" fill="#00E2EC"/>
<path d="M151.843 268.933C151.537 268.933 151.25 268.923 150.985 268.908C150.771 268.896 150.607 268.712 150.62 268.497C150.632 268.283 150.817 268.117 151.03 268.132C153.358 268.268 157.64 267.93 160.136 264.168C160.254 263.989 160.495 263.939 160.675 264.059C160.854 264.177 160.903 264.419 160.784 264.598C158.359 268.252 154.432 268.933 151.843 268.933Z" fill="#00E2EC"/>
<path d="M470.037 406.259C469.259 403.666 453.185 403.667 451.111 403.407C449.968 403.264 445.994 390.345 438.763 375.489C426.481 377.481 417.277 387.851 414.801 391.905L414.802 391.909C429.129 404.248 439.052 416.165 443.981 417.536C448.528 418.801 470.815 408.852 470.037 406.259Z" fill="url(#paint39_linear_50_323)"/>
<path d="M438.764 375.489C432.863 363.368 424.793 349.958 414.32 341.145C400.562 329.569 386.296 324.333 375.148 323.297C375.148 323.297 360.049 329.721 352.463 336.908C345.074 343.908 344.555 349.483 343.129 359.204C357.777 360.111 370.743 363.878 389.407 373.981C398.978 379.162 407.467 385.591 414.803 391.91L414.801 391.906C417.278 387.851 426.482 377.481 438.764 375.489Z" fill="url(#paint40_linear_50_323)"/>
<path d="M411.834 376.056C411.589 376.056 411.347 375.94 411.196 375.723C395.768 353.646 358.874 340.532 350.837 339.173C350.414 339.101 350.129 338.7 350.2 338.276C350.272 337.853 350.667 337.573 351.097 337.639C359.264 339.02 396.768 352.361 412.47 374.832C412.716 375.184 412.63 375.669 412.279 375.916C412.143 376.01 411.987 376.056 411.834 376.056Z" fill="#9F36AD"/>
<path d="M280.972 218.167C280.972 218.167 269.597 216.028 249.569 217C243.352 217.302 237.875 217.883 233.233 218.552C232.037 223.167 230.186 227.519 227.785 231.5C231.389 232.361 234.5 232.75 249.666 240.042C264.833 247.333 287.296 262.264 295.458 260.75C304.889 259 328.514 250.347 329.486 237.319C330.506 223.648 280.972 218.167 280.972 218.167Z" fill="url(#paint41_linear_50_323)"/>
<path d="M329.486 237.319C329.718 234.211 327.331 231.527 323.512 229.233C320.062 231.619 315.818 235.814 314.482 241.694C313.293 246.927 313.986 251.469 314.554 253.852C322.22 249.79 328.976 244.159 329.486 237.319Z" fill="url(#paint42_linear_50_323)"/>
<path d="M284.537 227.694C284.477 227.694 284.416 227.685 284.356 227.666C264.314 221.111 232.311 222.998 229.908 223.898C229.609 224.012 229.271 223.858 229.158 223.557C229.044 223.255 229.197 222.919 229.499 222.806C232.037 221.854 263.986 219.777 284.718 226.557C285.025 226.658 285.192 226.987 285.091 227.293C285.011 227.538 284.783 227.694 284.537 227.694Z" fill="#9F36AD"/>
<path d="M328.903 232.264C325.937 224.534 313.278 218.281 305.394 214.374C303.11 213.242 300.621 212.172 298.077 211.135C297.741 213.649 296.655 217.666 293.222 221.019C289.091 225.051 283.766 225.776 280.388 225.826C282.79 228.791 285.27 231.55 287.777 233.626C294.101 238.862 307.006 246.882 316.756 247.763C320.946 248.142 324.64 247.264 326.804 244.154C328.355 241.925 331.166 238.162 328.903 232.264Z" fill="url(#paint43_linear_50_323)"/>
<path d="M326.804 244.154C328.355 241.925 331.166 238.163 328.903 232.264C328.299 230.689 327.287 229.176 326 227.731C322.495 229.531 316.17 234.267 314.482 241.694C314.029 243.689 313.852 245.582 313.835 247.296C314.831 247.507 315.812 247.677 316.756 247.763C320.946 248.141 324.641 247.263 326.804 244.154Z" fill="url(#paint44_linear_50_323)"/>
<path d="M298.077 211.135C288.598 207.271 278.358 203.869 275.139 199.5C271.934 195.151 273.145 187.687 271.736 182.389C270.685 178.437 267.409 173.687 264.153 174.222C260.19 174.872 259.583 180.25 260.361 184.528C261.139 188.805 262.111 192.305 259.681 192.889C257.598 193.389 254.896 191.714 253.653 191.236C252.81 190.912 249.495 190.831 250.639 194.736C252.13 199.824 261.009 203.925 266.097 208.25C270.117 211.667 275.062 219.253 280.388 225.825C283.767 225.775 289.091 225.05 293.222 221.018C296.655 217.666 297.742 213.649 298.077 211.135Z" fill="url(#paint45_linear_50_323)"/>
<path d="M344.944 301.194C344.944 301.194 331.852 281.037 303.625 260.167C273.043 237.555 230.04 227.315 225.944 227.5C225.944 227.5 217.972 237.806 209.222 243.25C200.472 248.694 182.389 249.278 182.389 249.278C182.389 249.278 185.305 274.069 197.944 304.014C202.016 313.661 206.4 320.705 211.674 329.947C227.111 357 251.611 385 284.472 386.75C279.741 360.37 299.833 320.444 344.944 301.194Z" fill="url(#paint46_linear_50_323)"/>
<path d="M320.55 315.975C320.323 315.975 320.097 315.877 319.944 315.685C286.686 274.399 246.183 246.739 221.604 235.597C221.213 235.42 221.04 234.96 221.217 234.568C221.394 234.177 221.855 234.004 222.247 234.18C246.98 245.393 287.725 273.211 321.155 314.71C321.424 315.044 321.372 315.534 321.038 315.803C320.894 315.919 320.721 315.975 320.55 315.975Z" fill="#FFA2BA"/>
<path d="M284.536 370.827C284.505 370.827 284.475 370.826 284.444 370.822C245.406 366.218 219.997 326.689 218.934 325.008C218.704 324.645 218.813 324.165 219.176 323.935C219.539 323.704 220.019 323.814 220.249 324.177C229.113 338.195 253.975 365.662 284.627 369.277C285.053 369.327 285.358 369.714 285.308 370.141C285.261 370.537 284.925 370.827 284.536 370.827Z" fill="#FFA2BA"/>
<path d="M229.574 275.592C228.148 282.592 254.204 306.347 261.722 306.347C269.017 306.347 295.739 276.187 303.807 260.304C303.745 260.258 303.687 260.212 303.625 260.167C292.425 251.886 279.559 245.265 267.548 240.207C256.508 246.9 231.137 267.919 229.574 275.592Z" fill="url(#paint47_linear_50_323)"/>
<path d="M259.969 284.431C263.729 284.431 266.777 281.383 266.777 277.623C266.777 273.863 263.729 270.815 259.969 270.815C256.209 270.815 253.161 273.863 253.161 277.623C253.161 281.383 256.209 284.431 259.969 284.431Z" fill="#1AA9E8"/>
<path d="M270.009 270.555C271.65 270.555 272.98 269.225 272.98 267.584C272.98 265.943 271.65 264.613 270.009 264.613C268.368 264.613 267.038 265.943 267.038 267.584C267.038 269.225 268.368 270.555 270.009 270.555Z" fill="#1AA9E8"/>
<path d="M259.969 292.595C251.714 292.595 244.997 285.878 244.997 277.623C244.997 269.368 251.714 262.651 259.969 262.651C268.225 262.651 274.942 269.368 274.942 277.623C274.942 285.878 268.225 292.595 259.969 292.595ZM259.969 264.206C252.571 264.206 246.553 270.225 246.553 277.623C246.553 285.021 252.571 291.04 259.969 291.04C267.368 291.04 273.386 285.021 273.386 277.623C273.386 270.225 267.368 264.206 259.969 264.206Z" fill="#1AA9E8"/>
<path d="M277.056 263.184C276.666 263.184 276.275 263.037 275.973 262.745C275.356 262.147 275.341 261.162 275.939 260.545L287.004 249.127C287.603 248.51 288.588 248.495 289.204 249.093C289.82 249.691 289.836 250.675 289.238 251.292L278.172 262.711C277.868 263.026 277.462 263.184 277.056 263.184Z" fill="#9F36AD"/>
<path d="M270.094 256.933C269.701 256.933 269.306 256.784 269.004 256.486C268.391 255.884 268.383 254.899 268.986 254.287L278.491 244.623C279.093 244.011 280.079 244.003 280.691 244.605C281.304 245.207 281.311 246.192 280.709 246.805L271.203 256.468C270.899 256.778 270.496 256.933 270.094 256.933Z" fill="#9F36AD"/>
<path d="M285.27 269.021C284.903 269.021 284.534 268.892 284.238 268.629C283.595 268.059 283.537 267.075 284.107 266.432L295.088 254.058C295.66 253.416 296.643 253.358 297.285 253.927C297.927 254.497 297.986 255.481 297.416 256.124L286.434 268.498C286.126 268.844 285.699 269.021 285.27 269.021Z" fill="#9F36AD"/>
<path d="M435.661 314.557C413.763 306.9 386.489 296.224 367.89 296.917C352.334 297.496 344.945 301.194 344.945 301.194C299.834 320.444 279.742 360.37 284.473 386.75C342.162 389.822 359.091 355.878 389.667 345.333C401.733 341.172 416.629 340.693 430.239 340.968C430.239 340.967 430.239 340.966 430.239 340.965C426.995 326.745 433.742 317.463 435.661 314.557Z" fill="url(#paint48_linear_50_323)"/>
<path d="M367.695 317.982C383.999 316.564 388.256 304.515 388.016 299.291C380.724 297.647 373.859 296.694 367.89 296.917C352.334 297.496 344.945 301.194 344.945 301.194C345.659 309.426 352.343 319.317 367.695 317.982Z" fill="url(#paint49_linear_50_323)"/>
<path d="M365.983 311.5C365.342 311.5 364.82 310.982 364.817 310.34L364.745 296.832C364.742 296.188 365.262 295.663 365.906 295.659C365.908 295.659 365.909 295.659 365.912 295.659C366.553 295.659 367.075 296.177 367.078 296.819L367.15 310.327C367.153 310.971 366.634 311.496 365.99 311.5C365.987 311.5 365.986 311.5 365.983 311.5Z" fill="#9F36AD"/>
<path d="M374.828 311.487C374.187 311.487 373.665 310.969 373.662 310.327L373.595 297.153C373.592 296.508 374.111 295.983 374.755 295.98C374.758 295.98 374.76 295.98 374.761 295.98C375.403 295.98 375.925 296.499 375.928 297.141L375.995 310.315C375.998 310.959 375.478 311.484 374.834 311.487C374.832 311.487 374.83 311.487 374.828 311.487Z" fill="#9F36AD"/>
<path d="M357.334 311.549C356.709 311.549 356.191 311.054 356.169 310.424L355.726 298.003C355.704 297.359 356.207 296.819 356.85 296.795C357.489 296.766 358.034 297.275 358.058 297.919L358.501 310.34C358.523 310.984 358.02 311.525 357.377 311.548C357.362 311.549 357.347 311.549 357.334 311.549Z" fill="#9F36AD"/>
<path d="M293.16 371.329C290.278 371.329 287.372 371.167 284.445 370.823C284.019 370.773 283.714 370.385 283.764 369.959C283.815 369.532 284.202 369.229 284.627 369.278C315.622 372.936 344.649 355.525 363.857 344.006C370.79 339.848 376.265 336.565 380.452 335.013C394.113 329.949 414.649 331.135 429.471 333.021C429.898 333.075 430.199 333.464 430.145 333.891C430.091 334.317 429.707 334.614 429.275 334.564C414.624 332.699 394.356 331.517 380.993 336.47C376.942 337.972 371.249 341.386 364.656 345.339C347.068 355.888 321.322 371.329 293.16 371.329Z" fill="#FFA2BA"/>
<path d="M466.278 340.278C469.663 338.857 474.187 336.105 479.306 327.639C482.676 322.065 485.269 311.635 483.195 311.694C478.658 311.824 473.268 321.38 465.89 322C459.594 322.529 448.56 319.066 435.66 314.557C433.742 317.463 426.995 326.745 430.239 340.965C430.239 340.966 430.239 340.967 430.239 340.968C446.313 341.29 460.592 342.664 466.278 340.278Z" fill="url(#paint50_linear_50_323)"/>
<path d="M444.889 336C447.467 336 449.556 333.911 449.556 331.333C449.556 328.756 447.467 326.667 444.889 326.667C442.312 326.667 440.223 328.756 440.223 331.333C440.223 333.911 442.312 336 444.889 336Z" fill="#9F36AD"/>
<path d="M207.278 351.167C209.028 334.639 214.278 325.597 214.861 312.667C215.497 298.556 210.89 257.572 184.528 251.806C179.861 250.784 174.611 251.855 174.611 251.855C163.981 266.778 153.741 288.556 154.648 316.556C155.648 347.419 173.553 367.778 184.203 378.389C184.294 378.478 184.378 378.564 184.468 378.653C187.8 375.516 195.771 370.181 207.445 369.962C206.836 363.711 206.65 357.091 207.278 351.167Z" fill="url(#paint51_linear_50_323)"/>
<path d="M170.138 329.681C166.847 319.275 158.706 316.532 154.644 316.332C154.646 316.407 154.646 316.48 154.648 316.556C155.115 330.948 159.258 343.054 164.627 352.954C169.109 349.669 173.444 340.129 170.138 329.681Z" fill="url(#paint52_linear_50_323)"/>
<path d="M157.515 335.747C157.011 335.747 156.545 335.417 156.396 334.91C156.215 334.291 156.569 333.643 157.187 333.461L164.9 331.197C165.517 331.018 166.166 331.371 166.348 331.988C166.529 332.607 166.175 333.255 165.557 333.436L157.844 335.701C157.735 335.732 157.623 335.747 157.515 335.747Z" fill="#9F36AD"/>
<path d="M156.127 329.507C155.622 329.507 155.157 329.177 155.007 328.669C154.826 328.051 155.18 327.402 155.798 327.221L163.141 325.066C163.759 324.886 164.407 325.239 164.589 325.857C164.77 326.475 164.416 327.124 163.798 327.305L156.456 329.46C156.346 329.492 156.236 329.507 156.127 329.507Z" fill="#9F36AD"/>
<path d="M159.402 342.321C158.917 342.321 158.464 342.016 158.298 341.532C158.09 340.922 158.415 340.258 159.025 340.051L166.438 337.516C167.049 337.305 167.711 337.633 167.92 338.242C168.128 338.852 167.803 339.516 167.193 339.723L159.78 342.258C159.655 342.302 159.527 342.321 159.402 342.321Z" fill="#9F36AD"/>
<path d="M189 366.852C188.736 366.852 188.478 366.718 188.333 366.475C188.199 366.252 188.023 365.966 187.808 365.617C173.421 342.286 169.801 321.987 169.297 309.067C168.151 279.692 176.781 258.789 182.061 251.07C182.303 250.715 182.788 250.624 183.142 250.867C183.497 251.109 183.588 251.593 183.345 251.948C178.174 259.51 169.722 280.037 170.852 309.006C171.349 321.74 174.923 341.757 189.133 364.8C189.351 365.156 189.532 365.447 189.668 365.674C189.889 366.042 189.77 366.52 189.401 366.741C189.275 366.816 189.136 366.852 189 366.852Z" fill="#FFA2BA"/>
<path d="M202.757 400.264C204.394 405.471 200.083 410.797 199.792 415.431C199.462 420.67 205.661 427.852 208.93 427.681C212.009 427.519 213.597 423.889 213.5 421.361C213.403 418.833 212.236 412.806 214.472 412.319C216.708 411.833 216.053 416.313 217.097 417.861C217.972 419.158 220.176 419.092 220.792 417.278C221.42 415.425 221.667 410.213 220.111 406.972C218.21 403.011 214.667 398.708 212.139 392.972C210.57 389.412 208.44 380.184 207.445 369.962C195.771 370.181 187.801 375.516 184.468 378.653C197.183 391.319 201.164 395.195 202.757 400.264Z" fill="url(#paint53_linear_50_323)"/>
<path d="M205.042 218.264C206.155 220.014 212.528 227.111 216.125 229.056C215.056 232.361 210.681 237.611 203.778 240.819C198.128 243.445 191.09 244.514 191.09 244.514C191.09 244.514 188.416 238 186.764 230.27C185.641 225.021 185.208 220.11 185.208 220.11C185.208 220.11 189.729 222.59 195.416 222.444C201.019 222.301 205.042 218.264 205.042 218.264Z" fill="url(#paint54_linear_50_323)"/>
<path d="M205.788 206.953C203.519 197.879 196.584 188.676 194.704 186.212H189.324L170.333 197.879L169.75 207.86C169.75 207.86 172.361 211.184 176.542 215.601C174.911 216.269 173.769 217.818 173.769 219.623C173.769 222.04 175.814 223.998 178.338 223.998C180.185 223.998 181.772 222.948 182.492 221.438C189.337 227.096 198.433 227.018 202.741 224.063C207.265 220.963 208.056 216.028 205.788 206.953Z" fill="url(#paint55_linear_50_323)"/>
<path d="M188.611 207.861C189.47 207.861 190.167 207.165 190.167 206.306C190.167 205.446 189.47 204.75 188.611 204.75C187.752 204.75 187.056 205.446 187.056 206.306C187.056 207.165 187.752 207.861 188.611 207.861Z" fill="#212F66"/>
<path d="M199.565 200.278C200.353 200.278 200.991 199.639 200.991 198.852C200.991 198.065 200.353 197.426 199.565 197.426C198.778 197.426 198.14 198.065 198.14 198.852C198.14 199.639 198.778 200.278 199.565 200.278Z" fill="#212F66"/>
<path d="M194.091 199.332C195.199 198.087 203.239 204.668 203.032 206.054C202.824 207.44 200.765 208.396 199.354 208.639C197.817 205.868 193.537 199.956 194.091 199.332Z" fill="url(#paint56_linear_50_323)"/>
<path d="M199.671 216.288C198.763 216.288 197.906 215.99 197.194 215.426C197.025 215.293 196.997 215.048 197.13 214.88C197.263 214.712 197.508 214.684 197.676 214.817C198.25 215.27 198.94 215.51 199.67 215.51C201.453 215.51 202.902 214.05 202.902 212.253C202.902 212.032 202.881 211.811 202.837 211.596C202.794 211.385 202.93 211.18 203.14 211.138C203.352 211.093 203.557 211.231 203.599 211.441C203.653 211.707 203.68 211.98 203.68 212.253C203.681 214.478 201.883 216.288 199.671 216.288Z" fill="#954374"/>
<path d="M198.982 175.583C196.973 173.703 193.991 175.908 192.176 177.917C190.362 179.926 188.93 182.266 187.25 182.13C184.853 181.935 185.681 176.206 182.714 176.556C178.306 177.074 176.103 187.315 174.677 188.092C173.251 188.87 172.056 185.649 169.816 187.056C167.029 188.806 167.89 197.092 167.547 199.111C167.316 200.47 163.321 202.945 163.723 207.861C164.206 213.784 170.041 218.182 173.77 219.643C173.77 219.637 173.769 219.63 173.769 219.625C173.769 217.552 175.277 215.819 177.298 215.368C177.281 213.247 176.876 210.818 176.362 209.029C175.13 204.751 172.312 201.429 172.312 201.429C174.126 201.234 185.371 197.881 193.214 191.011C199.914 185.14 201.097 177.562 198.982 175.583Z" fill="url(#paint57_linear_50_323)"/>
<path d="M185.796 169.677C172.529 169.677 160.913 176.745 154.507 187.322C160.544 181.855 168.551 178.524 177.338 178.524C196.131 178.524 211.366 193.758 211.366 212.552C211.366 224.849 204.842 235.62 195.068 241.599C210.767 237.494 222.352 223.218 222.352 206.232C222.352 186.044 205.985 169.677 185.796 169.677Z" fill="url(#paint58_radial_50_323)"/>
<path d="M195.147 237.493C183.431 237.493 170.762 233.315 164.371 224.519C152.834 208.639 160.125 179.375 172.683 172.11C158.975 177.382 149.241 190.666 149.241 206.232C149.241 226.422 165.607 242.788 185.797 242.788C194.269 242.788 202.062 239.898 208.261 235.06C204.189 236.626 199.77 237.493 195.147 237.493Z" fill="url(#paint59_linear_50_323)"/>
<path d="M158.682 219.585C156.415 219.585 154.309 220.266 152.548 221.426C155.687 228.284 160.88 234 167.346 237.788C168.908 235.867 169.847 233.419 169.847 230.75C169.848 224.583 164.849 219.585 158.682 219.585Z" fill="url(#paint60_linear_50_323)"/>
<g opacity="0.5">
<path opacity="0.5" d="M203.875 182.351L204.656 182.852L205.464 183.412C205.986 183.789 206.498 184.181 207.002 184.588C207.603 185.074 207.697 185.956 207.21 186.558C206.724 187.16 205.842 187.253 205.24 186.766C205.173 186.712 205.105 186.644 205.05 186.58C204.67 186.131 204.277 185.69 203.871 185.258L203.262 184.634L202.589 183.996C202.168 183.598 202.151 182.934 202.549 182.514C202.901 182.142 203.46 182.085 203.875 182.351Z" fill="white"/>
</g>
<g opacity="0.5">
<path opacity="0.5" d="M210.974 189.081C211.748 190.25 212.463 191.511 213.073 192.794C213.686 194.081 214.207 195.411 214.632 196.77C215.482 199.488 215.939 202.321 215.998 205.154C216.014 205.879 215.438 206.48 214.712 206.495C214 206.51 213.408 205.952 213.372 205.246C213.24 202.659 212.747 200.1 211.905 197.665C211.484 196.448 210.979 195.262 210.391 194.118C209.801 192.969 209.145 191.884 208.39 190.814C207.895 190.111 208.063 189.141 208.764 188.645C209.466 188.15 210.437 188.318 210.933 189.019C210.94 189.03 210.947 189.04 210.954 189.051L210.974 189.081Z" fill="white"/>
</g>
<path d="M233.233 218.552C226.815 219.476 222.006 220.565 219.09 221.323C213.343 233.98 200.602 242.789 185.795 242.789C184.465 242.789 183.153 242.713 181.859 242.575C178.693 246.034 175.267 250.864 173.371 253.64C177.339 254.677 181.502 255.233 185.795 255.233C208.603 255.232 227.769 239.65 233.233 218.552Z" fill="url(#paint61_linear_50_323)"/>
<path d="M172.68 172.1C176.658 170.475 180.951 169.616 185.263 169.493C189.578 169.39 193.919 170.05 198.015 171.456C206.228 174.246 213.321 180.125 217.71 187.613C222.102 195.102 223.677 204.2 222.083 212.708C221.292 216.966 219.739 221.072 217.526 224.779C215.288 228.47 212.417 231.772 209.05 234.441C215.584 228.863 220.092 221.018 221.494 212.604C222.195 208.401 222.198 204.084 221.446 199.901C220.696 195.714 219.196 191.667 217.039 188.006C214.91 184.329 212.115 181.039 208.848 178.317C205.577 175.597 201.822 173.468 197.817 172.019C189.8 169.122 180.75 169.156 172.68 172.1Z" fill="white"/>
<path d="M270.424 195.462C270.525 195.861 270.284 196.267 269.885 196.369L256.967 199.948C256.568 200.049 256.163 199.808 256.061 199.409L247.972 171.026C247.871 170.628 248.112 170.222 248.51 170.12L262.206 165.763C262.605 165.662 263.011 165.903 263.112 166.301L270.424 195.462Z" fill="url(#paint62_linear_50_323)"/>
<path d="M267.39 193.414L257.123 196.32L250.009 171.598L260.997 167.929L267.39 193.414Z" fill="url(#paint63_linear_50_323)"/>
<path d="M286.645 137.274C287.001 138.512 286.285 139.805 285.047 140.161L232.747 155.985C231.509 156.341 230.216 155.626 229.86 154.387L225.239 137.538C224.883 136.3 225.598 135.008 226.837 134.651L279.137 119.216C280.375 118.86 281.668 119.576 282.024 120.815L286.645 137.274Z" fill="#C7A0F6"/>
<path d="M279.783 120.68C280.127 120.68 280.434 120.912 280.527 121.235L285.15 137.704C285.268 138.116 285.03 138.548 284.597 138.672L232.318 154.49C232.247 154.51 232.174 154.521 232.102 154.521C231.758 154.521 231.452 154.289 231.361 153.976L226.735 137.108C226.657 136.838 226.744 136.622 226.802 136.516C226.86 136.411 226.998 136.223 227.278 136.142L279.567 120.71C279.638 120.691 279.71 120.681 279.783 120.68ZM279.783 119.125C279.57 119.125 279.353 119.154 279.137 119.216L226.838 134.651C225.6 135.008 224.884 136.3 225.24 137.538L229.86 154.387C230.154 155.41 231.088 156.077 232.101 156.077C232.314 156.077 232.532 156.047 232.747 155.985L285.048 140.161C286.286 139.805 287.001 138.512 286.645 137.274L282.025 120.814C281.73 119.791 280.796 119.125 279.783 119.125Z" fill="#FDE1A7"/>
<path d="M257.055 180.056C258.63 180.056 259.907 178.779 259.907 177.203C259.907 175.628 258.63 174.351 257.055 174.351C255.48 174.351 254.203 175.628 254.203 177.203C254.203 178.779 255.48 180.056 257.055 180.056Z" fill="#FE697A"/>
<path d="M257.056 177.787C257.04 177.787 257.024 177.786 257.006 177.785C256.685 177.758 256.447 177.476 256.474 177.154L258.945 147.833C258.972 147.512 259.257 147.281 259.575 147.3C259.897 147.327 260.135 147.61 260.108 147.931L257.637 177.252C257.611 177.557 257.356 177.787 257.056 177.787Z" fill="#FDE1A7"/>
<path d="M265.659 127.959L259.643 135.611L269.121 139.197L265.659 127.959Z" fill="white"/>
<path d="M264.276 127.829L244.754 133.842L256.47 137.759L264.276 127.829Z" fill="white"/>
<path d="M247.188 145.938L252.819 137.769L243.737 134.734L247.188 145.938Z" fill="white"/>
<path d="M258.887 136.573L257.133 138.803C257.02 138.947 256.85 139.026 256.674 139.026C256.612 139.026 256.55 139.016 256.489 138.996L253.971 138.154L248.419 146.208L268.23 140.106L258.887 136.573Z" fill="white"/>
<path d="M286.6 322.809C286.774 325.112 285.574 326.084 284.073 326.576L244.469 339.883C242.731 340.225 241.044 339.095 240.702 337.357L235.869 312.827C235.526 311.089 236.606 309.361 238.346 308.808C238.346 308.808 250.396 305.23 258.32 303.625C266.046 302.06 280.284 299 280.284 299C282.022 298.659 283.306 299.672 283.744 301.681L286.6 322.809Z" fill="url(#paint64_linear_50_323)"/>
<path d="M264.315 322.842C264.249 322.842 264.184 322.832 264.12 322.809L235.612 312.724C235.308 312.617 235.149 312.284 235.256 311.98C235.364 311.677 235.697 311.516 236.001 311.625L264.126 321.573L282.431 299.454C282.635 299.207 283.005 299.172 283.252 299.376C283.5 299.582 283.535 299.949 283.33 300.198L264.765 322.632C264.652 322.767 264.486 322.842 264.315 322.842Z" fill="#C44B5F"/>
<path d="M242.245 340.094C242.127 340.094 242.008 340.058 241.904 339.984C241.643 339.796 241.584 339.431 241.772 339.169L253.731 322.566C253.92 322.306 254.284 322.246 254.546 322.434C254.807 322.622 254.866 322.987 254.678 323.248L242.719 339.852C242.604 340.009 242.426 340.094 242.245 340.094Z" fill="#C44B5F"/>
<path d="M286.068 325.808C285.991 325.808 285.912 325.793 285.837 325.76L271.212 319.424C270.916 319.296 270.78 318.953 270.909 318.657C271.037 318.361 271.379 318.224 271.676 318.353L286.3 324.689C286.596 324.817 286.732 325.16 286.603 325.456C286.509 325.677 286.294 325.808 286.068 325.808Z" fill="#C44B5F"/>
<path d="M405.038 166.811C405.306 168.665 404.389 169.517 403.202 169.998L371.893 180.607C370.506 180.98 369.079 180.158 368.706 178.771L363.447 159.191C363.075 157.804 363.854 156.347 365.23 155.804C365.23 155.804 374.782 152.247 381.104 150.513C387.268 148.823 397.064 146.342 397.064 146.342C398.451 145.97 399.545 146.719 400.01 148.321L405.038 166.811Z" fill="url(#paint65_linear_50_323)"/>
<path d="M386.98 165.647C386.945 165.647 386.91 165.642 386.875 165.632L363.256 159.04C363.049 158.983 362.928 158.768 362.986 158.561C363.043 158.354 363.255 158.23 363.465 158.291L386.812 164.807L398.886 146.65C399.004 146.47 399.245 146.423 399.425 146.541C399.603 146.66 399.652 146.901 399.533 147.08L387.302 165.472C387.23 165.584 387.107 165.647 386.98 165.647Z" fill="#D66976"/>
<path d="M370.073 180.816C370.002 180.816 369.931 180.798 369.868 180.758C369.685 180.644 369.629 180.404 369.742 180.222L378.505 166.133C378.618 165.951 378.859 165.896 379.04 166.007C379.223 166.121 379.279 166.361 379.165 166.543L370.403 180.633C370.33 180.751 370.203 180.816 370.073 180.816Z" fill="#D66976"/>
<path d="M404.741 169.182C404.678 169.182 404.613 169.167 404.555 169.135L392.376 162.48C392.187 162.377 392.117 162.14 392.221 161.952C392.324 161.764 392.562 161.695 392.748 161.797L404.927 168.452C405.116 168.555 405.186 168.792 405.082 168.98C405.011 169.109 404.878 169.182 404.741 169.182Z" fill="#D66976"/>
<path d="M375.809 254.176C376.539 255.825 375.911 256.854 374.938 257.61L350.466 276.996C349.278 277.703 347.741 277.314 347.035 276.125L335.497 260.519C334.79 259.331 335.132 257.778 336.266 256.915C336.266 256.915 344.189 251.126 349.596 247.869C354.868 244.694 362.592 239.49 362.592 239.49C363.78 238.783 364.989 239.193 365.838 240.555L375.809 254.176Z" fill="url(#paint66_linear_50_323)"/>
<path d="M335.28 260.444C335.066 260.444 334.891 260.271 334.891 260.056C334.891 259.842 335.064 259.667 335.279 259.667L358.594 259.613L364.343 239.311C364.401 239.105 364.62 238.982 364.823 239.042C365.03 239.101 365.15 239.316 365.092 239.522L359.263 260.107C359.215 260.274 359.063 260.389 358.89 260.39L335.28 260.444C335.28 260.444 335.28 260.444 335.28 260.444Z" fill="#D66976"/>
<path d="M348.734 277.693C348.708 277.693 348.682 277.691 348.656 277.685C348.445 277.643 348.31 277.437 348.353 277.227L351.241 263.051C351.284 262.84 351.492 262.705 351.699 262.748C351.91 262.79 352.046 262.996 352.004 263.206L349.115 277.382C349.077 277.566 348.915 277.693 348.734 277.693Z" fill="#D66976"/>
<path d="M376.05 256.481C376.046 256.481 376.041 256.481 376.037 256.481L363.233 256.043C363.019 256.036 362.851 255.856 362.858 255.641C362.865 255.426 363.079 255.247 363.26 255.266L376.064 255.704C376.278 255.711 376.446 255.891 376.439 256.106C376.431 256.315 376.259 256.481 376.05 256.481Z" fill="#D66976"/>
<path d="M126.369 329.5C127.905 330.962 127.686 332.362 126.97 333.622L111.843 364.145C110.871 365.448 109.026 365.717 107.724 364.744L89.718 351.435C88.4137 350.463 88.0854 348.621 88.9285 347.174C88.9285 347.174 93.372 338.872 97.7781 332.9C102.074 327.077 108.12 317.945 108.12 317.945C109.092 316.643 110.59 316.541 112.125 317.64L126.369 329.5Z" fill="url(#paint67_linear_50_323)"/>
<path d="M89.2718 351.612C89.0369 351.612 88.8152 351.468 88.7266 351.237C88.6122 350.935 88.7639 350.599 89.0649 350.484L112.703 341.507L109.817 316.977C109.779 316.657 110.008 316.367 110.328 316.329C110.644 316.294 110.938 316.52 110.976 316.84L113.916 341.822C113.948 342.088 113.794 342.341 113.543 342.436L89.4795 351.574C89.411 351.601 89.341 351.612 89.2718 351.612Z" fill="#D66976"/>
<path d="M110.099 365.649C109.917 365.649 109.754 365.52 109.718 365.335L106.47 348.634C106.429 348.424 106.567 348.219 106.777 348.178C106.987 348.139 107.192 348.275 107.233 348.486L110.481 365.186C110.522 365.397 110.385 365.602 110.174 365.643C110.149 365.647 110.124 365.649 110.099 365.649Z" fill="#D66976"/>
<path d="M116.114 335.596C115.95 335.596 115.798 335.491 115.744 335.328C115.677 335.124 115.788 334.904 115.992 334.837L127.373 331.102C127.579 331.032 127.797 331.146 127.864 331.349C127.931 331.554 127.82 331.773 127.616 331.84L116.235 335.575C116.194 335.59 116.153 335.596 116.114 335.596Z" fill="#D66976"/>
<path d="M97.8052 373.528C99.3087 373.528 100.527 372.309 100.527 370.806C100.527 369.302 99.3087 368.083 97.8052 368.083C96.3018 368.083 95.083 369.302 95.083 370.806C95.083 372.309 96.3018 373.528 97.8052 373.528Z" fill="#FE697A"/>
<path d="M227.38 326.377C228.884 326.377 230.103 325.159 230.103 323.655C230.103 322.152 228.884 320.933 227.38 320.933C225.877 320.933 224.658 322.152 224.658 323.655C224.658 325.159 225.877 326.377 227.38 326.377Z" fill="#FE697A"/>
<path d="M332.201 272.627C333.704 272.627 334.923 271.408 334.923 269.904C334.923 268.401 333.704 267.182 332.201 267.182C330.697 267.182 329.479 268.401 329.479 269.904C329.479 271.408 330.697 272.627 332.201 272.627Z" fill="#FE697A"/>
<path d="M389.598 185.694C391.102 185.694 392.32 184.475 392.32 182.971C392.32 181.468 391.102 180.249 389.598 180.249C388.095 180.249 386.876 181.468 386.876 182.971C386.876 184.475 388.095 185.694 389.598 185.694Z" fill="#FE697A"/>
<path d="M379.685 144.667C379.264 144.667 378.918 144.331 378.907 143.908C378.837 141.03 378.109 138.976 376.68 137.627C373.69 134.807 367.675 135.009 360.067 135.267L358.061 135.333C355.101 135.421 353.222 134.888 352.118 133.645C350.615 131.954 350.996 129.412 351.399 126.721C351.764 124.294 352.139 121.783 351.23 119.701C348.541 113.539 332.681 113.716 319.529 117.416C305.9 121.249 295.341 125.414 295.236 125.455C294.837 125.612 294.384 125.418 294.226 125.018C294.067 124.619 294.263 124.167 294.663 124.008C294.769 123.966 305.398 119.774 319.109 115.918C330.187 112.802 349.09 110.905 352.657 119.078C353.745 121.571 353.317 124.429 352.938 126.951C352.575 129.373 352.261 131.465 353.28 132.611C354.044 133.471 355.594 133.852 358.012 133.779L360.014 133.713C367.985 133.443 374.284 133.231 377.746 136.497C379.493 138.145 380.381 140.557 380.462 143.87C380.472 144.3 380.132 144.657 379.703 144.667C379.698 144.667 379.691 144.667 379.685 144.667Z" fill="#FDE1A7"/>
<path d="M384.094 138.174C383.778 138.174 383.518 137.922 383.511 137.605C383.382 132.324 381.215 129.829 376.031 128.991C375.713 128.94 375.496 128.641 375.548 128.322C375.599 128.004 375.906 127.789 376.216 127.84C381.926 128.762 384.536 131.764 384.677 137.576C384.685 137.898 384.431 138.165 384.109 138.173C384.103 138.174 384.099 138.174 384.094 138.174Z" fill="#FDE1A7"/>
<path d="M299.137 117.216C298.953 117.216 298.772 117.129 298.658 116.967C298.473 116.703 298.538 116.339 298.802 116.155C300.486 114.975 309.49 110.296 319.576 110.703C319.898 110.716 320.148 110.987 320.136 111.309C320.124 111.631 319.847 111.888 319.53 111.869C309.753 111.473 301.091 115.976 299.471 117.111C299.369 117.182 299.253 117.216 299.137 117.216Z" fill="#FDE1A7"/>
<path d="M319.456 131.119C319.382 131.119 319.308 131.105 319.235 131.075C317.218 130.25 311.508 130.339 309.667 130.437C309.327 130.446 309.071 130.206 309.054 129.886C309.037 129.564 309.284 129.289 309.605 129.272C309.68 129.269 317.036 128.916 319.676 129.995C319.974 130.118 320.117 130.458 319.995 130.757C319.904 130.982 319.686 131.119 319.456 131.119Z" fill="#FDE1A7"/>
<path d="M373.27 238.778C373.238 238.778 373.205 238.776 373.172 238.772C372.746 238.719 372.444 238.33 372.497 237.904C373.067 233.338 377.866 231.227 382.505 229.185C387.739 226.882 392.684 224.707 392.778 219.449C392.845 215.75 389.765 213.853 386.199 211.657C382.682 209.49 378.695 207.034 378.135 202.314C377.473 196.722 381.584 192.06 384.887 188.314C386.693 186.265 388.401 184.33 388.852 182.757C388.97 182.345 389.401 182.106 389.813 182.223C390.226 182.341 390.465 182.772 390.347 183.185C389.799 185.096 388.063 187.063 386.053 189.343C382.794 193.039 379.1 197.228 379.681 202.13C380.151 206.103 383.486 208.157 387.016 210.331C390.655 212.573 394.417 214.89 394.334 219.476C394.221 225.729 388.33 228.321 383.133 230.609C378.695 232.561 374.503 234.406 374.042 238.096C373.992 238.49 373.656 238.778 373.27 238.778Z" fill="#FDE1A7"/>
<path d="M369.056 209.903C368.871 209.903 368.689 209.816 368.577 209.653C364.317 203.541 366.473 197.751 368.207 195.543C368.407 195.289 368.773 195.245 369.026 195.445C369.28 195.644 369.324 196.011 369.125 196.264C369.08 196.32 364.699 202.049 369.533 208.987C369.718 209.251 369.652 209.614 369.388 209.799C369.287 209.869 369.17 209.903 369.056 209.903Z" fill="#FDE1A7"/>
<path d="M292.25 312.958C291.993 312.958 291.741 312.831 291.592 312.597C291.363 312.234 291.47 311.754 291.833 311.523C294.081 310.098 298.034 309.712 302.611 309.265C306.461 308.889 310.824 308.463 314.351 307.303C320.108 305.41 326.437 301.326 326.931 295.539C327.255 291.762 325.48 289.956 323.602 288.046C322.017 286.435 320.379 284.77 320.25 281.981C319.913 274.743 331.388 269.42 331.877 269.197C332.266 269.019 332.729 269.19 332.908 269.582C333.086 269.972 332.914 270.433 332.523 270.612C328.715 272.351 321.573 276.949 321.804 281.909C321.905 284.104 323.205 285.425 324.71 286.956C326.658 288.936 328.865 291.181 328.482 295.671C327.922 302.214 321.066 306.734 314.837 308.781C311.147 309.994 306.693 310.429 302.763 310.812C298.566 311.222 294.601 311.61 292.666 312.838C292.537 312.919 292.393 312.958 292.25 312.958Z" fill="#FDE1A7"/>
<path d="M314.612 281.069C314.582 281.069 314.553 281.068 314.524 281.065C314.097 281.017 313.79 280.632 313.838 280.205C314.831 271.367 321.186 267.815 323.552 267.193C323.967 267.083 324.393 267.332 324.502 267.748C324.611 268.163 324.363 268.588 323.947 268.698C322.009 269.208 316.275 272.449 315.383 280.38C315.34 280.776 315.002 281.069 314.612 281.069Z" fill="#FDE1A7"/>
<path d="M226.444 324.538C224.241 324.538 218.721 323.529 206.697 316.647C205.118 315.744 203.516 314.812 201.89 313.866C185.832 304.528 167.635 293.95 146.743 295.747C131.268 297.083 123.921 306.199 121.507 309.195C121.271 309.487 121.084 309.72 120.942 309.878C120.657 310.199 120.165 310.228 119.844 309.942C119.523 309.658 119.494 309.165 119.78 308.845C119.909 308.699 120.08 308.487 120.296 308.219C122.813 305.094 130.474 295.591 146.61 294.198C167.987 292.343 186.415 303.067 202.673 312.522C204.295 313.465 205.894 314.396 207.47 315.297C222.799 324.069 227.089 322.93 227.13 322.919C227.53 322.797 227.968 323.012 228.103 323.409C228.238 323.804 228.049 324.232 227.659 324.382C227.545 324.425 227.179 324.538 226.444 324.538Z" fill="#FDE1A7"/>
<path d="M117.508 298.667C117.38 298.667 117.252 298.625 117.144 298.539C116.893 298.338 116.853 297.971 117.053 297.719C119.182 295.057 125.352 288.964 136.677 289.918C136.999 289.946 137.237 290.227 137.21 290.548C137.183 290.87 136.895 291.107 136.58 291.081C125.823 290.18 119.977 295.932 117.964 298.447C117.849 298.591 117.679 298.667 117.508 298.667Z" fill="#FDE1A7"/>
<path d="M95.8599 403.083C95.4547 403.083 95.1132 402.77 95.0845 402.359C94.0819 387.928 95.7619 375.218 97.0561 370.596C97.172 370.182 97.6021 369.94 98.0143 370.057C98.4281 370.172 98.6692 370.602 98.5533 371.015C97.2879 375.536 95.6476 388.015 96.6361 402.251C96.6657 402.68 96.3429 403.051 95.9144 403.081C95.8965 403.083 95.8778 403.083 95.8599 403.083Z" fill="#FDE1A7"/>
<path d="M131.955 453.496C131.854 453.496 131.752 453.476 131.653 453.435C131.398 453.327 125.4 450.753 124.726 446.434C124.283 443.603 125.531 441.791 126.737 440.04C127.454 439 128.195 437.925 128.631 436.586C130.296 431.485 126.744 428.682 125.235 428.034C124.841 427.863 124.659 427.406 124.829 427.012C124.997 426.617 125.456 426.437 125.851 426.605C127.722 427.411 132.136 430.861 130.111 437.07C129.604 438.622 128.762 439.844 128.019 440.923C126.844 442.628 125.916 443.976 126.263 446.195C126.804 449.655 132.204 451.979 132.258 452.003C132.653 452.17 132.839 452.626 132.672 453.021C132.546 453.318 132.257 453.496 131.955 453.496Z" fill="#FDE1A7"/>
<path d="M135.622 442.269C135.482 442.269 135.342 442.22 135.23 442.118C134.992 441.903 134.973 441.534 135.189 441.295C137.119 439.161 137.271 436.824 137.057 435.24C136.739 432.867 135.513 431.108 134.744 430.618C134.473 430.445 134.393 430.084 134.566 429.813C134.74 429.541 135.101 429.462 135.372 429.635C136.49 430.348 137.867 432.501 138.214 435.084C138.46 436.914 138.285 439.613 136.055 442.077C135.939 442.205 135.78 442.269 135.622 442.269Z" fill="#FDE1A7"/>
<path d="M288.228 127.172L293.079 119.211L296.919 130.543L288.228 127.172Z" fill="#FE697A"/>
<path d="M111.087 410.289L84.6531 405.477C82.0748 405.218 80.3598 406.36 80.0922 408.577C80.0922 408.577 79.6847 412.527 79.1348 417.744C79.7158 418.503 80.2991 419.257 80.8894 419.999C90.8761 432.545 102.375 443.384 114.98 452.338L114.618 414.785C114.612 412.795 113.915 410.979 111.087 410.289Z" fill="url(#paint68_linear_50_323)"/>
<path d="M100.48 427.702C100.298 427.702 100.114 427.639 99.9664 427.508C99.6444 427.223 99.6133 426.732 99.8979 426.41L113.192 411.353C113.476 411.032 113.967 411 114.289 411.284C114.611 411.569 114.642 412.061 114.358 412.383L101.064 427.44C100.911 427.614 100.696 427.702 100.48 427.702Z" fill="#D66976"/>
<path d="M102.398 436.366L82.7505 405.371C82.5203 405.008 82.0404 404.9 81.6772 405.13C81.314 405.359 81.2066 405.841 81.4361 406.203L100.793 436.739L98.8459 439.277C99.2293 439.63 99.6089 439.987 99.9954 440.334L102.358 437.255C102.557 436.997 102.572 436.641 102.398 436.366Z" fill="#D66976"/>
<defs>
<linearGradient id="paint0_linear_50_323" x1="147.579" y1="120.07" x2="540.549" y2="513.04" gradientUnits="userSpaceOnUse">
<stop stop-color="#706AED"/>
<stop offset="1" stop-color="#271068"/>
</linearGradient>
<radialGradient id="paint1_radial_50_323" cx="0" cy="0" r="1" gradientUnits="userSpaceOnUse" gradientTransform="translate(470.395 474.798) rotate(5.24423) scale(106.519 54.3395)">
<stop stop-color="white" stop-opacity="0.3"/>
<stop offset="0.292" stop-color="#FDFDFE" stop-opacity="0.2124"/>
<stop offset="0.4342" stop-color="#F5F8FB" stop-opacity="0.1697"/>
<stop offset="0.5439" stop-color="#E8EEF6" stop-opacity="0.1368"/>
<stop offset="0.6372" stop-color="#D6DFEF" stop-opacity="0.1089"/>
<stop offset="0.7198" stop-color="#BDCDE6" stop-opacity="0.0841"/>
<stop offset="0.7951" stop-color="#A0B6DB" stop-opacity="0.0615"/>
<stop offset="0.8647" stop-color="#7C9BCE" stop-opacity="0.0406"/>
<stop offset="0.9299" stop-color="#537CBE" stop-opacity="0.021"/>
<stop offset="0.9892" stop-color="#265AAD" stop-opacity="0.01"/>
<stop offset="1" stop-color="#1D53AA" stop-opacity="0"/>
</radialGradient>
<radialGradient id="paint2_radial_50_323" cx="0" cy="0" r="1" gradientUnits="userSpaceOnUse" gradientTransform="translate(596.322 268.844) scale(26.9617)">
<stop stop-color="white" stop-opacity="0.25"/>
<stop offset="0.2938" stop-color="#FDFDFE" stop-opacity="0.1766"/>
<stop offset="0.4368" stop-color="#F6F5FA" stop-opacity="0.1408"/>
<stop offset="0.5472" stop-color="#EAE8F2" stop-opacity="0.1132"/>
<stop offset="0.6409" stop-color="#D9D6E8" stop-opacity="0.0898"/>
<stop offset="0.7241" stop-color="#C3BDDA" stop-opacity="0.069"/>
<stop offset="0.7998" stop-color="#A8A0CA" stop-opacity="0.0501"/>
<stop offset="0.8697" stop-color="#887CB6" stop-opacity="0.0326"/>
<stop offset="0.9348" stop-color="#63549F" stop-opacity="0.0163"/>
<stop offset="0.9946" stop-color="#3A2685" stop-opacity="0.01"/>
<stop offset="1" stop-color="#362283" stop-opacity="0"/>
</radialGradient>
<radialGradient id="paint3_radial_50_323" cx="0" cy="0" r="1" gradientUnits="userSpaceOnUse" gradientTransform="translate(83.4812 253.296) scale(26.7038)">
<stop stop-color="white" stop-opacity="0.25"/>
<stop offset="0.3207" stop-color="#FDFDFF" stop-opacity="0.1698"/>
<stop offset="0.4767" stop-color="#F6F5FD" stop-opacity="0.1308"/>
<stop offset="0.5972" stop-color="#E9E8FA" stop-opacity="0.1007"/>
<stop offset="0.6995" stop-color="#D8D6F6" stop-opacity="0.0751"/>
<stop offset="0.7902" stop-color="#C1BDF1" stop-opacity="0.0524"/>
<stop offset="0.8728" stop-color="#A5A0EB" stop-opacity="0.0318"/>
<stop offset="0.9475" stop-color="#847DE4" stop-opacity="0.0131"/>
<stop offset="1" stop-color="#6860DE" stop-opacity="0"/>
</radialGradient>
<linearGradient id="paint4_linear_50_323" x1="71.1992" y1="241.013" x2="95.7647" y2="265.579" gradientUnits="userSpaceOnUse">
<stop stop-color="#FFE2A8"/>
<stop offset="1" stop-color="#271068"/>
</linearGradient>
<linearGradient id="paint5_linear_50_323" x1="71.1992" y1="241.013" x2="95.7647" y2="265.579" gradientUnits="userSpaceOnUse">
<stop stop-color="#FFE2A8"/>
<stop offset="1" stop-color="#A482FF"/>
</linearGradient>
<linearGradient id="paint6_linear_50_323" x1="583.123" y1="255.645" x2="609.522" y2="282.044" gradientUnits="userSpaceOnUse">
<stop stop-color="#8C6AE2"/>
<stop offset="1" stop-color="#5A55F8"/>
</linearGradient>
<linearGradient id="paint7_linear_50_323" x1="416.054" y1="456.54" x2="546.997" y2="456.54" gradientUnits="userSpaceOnUse">
<stop stop-color="#005092"/>
<stop offset="1" stop-color="#8C6AE2"/>
</linearGradient>
<linearGradient id="paint8_linear_50_323" x1="480.464" y1="457.527" x2="546.997" y2="457.527" gradientUnits="userSpaceOnUse">
<stop stop-color="#1AA9E8"/>
<stop offset="1" stop-color="#005092"/>
</linearGradient>
<linearGradient id="paint9_linear_50_323" x1="416.055" y1="450.555" x2="472.958" y2="450.555" gradientUnits="userSpaceOnUse">
<stop stop-color="#005092"/>
<stop offset="1" stop-color="#1AA9E8"/>
</linearGradient>
<linearGradient id="paint10_linear_50_323" x1="589.518" y1="275.649" x2="601.146" y2="264.02" gradientUnits="userSpaceOnUse">
<stop stop-color="#FFE2A8"/>
<stop offset="1" stop-color="#745B7F"/>
</linearGradient>
<radialGradient id="paint11_radial_50_323" cx="0" cy="0" r="1" gradientUnits="userSpaceOnUse" gradientTransform="translate(592.027 399.374) rotate(89.5817) scale(11.2818 10.5011)">
<stop stop-color="#231F20"/>
<stop offset="0.1018" stop-color="#262228"/>
<stop offset="0.2637" stop-color="#2F2A3F"/>
<stop offset="0.4653" stop-color="#3D3865"/>
<stop offset="0.6989" stop-color="#504A99"/>
<stop offset="0.9564" stop-color="#6962DB"/>
<stop offset="1" stop-color="#6D66E7"/>
</radialGradient>
<linearGradient id="paint12_linear_50_323" x1="548.721" y1="417.151" x2="548.721" y2="383.966" gradientUnits="userSpaceOnUse">
<stop stop-color="#1AA9E8"/>
<stop offset="1" stop-color="#B0E1FF"/>
</linearGradient>
<linearGradient id="paint13_linear_50_323" x1="576.27" y1="374.471" x2="589.214" y2="387.416" gradientUnits="userSpaceOnUse">
<stop stop-color="#B0E1FF"/>
<stop offset="1" stop-color="#1AA9E8"/>
</linearGradient>
<linearGradient id="paint14_linear_50_323" x1="567.535" y1="399.309" x2="594.208" y2="425.983" gradientUnits="userSpaceOnUse">
<stop stop-color="#B0E1FF"/>
<stop offset="1" stop-color="#1AA9E8"/>
</linearGradient>
<linearGradient id="paint15_linear_50_323" x1="511.704" y1="412.982" x2="511.704" y2="396.488" gradientUnits="userSpaceOnUse">
<stop stop-color="#6D66E7"/>
<stop offset="0.0436" stop-color="#6962DB"/>
<stop offset="0.3011" stop-color="#504A99"/>
<stop offset="0.5347" stop-color="#3D3865"/>
<stop offset="0.7363" stop-color="#2F2A3F"/>
<stop offset="0.8982" stop-color="#262228"/>
<stop offset="1" stop-color="#231F20"/>
</linearGradient>
<linearGradient id="paint16_linear_50_323" x1="523.128" y1="383.362" x2="539.512" y2="392.821" gradientUnits="userSpaceOnUse">
<stop stop-color="#6D66E7"/>
<stop offset="0.0436" stop-color="#6962DB"/>
<stop offset="0.3011" stop-color="#504A99"/>
<stop offset="0.5347" stop-color="#3D3865"/>
<stop offset="0.7363" stop-color="#2F2A3F"/>
<stop offset="0.8982" stop-color="#262228"/>
<stop offset="1" stop-color="#231F20"/>
</linearGradient>
<radialGradient id="paint17_radial_50_323" cx="0" cy="0" r="1" gradientUnits="userSpaceOnUse" gradientTransform="translate(545.32 397.218) scale(5.46739)">
<stop stop-color="#231F20"/>
<stop offset="0.1018" stop-color="#262228"/>
<stop offset="0.2637" stop-color="#2F2A3F"/>
<stop offset="0.4653" stop-color="#3D3865"/>
<stop offset="0.6989" stop-color="#504A99"/>
<stop offset="0.9564" stop-color="#6962DB"/>
<stop offset="1" stop-color="#6D66E7"/>
</radialGradient>
<radialGradient id="paint18_radial_50_323" cx="0" cy="0" r="1" gradientUnits="userSpaceOnUse" gradientTransform="translate(555.739 396.797) scale(5.52537)">
<stop stop-color="#231F20"/>
<stop offset="0.1018" stop-color="#262228"/>
<stop offset="0.2637" stop-color="#2F2A3F"/>
<stop offset="0.4653" stop-color="#3D3865"/>
<stop offset="0.6989" stop-color="#504A99"/>
<stop offset="0.9564" stop-color="#6962DB"/>
<stop offset="1" stop-color="#6D66E7"/>
</radialGradient>
<radialGradient id="paint19_radial_50_323" cx="0" cy="0" r="1" gradientUnits="userSpaceOnUse" gradientTransform="translate(565.493 396.408) scale(5.46324)">
<stop stop-color="#231F20"/>
<stop offset="0.1018" stop-color="#262228"/>
<stop offset="0.2637" stop-color="#2F2A3F"/>
<stop offset="0.4653" stop-color="#3D3865"/>
<stop offset="0.6989" stop-color="#504A99"/>
<stop offset="0.9564" stop-color="#6962DB"/>
<stop offset="1" stop-color="#6D66E7"/>
</radialGradient>
<linearGradient id="paint20_linear_50_323" x1="510.417" y1="223.67" x2="546.132" y2="223.67" gradientUnits="userSpaceOnUse">
<stop stop-color="#FFE2A8"/>
<stop offset="1" stop-color="#728390"/>
</linearGradient>
<linearGradient id="paint21_linear_50_323" x1="474.048" y1="208.325" x2="491.275" y2="208.325" gradientUnits="userSpaceOnUse">
<stop stop-color="#A281FF"/>
<stop offset="1" stop-color="#FF57BD"/>
</linearGradient>
<linearGradient id="paint22_linear_50_323" x1="478.995" y1="277.756" x2="506.31" y2="277.756" gradientUnits="userSpaceOnUse">
<stop stop-color="#FF57BD"/>
<stop offset="1" stop-color="#FE6A77"/>
</linearGradient>
<linearGradient id="paint23_linear_50_323" x1="496.846" y1="291.113" x2="513.454" y2="291.113" gradientUnits="userSpaceOnUse">
<stop stop-color="#C5188E"/>
<stop offset="1" stop-color="#9F36AD"/>
</linearGradient>
<linearGradient id="paint24_linear_50_323" x1="428.63" y1="236.187" x2="443.897" y2="236.187" gradientUnits="userSpaceOnUse">
<stop stop-color="#FF57BD"/>
<stop offset="1" stop-color="#FE6A77"/>
</linearGradient>
<linearGradient id="paint25_linear_50_323" x1="409.827" y1="236.132" x2="429.661" y2="236.132" gradientUnits="userSpaceOnUse">
<stop stop-color="#C5188E"/>
<stop offset="1" stop-color="#9F36AD"/>
</linearGradient>
<linearGradient id="paint26_linear_50_323" x1="446.908" y1="257.768" x2="519.3" y2="231.419" gradientUnits="userSpaceOnUse">
<stop stop-color="#05C5DA"/>
<stop offset="1" stop-color="#5860C4"/>
</linearGradient>
<linearGradient id="paint27_linear_50_323" x1="502.906" y1="263.567" x2="533.42" y2="263.567" gradientUnits="userSpaceOnUse">
<stop stop-color="#00E2EC"/>
<stop offset="1" stop-color="#0090B2"/>
</linearGradient>
<linearGradient id="paint28_linear_50_323" x1="520.318" y1="286.903" x2="539.017" y2="286.903" gradientUnits="userSpaceOnUse">
<stop stop-color="#A281FF"/>
<stop offset="1" stop-color="#FF57BD"/>
</linearGradient>
<linearGradient id="paint29_linear_50_323" x1="460.352" y1="231.365" x2="477.086" y2="248.098" gradientUnits="userSpaceOnUse">
<stop stop-color="#00E2EC"/>
<stop offset="1" stop-color="#0090B2"/>
</linearGradient>
<linearGradient id="paint30_linear_50_323" x1="433.209" y1="252.804" x2="459.008" y2="252.804" gradientUnits="userSpaceOnUse">
<stop stop-color="#A281FF"/>
<stop offset="1" stop-color="#FF57BD"/>
</linearGradient>
<linearGradient id="paint31_linear_50_323" x1="423.311" y1="204.446" x2="437.892" y2="204.446" gradientUnits="userSpaceOnUse">
<stop stop-color="#9F36AD"/>
<stop offset="0.1071" stop-color="#8D3399"/>
<stop offset="0.4036" stop-color="#602A65"/>
<stop offset="0.662" stop-color="#3F243F"/>
<stop offset="0.8695" stop-color="#2A2028"/>
<stop offset="1" stop-color="#231F20"/>
</linearGradient>
<linearGradient id="paint32_linear_50_323" x1="438.66" y1="173.881" x2="447.844" y2="183.065" gradientUnits="userSpaceOnUse">
<stop stop-color="#FFE2A8"/>
<stop offset="1" stop-color="#728390"/>
</linearGradient>
<linearGradient id="paint33_linear_50_323" x1="426.266" y1="173.463" x2="468.691" y2="215.888" gradientUnits="userSpaceOnUse">
<stop stop-color="#FFE2A8"/>
<stop offset="1" stop-color="#728390"/>
</linearGradient>
<linearGradient id="paint34_linear_50_323" x1="412.331" y1="190.003" x2="420.52" y2="190.003" gradientUnits="userSpaceOnUse">
<stop stop-color="#653271"/>
<stop offset="0.1129" stop-color="#5B2F65"/>
<stop offset="0.496" stop-color="#3D263F"/>
<stop offset="0.8053" stop-color="#2A2128"/>
<stop offset="1" stop-color="#231F20"/>
</linearGradient>
<radialGradient id="paint35_radial_50_323" cx="0" cy="0" r="1" gradientUnits="userSpaceOnUse" gradientTransform="translate(442.222 190.142) scale(34.6159)">
<stop stop-color="#4E40AF" stop-opacity="0"/>
<stop offset="0.1096" stop-color="#5446B2" stop-opacity="0.0438"/>
<stop offset="0.2617" stop-color="#6558B9" stop-opacity="0.1047"/>
<stop offset="0.4387" stop-color="#8076C6" stop-opacity="0.1755"/>
<stop offset="0.6345" stop-color="#A69FD7" stop-opacity="0.2538"/>
<stop offset="0.8432" stop-color="#D6D3ED" stop-opacity="0.3373"/>
<stop offset="1" stop-color="white" stop-opacity="0.4"/>
</radialGradient>
<linearGradient id="paint36_linear_50_323" x1="436.847" y1="220.021" x2="473.727" y2="220.021" gradientUnits="userSpaceOnUse">
<stop stop-color="#FF57BD"/>
<stop offset="1" stop-color="#FE6A77"/>
</linearGradient>
<linearGradient id="paint37_linear_50_323" x1="467.706" y1="192.516" x2="476.829" y2="192.516" gradientUnits="userSpaceOnUse">
<stop stop-color="#05C5DA"/>
<stop offset="1" stop-color="#0090B2"/>
</linearGradient>
<linearGradient id="paint38_linear_50_323" x1="148.404" y1="254.686" x2="167.96" y2="254.686" gradientUnits="userSpaceOnUse">
<stop stop-color="#05C5DA"/>
<stop offset="1" stop-color="#5860C4"/>
</linearGradient>
<linearGradient id="paint39_linear_50_323" x1="414.801" y1="396.569" x2="470.057" y2="396.569" gradientUnits="userSpaceOnUse">
<stop stop-color="#05C5DA"/>
<stop offset="1" stop-color="#5860C4"/>
</linearGradient>
<linearGradient id="paint40_linear_50_323" x1="343.129" y1="357.603" x2="438.764" y2="357.603" gradientUnits="userSpaceOnUse">
<stop stop-color="#FF57BD"/>
<stop offset="1" stop-color="#FE6A77"/>
</linearGradient>
<linearGradient id="paint41_linear_50_323" x1="278.643" y1="216.747" x2="278.643" y2="260.857" gradientUnits="userSpaceOnUse">
<stop stop-color="#FE6A77"/>
<stop offset="1" stop-color="#C91C91"/>
</linearGradient>
<linearGradient id="paint42_linear_50_323" x1="313.83" y1="241.543" x2="329.502" y2="241.543" gradientUnits="userSpaceOnUse">
<stop stop-color="#05C5DA"/>
<stop offset="1" stop-color="#5860C4"/>
</linearGradient>
<linearGradient id="paint43_linear_50_323" x1="280.388" y1="229.49" x2="329.751" y2="229.49" gradientUnits="userSpaceOnUse">
<stop stop-color="#FF57BD"/>
<stop offset="1" stop-color="#FE6A77"/>
</linearGradient>
<linearGradient id="paint44_linear_50_323" x1="313.835" y1="237.788" x2="329.751" y2="237.788" gradientUnits="userSpaceOnUse">
<stop stop-color="#05C5DA"/>
<stop offset="1" stop-color="#0090B2"/>
</linearGradient>
<linearGradient id="paint45_linear_50_323" x1="250.401" y1="200.003" x2="298.077" y2="200.003" gradientUnits="userSpaceOnUse">
<stop stop-color="#00E2EC"/>
<stop offset="1" stop-color="#0090B2"/>
</linearGradient>
<linearGradient id="paint46_linear_50_323" x1="212.609" y1="335.485" x2="307.54" y2="255.828" gradientUnits="userSpaceOnUse">
<stop stop-color="#FE6A77"/>
<stop offset="1" stop-color="#FF57BD"/>
</linearGradient>
<linearGradient id="paint47_linear_50_323" x1="241.116" y1="293.255" x2="294.13" y2="248.771" gradientUnits="userSpaceOnUse">
<stop stop-color="#C5188E"/>
<stop offset="1" stop-color="#FF57BD"/>
</linearGradient>
<linearGradient id="paint48_linear_50_323" x1="283.797" y1="341.915" x2="435.66" y2="341.915" gradientUnits="userSpaceOnUse">
<stop stop-color="#C91C91"/>
<stop offset="1" stop-color="#FE6A77"/>
</linearGradient>
<linearGradient id="paint49_linear_50_323" x1="344.945" y1="307.494" x2="388.025" y2="307.494" gradientUnits="userSpaceOnUse">
<stop stop-color="#00E2EC"/>
<stop offset="1" stop-color="#0090B2"/>
</linearGradient>
<linearGradient id="paint50_linear_50_323" x1="429.371" y1="326.674" x2="483.936" y2="326.674" gradientUnits="userSpaceOnUse">
<stop stop-color="#00E2EC"/>
<stop offset="1" stop-color="#0090B2"/>
</linearGradient>
<linearGradient id="paint51_linear_50_323" x1="154.592" y1="315.008" x2="214.916" y2="315.008" gradientUnits="userSpaceOnUse">
<stop stop-color="#FE6A77"/>
<stop offset="1" stop-color="#C91C91"/>
</linearGradient>
<linearGradient id="paint52_linear_50_323" x1="154.643" y1="334.643" x2="171.302" y2="334.643" gradientUnits="userSpaceOnUse">
<stop stop-color="#00E2EC"/>
<stop offset="1" stop-color="#0090B2"/>
</linearGradient>
<linearGradient id="paint53_linear_50_323" x1="184.468" y1="398.822" x2="221.278" y2="398.822" gradientUnits="userSpaceOnUse">
<stop stop-color="#00E2EC"/>
<stop offset="1" stop-color="#0090B2"/>
</linearGradient>
<linearGradient id="paint54_linear_50_323" x1="199.297" y1="217.627" x2="203.649" y2="242.305" gradientUnits="userSpaceOnUse">
<stop stop-color="#C16846"/>
<stop offset="0.2653" stop-color="#D27565"/>
<stop offset="0.5308" stop-color="#DE7F7B"/>
<stop offset="0.7814" stop-color="#E58589"/>
<stop offset="1" stop-color="#E8878E"/>
</linearGradient>
<linearGradient id="paint55_linear_50_323" x1="174.044" y1="221.492" x2="203.54" y2="196.742" gradientUnits="userSpaceOnUse">
<stop stop-color="#E8878E"/>
<stop offset="1" stop-color="#F4BEA3"/>
</linearGradient>
<linearGradient id="paint56_linear_50_323" x1="194.042" y1="203.908" x2="203.036" y2="203.908" gradientUnits="userSpaceOnUse">
<stop stop-color="#FF57BD"/>
<stop offset="1" stop-color="#FE6A77"/>
</linearGradient>
<linearGradient id="paint57_linear_50_323" x1="163.694" y1="197.256" x2="199.936" y2="197.256" gradientUnits="userSpaceOnUse">
<stop stop-color="#994574"/>
<stop offset="1" stop-color="#43256F"/>
</linearGradient>
<radialGradient id="paint58_radial_50_323" cx="0" cy="0" r="1" gradientUnits="userSpaceOnUse" gradientTransform="translate(185.707 206.027) scale(36.5715)">
<stop stop-color="#635AD5" stop-opacity="0"/>
<stop offset="0.1205" stop-color="#6960D7" stop-opacity="0.0482"/>
<stop offset="0.2878" stop-color="#7A72DB" stop-opacity="0.1151"/>
<stop offset="0.4824" stop-color="#9690E3" stop-opacity="0.193"/>
<stop offset="0.6977" stop-color="#BDB9ED" stop-opacity="0.2791"/>
<stop offset="0.9273" stop-color="#EEEDFA" stop-opacity="0.3709"/>
<stop offset="1" stop-color="white" stop-opacity="0.4"/>
</radialGradient>
<linearGradient id="paint59_linear_50_323" x1="149.24" y1="207.449" x2="208.26" y2="207.449" gradientUnits="userSpaceOnUse">
<stop stop-color="#00E2EC"/>
<stop offset="1" stop-color="#0090B2"/>
</linearGradient>
<linearGradient id="paint60_linear_50_323" x1="158.629" y1="230.713" x2="167.195" y2="223.525" gradientUnits="userSpaceOnUse">
<stop stop-color="#A281FF"/>
<stop offset="0.0945" stop-color="#B17AF5"/>
<stop offset="0.3504" stop-color="#D36BDD"/>
<stop offset="0.5934" stop-color="#EB60CB"/>
<stop offset="0.8163" stop-color="#FA59C1"/>
<stop offset="1" stop-color="#FF57BD"/>
</linearGradient>
<linearGradient id="paint61_linear_50_323" x1="173.372" y1="236.892" x2="233.233" y2="236.892" gradientUnits="userSpaceOnUse">
<stop stop-color="#00E2EC"/>
<stop offset="1" stop-color="#0090B2"/>
</linearGradient>
<linearGradient id="paint62_linear_50_323" x1="247.95" y1="182.855" x2="270.448" y2="182.855" gradientUnits="userSpaceOnUse">
<stop stop-color="#653271"/>
<stop offset="0.1129" stop-color="#5B2F65"/>
<stop offset="0.496" stop-color="#3D263F"/>
<stop offset="0.8053" stop-color="#2A2128"/>
<stop offset="1" stop-color="#231F20"/>
</linearGradient>
<linearGradient id="paint63_linear_50_323" x1="249.272" y1="172.336" x2="268.87" y2="191.934" gradientUnits="userSpaceOnUse">
<stop stop-color="#84DBF1"/>
<stop offset="1" stop-color="#FFE2A8"/>
</linearGradient>
<linearGradient id="paint64_linear_50_323" x1="235.806" y1="319.44" x2="286.617" y2="319.44" gradientUnits="userSpaceOnUse">
<stop stop-color="#FDE1A7"/>
<stop offset="1" stop-color="#F9A144"/>
</linearGradient>
<linearGradient id="paint65_linear_50_323" x1="363.355" y1="163.472" x2="405.084" y2="163.472" gradientUnits="userSpaceOnUse">
<stop stop-color="#FDE1A7"/>
<stop offset="1" stop-color="#F9A144"/>
</linearGradient>
<linearGradient id="paint66_linear_50_323" x1="335.129" y1="258.249" x2="376.127" y2="258.249" gradientUnits="userSpaceOnUse">
<stop stop-color="#FDE1A7"/>
<stop offset="1" stop-color="#F9A144"/>
</linearGradient>
<linearGradient id="paint67_linear_50_323" x1="88.4637" y1="341.107" x2="127.52" y2="341.107" gradientUnits="userSpaceOnUse">
<stop stop-color="#FDE1A7"/>
<stop offset="1" stop-color="#F9A144"/>
</linearGradient>
<linearGradient id="paint68_linear_50_323" x1="75.4966" y1="428.89" x2="115.125" y2="428.89" gradientUnits="userSpaceOnUse">
<stop stop-color="#FDE1A7"/>
<stop offset="1" stop-color="#F9A144"/>
</linearGradient>
</defs>
</svg>
