<svg width="324" height="421" viewBox="0 0 324 421" fill="none" xmlns="http://www.w3.org/2000/svg">
<path fill-rule="evenodd" clip-rule="evenodd" d="M424.018 185.577C420.032 226.309 435.085 270.3 413.152 304.858C391.143 339.536 346.291 347.46 309.579 365.892C267.738 386.898 230.238 425.33 183.717 420.047C135.37 414.557 98.1863 375.775 67.0979 338.357C35.6919 300.557 15.2857 256.075 7.21034 207.605C-1.71022 154.061 -4.63499 98.0858 18.9194 49.1763C44.3941 -3.72043 87.0074 -49.3746 141.505 -71.2512C196.436 -93.3016 259.082 -89.7366 314.731 -69.569C367.362 -50.4949 417.357 -14.7395 439.393 36.7067C459.529 83.7163 428.999 134.681 424.018 185.577Z" fill="#FD435A" fill-opacity="0.1"/>
</svg>
