<svg width="349" height="206" viewBox="0 0 349 206" fill="none" xmlns="http://www.w3.org/2000/svg">
<path fill-rule="evenodd" clip-rule="evenodd" d="M-217.376 268.429C-209.875 214.995 -134.201 194.563 -90.9078 156.328C-56.2984 125.761 -30.7241 90.3731 10.6126 67.0756C65.0899 36.3721 120.515 -7.3654 184.588 1.05726C250.459 9.71614 305.215 57.5107 334.908 109.705C362.528 158.256 341.943 214.386 336.694 268.429C331.972 317.057 343.881 372.981 305.874 408.686C268.474 443.819 202.206 427.883 150.33 443.502C97.0121 459.555 54.5831 509.344 -1.00475 501.082C-57.545 492.678 -89.2553 441.441 -125.463 402.508C-163.998 361.073 -224.82 321.46 -217.376 268.429Z" fill="#FD435A" fill-opacity="0.05"/>
</svg>
