<svg width="690" height="690" viewBox="0 0 690 690" fill="none" xmlns="http://www.w3.org/2000/svg">
<path d="M412.467 61.7174C459.233 62.4841 525.55 81.6508 543.567 129.184C562.934 180.279 560.644 191.207 592.25 246.867C623.812 302.449 606.945 380.649 573.212 413.871C525.43 460.928 483.891 449.249 399.05 448.884C339.633 448.629 273.241 491.715 239.583 502.934C216.967 510.473 168.667 518.651 138 487.217C104.136 452.507 111.678 388.317 105.8 363.784C99.6429 338.085 58.8692 247.215 102.733 176.334C155.633 90.8508 273.685 59.442 412.467 61.7174Z" fill="url(#paint0_linear_6_0)"/>
<path d="M482.576 578.379C499.457 575.316 561.97 562.8 564.779 588.162C567.142 609.501 516.457 607.718 492.2 606.562C461.342 605.093 398.373 611.812 396.001 599.028C394.579 591.356 413.362 587.267 432.747 586.123C448.684 585.181 457.853 582.867 482.576 578.379Z" fill="url(#paint1_linear_6_0)"/>
<path d="M199.441 597.653C184.001 595.91 118.699 585.876 121.9 611.162C124.455 631.352 172.629 623.454 194.478 625.218C225.336 627.71 278.019 624.431 279.053 611.509C279.673 603.756 262.434 601.139 244.905 601.502C230.497 601.8 222.054 600.206 199.441 597.653Z" fill="url(#paint2_linear_6_0)"/>
<path d="M297.307 382.792C297.307 381.993 297.955 381.345 298.754 381.345H315.028C315.827 381.345 316.475 381.993 316.475 382.792V399.066C316.475 399.865 315.827 400.513 315.028 400.513H298.754C297.955 400.513 297.307 399.865 297.307 399.066V382.792Z" fill="url(#paint3_linear_6_0)"/>
<path d="M306.22 396.535C305.981 396.535 305.757 396.424 305.611 396.234L300.915 390.101C300.657 389.765 300.722 389.284 301.058 389.027C301.393 388.77 301.875 388.832 302.133 389.17L306.155 394.424L311.606 385.685C311.831 385.325 312.304 385.217 312.663 385.44C313.022 385.664 313.131 386.137 312.907 386.497L306.87 396.176C306.736 396.389 306.507 396.524 306.256 396.536C306.244 396.535 306.232 396.535 306.22 396.535Z" fill="#FDE1A7"/>
<path d="M297.307 411.051C297.307 410.252 297.955 409.604 298.754 409.604H315.028C315.827 409.604 316.475 410.252 316.475 411.051V427.325C316.475 428.124 315.827 428.771 315.028 428.771H298.754C297.955 428.771 297.307 428.124 297.307 427.325V411.051Z" fill="url(#paint4_linear_6_0)"/>
<path d="M306.22 424.794C305.981 424.794 305.757 424.683 305.611 424.493L300.915 418.359C300.657 418.024 300.722 417.543 301.058 417.285C301.393 417.028 301.875 417.09 302.133 417.429L306.155 422.683L311.606 413.943C311.831 413.585 312.304 413.475 312.663 413.699C313.022 413.923 313.131 414.396 312.907 414.755L306.87 424.434C306.736 424.648 306.507 424.782 306.256 424.795C306.244 424.794 306.232 424.794 306.22 424.794Z" fill="#FDE1A7"/>
<path d="M297.307 439.31C297.307 438.511 297.955 437.863 298.754 437.863H315.028C315.827 437.863 316.475 438.511 316.475 439.31V455.584C316.475 456.383 315.827 457.031 315.028 457.031H298.754C297.955 457.031 297.307 456.383 297.307 455.584V439.31Z" fill="url(#paint5_linear_6_0)"/>
<path d="M306.22 453.052C305.981 453.052 305.757 452.941 305.611 452.751L300.915 446.618C300.657 446.282 300.722 445.801 301.058 445.544C301.393 445.287 301.875 445.349 302.133 445.687L306.155 450.941L311.606 442.202C311.831 441.842 312.304 441.733 312.663 441.957C313.022 442.181 313.131 442.654 312.907 443.014L306.87 452.693C306.736 452.906 306.507 453.041 306.256 453.053C306.244 453.052 306.232 453.052 306.22 453.052Z" fill="#FDE1A7"/>
<path d="M374.948 275.138H266.657V371.642H374.948V275.138Z" fill="url(#paint6_linear_6_0)"/>
<path d="M318.247 283.348H277.677V287.181H318.247V283.348Z" fill="url(#paint7_linear_6_0)"/>
<path d="M363.928 288.267C363.928 287.421 363.241 286.734 362.394 286.734H353.194C352.348 286.734 351.661 287.421 351.661 288.267V361.101H363.928V288.267Z" fill="url(#paint8_linear_6_0)"/>
<path d="M363.928 315.996V288.267C363.928 287.421 363.241 286.734 362.394 286.734H353.194C352.348 286.734 351.661 287.421 351.661 288.267V315.996H363.928Z" fill="url(#paint9_linear_6_0)"/>
<path d="M326.936 304.559C326.936 303.713 326.249 303.026 325.403 303.026H316.203C315.356 303.026 314.669 303.713 314.669 304.559V361.101H326.936V304.559Z" fill="url(#paint10_linear_6_0)"/>
<path d="M326.936 337.206V304.559C326.936 303.713 326.249 303.026 325.403 303.026H316.203C315.356 303.026 314.669 303.713 314.669 304.559V337.206H326.936Z" fill="url(#paint11_linear_6_0)"/>
<path d="M345.432 315.292C345.432 314.446 344.745 313.759 343.898 313.759H334.698C333.852 313.759 333.165 314.446 333.165 315.292V361.101H345.432V315.292Z" fill="url(#paint12_linear_6_0)"/>
<path d="M345.432 337.206V315.292C345.432 314.446 344.745 313.759 343.898 313.759H334.698C333.852 313.759 333.165 314.446 333.165 315.292V337.206H345.432Z" fill="url(#paint13_linear_6_0)"/>
<path d="M308.44 294.209C308.44 293.363 307.753 292.676 306.907 292.676H297.707C296.86 292.676 296.173 293.363 296.173 294.209V361.101H308.44V294.209Z" fill="url(#paint14_linear_6_0)"/>
<path d="M308.44 317.912V294.209C308.44 293.363 307.753 292.676 306.907 292.676H297.707C296.86 292.676 296.173 293.363 296.173 294.209V317.912H308.44Z" fill="url(#paint15_linear_6_0)"/>
<path d="M289.944 327.943C289.944 327.096 289.257 326.409 288.411 326.409H279.211C278.364 326.409 277.677 327.096 277.677 327.943V361.101H289.944V327.943Z" fill="url(#paint16_linear_6_0)"/>
<path d="M289.944 347.301V327.943C289.944 327.096 289.257 326.409 288.411 326.409H279.211C278.364 326.409 277.677 327.096 277.677 327.943V347.301H289.944Z" fill="url(#paint17_linear_6_0)"/>
<path d="M363.928 361.867H277.869C277.446 361.867 277.103 361.525 277.103 361.101C277.103 360.677 277.446 360.334 277.869 360.334H363.928C364.351 360.334 364.694 360.677 364.694 361.101C364.694 361.525 364.351 361.867 363.928 361.867Z" fill="#1AA9E8"/>
<path d="M230.192 130.334H121.517V194.926H230.192V130.334Z" fill="url(#paint18_linear_6_0)"/>
<path d="M136.321 185.342H168.028V145.029L136.321 185.342Z" fill="#00E2EC"/>
<path d="M197.417 175.567V185.342H216.967V152.312L197.417 175.567Z" fill="#00E2EC"/>
<path d="M168.028 145.029V185.342H197.417V175.567L168.028 145.029Z" fill="#0090B2"/>
<path d="M226.423 164.93L216.967 152.312V185.342H226.423V164.93Z" fill="#0090B2"/>
<path d="M222.333 138.767H180.742V142.601H222.333V138.767Z" fill="url(#paint19_linear_6_0)"/>
<path d="M156.696 175.064C156.44 175.064 156.189 174.936 156.044 174.702L137.905 145.533C137.681 145.173 137.791 144.7 138.151 144.477C138.511 144.253 138.983 144.363 139.207 144.723L157.346 173.892C157.57 174.252 157.46 174.725 157.1 174.948C156.974 175.026 156.834 175.064 156.696 175.064Z" fill="#1AA9E8"/>
<path d="M138.556 149.249C140.832 149.249 142.676 147.404 142.676 145.128C142.676 142.852 140.832 141.007 138.556 141.007C136.28 141.007 134.435 142.852 134.435 145.128C134.435 147.404 136.28 149.249 138.556 149.249Z" fill="#F95FC3"/>
<path d="M156.695 176.924C158.146 176.924 159.322 175.748 159.322 174.297C159.322 172.846 158.146 171.67 156.695 171.67C155.244 171.67 154.068 172.846 154.068 174.297C154.068 175.748 155.244 176.924 156.695 176.924Z" fill="white"/>
<path d="M243.823 209.193C240.331 200.476 239.222 190.689 241.171 180.79C244.036 166.242 252.903 154.405 264.69 147.336L253.66 125.661C235.466 136.024 221.714 153.943 217.351 176.099C214.345 191.359 216.226 206.447 221.903 219.75L243.823 209.193Z" fill="white"/>
<path d="M270.836 144.2C279.813 140.366 289.995 139.093 300.295 141.121C315.237 144.064 327.311 153.344 334.304 165.613L356.227 155.054C346 136.145 327.724 121.779 304.985 117.301C289.138 114.18 273.475 116.326 259.806 122.525L270.836 144.2Z" fill="white"/>
<path d="M359.224 161.27L337.305 171.827C340.803 180.548 341.913 190.34 339.963 200.246C334.59 227.526 308.12 245.287 280.839 239.914C265.89 236.97 253.813 227.683 246.821 215.407L224.899 225.966C235.124 244.881 253.403 259.255 276.148 263.734C316.584 271.698 355.82 245.372 363.783 204.937C366.79 189.67 364.907 174.575 359.224 161.27Z" fill="white"/>
<path d="M248.312 217.873C243.201 209.995 240.222 200.607 240.222 190.517C240.222 175.691 246.634 162.363 256.833 153.15L241.823 134.014C225.974 147.698 215.943 167.936 215.943 190.517C215.943 206.072 220.704 220.512 228.845 232.466L248.312 217.873Z" fill="url(#paint20_linear_6_0)"/>
<path d="M262.258 148.885C270.325 143.389 280.069 140.173 290.567 140.173C305.797 140.173 319.437 146.945 328.668 157.631L348.137 143.035C334.45 126.459 313.742 115.895 290.567 115.895C274.415 115.895 259.462 121.027 247.249 129.75L262.258 148.885Z" fill="url(#paint21_linear_6_0)"/>
<path d="M352.279 148.555L332.812 163.148C337.928 171.029 340.912 180.422 340.912 190.517C340.912 218.322 318.372 240.862 290.567 240.862C275.331 240.862 261.687 234.085 252.454 223.391L232.986 237.986C246.673 254.569 267.385 265.139 290.566 265.139C331.779 265.139 365.188 231.73 365.188 190.517C365.19 174.958 360.425 160.512 352.279 148.555Z" fill="url(#paint22_linear_6_0)"/>
<path d="M261.38 201.49C265.821 213.294 277.211 221.695 290.567 221.695C300.151 221.695 308.723 217.367 314.442 210.561L290.567 190.517L261.38 201.49Z" fill="url(#paint23_linear_6_0)"/>
<path d="M301.625 161.365L290.567 190.517L314.442 210.561C318.997 205.141 321.745 198.151 321.745 190.517C321.745 177.194 313.383 165.828 301.625 161.365Z" fill="url(#paint24_linear_6_0)"/>
<path d="M301.625 161.365C298.187 160.06 294.462 159.339 290.567 159.339C273.349 159.339 259.389 173.298 259.389 190.517C259.389 194.38 260.096 198.076 261.38 201.49L290.567 190.517L301.625 161.365Z" fill="url(#paint25_linear_6_0)"/>
<path d="M548.316 97.2716H381.118V202.017H548.316V97.2716Z" fill="url(#paint26_linear_6_0)"/>
<path d="M398.048 118.556C400.324 118.556 402.169 116.711 402.169 114.435C402.169 112.159 400.324 110.314 398.048 110.314C395.772 110.314 393.927 112.159 393.927 114.435C393.927 116.711 395.772 118.556 398.048 118.556Z" fill="#FDE1A7"/>
<path d="M420.159 118.556C422.435 118.556 424.279 116.711 424.279 114.435C424.279 112.159 422.435 110.314 420.159 110.314C417.883 110.314 416.038 112.159 416.038 114.435C416.038 116.711 417.883 118.556 420.159 118.556Z" fill="#00E2EC"/>
<path d="M442.269 118.556C444.545 118.556 446.39 116.711 446.39 114.435C446.39 112.159 444.545 110.314 442.269 110.314C439.993 110.314 438.148 112.159 438.148 114.435C438.148 116.711 439.993 118.556 442.269 118.556Z" fill="#C7A0F6"/>
<path d="M446.392 125.478H393.927V129.311H446.392V125.478Z" fill="url(#paint27_linear_6_0)"/>
<path d="M535.506 123.13C532.966 118.13 529.157 113.546 523.75 113.723C511.995 114.106 504.327 144.773 496.15 145.156C487.973 145.539 490.783 114.234 480.306 114.489C467.145 114.811 466.633 175.439 450.15 176.845C433.666 178.25 429.96 144.261 422.55 144.773C415.139 145.284 411.953 171.423 410.666 177.101C409.38 182.779 402.873 183.873 402.873 183.873H535.506V123.13Z" fill="url(#paint28_linear_6_0)"/>
<path d="M535.506 122.795C517.361 123.561 513.527 172.373 494.873 171.223C479.397 170.269 481.967 144.006 468.423 143.239C454.877 142.473 448.489 174.289 432.133 175.311C424.181 175.808 417.823 170.839 410.539 171.478C403.256 172.117 395.717 181.828 393.927 183.873H535.506V122.795Z" fill="url(#paint29_linear_6_0)"/>
<path d="M357.774 83.8871H290.052V105.354H357.774V83.8871Z" fill="url(#paint30_linear_6_0)"/>
<path d="M351.563 98.3579C348.883 98.3579 347.537 96.6222 346.349 95.0904C345.235 93.6552 344.274 92.4163 342.346 92.4163C340.417 92.4163 339.455 93.6552 338.342 95.0904C337.154 96.6222 335.808 98.3579 333.127 98.3579C330.447 98.3579 329.101 96.6222 327.913 95.0904C326.8 93.6552 325.839 92.4163 323.911 92.4163C321.982 92.4163 321.02 93.6552 319.908 95.0904C318.72 96.6222 317.373 98.3579 314.694 98.3579C312.015 98.3579 310.669 96.6222 309.481 95.0904C308.369 93.6552 307.407 92.4163 305.48 92.4163C303.552 92.4163 302.59 93.6552 301.478 95.0904C300.29 96.6222 298.944 98.3579 296.264 98.3579C295.841 98.3579 295.497 98.0145 295.497 97.5913C295.497 97.1681 295.841 96.8246 296.264 96.8246C298.193 96.8246 299.153 95.5857 300.267 94.1505C301.454 92.6187 302.8 90.8829 305.48 90.8829C308.159 90.8829 309.505 92.6194 310.693 94.1505C311.806 95.5857 312.766 96.8246 314.694 96.8246C316.623 96.8246 317.583 95.5857 318.696 94.1505C319.884 92.6187 321.231 90.8829 323.911 90.8829C326.59 90.8829 327.937 92.6187 329.125 94.1505C330.238 95.5857 331.199 96.8246 333.127 96.8246C335.056 96.8246 336.018 95.5857 337.131 94.1505C338.319 92.6187 339.666 90.8829 342.346 90.8829C345.026 90.8829 346.372 92.6187 347.56 94.1505C348.673 95.5857 349.635 96.8246 351.563 96.8246C351.987 96.8246 352.33 97.1681 352.33 97.5913C352.33 98.0145 351.987 98.3579 351.563 98.3579Z" fill="#05C5DA"/>
<path d="M299.57 129.042C299.369 129.042 299.169 128.963 299.018 128.808C298.724 128.502 298.732 128.017 299.037 127.724L322.809 104.802C323.113 104.508 323.598 104.516 323.893 104.821C324.186 105.126 324.178 105.611 323.874 105.905L300.102 128.827C299.953 128.971 299.761 129.042 299.57 129.042Z" fill="#1AA9E8"/>
<path d="M299.57 131.31C301.246 131.31 302.604 129.951 302.604 128.276C302.604 126.6 301.246 125.241 299.57 125.241C297.894 125.241 296.535 126.6 296.535 128.276C296.535 129.951 297.894 131.31 299.57 131.31Z" fill="#FDE1A7"/>
<path d="M422.807 324.291C423.411 325.32 424.733 325.666 425.763 325.064L460.962 309.172C461.992 308.57 462.338 307.248 461.736 306.217L445.744 279.598C445.143 278.568 443.82 278.223 442.79 278.824L403.631 289.677C402.601 290.279 402.254 291.602 402.856 292.632L422.807 324.291Z" fill="url(#paint31_linear_6_0)"/>
<path d="M463.652 306.661L446.621 278.31C445.978 277.213 444.569 276.845 443.474 277.486L401.767 289.045C400.671 289.686 400.301 291.095 400.942 292.191L422.192 325.908C422.834 327.005 424.243 327.374 425.339 326.733L462.829 309.807C463.925 309.166 464.295 307.757 463.652 306.661ZM425.109 321.116L407.1 292.005L443.708 280.984L459.329 306.572L425.109 321.116Z" fill="url(#paint32_linear_6_0)"/>
<path d="M449.986 297.755L422.173 308.73L419.919 305.501L448.151 294.934L449.986 297.755Z" fill="#FDE1A7"/>
<path d="M430.994 298.115C432.701 298.115 434.085 296.731 434.085 295.023C434.085 293.316 432.701 291.932 430.994 291.932C429.287 291.932 427.903 293.316 427.903 295.023C427.903 296.731 429.287 298.115 430.994 298.115Z" fill="#F95FC3"/>
<path d="M420.463 302.163C422.17 302.163 423.554 300.779 423.554 299.071C423.554 297.364 422.17 295.98 420.463 295.98C418.756 295.98 417.372 297.364 417.372 299.071C417.372 300.779 418.756 302.163 420.463 302.163Z" fill="#FE687E"/>
<path d="M440.881 294.194C442.417 294.194 443.662 292.949 443.662 291.413C443.662 289.877 442.417 288.632 440.881 288.632C439.345 288.632 438.099 289.877 438.099 291.413C438.099 292.949 439.345 294.194 440.881 294.194Z" fill="#00E2EC"/>
<path d="M487.472 506.511C486.572 491.199 490.015 472.423 489.887 466.546L464.856 465.111C464.856 465.111 464.374 483.022 464.6 498.526C464.856 516.032 468.498 566.248 467.412 574.106C466.735 579.004 462.735 582.164 459.032 584.497C460.811 585.408 463.962 586.035 468.468 583.805C473.564 581.283 479.306 578.464 483.355 578.324C483.191 575.679 483.027 573.204 483 571.552C482.872 563.564 488.558 524.976 487.472 506.511Z" fill="url(#paint33_linear_6_0)"/>
<path d="M468.468 583.804C463.962 586.034 460.812 585.407 459.032 584.496C458.068 585.103 457.123 585.657 456.264 586.168C452.988 588.114 447.741 588.878 448.31 590.909C448.756 592.506 461.132 593.232 467.764 591.343C470.895 590.451 476.26 587.573 476.26 587.573L476.468 591.486C476.468 591.486 482.417 591.929 483.057 591.226C484.027 590.158 483.694 583.864 483.355 578.322C479.306 578.464 473.564 581.282 468.468 583.804Z" fill="url(#paint34_linear_6_0)"/>
<path d="M517.31 584.329C522.633 581.694 528.659 578.738 532.724 578.847C532.557 576.206 532.363 573.726 532.258 572.062C531.939 566.952 531.812 558.135 532.452 539.607C533.091 521.079 529.768 508.046 528.618 497.057C527.468 486.068 527.468 474.44 527.339 468.563L503.508 471.501C503.508 471.501 505.341 489.048 506.958 504.467C508.487 519.035 517.756 565.737 516.67 573.595C516.003 578.425 511.22 582.38 507.67 584.915C509.406 585.881 512.63 586.644 517.31 584.329Z" fill="url(#paint35_linear_6_0)"/>
<path d="M497.567 592.251C497.567 593.337 509.974 593.756 516.606 591.867C519.737 590.976 525.102 588.098 525.102 588.098L525.31 592.011C525.31 592.011 531.683 592.251 532.322 591.548C533.288 590.484 533.068 584.317 532.723 578.847C528.657 578.738 522.632 581.695 517.309 584.329C512.629 586.645 509.406 585.881 507.669 584.915C506.682 585.62 505.785 586.22 505.105 586.692C501.975 588.864 497.567 590.142 497.567 592.251Z" fill="url(#paint36_linear_6_0)"/>
<path d="M519.8 376.945C522.483 381.034 529.768 394.068 532.45 407.676C534.926 420.228 534.75 427.417 536.092 437.192C537.433 446.967 544.333 468.434 543.95 469.776C543.567 471.117 540.5 473.13 534.496 473.29C530.008 473.41 526.702 473.035 518.652 475.718C510.602 478.402 501.529 479.935 490.54 478.785C479.552 477.635 470.862 473.035 465.368 472.907C459.873 472.779 452.59 472.779 451.823 471.245C451.056 469.712 456.046 457.853 457.125 450.417C458.346 442.023 461.023 426.011 466.9 410.167C472.409 395.317 480.19 378.223 480.19 378.223C480.19 378.223 491.625 378.159 499.867 377.967C508.108 377.776 519.8 376.945 519.8 376.945Z" fill="url(#paint37_linear_6_0)"/>
<path d="M497.886 474.196C495.454 474.196 492.985 474.062 490.459 473.797C484.395 473.163 478.93 471.462 474.538 470.095C470.891 468.96 467.742 467.979 465.35 467.923L463.835 467.89C459.57 467.803 454.737 467.704 452.546 466.9C452.148 466.755 451.945 466.313 452.09 465.916C452.235 465.519 452.675 465.314 453.074 465.461C455.024 466.176 459.926 466.277 463.866 466.358L465.384 466.39C467.991 466.451 471.236 467.46 474.993 468.63C479.545 470.048 484.704 471.653 490.618 472.273C500.322 473.288 509.156 472.324 518.407 469.241C525.46 466.891 528.966 466.849 532.678 466.804C533.264 466.797 533.857 466.79 534.473 466.773C539.851 466.629 542.092 465.029 542.651 464.54C542.969 464.263 543.452 464.294 543.732 464.614C544.01 464.933 543.977 465.418 543.658 465.696C542.817 466.43 540.242 468.153 534.513 468.307C533.89 468.323 533.289 468.33 532.695 468.337C529.106 468.38 525.716 468.42 518.892 470.695C511.834 473.049 505.016 474.196 497.886 474.196Z" fill="#CFAEFF"/>
<path d="M500.332 469.087C497.28 469.087 494.079 468.911 490.715 468.558C484.359 467.894 478.705 466.149 473.715 464.611C470.109 463.498 466.994 462.538 464.526 462.299C462.487 462.102 460.635 462.266 459.002 462.41C457.068 462.583 455.396 462.732 454.003 462.22C453.605 462.074 453.401 461.633 453.547 461.236C453.693 460.839 454.131 460.634 454.531 460.781C455.601 461.175 457.116 461.04 458.866 460.883C460.565 460.732 462.491 460.561 464.674 460.772C467.297 461.025 470.481 462.007 474.167 463.145C479.089 464.663 484.668 466.384 490.875 467.033C501.737 468.167 510.842 467.447 518.708 464.826C525.696 462.498 527.646 462.559 530.586 462.648C531.084 462.663 531.612 462.68 532.202 462.685C537.795 462.737 540.121 461.266 541.389 460.158C541.708 459.88 542.191 459.913 542.471 460.232C542.749 460.551 542.716 461.036 542.397 461.314C540.962 462.567 538.376 464.22 532.469 464.22C532.376 464.22 532.283 464.219 532.188 464.218C531.586 464.213 531.047 464.197 530.539 464.181C527.659 464.092 525.92 464.037 519.193 466.28C513.567 468.157 507.34 469.087 500.332 469.087Z" fill="#CFAEFF"/>
<path d="M447.798 295.455C446.632 295.843 444.667 296.892 445.05 298.809C445.433 300.726 448.886 304.091 450.036 304.602C451.186 305.113 450.418 302.067 449.395 300.726C448.373 299.384 451.225 302.437 452.142 302.131C452.812 301.907 453.037 300.63 452.302 298.617C451.647 296.827 454.57 295.167 453.292 294.912C452.014 294.656 449.331 294.944 447.798 295.455Z" fill="url(#paint38_linear_6_0)"/>
<path d="M465.775 317.632C466.107 317.198 475.428 310.736 476.119 310.483C477.091 310.128 492.2 329.858 494.308 332.063C496.417 334.267 491.521 345.265 487.496 346.032C483.471 346.799 464.904 318.775 465.775 317.632Z" fill="url(#paint39_linear_6_0)"/>
<path d="M439.108 294.592C440.464 293.237 447.223 294.017 448.117 294.273C449.012 294.528 451.248 292.676 452.589 292.611C453.931 292.547 458.036 293.298 460.448 294.656C463.12 296.161 476.483 310.884 476.483 310.884C476.483 310.884 476.293 314.717 472.938 317.017C469.574 319.323 467.417 318.269 467.417 318.269C467.417 318.269 462.683 309.638 461.054 308.584C459.425 307.53 455.4 309.303 452.086 308.491C448.962 307.725 444.619 303.697 445.818 302.642C447.091 301.523 450.134 304.106 451.504 304.559C453.532 305.23 457.334 304.425 457.413 302.882C457.508 301.012 451.452 299.279 446.871 297.898C443.632 296.922 438.007 295.694 439.108 294.592Z" fill="url(#paint40_linear_6_0)"/>
<path d="M468.58 319.271C466.53 319.271 465.35 318.279 465.273 318.21C464.953 317.933 464.919 317.448 465.196 317.129C465.474 316.809 465.96 316.776 466.277 317.053C466.366 317.126 468.598 318.919 472.52 316.374C475.539 314.415 475.716 310.891 475.717 310.856C475.734 310.433 476.091 310.099 476.512 310.12C476.934 310.135 477.264 310.488 477.249 310.911C477.243 311.087 477.06 315.257 473.354 317.661C471.465 318.887 469.855 319.271 468.58 319.271Z" fill="#1AA9E8"/>
<path d="M514.689 300.151C516.733 304.367 524.4 319.061 523.889 330.434C523.379 341.807 520.311 353.562 519.927 362.379C519.544 371.195 519.8 376.945 519.8 376.945C519.8 376.945 511.368 382.184 498.589 381.801C486.2 381.43 480.189 378.223 480.189 378.223C480.189 378.223 479.822 364.698 478.273 355.479C477.058 348.259 474.087 344.042 474.056 335.929C474.014 325.546 489.996 312.13 494.756 304.879C498.669 298.918 514.689 300.151 514.689 300.151Z" fill="url(#paint41_linear_6_0)"/>
<path d="M499.945 382.587C499.491 382.587 499.032 382.58 498.566 382.567C486.14 382.195 480.08 379.034 479.829 378.899C479.456 378.7 479.315 378.237 479.513 377.863C479.712 377.489 480.176 377.347 480.55 377.546C480.609 377.577 486.589 380.674 498.614 381.034C510.991 381.415 519.315 376.345 519.397 376.294C519.756 376.071 520.229 376.182 520.452 376.541C520.675 376.901 520.564 377.373 520.205 377.596C519.865 377.808 512.026 382.587 499.945 382.587Z" fill="#1AA9E8"/>
<path d="M526.892 258.08C528.808 258.176 534.676 256.655 539.062 255.684C547.72 253.767 556.229 253.882 558.421 259.901C560.306 265.076 557.17 269.373 557.687 272.998C558.389 277.917 573.085 282.07 573.371 291.909C573.646 301.342 565.896 304.751 563.787 308.872C561.679 312.992 557.482 325.498 542.896 324.492C534.56 323.917 532.26 318.998 532.258 315.58C532.258 311.192 536.475 307.817 534.462 304.655C532.45 301.492 525.999 303.587 524.592 299.863C523.06 295.806 526.508 292.484 529.096 290.472C531.683 288.459 535.517 286.351 534.654 283.38C533.792 280.409 528.521 279.661 528.712 276.672C528.937 273.189 535.331 270.605 534.271 267.088C533.473 264.437 528.904 264.98 524.975 264.213C521.046 263.447 526.892 258.08 526.892 258.08Z" fill="url(#paint42_linear_6_0)"/>
<path d="M512.773 282.773C512.277 287.213 514.689 300.151 514.689 300.151C514.689 300.151 508.683 306.38 499.866 306.796C495.54 307 494.756 304.879 494.756 304.879L496.545 287.118C496.545 287.118 499.239 282.063 504.723 279.962C510.204 277.861 512.262 279.834 512.262 279.834L512.773 282.773Z" fill="url(#paint43_linear_6_0)"/>
<path d="M510.345 250.573C502.55 247.251 496.743 247.395 496.743 247.395C490.667 250.7 474.511 280.917 484.662 288.267C490.927 292.804 501.675 288.175 508.818 282.008C509.255 282.145 509.721 282.22 510.205 282.22C512.694 282.22 514.709 280.268 514.709 277.859C514.709 277.171 514.54 276.524 514.248 275.945C514.906 274.908 515.413 273.892 515.712 272.933C517.472 267.282 518.139 253.896 510.345 250.573Z" fill="url(#paint44_linear_6_0)"/>
<path d="M498.237 268.862C498.123 268.862 498.006 268.845 497.891 268.808C497.286 268.617 496.949 267.971 497.14 267.365C497.494 266.245 498.782 264.16 499.6 263.38C500.06 262.944 500.789 262.961 501.226 263.421C501.664 263.881 501.646 264.608 501.186 265.047C500.656 265.55 499.565 267.324 499.334 268.057C499.179 268.548 498.726 268.862 498.237 268.862Z" fill="#0090B2"/>
<path d="M487.361 262.792C487.266 262.792 487.169 262.777 487.073 262.747C486.568 262.587 486.289 262.049 486.448 261.544C486.789 260.463 487.826 258.789 488.623 258.031C489.004 257.667 489.612 257.68 489.977 258.065C490.343 258.448 490.327 259.055 489.944 259.42C489.389 259.948 488.516 261.362 488.276 262.122C488.147 262.53 487.769 262.792 487.361 262.792Z" fill="#0090B2"/>
<path d="M498.301 273.393C497.504 273.393 496.755 273.21 496.08 272.848C494.665 272.092 493.738 270.655 493.468 268.8C493.206 267.01 493.594 265.033 494.556 263.232C496.057 260.425 498.656 258.612 501.178 258.612C501.976 258.612 502.724 258.795 503.399 259.157C506.257 260.685 506.941 264.999 504.924 268.774C503.424 271.579 500.824 273.393 498.301 273.393ZM501.177 259.761C499.107 259.761 496.853 261.374 495.57 263.773C494.723 265.359 494.379 267.084 494.606 268.633C494.822 270.117 495.538 271.253 496.622 271.832C497.129 272.104 497.694 272.242 498.301 272.242C500.373 272.242 502.627 270.63 503.91 268.231C505.627 265.014 505.155 261.399 502.856 260.17C502.349 259.899 501.784 259.761 501.177 259.761Z" fill="#9F36AD"/>
<path d="M485.444 266.158C484.875 266.158 484.344 266.03 483.867 265.775C481.57 264.546 481.227 260.858 483.086 257.379C484.493 254.747 486.839 252.979 488.925 252.979C489.494 252.979 490.025 253.108 490.502 253.363C491.642 253.972 492.335 255.213 492.452 256.856C492.563 258.401 492.148 260.143 491.283 261.759C489.878 264.39 487.53 266.158 485.444 266.158ZM488.926 254.129C487.279 254.129 485.295 255.688 484.1 257.92C482.597 260.733 482.738 263.866 484.409 264.76C484.717 264.924 485.065 265.008 485.444 265.008C487.092 265.008 489.077 263.449 490.269 261.216C491.033 259.789 491.401 258.269 491.306 256.936C491.218 255.701 490.74 254.792 489.96 254.376C489.652 254.212 489.303 254.129 488.926 254.129Z" fill="#9F36AD"/>
<path d="M492.393 260.411C489.373 262.919 480.992 267.057 480.764 268.525C480.461 270.49 484.951 271.585 485.974 271.585C486.997 271.585 487.744 268.813 490.476 265.011C492.016 262.869 493.999 259.078 492.393 260.411Z" fill="url(#paint45_linear_6_0)"/>
<path d="M495.444 263.425C495.216 263.425 495.001 263.289 494.911 263.064C494.122 261.092 493.112 260.503 491.416 261.03C491.112 261.126 490.791 260.955 490.697 260.652C490.603 260.349 490.772 260.027 491.075 259.932C493.363 259.221 494.965 260.106 495.979 262.637C496.097 262.932 495.954 263.266 495.658 263.385C495.589 263.412 495.516 263.425 495.444 263.425Z" fill="#9F36AD"/>
<path d="M482.16 275.919C482.268 276.369 482.546 276.834 482.867 277.217C483.193 277.603 483.59 277.918 484.029 278.114C484.907 278.523 485.928 278.367 486.836 277.92C487.122 277.779 487.467 277.896 487.608 278.181C487.749 278.466 487.631 278.811 487.347 278.952C487.335 278.957 487.322 278.964 487.309 278.969C486.742 279.201 486.128 279.379 485.482 279.396C484.84 279.423 484.177 279.283 483.605 278.983C483.031 278.687 482.554 278.254 482.181 277.763C481.815 277.263 481.516 276.726 481.392 276.074C481.352 275.861 481.491 275.656 481.704 275.614C481.911 275.574 482.111 275.706 482.159 275.908L482.16 275.919Z" fill="#954374"/>
<path d="M499.302 307.575C494.988 307.575 494.076 305.248 494.038 305.145C493.89 304.748 494.093 304.307 494.491 304.16C494.888 304.015 495.329 304.216 495.475 304.613C495.496 304.66 496.208 306.2 499.831 306.03C508.246 305.633 514.08 299.679 514.138 299.619C514.432 299.314 514.917 299.304 515.222 299.6C515.526 299.893 515.536 300.379 515.241 300.684C514.987 300.947 508.92 307.137 499.903 307.561C499.696 307.571 499.495 307.575 499.302 307.575Z" fill="#1AA9E8"/>
<path d="M508.98 273.666C508.166 273.866 507.002 273.508 507.087 271.848C507.246 268.717 512.618 263.917 512.487 259.485C512.325 254.103 502.215 252.904 495.266 250.189C487.785 247.266 487.887 238.624 489.756 235.798C491.816 232.683 495.458 233.706 496.991 235.239C498.525 236.773 499.227 238.476 500.57 238.434C502.119 238.386 501.544 235.367 503.891 235.367C506.27 235.367 508.328 239.754 509.962 241.564C512.756 244.663 527.423 249.499 528.169 260.028C529.193 274.467 514.818 285.711 513.22 285.711C510.499 285.712 510.644 282.563 511.805 281.933C512.969 281.303 515.159 279.973 514.605 276.932C514.05 273.892 510.791 273.222 508.98 273.666Z" fill="url(#paint46_linear_6_0)"/>
<path d="M511.83 273.797C513.111 274.277 514.11 275.305 514.514 276.589C514.61 276.452 514.656 276.28 514.606 276.106C513.685 272.81 508.883 269.882 506.304 268.31C505.759 267.978 505.289 267.691 505.012 267.495C504.753 267.311 504.393 267.374 504.211 267.633C504.027 267.892 504.088 268.251 504.349 268.434C504.657 268.652 505.12 268.934 505.706 269.291C507.385 270.316 510.061 271.948 511.83 273.797Z" fill="#9F36AD"/>
<path d="M421.376 310.241C422.927 309.938 424.685 315.005 425.452 317.88C426.218 320.755 426.774 325.622 429.589 328.837C432.16 331.776 440.386 334.459 440.386 334.459C440.386 334.459 441.28 339.251 439.108 341.934C436.936 344.617 433.73 344.482 433.73 344.482C433.73 344.482 424.286 335.098 420.324 332.351C416.364 329.604 413.936 325.898 413.328 323.247C412.678 320.41 412.211 318.998 412.53 315.867C412.703 314.169 413.371 311.912 413.371 311.912C413.371 311.912 419.252 321.246 420.772 323.662C422.37 323.342 421.603 318.934 421.411 317.145C421.22 315.357 419.798 310.548 421.376 310.241Z" fill="url(#paint47_linear_6_0)"/>
<path d="M504.468 312.621C511.175 311.459 515.113 314.48 517.213 319.03C519.513 324.013 519.033 330.179 515.456 333.756C511.879 337.333 488.841 364.71 476.706 364.363C463.162 363.975 433.214 346.88 432.912 345.128C432.608 343.376 438.198 333.682 438.983 333.964C439.765 334.246 470.732 345.945 475.333 344.706C479.933 343.468 499.807 313.429 504.468 312.621Z" fill="url(#paint48_linear_6_0)"/>
<path d="M432.904 345.879C432.539 345.879 432.22 345.629 432.156 345.259C431.803 343.225 436.765 334.708 438.193 333.508C438.549 333.209 438.9 333.12 439.242 333.242C439.64 333.386 439.846 333.825 439.704 334.223C439.61 334.484 439.389 334.663 439.136 334.715C437.952 335.708 433.498 343.664 433.667 344.999C433.72 345.412 433.435 345.809 433.023 345.87C432.983 345.877 432.943 345.879 432.904 345.879Z" fill="#1AA9E8"/>
<path d="M213.592 482.68C213.592 483.868 214.555 484.83 215.742 484.83H263.402C264.59 484.83 265.553 483.868 265.553 482.68V451.145C265.553 449.958 264.59 448.995 263.402 448.995H215.742C214.555 448.995 213.592 449.958 213.592 451.145V482.68Z" fill="url(#paint49_linear_6_0)"/>
<path d="M265.064 447.746H214.08C212.81 447.746 211.78 448.776 211.78 450.046V483.78C211.78 485.05 212.81 486.08 214.08 486.08H265.064C266.334 486.08 267.364 485.05 267.364 483.78V450.046C267.364 448.775 266.334 447.746 265.064 447.746ZM263.53 482.246H215.614V451.58H263.53V482.246Z" fill="url(#paint50_linear_6_0)"/>
<path d="M254.615 469.265H214.044V473.099H254.615V469.265Z" fill="#FDE1A7"/>
<path d="M249.349 460.208L254.615 466.362L244.114 466.39L249.349 460.208Z" fill="#00E2EC"/>
<path d="M235.367 466.39C237.074 466.39 238.458 465.006 238.458 463.299C238.458 461.592 237.074 460.208 235.367 460.208C233.66 460.208 232.276 461.592 232.276 463.299C232.276 465.006 233.66 466.39 235.367 466.39Z" fill="#F95FC3"/>
<path d="M168.724 597.722C170.137 601.259 176.181 602.742 181.253 603.942C186.718 605.237 190.612 605.983 190.389 608.159C190.134 610.651 178.251 611.481 169.626 611.226C161.001 610.971 154.752 609.954 153.475 608.996C152.126 607.984 152.185 598.831 152.504 596.787C152.823 594.743 168.724 597.722 168.724 597.722Z" fill="url(#paint51_linear_6_0)"/>
<path d="M159.723 389.979C158.573 394.195 155.634 403.907 154.611 422.307C153.588 440.707 154.866 497.185 154.866 510.985C154.866 524.785 151.545 549.318 151.288 565.929C151.032 582.54 150.703 598.16 151.672 598.767C153.812 600.109 166.079 601.067 170.2 598.767C170.919 598.367 177.611 540.374 182.211 516.096C185.246 500.078 197.033 413.105 197.8 400.328C198.566 387.551 159.723 389.979 159.723 389.979Z" fill="url(#paint52_linear_6_0)"/>
<path d="M162.396 594.882C156.709 594.882 152.314 593.746 150.709 592.935C150.331 592.745 150.179 592.284 150.37 591.906C150.56 591.528 151.021 591.375 151.4 591.567C153.625 592.689 161.649 594.466 171.002 592.433C171.417 592.343 171.824 592.607 171.913 593.021C172.003 593.434 171.741 593.842 171.327 593.932C168.163 594.62 165.13 594.882 162.396 594.882Z" fill="#CD218F"/>
<path d="M230.958 602.154C232.172 604.327 237.578 607.023 242.65 608.224C248.116 609.518 252.009 610.264 251.786 612.44C251.531 614.932 239.648 615.762 231.023 615.507C222.398 615.252 216.584 614.932 215.306 613.974C213.957 612.962 213.261 605.731 213.581 603.687C213.901 601.643 230.958 602.154 230.958 602.154Z" fill="url(#paint53_linear_6_0)"/>
<path d="M220.608 399.051C221.183 406.717 226.358 499.676 227.508 515.009C228.658 530.342 233.705 601.121 233.067 602.473C232.012 604.709 215.721 607.201 213.229 604.997C211.635 603.587 206.489 567.718 202.4 544.207C198.311 520.695 189.367 479.04 184.767 462.685C180.167 446.33 171.733 419.559 176.525 395.792C180.933 390.809 190.712 390.921 201.442 392.917C212.489 394.973 220.608 399.051 220.608 399.051Z" fill="url(#paint54_linear_6_0)"/>
<path d="M188.299 478.151C187.41 474.545 186.5 470.946 185.537 467.362C184.584 463.777 183.504 460.23 182.464 456.659C180.372 449.523 178.404 442.331 176.905 435.017C176.82 434.603 177.087 434.198 177.503 434.112C177.917 434.027 178.322 434.294 178.408 434.708C178.408 434.711 178.41 434.719 178.41 434.722C179.767 441.997 181.598 449.188 183.562 456.348C184.536 459.928 185.559 463.51 186.451 467.124C187.354 470.734 188.201 474.354 189.027 477.978C189.073 478.18 188.947 478.38 188.745 478.426C188.547 478.472 188.348 478.349 188.299 478.151Z" fill="#CD218F"/>
<path d="M177.649 435.588C177.549 435.588 177.448 435.569 177.351 435.527C175.108 434.581 170.025 430.915 168.776 428.834C168.559 428.471 168.676 428 169.039 427.782C169.402 427.565 169.873 427.682 170.091 428.045C171.096 429.719 175.77 433.196 177.948 434.116C178.338 434.281 178.521 434.73 178.356 435.12C178.232 435.412 177.948 435.588 177.649 435.588Z" fill="#CD218F"/>
<path d="M217.832 600.514C214.822 600.514 212.387 600.187 211.345 599.796C210.948 599.648 210.747 599.206 210.895 598.81C211.043 598.413 211.487 598.215 211.882 598.36C214.339 599.279 225.894 599.771 232.535 595.613C232.894 595.388 233.366 595.498 233.591 595.856C233.816 596.215 233.707 596.688 233.348 596.913C228.935 599.676 222.647 600.514 217.832 600.514Z" fill="#CD218F"/>
<path d="M192.401 264.162C197.001 254.962 215.561 215.179 217.478 212.751C219.395 210.323 220.899 209.846 221.439 206.17C221.888 203.119 221.646 201.012 222.206 198.632C222.973 195.373 227.597 186.673 226.423 184.129C225.656 182.467 222.589 186.877 221.439 188.282C220.289 189.687 216.874 195.176 216.058 194.668C215.841 192.531 216.122 185.343 216.122 185.343C214.667 187.068 212.655 191.477 211.505 196.077C210.355 200.677 210.706 202.274 208.151 207.513C205.595 212.752 184.576 235.752 173.842 259.71C173.221 261.095 172.619 262.51 172.029 263.946C176.566 267.127 182.628 270.335 189.932 271.609C190.696 268.513 191.529 265.905 192.401 264.162Z" fill="url(#paint55_linear_6_0)"/>
<path d="M200.037 311.076C186.417 307.253 187.759 309.323 186.272 308.658C184.642 307.027 186.659 284.852 189.932 271.609C182.628 270.334 176.566 267.127 172.029 263.945C162.4 287.41 156.953 317.304 156.592 340.784C156.209 365.701 157.167 390.617 157.359 391.767C157.551 392.917 174.985 403.65 194.351 403.842C213.645 404.034 220.609 399.051 220.609 399.051C220.609 399.051 224.476 330.742 223.852 328.831C223.228 326.92 213.657 314.898 200.037 311.076Z" fill="url(#paint56_linear_6_0)"/>
<path d="M197.066 399.198C196.473 399.198 195.87 399.193 195.252 399.182C172.368 398.787 158.176 388.695 156.517 386.855C156.233 386.541 156.258 386.056 156.573 385.772C156.887 385.489 157.371 385.515 157.655 385.828C158.997 387.316 172.992 397.264 195.278 397.649C214.086 397.974 220.369 393.101 220.431 393.052C220.76 392.788 221.244 392.841 221.509 393.17C221.774 393.501 221.721 393.984 221.39 394.248C221.131 394.458 215.006 399.198 197.066 399.198Z" fill="#05C5DA"/>
<path d="M211.646 326.158C211.37 326.158 211.103 326.01 210.967 325.748C208.57 321.184 200.379 314.812 196.701 313.381C196.306 313.228 196.11 312.783 196.264 312.389C196.417 311.994 196.862 311.799 197.256 311.952C201.23 313.498 209.739 320.113 212.324 325.035C212.521 325.41 212.377 325.873 212.002 326.07C211.888 326.131 211.766 326.158 211.646 326.158Z" fill="#05C5DA"/>
<path d="M173.567 302.866C173.2 302.866 172.877 302.603 172.812 302.23C171.245 293.225 176.264 278.783 178.676 271.843C179.197 270.342 179.609 269.157 179.772 268.544C179.88 268.135 180.3 267.891 180.71 268.001C181.119 268.109 181.363 268.529 181.253 268.938C181.076 269.607 180.677 270.756 180.123 272.347C177.753 279.166 172.823 293.354 174.322 301.968C174.395 302.385 174.115 302.782 173.698 302.855C173.654 302.862 173.609 302.866 173.567 302.866Z" fill="#05C5DA"/>
<path d="M164.259 306.092C164.046 306.092 163.834 306.004 163.682 305.831C163.403 305.512 163.435 305.028 163.754 304.749C165.29 303.406 173.57 298.852 183.148 302.895C183.539 303.059 183.722 303.509 183.557 303.899C183.393 304.289 182.944 304.472 182.553 304.308C173.654 300.553 165.918 304.893 164.764 305.903C164.618 306.03 164.438 306.092 164.259 306.092Z" fill="#05C5DA"/>
<path d="M206.514 257.697C209.433 262.531 215.242 263.447 215.721 265.076C216.2 266.705 213.038 269.963 212.079 270.538C211.121 271.113 206.521 261.722 206.138 260.667C205.754 259.613 206.514 257.697 206.514 257.697Z" fill="url(#paint57_linear_6_0)"/>
<path d="M198.423 247.587C198.423 247.587 185.15 251.467 178.633 260.54C175.035 265.55 179.502 274.373 184.224 281.275C182.642 282.626 181.828 284.179 181.828 284.179L181.221 285.872C180.87 289.737 176.663 303.046 175.13 307.007C174.559 308.481 178.554 313.899 187.258 314.334C194.925 314.717 200.036 311.076 200.036 311.076L200.771 294.257C200.771 294.257 201.028 293.204 201.306 291.771C205.013 291.299 209.229 289.845 212.75 286.223C221.567 277.151 203.358 251.563 198.423 247.587Z" fill="url(#paint58_linear_6_0)"/>
<path d="M195.756 270.889C196.728 270.232 196.459 268.206 194.159 265.906C191.859 263.606 189.431 261.561 189.879 259.134C190.323 256.726 198.252 254.159 201.974 251.4C208.087 246.867 210.068 235.878 206.362 235.176C201.278 234.212 199.655 241.181 198.312 241.181C196.715 241.181 197.533 237.456 195.242 237.725C191.923 238.114 190.645 242.842 188.729 244.311C185.857 246.513 170.584 251.211 169.626 262.583C168.845 271.841 174.644 277.105 177.197 280.408C179.912 283.922 180.75 285.729 181.222 285.871C182.068 286.125 185.795 285.57 188.984 284.242C192.434 282.804 194.543 280.983 193.872 280.121C193.201 279.258 188.185 278.295 187.834 274.083C187.579 271.017 189.655 269.675 191.284 269.963C192.913 270.25 194.67 271.625 195.756 270.889Z" fill="url(#paint59_linear_6_0)"/>
<path d="M198.088 273.988C198.688 274.007 199.142 278.077 201.49 278.637C203.054 279.008 208.086 275.522 210.355 274.516C211.733 273.905 214.189 273.486 214.347 274.116C214.505 274.747 214.859 277.056 215.722 279.116C216.45 280.855 218.118 282.454 217.303 286.016C216.107 291.247 207.001 295.168 200.772 294.257C200.628 292.772 200.42 290.468 199.382 286.303C198.183 281.495 196.318 277.119 196.363 276.241C196.427 274.979 197.066 273.956 198.088 273.988Z" fill="url(#paint60_linear_6_0)"/>
<path d="M204.764 265.396C204.26 265.396 203.798 265.062 203.657 264.553C203.393 263.602 202.187 261.509 201.945 261.188C201.567 260.686 201.655 259.963 202.152 259.578C202.648 259.194 203.354 259.267 203.746 259.757C204.055 260.143 205.501 262.597 205.873 263.938C206.043 264.55 205.684 265.184 205.073 265.354C204.969 265.382 204.865 265.396 204.764 265.396Z" fill="#0090B2"/>
<path d="M210.761 277.917C210.897 278.144 211.314 278.424 211.686 278.572C212.074 278.732 212.492 278.809 212.894 278.764C213.709 278.693 214.395 278.031 214.818 277.208C214.894 277.057 215.078 276.997 215.229 277.074C215.373 277.147 215.433 277.32 215.372 277.467C215.17 277.943 214.905 278.414 214.516 278.812C214.136 279.213 213.609 279.516 213.041 279.633C212.471 279.751 211.885 279.695 211.349 279.531C210.81 279.343 210.312 279.149 209.837 278.601L209.829 278.591C209.621 278.35 209.647 277.984 209.887 277.776C210.128 277.567 210.494 277.593 210.702 277.835C210.724 277.859 210.744 277.889 210.761 277.917Z" fill="#F1D2F8"/>
<path d="M187.258 314.334C194.925 314.717 200.036 311.076 200.036 311.076L200.304 304.948C198.374 305.986 194.207 307.771 188.717 307.497C182.053 307.163 178.16 303.914 176.951 301.746C176.228 303.971 175.569 305.873 175.131 307.007C174.56 308.481 178.554 313.899 187.258 314.334Z" fill="url(#paint61_linear_6_0)"/>
<path d="M188.401 315.129C188.014 315.129 187.621 315.12 187.22 315.099C180.787 314.778 176.635 311.784 175.035 309.319C174.379 308.309 174.159 307.39 174.414 306.73C174.568 306.335 175.012 306.138 175.406 306.291C175.799 306.444 175.995 306.884 175.846 307.278C175.824 307.374 175.872 307.888 176.514 308.762C178.085 310.902 181.744 313.29 187.296 313.567C194.612 313.927 199.541 310.485 199.591 310.45C199.935 310.204 200.414 310.285 200.66 310.63C200.906 310.975 200.826 311.453 200.481 311.699C200.275 311.847 195.581 315.129 188.401 315.129Z" fill="#05C5DA"/>
<path d="M238.386 436.473C236.213 429.825 233.924 386.65 230.042 356.623C219.269 356.908 210.505 359.607 205.858 361.829C206.952 366.881 208.527 373.492 211.026 382.184C217.862 405.968 227.03 433.072 227.19 438.917C227.284 442.366 224.348 446.414 223.974 451.507C223.724 454.922 225.113 460.48 226.423 460.384C228.084 460.263 227.946 455.204 228.611 452.813C229.665 449.027 231.918 447.734 231.918 447.734C231.918 447.734 236.709 447.746 244.788 447.746C243.654 443.673 239.333 439.372 238.386 436.473Z" fill="url(#paint62_linear_6_0)"/>
<path d="M223.228 328.006C215.561 319.828 200.867 328.389 199.461 339.123C199.161 341.417 201.25 344.107 202.783 348.067C203.693 350.416 204.263 354.467 205.857 361.829C210.505 359.607 219.268 356.908 230.042 356.623C228.188 342.278 225.971 330.931 223.228 328.006Z" fill="url(#paint63_linear_6_0)"/>
<path d="M205.858 362.596C205.572 362.596 205.297 362.435 205.165 362.16C204.983 361.778 205.145 361.32 205.526 361.138C207.932 359.988 216.81 356.206 230.021 355.856C230.446 355.858 230.797 356.179 230.808 356.603C230.82 357.026 230.485 357.379 230.062 357.389C219.806 357.661 211.004 360.218 206.188 362.521C206.082 362.572 205.969 362.596 205.858 362.596Z" fill="#05C5DA"/>
<path d="M199.462 339.889C199.429 339.889 199.396 339.887 199.362 339.883C198.942 339.828 198.646 339.443 198.701 339.023C199.515 332.808 204.794 326.788 211.252 324.709C216.102 323.147 220.671 324.157 223.788 327.482C224.078 327.791 224.062 328.277 223.753 328.567C223.445 328.856 222.959 328.841 222.669 328.532C218.98 324.597 214.227 325.362 211.722 326.169C205.799 328.076 200.963 333.566 200.222 339.223C200.171 339.608 199.842 339.889 199.462 339.889Z" fill="#05C5DA"/>
<path d="M454.527 251.454L446.458 250.751L453.932 243.376L454.527 251.454Z" fill="#F95FC3"/>
<path d="M426.012 276.129C425.689 276.129 425.389 275.923 425.284 275.601C421.349 263.579 429.117 256.13 441.986 243.786C444.643 241.237 447.655 238.348 450.768 235.21C469.09 216.741 465.513 197.986 463.98 192.678C463.862 192.272 464.097 191.846 464.504 191.729C464.913 191.613 465.336 191.846 465.453 192.253C467.045 197.764 470.768 217.228 451.856 236.29C448.73 239.441 445.711 242.337 443.047 244.892C430.612 256.819 423.106 264.018 426.74 275.123C426.872 275.526 426.653 275.959 426.25 276.09C426.172 276.117 426.091 276.129 426.012 276.129Z" fill="#1AA9E8"/>
<path d="M462.399 240.256L459.678 237.556C466.641 230.537 471.11 222.721 472.964 214.323L476.708 215.15C474.695 224.267 469.882 232.714 462.399 240.256Z" fill="#00E2EC"/>
<path d="M464.717 195.501C466.393 195.501 467.752 194.142 467.752 192.466C467.752 190.79 466.393 189.432 464.717 189.432C463.041 189.432 461.683 190.79 461.683 192.466C461.683 194.142 463.041 195.501 464.717 195.501Z" fill="#FDE1A7"/>
<path d="M419.11 279.195C418.991 279.195 418.869 279.167 418.756 279.107C418.531 278.989 413.264 276.114 414.52 267.331C415.231 262.354 418.474 258.167 421.909 253.735C426.375 247.971 430.993 242.011 430.358 233.765C430.113 230.57 428.473 227.763 425.485 225.419C409.478 212.865 360.06 216.245 347.505 218.321C347.081 218.386 346.692 218.107 346.624 217.689C346.554 217.271 346.837 216.876 347.255 216.807C359.958 214.708 410.02 211.342 426.431 224.212C429.771 226.832 431.607 230.007 431.887 233.648C432.567 242.484 427.549 248.96 423.12 254.674C419.814 258.942 416.69 262.973 416.038 267.548C414.942 275.211 419.287 277.652 419.472 277.753C419.843 277.953 419.985 278.416 419.786 278.789C419.649 279.047 419.384 279.195 419.11 279.195Z" fill="#1AA9E8"/>
<path d="M405.751 227.277C398.419 226.072 389.673 225.453 379.753 225.439L379.759 221.606C389.884 221.62 398.838 222.255 406.372 223.494L405.751 227.277Z" fill="#C7A0F6"/>
<path d="M347.379 220.598C349.055 220.598 350.413 219.24 350.413 217.564C350.413 215.888 349.055 214.529 347.379 214.529C345.703 214.529 344.344 215.888 344.344 217.564C344.344 219.24 345.703 220.598 347.379 220.598Z" fill="#FDE1A7"/>
<path d="M127.802 288.243L125.027 295.853L119.846 286.72L127.802 288.243Z" fill="#F95FC3"/>
<path d="M207.227 351.854C206.621 351.854 206.016 351.849 205.41 351.84C174.773 351.377 147.503 339.46 128.623 318.283C106.416 293.375 95.8756 261.805 100.425 233.834C103.841 212.833 115.429 195.708 133.054 185.612C133.421 185.401 133.889 185.529 134.1 185.897C134.311 186.265 134.183 186.732 133.816 186.943C116.599 196.804 105.279 213.545 101.938 234.081C97.4618 261.6 107.865 292.696 129.768 317.264C169.218 361.513 240.979 361.599 293.138 317.455C302.161 309.819 309.854 301.944 317.294 294.328C334.99 276.212 350.275 260.566 373.462 259.984C395.122 259.442 405.88 270.626 411.094 280.104C411.298 280.475 411.163 280.941 410.792 281.145C410.42 281.351 409.954 281.214 409.75 280.843C404.742 271.737 394.397 260.997 373.501 261.517C350.936 262.083 335.855 277.523 318.391 295.399C310.926 303.04 303.207 310.942 294.129 318.624C268.762 340.094 237.969 351.853 207.227 351.854Z" fill="#1AA9E8"/>
<path d="M116.964 279.776C113.371 269.558 111.459 259.231 111.281 249.079L115.114 249.012C115.285 258.752 117.124 268.674 120.58 278.504L116.964 279.776Z" fill="#C7A0F6"/>
<path d="M234.65 342.662L233.813 338.922C242.774 336.915 251.642 333.899 260.168 329.954L261.778 333.433C253.005 337.493 243.878 340.598 234.65 342.662Z" fill="#00E2EC"/>
<path d="M133.435 189.313C135.111 189.313 136.47 187.954 136.47 186.278C136.47 184.603 135.111 183.244 133.435 183.244C131.759 183.244 130.401 184.603 130.401 186.278C130.401 187.954 131.759 189.313 133.435 189.313Z" fill="#FDE1A7"/>
<path d="M389.185 402.308L381.225 403.811L386.43 394.69L389.185 402.308Z" fill="#00E2EC"/>
<path d="M330.602 420.034C329.544 420.034 328.524 420.005 327.549 419.95C327.127 419.927 326.803 419.565 326.827 419.141C326.851 418.719 327.223 418.399 327.636 418.42C342.42 419.259 367.845 413.87 377.287 395.632C381.513 387.469 382.699 375.764 383.952 363.372C386.031 342.836 388.181 321.601 404.144 311.765C404.505 311.542 404.976 311.655 405.199 312.016C405.421 312.376 405.31 312.848 404.949 313.071C389.631 322.509 387.519 343.362 385.478 363.527C384.209 376.068 383.009 387.915 378.649 396.338C369.499 414.01 346.022 420.034 330.602 420.034Z" fill="#1AA9E8"/>
<path d="M391.795 387.471L388.065 386.586C389.63 379.996 390.394 372.444 391.204 364.447C391.432 362.198 391.661 359.932 391.911 357.668L395.722 358.089C395.473 360.342 395.244 362.596 395.018 364.833C394.195 372.96 393.418 380.634 391.795 387.471Z" fill="#F95FC3"/>
<path d="M327.591 422.22C329.267 422.22 330.626 420.861 330.626 419.185C330.626 417.509 329.267 416.151 327.591 416.151C325.915 416.151 324.557 417.509 324.557 419.185C324.557 420.861 325.915 422.22 327.591 422.22Z" fill="#C7A0F6"/>
<defs>
<linearGradient id="paint0_linear_6_0" x1="154.691" y1="117.523" x2="512.128" y2="474.959" gradientUnits="userSpaceOnUse">
<stop stop-color="#DBEFFF"/>
<stop offset="1" stop-color="#F7EBFF"/>
</linearGradient>
<linearGradient id="paint1_linear_6_0" x1="480.392" y1="607.175" x2="480.392" y2="572.587" gradientUnits="userSpaceOnUse">
<stop stop-color="#F7EBFF"/>
<stop offset="1" stop-color="#DBEFFF"/>
</linearGradient>
<linearGradient id="paint2_linear_6_0" x1="200.428" y1="625.99" x2="200.428" y2="594.228" gradientUnits="userSpaceOnUse">
<stop stop-color="#F7EBFF"/>
<stop offset="1" stop-color="#DBEFFF"/>
</linearGradient>
<linearGradient id="paint3_linear_6_0" x1="297.732" y1="381.77" x2="316.05" y2="400.089" gradientUnits="userSpaceOnUse">
<stop stop-color="#FF57BD"/>
<stop offset="1" stop-color="#FE6A77"/>
</linearGradient>
<linearGradient id="paint4_linear_6_0" x1="297.731" y1="410.028" x2="316.051" y2="428.348" gradientUnits="userSpaceOnUse">
<stop stop-color="#FF57BD"/>
<stop offset="1" stop-color="#FE6A77"/>
</linearGradient>
<linearGradient id="paint5_linear_6_0" x1="297.732" y1="438.288" x2="316.05" y2="456.606" gradientUnits="userSpaceOnUse">
<stop stop-color="#FF57BD"/>
<stop offset="1" stop-color="#FE6A77"/>
</linearGradient>
<linearGradient id="paint6_linear_6_0" x1="269.604" y1="272.192" x2="372.002" y2="374.59" gradientUnits="userSpaceOnUse">
<stop stop-color="#706AED"/>
<stop offset="1" stop-color="#271068"/>
</linearGradient>
<linearGradient id="paint7_linear_6_0" x1="277.677" y1="285.265" x2="318.248" y2="285.265" gradientUnits="userSpaceOnUse">
<stop stop-color="white"/>
<stop offset="1" stop-color="#F1D1F8"/>
</linearGradient>
<linearGradient id="paint8_linear_6_0" x1="357.794" y1="361.101" x2="357.794" y2="286.735" gradientUnits="userSpaceOnUse">
<stop stop-color="#FDE1A7"/>
<stop offset="1" stop-color="#F9A144"/>
</linearGradient>
<linearGradient id="paint9_linear_6_0" x1="351.661" y1="301.365" x2="363.927" y2="301.365" gradientUnits="userSpaceOnUse">
<stop stop-color="#00E2EC"/>
<stop offset="1" stop-color="#0090B2"/>
</linearGradient>
<linearGradient id="paint10_linear_6_0" x1="320.803" y1="361.101" x2="320.803" y2="303.026" gradientUnits="userSpaceOnUse">
<stop stop-color="#1AA9E8"/>
<stop offset="0.4223" stop-color="#3D80EF"/>
<stop offset="0.7909" stop-color="#5662F4"/>
<stop offset="1" stop-color="#5F57F6"/>
</linearGradient>
<linearGradient id="paint11_linear_6_0" x1="314.669" y1="320.116" x2="326.936" y2="320.116" gradientUnits="userSpaceOnUse">
<stop stop-color="#00E2EC"/>
<stop offset="1" stop-color="#0090B2"/>
</linearGradient>
<linearGradient id="paint12_linear_6_0" x1="339.298" y1="361.101" x2="339.298" y2="313.76" gradientUnits="userSpaceOnUse">
<stop stop-color="#FF57BD"/>
<stop offset="1" stop-color="#FE6A77"/>
</linearGradient>
<linearGradient id="paint13_linear_6_0" x1="333.165" y1="325.483" x2="345.432" y2="325.483" gradientUnits="userSpaceOnUse">
<stop stop-color="#00E2EC"/>
<stop offset="1" stop-color="#0090B2"/>
</linearGradient>
<linearGradient id="paint14_linear_6_0" x1="302.307" y1="361.101" x2="302.307" y2="292.676" gradientUnits="userSpaceOnUse">
<stop stop-color="#C7A0F6"/>
<stop offset="1" stop-color="#FF57BD"/>
</linearGradient>
<linearGradient id="paint15_linear_6_0" x1="296.173" y1="305.294" x2="308.44" y2="305.294" gradientUnits="userSpaceOnUse">
<stop stop-color="#00E2EC"/>
<stop offset="1" stop-color="#0090B2"/>
</linearGradient>
<linearGradient id="paint16_linear_6_0" x1="283.811" y1="361.101" x2="283.811" y2="326.41" gradientUnits="userSpaceOnUse">
<stop stop-color="#FDE1A7"/>
<stop offset="1" stop-color="#F9A144"/>
</linearGradient>
<linearGradient id="paint17_linear_6_0" x1="277.677" y1="336.855" x2="289.944" y2="336.855" gradientUnits="userSpaceOnUse">
<stop stop-color="#00E2EC"/>
<stop offset="1" stop-color="#0090B2"/>
</linearGradient>
<linearGradient id="paint18_linear_6_0" x1="132.538" y1="119.314" x2="219.171" y2="205.947" gradientUnits="userSpaceOnUse">
<stop stop-color="#00E2EC"/>
<stop offset="1" stop-color="#0090B2"/>
</linearGradient>
<linearGradient id="paint19_linear_6_0" x1="180.742" y1="140.684" x2="222.334" y2="140.684" gradientUnits="userSpaceOnUse">
<stop stop-color="white"/>
<stop offset="1" stop-color="#F1D1F8"/>
</linearGradient>
<linearGradient id="paint20_linear_6_0" x1="215.945" y1="183.24" x2="256.834" y2="183.24" gradientUnits="userSpaceOnUse">
<stop stop-color="#FDE1A7"/>
<stop offset="1" stop-color="#F9A144"/>
</linearGradient>
<linearGradient id="paint21_linear_6_0" x1="247.249" y1="136.763" x2="348.137" y2="136.763" gradientUnits="userSpaceOnUse">
<stop stop-color="#5A55F8"/>
<stop offset="1" stop-color="#8C6AE2"/>
</linearGradient>
<linearGradient id="paint22_linear_6_0" x1="232.986" y1="206.847" x2="365.19" y2="206.847" gradientUnits="userSpaceOnUse">
<stop stop-color="#FF57BD"/>
<stop offset="1" stop-color="#FE6A77"/>
</linearGradient>
<linearGradient id="paint23_linear_6_0" x1="261.381" y1="206.106" x2="314.442" y2="206.106" gradientUnits="userSpaceOnUse">
<stop stop-color="#C7A0F6"/>
<stop offset="1" stop-color="#FF57BD"/>
</linearGradient>
<linearGradient id="paint24_linear_6_0" x1="290.567" y1="185.963" x2="321.745" y2="185.963" gradientUnits="userSpaceOnUse">
<stop stop-color="#994574"/>
<stop offset="1" stop-color="#43256F"/>
</linearGradient>
<linearGradient id="paint25_linear_6_0" x1="268.535" y1="168.459" x2="290.58" y2="190.505" gradientUnits="userSpaceOnUse">
<stop stop-color="#1AA9E8"/>
<stop offset="0.4223" stop-color="#3D80EF"/>
<stop offset="0.7909" stop-color="#5662F4"/>
<stop offset="1" stop-color="#5F57F6"/>
</linearGradient>
<linearGradient id="paint26_linear_6_0" x1="396.732" y1="81.6586" x2="532.704" y2="217.631" gradientUnits="userSpaceOnUse">
<stop stop-color="#C91C91"/>
<stop offset="1" stop-color="#FE6A77"/>
</linearGradient>
<linearGradient id="paint27_linear_6_0" x1="393.928" y1="127.395" x2="446.392" y2="127.395" gradientUnits="userSpaceOnUse">
<stop stop-color="white"/>
<stop offset="1" stop-color="#F1D1F8"/>
</linearGradient>
<linearGradient id="paint28_linear_6_0" x1="469.189" y1="183.873" x2="469.189" y2="113.718" gradientUnits="userSpaceOnUse">
<stop stop-color="#994574"/>
<stop offset="1" stop-color="#9F36AD"/>
</linearGradient>
<linearGradient id="paint29_linear_6_0" x1="393.928" y1="153.334" x2="535.506" y2="153.334" gradientUnits="userSpaceOnUse">
<stop stop-color="#FE6A77"/>
<stop offset="1" stop-color="#FF57BD"/>
</linearGradient>
<linearGradient id="paint30_linear_6_0" x1="290.052" y1="94.6204" x2="357.774" y2="94.6204" gradientUnits="userSpaceOnUse">
<stop stop-color="#FDE1A7"/>
<stop offset="1" stop-color="#F9A144"/>
</linearGradient>
<linearGradient id="paint31_linear_6_0" x1="402.561" y1="301.945" x2="462.033" y2="301.945" gradientUnits="userSpaceOnUse">
<stop stop-color="#00E2EC"/>
<stop offset="1" stop-color="#0090B2"/>
</linearGradient>
<linearGradient id="paint32_linear_6_0" x1="411.5" y1="279.203" x2="452.52" y2="320.223" gradientUnits="userSpaceOnUse">
<stop stop-color="#994574"/>
<stop offset="1" stop-color="#43256F"/>
</linearGradient>
<linearGradient id="paint33_linear_6_0" x1="459.032" y1="525.22" x2="489.892" y2="525.22" gradientUnits="userSpaceOnUse">
<stop stop-color="#F4BEA3"/>
<stop offset="1" stop-color="#E8878E"/>
</linearGradient>
<linearGradient id="paint34_linear_6_0" x1="448.267" y1="585.396" x2="483.697" y2="585.396" gradientUnits="userSpaceOnUse">
<stop stop-color="#706AED"/>
<stop offset="1" stop-color="#271068"/>
</linearGradient>
<linearGradient id="paint35_linear_6_0" x1="503.508" y1="527.208" x2="532.724" y2="527.208" gradientUnits="userSpaceOnUse">
<stop stop-color="#F4BEA3"/>
<stop offset="1" stop-color="#E8878E"/>
</linearGradient>
<linearGradient id="paint36_linear_6_0" x1="497.567" y1="586.009" x2="533.017" y2="586.009" gradientUnits="userSpaceOnUse">
<stop stop-color="#706AED"/>
<stop offset="1" stop-color="#271068"/>
</linearGradient>
<linearGradient id="paint37_linear_6_0" x1="460.05" y1="398.362" x2="537.863" y2="476.174" gradientUnits="userSpaceOnUse">
<stop stop-color="#FF57BD"/>
<stop offset="1" stop-color="#FE6A77"/>
</linearGradient>
<linearGradient id="paint38_linear_6_0" x1="445.001" y1="299.738" x2="453.62" y2="299.738" gradientUnits="userSpaceOnUse">
<stop stop-color="#C16846"/>
<stop offset="0.2653" stop-color="#D27565"/>
<stop offset="0.5308" stop-color="#DE7F7B"/>
<stop offset="0.7814" stop-color="#E58589"/>
<stop offset="1" stop-color="#E8878E"/>
</linearGradient>
<linearGradient id="paint39_linear_6_0" x1="465.745" y1="328.264" x2="494.815" y2="328.264" gradientUnits="userSpaceOnUse">
<stop stop-color="#FDE1A7"/>
<stop offset="1" stop-color="#F9A144"/>
</linearGradient>
<linearGradient id="paint40_linear_6_0" x1="438.968" y1="305.559" x2="476.483" y2="305.559" gradientUnits="userSpaceOnUse">
<stop stop-color="#F4BEA3"/>
<stop offset="1" stop-color="#E8878E"/>
</linearGradient>
<linearGradient id="paint41_linear_6_0" x1="474.056" y1="340.933" x2="523.914" y2="340.933" gradientUnits="userSpaceOnUse">
<stop stop-color="#FDE1A7"/>
<stop offset="1" stop-color="#F9A144"/>
</linearGradient>
<linearGradient id="paint42_linear_6_0" x1="520.68" y1="264.278" x2="566.537" y2="310.135" gradientUnits="userSpaceOnUse">
<stop stop-color="#5A55F8"/>
<stop offset="1" stop-color="#8C6AE2"/>
</linearGradient>
<linearGradient id="paint43_linear_6_0" x1="494.756" y1="292.901" x2="514.689" y2="292.901" gradientUnits="userSpaceOnUse">
<stop stop-color="#F4BEA3"/>
<stop offset="1" stop-color="#E8878E"/>
</linearGradient>
<linearGradient id="paint44_linear_6_0" x1="481.39" y1="268.743" x2="516.844" y2="268.743" gradientUnits="userSpaceOnUse">
<stop stop-color="#F4BEA3"/>
<stop offset="1" stop-color="#E8878E"/>
</linearGradient>
<linearGradient id="paint45_linear_6_0" x1="480.749" y1="265.86" x2="492.988" y2="265.86" gradientUnits="userSpaceOnUse">
<stop stop-color="#FF57BD"/>
<stop offset="1" stop-color="#EC9895"/>
</linearGradient>
<linearGradient id="paint46_linear_6_0" x1="488.691" y1="259.742" x2="528.221" y2="259.742" gradientUnits="userSpaceOnUse">
<stop stop-color="#5A55F8"/>
<stop offset="1" stop-color="#8C6AE2"/>
</linearGradient>
<linearGradient id="paint47_linear_6_0" x1="412.428" y1="327.356" x2="440.569" y2="327.356" gradientUnits="userSpaceOnUse">
<stop stop-color="#F4BEA3"/>
<stop offset="1" stop-color="#E8878E"/>
</linearGradient>
<linearGradient id="paint48_linear_6_0" x1="432.9" y1="338.369" x2="518.619" y2="338.369" gradientUnits="userSpaceOnUse">
<stop stop-color="#FDE1A7"/>
<stop offset="1" stop-color="#F9A144"/>
</linearGradient>
<linearGradient id="paint49_linear_6_0" x1="218.253" y1="445.594" x2="260.891" y2="488.233" gradientUnits="userSpaceOnUse">
<stop stop-color="#00E2EC"/>
<stop offset="1" stop-color="#0090B2"/>
</linearGradient>
<linearGradient id="paint50_linear_6_0" x1="216.767" y1="444.107" x2="262.378" y2="489.719" gradientUnits="userSpaceOnUse">
<stop stop-color="#706AED"/>
<stop offset="1" stop-color="#271068"/>
</linearGradient>
<linearGradient id="paint51_linear_6_0" x1="156.473" y1="592.708" x2="181.303" y2="617.538" gradientUnits="userSpaceOnUse">
<stop stop-color="#706AED"/>
<stop offset="1" stop-color="#271068"/>
</linearGradient>
<linearGradient id="paint52_linear_6_0" x1="113.126" y1="436.576" x2="222.76" y2="546.209" gradientUnits="userSpaceOnUse">
<stop stop-color="#994574"/>
<stop offset="1" stop-color="#43256F"/>
</linearGradient>
<linearGradient id="paint53_linear_6_0" x1="218.949" y1="598.2" x2="242.634" y2="621.885" gradientUnits="userSpaceOnUse">
<stop stop-color="#706AED"/>
<stop offset="1" stop-color="#271068"/>
</linearGradient>
<linearGradient id="paint54_linear_6_0" x1="143.595" y1="428.699" x2="275.253" y2="560.358" gradientUnits="userSpaceOnUse">
<stop stop-color="#994574"/>
<stop offset="1" stop-color="#43256F"/>
</linearGradient>
<linearGradient id="paint55_linear_6_0" x1="172.029" y1="227.684" x2="226.613" y2="227.684" gradientUnits="userSpaceOnUse">
<stop stop-color="#F4BEA3"/>
<stop offset="1" stop-color="#E8878E"/>
</linearGradient>
<linearGradient id="paint56_linear_6_0" x1="138.945" y1="297.031" x2="230.787" y2="388.874" gradientUnits="userSpaceOnUse">
<stop stop-color="#1AA9E8"/>
<stop offset="0.4223" stop-color="#3D80EF"/>
<stop offset="0.7909" stop-color="#5662F4"/>
<stop offset="1" stop-color="#5F57F6"/>
</linearGradient>
<linearGradient id="paint57_linear_6_0" x1="206.03" y1="264.13" x2="215.77" y2="264.13" gradientUnits="userSpaceOnUse">
<stop stop-color="#EC9895"/>
<stop offset="1" stop-color="#FF57BD"/>
</linearGradient>
<linearGradient id="paint58_linear_6_0" x1="173.733" y1="265" x2="209.922" y2="301.19" gradientUnits="userSpaceOnUse">
<stop stop-color="#F4BEA3"/>
<stop offset="1" stop-color="#E8878E"/>
</linearGradient>
<linearGradient id="paint59_linear_6_0" x1="169.554" y1="260.508" x2="208.231" y2="260.508" gradientUnits="userSpaceOnUse">
<stop stop-color="#CB2090"/>
<stop offset="1" stop-color="#43256F"/>
</linearGradient>
<linearGradient id="paint60_linear_6_0" x1="197.43" y1="274.032" x2="214.065" y2="290.666" gradientUnits="userSpaceOnUse">
<stop stop-color="#CB2090"/>
<stop offset="1" stop-color="#43256F"/>
</linearGradient>
<linearGradient id="paint61_linear_6_0" x1="175.077" y1="308.054" x2="200.304" y2="308.054" gradientUnits="userSpaceOnUse">
<stop stop-color="#1AA9E8"/>
<stop offset="0.4223" stop-color="#3D80EF"/>
<stop offset="0.7909" stop-color="#5662F4"/>
<stop offset="1" stop-color="#5F57F6"/>
</linearGradient>
<linearGradient id="paint62_linear_6_0" x1="205.858" y1="408.505" x2="244.788" y2="408.505" gradientUnits="userSpaceOnUse">
<stop stop-color="#F4BEA3"/>
<stop offset="1" stop-color="#E8878E"/>
</linearGradient>
<linearGradient id="paint63_linear_6_0" x1="199.432" y1="343.291" x2="230.042" y2="343.291" gradientUnits="userSpaceOnUse">
<stop stop-color="#1AA9E8"/>
<stop offset="0.4223" stop-color="#3D80EF"/>
<stop offset="0.7909" stop-color="#5662F4"/>
<stop offset="1" stop-color="#5F57F6"/>
</linearGradient>
</defs>
</svg>
