<svg width="91" height="269" viewBox="0 0 91 269" fill="none" xmlns="http://www.w3.org/2000/svg">
<path fill-rule="evenodd" clip-rule="evenodd" d="M14.948 3.00996C37.7321 12.6877 37.7741 48.7468 49.5611 72.528C58.9839 91.5391 71.6194 107.107 77.0202 128.245C84.1378 156.103 96.9181 185.929 85.5555 213.406C73.8742 241.654 46.1748 260.315 19.5103 267.315C-5.29232 273.826 -27.7131 258.012 -51.0353 249.263C-72.0209 241.391 -98.22 240.043 -109.515 218.912C-120.629 198.119 -105.676 170.558 -106.419 145.648C-107.183 120.045 -124.193 95.276 -113.912 71.5513C-103.454 47.4202 -76.974 39.4102 -55.4104 27.9403C-32.4609 15.7333 -7.66463 -6.59497 14.948 3.00996Z" fill="#FD435A" fill-opacity="0.2"/>
</svg>
