<svg width="375" height="171" viewBox="0 0 375 171" fill="none" xmlns="http://www.w3.org/2000/svg">
<path fill-rule="evenodd" clip-rule="evenodd" d="M-44.3757 268.429C-36.8754 214.995 38.799 194.563 82.0922 156.328C116.702 125.761 142.276 90.3731 183.613 67.0756C238.09 36.3721 293.515 -7.3654 357.588 1.05726C423.459 9.71614 478.215 57.5107 507.908 109.705C535.528 158.256 514.943 214.386 509.694 268.429C504.972 317.057 516.881 372.981 478.874 408.686C441.474 443.819 375.206 427.883 323.33 443.502C270.012 459.555 227.583 509.344 171.995 501.082C115.455 492.678 83.7446 441.441 47.5367 402.508C9.00163 361.073 -51.8195 321.46 -44.3757 268.429Z" fill="#FD435A" fill-opacity="0.2"/>
</svg>
