<svg width="227" height="250" viewBox="0 0 227 250" fill="none" xmlns="http://www.w3.org/2000/svg">
<path fill-rule="evenodd" clip-rule="evenodd" d="M215.503 29.3808C214.884 65.3241 230.421 102.99 214.366 134.59C198.256 166.3 161.238 175.919 131.736 194.263C98.1118 215.17 69.2841 251.094 29.9881 249.234C-10.8504 247.302 -44.5652 215.521 -73.0868 184.572C-101.9 153.308 -121.95 115.531 -131.945 73.5221C-142.985 27.1169 -149.168 -21.7769 -132.714 -66.0545C-114.919 -113.942 -82.2926 -156.501 -38.1314 -178.925C6.3807 -201.527 59.0612 -202.134 106.991 -187.771C152.322 -174.186 196.56 -145.821 218.44 -102.036C238.433 -62.0265 216.276 -15.5314 215.503 29.3808Z" fill="#FD435A" fill-opacity="0.2"/>
</svg>
