<svg width="584" height="700" viewBox="0 0 584 700" fill="none" xmlns="http://www.w3.org/2000/svg">
<path d="M390.685 80.3702C401.468 90.0598 412.476 109.407 406.25 138.963C400.024 168.518 396.862 185.747 403.396 200.926C416.173 230.611 533.791 281.557 533.106 362.445C532.327 454.222 438.547 458.111 414.421 487.667C396.65 509.438 394.965 568.556 339.709 603.556C291.56 634.053 195.808 638.957 135.417 586.833C92.6125 549.889 94.6881 504.778 96.7629 485.852C98.8378 466.927 116.694 409.463 87.7858 367.24C53.4397 317.074 57.4283 278.505 69.2788 237.414C80.5495 198.333 111.19 137.229 187.819 94.3702C272.649 46.9258 362.408 54.9633 390.685 80.3702Z" fill="url(#paint0_linear_114_1501)"/>
<path d="M370.839 110.64H342.044V139.415H370.839V110.64Z" fill="#C7A0F6"/>
<path d="M119.462 213.5H77.7843C74.16 222.063 71.3824 230.122 69.2795 237.414C63.3967 257.812 59.4541 277.59 61.174 298.472H119.462V213.5Z" fill="url(#paint1_linear_114_1501)"/>
<path d="M361.229 110.64H351.655V120.207H361.229V110.64Z" fill="#FDE1A7"/>
<path d="M361.229 129.849H351.655V139.416H361.229V129.849Z" fill="#FF57BC"/>
<path d="M351.617 120.245H342.044V129.811H351.617V120.245Z" fill="#FF9BBB"/>
<path d="M370.839 120.245H361.266V129.811H370.839V120.245Z" fill="#1AA9E8"/>
<path d="M384.2 201.833V160.222C384.2 159.793 383.852 159.445 383.421 159.445H378.233C377.802 159.445 377.454 159.793 377.454 160.222V201.833H384.2Z" fill="#05C5DA"/>
<path d="M377.454 201.833V156.333C377.454 153.757 375.363 151.667 372.785 151.667H368.115C365.537 151.667 363.446 153.757 363.446 156.333V201.833H377.454Z" fill="#FDE1A7"/>
<path d="M377.454 161.259H363.446V165.667H377.454V161.259Z" fill="#C7A0F6"/>
<path d="M344.867 201.315H359.081L344.949 147.441C344.622 146.194 343.346 145.448 342.098 145.775L333.316 148.076C332.068 148.402 331.323 149.678 331.649 150.925L344.867 201.315Z" fill="#1AA9E8"/>
<path d="M344.867 201.315L330.202 145.408C330.092 144.993 329.667 144.744 329.251 144.854L320.97 147.024C320.554 147.132 320.305 147.558 320.414 147.973L334.407 201.316H344.867V201.315Z" fill="#FF9BBB"/>
<path d="M348.284 160.162L334.985 163.647L340.544 184.837L353.843 181.353L348.284 160.162Z" fill="#0090B2"/>
<path d="M100.784 242.667C93.0009 245.427 81.5224 246.556 76.2691 257.056C70.6556 268.276 77.4365 273.486 77.8257 280C78.1665 285.704 74.1025 290.231 69.2493 292.833H113.431V234.578C110.864 237.341 107.195 240.393 100.784 242.667Z" fill="url(#paint2_linear_114_1501)"/>
<path opacity="0.3" d="M305.596 480.408C327.371 481.218 389.323 486.889 384.978 516.186C381.18 541.795 346.779 548.699 314.416 552.482C279.864 556.521 268.693 553.583 246.448 569.593C225.071 584.978 205.849 595.778 173.292 581C148.968 569.96 149.853 541.562 154.289 536.083C166.677 520.787 184.323 522.407 195.083 517.741C203.903 513.917 219.004 495.823 238.666 488.186C258.327 480.548 292.696 479.928 305.596 480.408Z" fill="url(#paint3_linear_114_1501)"/>
<path d="M320.122 202.028V60.0693C318.497 60.0304 316.852 60.0125 315.194 60.011V202.028H320.122Z" fill="url(#paint4_linear_114_1501)"/>
<path d="M94.4608 235.764C100.103 232.75 89.7912 223.028 99.4222 219.139H75.4908C74.072 222.767 72.8042 226.291 71.6781 229.683C72.44 229.355 73.2486 229.123 74.1288 229.056C82.9815 228.375 84.4073 241.134 94.4608 235.764Z" fill="#1AA9E8"/>
<path d="M309.682 85.0368V85.2958H395.413C393.869 83.4447 392.276 81.7989 390.685 80.3701H314.351C311.773 80.3701 309.682 82.46 309.682 85.0368Z" fill="url(#paint5_linear_114_1501)"/>
<path d="M309.682 141.167V141.426H405.732C405.903 140.614 406.075 139.795 406.25 138.963C406.425 138.133 406.581 137.314 406.729 136.5H314.351C311.773 136.5 309.682 138.59 309.682 141.167Z" fill="url(#paint6_linear_114_1501)"/>
<path d="M309.682 204.491V204.75H405.538C404.658 203.439 403.928 202.163 403.396 200.926C403.239 200.56 403.092 200.192 402.945 199.824H314.351C311.773 199.825 309.682 201.914 309.682 204.491Z" fill="url(#paint7_linear_114_1501)"/>
<path d="M77.8257 280C77.4365 273.486 70.6556 268.276 76.2692 257.056C81.5224 246.556 93.0009 245.427 100.784 242.667C107.195 240.393 110.864 237.34 113.431 234.578V219.139H99.4223C89.7914 223.028 100.103 232.75 94.4609 235.764C84.4074 241.134 82.9816 228.375 74.129 229.056C73.248 229.123 72.4394 229.355 71.6782 229.683C70.7957 232.342 69.998 234.923 69.2796 237.413C63.9291 255.967 60.1826 274.007 60.8426 292.833H69.2493C74.1025 290.231 78.1666 285.704 77.8257 280Z" fill="url(#paint8_linear_114_1501)"/>
<path d="M94.169 275.852C98.7539 275.852 102.471 272.138 102.471 267.556C102.471 262.974 98.7539 259.259 94.169 259.259C89.5841 259.259 85.8673 262.974 85.8673 267.556C85.8673 272.138 89.5841 275.852 94.169 275.852Z" fill="url(#paint9_linear_114_1501)"/>
<path d="M100.2 533.086C105.17 550.441 115.372 569.532 135.417 586.833C139.558 590.408 143.871 593.705 148.319 596.753L159.417 533.087H100.2V533.086Z" fill="url(#paint10_linear_114_1501)"/>
<path d="M159.491 534.354C159.491 523.911 144.711 515.449 126.479 515.449C114.443 515.449 103.914 519.137 98.1459 524.648C99.7273 532.484 102.297 540.832 106.329 549.326C111.905 551.79 118.89 553.259 126.479 553.259C144.711 553.26 159.491 544.799 159.491 534.354Z" fill="#FF9BBB"/>
<path d="M153.186 533.492C153.186 525.291 141.134 518.648 126.273 518.648C112.83 518.648 101.691 524.081 99.6821 531.185C100.509 534.284 101.503 537.443 102.684 540.642C107.264 545.228 116.109 548.334 126.273 548.334C141.135 548.334 153.186 541.692 153.186 533.492Z" fill="url(#paint11_linear_114_1501)"/>
<path d="M112.284 388.575C111.277 390.735 112.778 392.858 115.61 394.017C118.827 395.333 121.274 395.111 122.367 398.01C123.459 400.91 122.675 404.242 124.599 404.221C126.525 404.201 129.731 396.266 126.177 390.453C122.595 384.589 114.586 383.64 112.284 388.575Z" fill="url(#paint12_linear_114_1501)"/>
<path d="M130.747 504.486C132.303 500.208 148.16 477.847 175.983 475.708C201.116 473.776 211.045 485.301 208.573 490.389C206.919 493.792 200.985 492.82 198.553 492.139C196.12 491.458 191.853 489.021 189.019 490.486C186.198 491.945 186.534 495.678 183.668 497.097C178.531 499.642 173.243 495.39 168.882 493.695C163.628 491.653 154.776 489.806 148.452 495.639C140.711 502.781 139.092 508.955 136.67 519.798C134.248 530.64 133.104 536.003 132.595 536.667C131.963 537.494 130.942 538.417 128.218 537.347C125.494 536.278 128.996 522.375 128.704 516.736C128.412 511.097 130.747 504.486 130.747 504.486Z" fill="url(#paint13_linear_114_1501)"/>
<path d="M137.168 536.861C137.192 535.864 140.67 529.343 141.351 523.153C142.238 515.086 146.266 506.585 149.912 503.319C154.289 499.399 159.933 497.51 162.364 500.5C164.471 503.093 162.396 507.825 159.932 510.222C156.777 513.291 142.31 521.767 144.82 526.426C146.182 528.954 148.667 525.219 149.814 523.445C151.825 520.334 155.216 517.277 157.338 518.649C159.543 520.074 158.83 524.482 154.03 527.269C149.333 529.996 145.155 532.254 143.135 534.529C141.224 536.68 143.07 536.602 142.032 537.834C140.837 539.252 137.103 539.519 137.168 536.861Z" fill="url(#paint14_linear_114_1501)"/>
<path d="M116.738 536.764C118.012 536.007 116.836 529.181 114.404 525.778C111.972 522.375 107.399 520.722 107.399 518.292C107.399 515.861 108.603 513.718 107.205 510.708C105.94 507.986 100.979 509.056 100.784 504.681C100.59 500.306 102.815 494.912 104.517 485.389C106.037 476.875 104.652 473.941 102.438 472.597C99.7141 470.945 99.1304 466.958 101.173 461.32C102.596 457.394 101.788 432.684 93.0989 432.056C85.7055 431.521 82.6586 444.684 82.5925 451.403C82.4952 461.271 86.3055 463.726 84.8299 468.806C83.0789 474.833 80.6795 475.676 80.1604 482.32C79.7331 487.794 79.7713 495.25 91.2506 509.25C102.113 522.499 109.266 528.187 111.193 530.931C113.561 534.301 114.501 538.093 116.738 536.764Z" fill="url(#paint15_linear_114_1501)"/>
<path d="M126.272 536.278C126.272 531.417 128.412 515.667 123.937 507.306C119.462 498.945 116.933 490.389 119.073 481.056C121.213 471.722 131.72 453.736 130.942 447.514C130.163 441.292 126.953 430.792 132.693 410.472C137.039 395.086 146.903 384.64 153.706 388.889C158.375 391.806 156.235 402.695 153.9 406.778C151.565 410.861 147.508 417.987 148.287 422.07C149.065 426.153 151.626 426.597 151.409 432.141C150.982 443.042 135.709 459.764 132.11 474.639C129.123 486.982 128.024 501.861 131.137 502.445C134.25 503.028 130.926 532.31 129.475 535.315C128.023 538.32 126.272 536.278 126.272 536.278Z" fill="url(#paint16_linear_114_1501)"/>
<path d="M116.868 406.131C119.787 408.074 120.111 412.741 118.944 415.982C117.777 419.223 116.702 420.718 116.998 422.853C117.323 425.185 121.798 425.963 123.224 430.76C124.651 435.556 122.316 445.148 119.852 452.019C117.388 458.89 118.037 463.945 120.501 464.334C122.965 464.723 125.17 461.352 125.948 457.204C126.727 453.056 126.355 434.785 137.363 438.019C141.773 439.315 141.449 446.768 138.66 452.019C136.51 456.067 129.257 464.917 125.56 476.908C122.14 488 119.45 496.802 126.208 498.167C131.981 499.333 135.158 492.852 135.937 488.704C136.715 484.556 139.359 470.287 152.15 472.76C158.181 473.926 154.415 488.563 145.535 496.223C139.48 501.446 131.79 507.95 129.58 516.963C127.181 526.75 130.618 536.797 129.191 538.741C127.765 540.685 122.187 539.52 122.317 538.223C122.447 536.926 123.874 534.333 121.15 532.13C118.426 529.926 112.091 526.878 107.789 523.834C103.488 520.79 103.898 516.056 106.103 514.371C108.308 512.685 110.854 514.807 111.81 515.926C113.691 518.13 118.036 531.515 123.224 527.982C126.527 525.733 121.238 514.72 117.518 509.704C111.94 502.185 99.4231 499.333 92.3542 489.871C87.371 483.201 90.2988 475.72 93.6515 474.445C98.2565 472.694 102.477 476.863 103.397 481.073C104.629 486.71 107.114 495.67 113.756 490.649C121.474 484.815 109.855 473.828 104.158 467.576C93.5869 455.973 88.5283 437.76 97.6728 434.909C101.744 433.64 105.131 439.315 106.104 445.798C107.22 453.237 112.695 477.042 117.518 474.316C120.501 472.63 113.886 466.928 113.627 462.131C113.368 457.335 114.016 450.464 111.681 444.372C109.347 438.279 103.216 422.156 106.493 412.613C109.475 403.926 115.57 405.266 116.868 406.131Z" fill="url(#paint17_linear_114_1501)"/>
<path d="M181.188 502.688C183.864 503.952 182.939 507.987 178.041 511.569C173.406 514.958 166.76 515.091 166.596 513.312C166.432 511.531 170.163 511.424 173.211 508.521C176.259 505.617 177.626 501.005 181.188 502.688Z" fill="url(#paint18_linear_114_1501)"/>
<path d="M471.609 232.18L467.991 232.192V323.296H474.217C476.796 323.296 478.887 321.207 478.887 318.629V238.486C478.887 235.278 476.877 232.18 471.609 232.18Z" fill="#9180E6"/>
<path d="M411.308 345.139C422.009 335.612 416.367 323.297 414.811 321.611H390.197C391.754 323.297 397.396 335.612 386.695 345.139H411.308Z" fill="url(#paint19_linear_114_1501)"/>
<path d="M412.266 346.534L410.273 343.978C413.931 340.721 415.896 336.815 416.113 332.367C416.358 327.344 414.253 323.303 413.666 322.667L415.953 320.557C417.23 321.938 419.498 326.865 419.221 332.519C418.967 337.756 416.511 342.756 412.266 346.534Z" fill="#9180E6"/>
<path d="M412.249 346.512C412.249 346.512 411.649 344.069 411.088 343.188H368.733C366.155 343.188 364.064 345.278 364.064 347.855V348.114H412.249V346.512Z" fill="#9180E6"/>
<path d="M324.014 318.63C324.014 321.208 326.105 323.297 328.683 323.297H471.104C473.683 323.297 475.774 321.208 475.774 318.63V236.704C475.774 234.127 473.683 232.037 471.104 232.037L328.683 237.87C326.105 237.87 324.014 239.96 324.014 242.537V318.63Z" fill="url(#paint20_linear_114_1501)"/>
<path d="M329.981 311.889L467.473 309.556V239.815L329.981 245.648V311.889Z" fill="url(#paint21_linear_114_1501)"/>
<path d="M459.529 251.292C459.585 252.818 458.238 254.106 456.521 254.169L379.534 257.098C377.816 257.162 376.377 255.975 376.321 254.449L376.257 252.722C376.201 251.196 377.549 249.907 379.267 249.843L456.253 246.914C457.971 246.851 459.41 248.037 459.466 249.563L459.529 251.292Z" fill="url(#paint22_linear_114_1501)"/>
<path d="M435.629 296.528C435.629 297.386 434.932 298.083 434.073 298.083L365.781 299.25C364.921 299.25 364.224 298.553 364.224 297.694V266.972C364.224 266.114 364.921 265.417 365.781 265.417L434.073 264.25C434.932 264.25 435.629 264.947 435.629 265.806V296.528Z" fill="#FF9BBB"/>
<path d="M342.18 258.019C344.186 258.019 345.812 256.393 345.812 254.389C345.812 252.384 344.186 250.759 342.18 250.759C340.174 250.759 338.548 252.384 338.548 254.389C338.548 256.393 340.174 258.019 342.18 258.019Z" fill="#FBBB6C"/>
<path d="M354.395 257.746C356.401 257.746 358.027 256.121 358.027 254.116C358.027 252.112 356.401 250.487 354.395 250.487C352.389 250.487 350.763 252.112 350.763 254.116C350.763 256.121 352.389 257.746 354.395 257.746Z" fill="#5265F9"/>
<path d="M366.611 257.474C368.617 257.474 370.243 255.849 370.243 253.844C370.243 251.84 368.617 250.214 366.611 250.214C364.605 250.214 362.979 251.84 362.979 253.844C362.979 255.849 364.605 257.474 366.611 257.474Z" fill="#EA4D81"/>
<path d="M426.936 273.352C416.173 273.194 378.233 274.167 365.391 272.611C352.55 271.055 337.78 265.567 332.51 261.139C332.118 260.81 331.79 260.494 331.503 260.184C332.445 263.537 333.775 266.583 332.835 271.444C332.087 275.312 328.187 280.824 322.853 283.138C325.138 284.194 327.565 285.223 329.981 286.092C339.709 289.592 359.172 291.407 372.136 291.407C385.101 291.407 427.134 291.407 427.134 291.407L426.936 273.352Z" fill="url(#paint23_linear_114_1501)"/>
<path d="M426.936 273.352C423.722 273.305 418.076 273.358 411.407 273.416C413.06 274.847 417.632 282.106 411.892 291.408C420.6 291.408 427.134 291.408 427.134 291.408L426.936 273.352Z" fill="url(#paint24_linear_114_1501)"/>
<path d="M332.835 271.444C333.775 266.583 332.446 263.537 331.503 260.184C329.698 258.233 329.647 256.495 327.549 252.972C325.355 249.288 324.203 246.075 324.014 244.028C323.625 239.814 326.209 236.416 325.884 233.693C325.575 231.099 318.79 230.097 316.556 233.917C314.546 237.352 315.573 242.487 315.875 244.319C316.297 246.88 315.972 247.917 315.972 247.917C315.972 247.917 309.552 255.986 309.26 262.5C308.968 269.014 310.33 276.5 310.33 276.5C310.33 276.5 315.936 279.942 322.853 283.138C328.187 280.824 332.087 275.312 332.835 271.444Z" fill="url(#paint25_linear_114_1501)"/>
<path d="M397.311 291.408C394.794 284.742 388.355 280 380.804 280C373.358 280 366.993 284.614 364.406 291.134C367.785 291.315 371.021 291.408 373.93 291.408C378.841 291.408 387.923 291.408 397.311 291.408Z" fill="url(#paint26_linear_114_1501)"/>
<path d="M397.311 291.991C397.075 291.991 396.854 291.847 396.765 291.614C394.274 285.017 387.86 280.583 380.804 280.583C373.767 280.583 367.544 284.809 364.948 291.349C364.829 291.649 364.491 291.794 364.19 291.677C363.891 291.558 363.744 291.218 363.863 290.919C366.635 283.931 373.286 279.417 380.804 279.417C388.343 279.417 395.195 284.152 397.858 291.201C397.971 291.502 397.819 291.839 397.517 291.953C397.449 291.978 397.38 291.991 397.311 291.991Z" fill="#AD7CF7"/>
<path d="M385.018 291.991C384.767 291.991 384.536 291.829 384.459 291.577C383.928 289.831 382.345 288.658 380.519 288.658C378.692 288.658 377.109 289.831 376.578 291.577C376.484 291.885 376.156 292.058 375.85 291.966C375.542 291.872 375.367 291.546 375.461 291.238C376.142 288.997 378.174 287.491 380.518 287.491C382.862 287.491 384.894 288.997 385.575 291.238C385.668 291.546 385.494 291.872 385.186 291.966C385.13 291.982 385.074 291.991 385.018 291.991Z" fill="#AD7CF7"/>
<path d="M305.174 258.952C304.785 258.174 302.985 252.73 306.682 249.958C310.193 247.327 314.672 246.913 317.14 248.694C319.011 250.045 321.935 252.576 322.005 256.181C322.054 258.708 320.107 260.944 320.107 260.944C320.107 260.944 321.907 262.889 321.81 265.319C321.693 268.235 319.767 269.986 319.767 269.986C319.767 269.986 320.789 275.188 317.87 276.306C315.508 277.21 313.735 275.77 312.178 275.819C310.813 275.862 310.888 276.835 310.888 276.835C310.888 276.835 307.646 277.021 306.633 275.333C305.319 273.145 306.341 269.889 306.341 269.889C306.341 269.889 304.017 266.679 303.909 263.278C303.812 260.216 305.174 258.952 305.174 258.952Z" fill="url(#paint27_linear_114_1501)"/>
<path d="M317.87 276.305C320.788 275.187 319.767 269.986 319.767 269.986C319.767 269.986 321.693 268.235 321.81 265.319C321.907 262.889 320.107 260.944 320.107 260.944C320.107 260.944 322.053 258.708 322.005 256.18C321.935 252.575 319.011 250.045 317.14 248.694C316.141 247.973 314.81 247.618 313.35 247.618C314.419 248.894 315.486 251.37 314.952 253.701C314.224 256.873 311.498 257.284 311.498 257.284C311.498 257.284 313.736 259.097 313.541 262.403C313.346 265.708 311.303 267.037 311.303 267.037C311.303 267.037 314.027 268.625 313.736 271.444C313.444 274.264 311.386 276.005 311.386 276.005V276.006C311.573 275.904 311.826 275.829 312.179 275.819C313.735 275.771 315.507 277.21 317.87 276.305Z" fill="url(#paint28_linear_114_1501)"/>
<path d="M324.012 243.978C323.647 239.788 326.207 236.405 325.884 233.694C325.575 231.1 318.79 230.098 316.556 233.917C314.561 237.326 315.557 242.401 315.866 244.272C317.126 245.244 318.984 246.054 320.706 246.103C321.993 246.139 323.227 244.942 324.012 243.978Z" fill="url(#paint29_linear_114_1501)"/>
<path d="M345.628 277.738C346.12 273.182 344.643 268.999 343.227 266.866C338.556 265.014 334.706 262.984 332.509 261.139C332.117 260.81 331.789 260.494 331.502 260.184C332.445 263.537 333.774 266.583 332.834 271.444C332.086 275.312 328.186 280.824 322.852 283.138C325.137 284.194 327.564 285.223 329.98 286.092C332.621 287.043 335.983 287.867 339.733 288.566C340.735 287.651 345.013 283.431 345.628 277.738Z" fill="url(#paint30_linear_114_1501)"/>
<path d="M411.891 291.991C411.787 291.991 411.681 291.963 411.586 291.904C411.311 291.735 411.226 291.376 411.395 291.101C416.989 282.035 412.449 275.09 411.024 273.857C410.781 273.646 410.754 273.278 410.966 273.034C411.178 272.791 411.547 272.764 411.789 272.975C413.362 274.338 418.412 281.954 412.389 291.713C412.279 291.892 412.088 291.991 411.891 291.991Z" fill="#AD7CF7"/>
<path d="M320.544 261.601C320.376 261.601 320.21 261.528 320.095 261.389C318.768 259.784 314.381 257.995 312.434 257.765C310.673 257.56 308.383 258.12 305.417 259.482C305.125 259.616 304.778 259.489 304.643 259.196C304.508 258.903 304.637 258.557 304.929 258.422C308.095 256.967 310.591 256.373 312.57 256.607C314.795 256.869 319.454 258.784 320.993 260.646C321.199 260.895 321.164 261.262 320.915 261.468C320.807 261.557 320.676 261.601 320.544 261.601Z" fill="#AD7CF7"/>
<path d="M320.034 270.885C319.796 270.885 319.572 270.739 319.486 270.503C319.073 269.379 315.733 267.682 312.885 267.489C309.956 267.295 306.73 270.472 306.699 270.504C306.471 270.732 306.102 270.733 305.873 270.505C305.645 270.277 305.645 269.907 305.873 269.68C306.019 269.533 309.504 266.089 312.963 266.325C315.857 266.521 319.901 268.248 320.582 270.1C320.693 270.403 320.537 270.738 320.236 270.849C320.169 270.874 320.101 270.885 320.034 270.885Z" fill="#AD7CF7"/>
<path d="M330.951 287.008C330.74 287.008 330.537 286.894 330.433 286.693C330.285 286.408 330.397 286.056 330.682 285.907C330.741 285.876 336.7 282.707 338.461 275.486C339.446 271.444 338.603 267.176 337.33 264.74C337.181 264.454 337.292 264.102 337.577 263.953C337.864 263.804 338.216 263.915 338.365 264.2C339.638 266.637 340.725 271.128 339.595 275.763C337.705 283.515 331.482 286.808 331.218 286.944C331.133 286.987 331.041 287.008 330.951 287.008Z" fill="#AD7CF7"/>
<path d="M432.516 303.102C440.969 303.102 447.821 296.253 447.821 287.806C447.821 279.358 440.969 272.51 432.516 272.51C424.063 272.51 417.211 279.358 417.211 287.806C417.211 296.253 424.063 303.102 432.516 303.102Z" fill="url(#paint31_linear_114_1501)"/>
<path d="M441.52 279.487C440.624 278.864 439.392 279.085 438.768 279.981L431.465 290.471L423.366 283.534C422.802 283.05 421.955 283.025 421.36 283.511C420.692 284.057 420.593 285.041 421.14 285.709L430.001 296.536C430.205 296.783 430.462 297.005 430.76 297.169C432.025 297.869 433.619 297.411 434.319 296.147L434.368 296.061L442.122 282.067C442.602 281.193 442.359 280.071 441.52 279.487Z" fill="url(#paint32_linear_114_1501)"/>
<path d="M502.3 320.358C497.106 320.358 492.896 324.071 492.896 328.655C492.896 333.238 497.106 336.951 502.3 336.951C507.493 336.951 511.703 333.238 511.703 328.655C511.703 324.071 507.493 320.358 502.3 320.358ZM501.764 332.285C499.759 332.285 498.132 330.66 498.132 328.655C498.132 326.65 499.759 325.025 501.764 325.025C503.77 325.025 505.396 326.65 505.396 328.655C505.396 330.66 503.771 332.285 501.764 332.285Z" fill="url(#paint33_linear_114_1501)"/>
<path d="M497.079 347.278H475.645L469.808 313.794H502.916L497.079 347.278Z" fill="url(#paint34_linear_114_1501)"/>
<path d="M486.381 322.648C495.534 322.648 502.954 318.684 502.954 313.794C502.954 308.904 495.534 304.939 486.381 304.939C477.228 304.939 469.808 308.904 469.808 313.794C469.808 318.684 477.228 322.648 486.381 322.648Z" fill="#FF9BBB"/>
<path d="M486.381 318.759C493.121 318.759 498.586 316.249 498.586 313.153C498.586 310.057 493.121 307.547 486.381 307.547C479.64 307.547 474.175 310.057 474.175 313.153C474.175 316.249 479.64 318.759 486.381 318.759Z" fill="url(#paint35_linear_114_1501)"/>
<path d="M490.108 311.954C490.14 310.787 486.475 310.204 487.319 306.898C488.162 303.593 491.988 301.518 497.501 300.222C501.988 299.168 507.571 297.562 507.748 292.898C507.878 289.463 504.765 288.879 502.819 288.49C500.873 288.101 498.603 286.935 499.187 284.926C499.771 282.917 501.984 279.278 499.066 277.205C495.371 274.58 484.659 274.815 481.676 281.879C478.693 288.944 485.697 290.046 487.124 290.435C488.551 290.824 491.622 291.644 490.302 294.454C488.81 297.629 480.558 301.454 480.444 306.834C480.314 312.959 490.03 314.796 490.108 311.954Z" fill="url(#paint36_linear_114_1501)"/>
<path d="M469.549 272.028C471.916 272.32 472.921 274.717 472.402 277.731C471.813 281.155 470.328 283.111 472.208 285.574C474.088 288.036 477.332 289.138 476.294 290.759C475.255 292.38 466.825 290.889 463.776 284.796C460.701 278.651 464.142 271.362 469.549 272.028Z" fill="url(#paint37_linear_114_1501)"/>
<path d="M462.106 293.611C463.736 294.413 465.049 297.208 466.776 297.549C467.984 297.787 469.673 297.938 469.646 299.348C469.622 300.588 467.457 301.293 463.882 301.025C460.42 300.766 457.321 297.829 458.458 295.094C459.237 293.222 461.392 293.26 462.106 293.611Z" fill="url(#paint38_linear_114_1501)"/>
<path d="M532.295 350.259H433.36V359.462C433.36 365.906 438.586 371.129 445.033 371.129H532.734C532.951 368.323 533.08 365.433 533.106 362.444C533.141 358.304 532.85 354.245 532.295 350.259Z" fill="url(#paint39_linear_114_1501)"/>
<path d="M473.18 366.074C475.186 366.074 476.812 364.449 476.812 362.444C476.812 360.44 475.186 358.814 473.18 358.814C471.174 358.814 469.548 360.44 469.548 362.444C469.548 364.449 471.174 366.074 473.18 366.074Z" fill="#5265F9"/>
<path d="M511.834 371.713C511.511 371.713 511.25 371.452 511.25 371.13V353.85C511.25 353.528 511.511 353.267 511.834 353.267C512.156 353.267 512.417 353.528 512.417 353.85V371.13C512.417 371.452 512.156 371.713 511.834 371.713Z" fill="#FFA2BA"/>
<path d="M344.217 346.5V353.851H532.715C532.478 351.371 532.133 348.921 531.684 346.5H344.217Z" fill="url(#paint40_linear_114_1501)"/>
<path d="M247.388 442.458C247.56 450.334 247.226 503.999 246.577 511.648C249.051 514.739 253.452 511.389 253.452 511.389C253.452 511.389 257.018 496.805 258.64 477.037C260.043 459.934 260.456 442.944 260.456 442.944L247.388 442.458Z" fill="url(#paint41_linear_114_1501)"/>
<path d="M249.911 479.494C248.577 479.494 247.517 479.404 247.067 479.278C246.654 479.162 246.412 478.732 246.529 478.319C246.646 477.906 247.077 477.665 247.49 477.781C248.657 478.112 255.742 478.074 258.202 476.395C258.558 476.155 259.042 476.245 259.284 476.6C259.527 476.954 259.435 477.438 259.08 477.681C257.043 479.068 252.824 479.494 249.911 479.494Z" fill="#7B7BEF"/>
<path d="M180.556 325.111C173.139 326.116 148.171 334.336 145.169 351.447C145.073 351.993 146.04 353.351 146.215 353.889C152.246 372.458 179.485 397.444 189.895 399.194C190.354 399.272 191.008 399.758 191.468 399.579C198.643 396.803 206.114 383.03 212.269 378.583C214.945 376.651 180.556 325.111 180.556 325.111Z" fill="url(#paint42_linear_114_1501)"/>
<path d="M148.051 344.059C146.371 346.767 145.244 349.778 144.95 353.111C143.588 368.538 179.31 401.905 190.089 399.972C191.306 399.754 192.534 399.175 193.766 398.341C171.484 389.637 151.259 357.149 148.051 344.059Z" fill="url(#paint43_linear_114_1501)"/>
<path d="M245.345 412.611C252.35 412.597 287.779 413.251 293.792 416.889C298.72 419.871 299.786 424.816 296.847 429.483C293.909 434.149 279.978 442.847 251.96 443.042C223.943 443.236 206.043 437.305 205.849 430.5C205.654 423.694 208.822 413.516 226.083 411.833C236.72 410.796 241.454 412.619 245.345 412.611Z" fill="url(#paint44_linear_114_1501)"/>
<path d="M252.544 445.861C280.561 445.667 293.908 434.149 296.847 429.483C298.136 427.436 298.654 425.335 298.415 423.37C290.867 428.629 274.101 433.992 251.767 434.908C229.829 435.807 211.51 432.504 205.849 430.437C205.849 430.457 205.849 430.48 205.85 430.5C206.043 437.306 224.527 446.056 252.544 445.861Z" fill="url(#paint45_linear_114_1501)"/>
<path d="M188.81 551.089C190.932 544.963 204.195 522.667 231.531 512.815C257.309 503.526 277.664 511.352 282.939 515.324C288.214 519.297 279.534 526.395 275.104 522.816C270.347 518.973 257.895 515.181 243.503 519.165C224.592 524.4 207.503 540.167 207.391 552.024C194.175 560.13 188.81 551.089 188.81 551.089Z" fill="url(#paint46_linear_114_1501)"/>
<path d="M243.309 516.465C226.658 520.813 204.25 532.915 200.774 554.946C202.715 554.458 204.915 553.541 207.391 552.023C207.503 540.167 224.592 524.399 243.503 519.164C257.895 515.181 270.347 518.972 275.104 522.815C276.823 524.204 279.18 523.981 281.116 522.961C272.822 514.113 259.46 512.248 243.309 516.465Z" fill="#665EDB"/>
<path d="M197.936 564.667C203.381 564.667 207.795 560.256 207.795 554.815C207.795 549.373 203.381 544.962 197.936 544.962C192.492 544.962 188.078 549.373 188.078 554.815C188.078 560.256 192.492 564.667 197.936 564.667Z" fill="url(#paint47_linear_114_1501)"/>
<path d="M282.939 531.019C287.276 531.019 290.792 527.506 290.792 523.171C290.792 518.837 287.276 515.324 282.939 515.324C278.602 515.324 275.086 518.837 275.086 523.171C275.086 527.506 278.602 531.019 282.939 531.019Z" fill="url(#paint48_linear_114_1501)"/>
<path d="M197.936 557.861C196.255 557.861 194.888 556.495 194.888 554.815C194.888 553.135 196.255 551.768 197.936 551.768C199.617 551.768 200.985 553.135 200.985 554.815C200.985 556.495 199.617 557.861 197.936 557.861ZM197.936 552.935C196.899 552.935 196.055 553.778 196.055 554.815C196.055 555.851 196.899 556.695 197.936 556.695C198.974 556.695 199.817 555.851 199.817 554.815C199.817 553.778 198.974 552.935 197.936 552.935Z" fill="#7B7BEF"/>
<path d="M282.939 526.218C281.258 526.218 279.891 524.852 279.891 523.172C279.891 521.492 281.258 520.125 282.939 520.125C284.62 520.125 285.987 521.492 285.987 523.172C285.987 524.852 284.62 526.218 282.939 526.218ZM282.939 521.292C281.902 521.292 281.058 522.135 281.058 523.172C281.058 524.208 281.902 525.051 282.939 525.051C283.976 525.051 284.82 524.208 284.82 523.172C284.82 522.135 283.976 521.292 282.939 521.292Z" fill="#7B7BEF"/>
<path d="M205.155 259.551C205.524 264.51 204.162 285.185 196.963 295.296C199.515 301.049 213.257 301.53 217.912 301.13C228.483 300.222 235.942 294.389 235.942 294.389C235.942 294.389 231.92 273.13 227.381 266C223.869 264.884 219.144 264.38 214.734 262.953C210.324 261.527 205.155 259.551 205.155 259.551Z" fill="url(#paint49_linear_114_1501)"/>
<path d="M233.607 235.148C228.023 225.764 219.755 218.782 218.431 217.389C218.431 217.389 194.402 212.846 187.82 231.13C183.993 241.76 195.472 253.555 195.472 253.555C195.472 253.555 196.522 253.954 198.118 254.787C196.95 255.774 196.207 257.247 196.207 258.896C196.207 261.867 198.617 264.275 201.59 264.275C203.865 264.275 205.806 262.864 206.594 260.871C206.685 260.96 206.777 261.042 206.868 261.132C210.777 265.028 225.73 272.91 234.533 264.835C242.168 257.833 238.409 243.219 233.607 235.148Z" fill="url(#paint50_linear_114_1501)"/>
<path d="M231.661 195.416C228.741 193.47 222.517 196.972 219.209 200.342C215.902 203.712 211.361 206.24 210.129 204.879C208.897 203.518 212.052 202.09 210.583 200.212C208.962 198.138 200.012 200.731 195.926 207.731C191.84 214.731 188.598 224.129 185.16 225.166C181.723 226.204 182.696 220.824 179.129 220.694C175.562 220.564 171.022 225.166 169.92 228.796C168.282 234.191 169.855 238.065 172.385 238.26C176.937 238.61 179.583 231.584 182.761 233.204C184.932 234.311 183.475 238.972 182.307 242.991C181.14 247.01 182.632 252.389 187.301 256.083C190.794 258.847 194.135 259.424 196.237 259.453C196.218 259.27 196.208 259.083 196.208 258.895C196.208 256.041 198.432 253.713 201.242 253.532C201.583 252.169 201.664 250.741 201.18 249.471C199.624 245.388 188.689 236.477 190.738 231.841C191.97 229.055 195.278 228.989 201.245 228.795C207.212 228.6 210.883 229.109 211.492 226.786C212.206 224.064 206.848 225.061 207.212 223.61C207.795 221.277 217.628 223.133 226.02 214.277C234.125 205.722 234.58 197.361 231.661 195.416Z" fill="url(#paint51_linear_114_1501)"/>
<path d="M220.441 253.296C220.441 253.296 224.462 252.972 226.667 252.713C228.872 252.454 234.385 252.065 234.385 252.065C234.385 252.065 232.44 258.158 227.965 258.676C223.49 259.195 220.441 253.296 220.441 253.296Z" fill="white"/>
<path d="M209.536 244.11C209.4 244.11 209.268 244.039 209.197 243.912C208.224 242.185 208.443 240.153 209.74 238.855C210.906 237.69 212.711 237.388 214.34 238.086C214.537 238.171 214.629 238.4 214.544 238.596C214.459 238.794 214.229 238.886 214.034 238.801C212.699 238.229 211.23 238.467 210.29 239.405C209.242 240.453 209.075 242.111 209.875 243.531C209.981 243.718 209.914 243.955 209.727 244.06C209.666 244.095 209.601 244.11 209.536 244.11Z" fill="#212F66"/>
<path d="M224.676 232.457C224.501 232.457 224.343 232.34 224.299 232.163C223.977 230.887 224.247 229.7 225.039 228.908C225.971 227.977 227.47 227.776 228.949 228.386C229.147 228.467 229.242 228.695 229.161 228.894C229.079 229.093 228.852 229.186 228.652 229.105C227.469 228.618 226.295 228.754 225.589 229.459C224.995 230.053 224.799 230.97 225.053 231.974C225.105 232.183 224.979 232.394 224.771 232.447C224.739 232.454 224.708 232.457 224.676 232.457Z" fill="#212F66"/>
<path d="M209.026 140.676C209.188 141.293 209.252 141.692 209.317 142.119C209.381 142.536 209.419 142.937 209.457 143.334C209.521 144.128 209.554 144.907 209.555 145.685C209.553 147.241 209.485 148.786 209.412 150.328C209.261 153.412 208.973 156.49 208.777 159.561C208.526 162.635 208.407 165.7 208.373 168.76C208.361 169.525 208.366 170.29 208.392 171.053C208.402 171.816 208.444 172.579 208.489 173.341C208.531 174.102 208.601 174.864 208.683 175.621C208.77 176.363 208.869 177.168 209.032 177.821C209.26 178.736 208.702 179.663 207.786 179.891C206.87 180.119 205.941 179.562 205.713 178.645C205.674 178.485 205.658 178.324 205.664 178.167L205.666 178.14C205.703 177.269 205.738 176.548 205.745 175.764C205.753 174.994 205.752 174.228 205.727 173.464C205.703 172.699 205.678 171.935 205.622 171.172C205.582 170.409 205.521 169.646 205.444 168.884C205.148 165.837 204.771 162.794 204.25 159.761L202.741 150.676C202.509 149.166 202.272 147.659 202.075 146.164C201.978 145.417 201.907 144.671 201.849 143.942C201.826 143.578 201.798 143.217 201.786 142.874C201.771 142.542 201.758 142.179 201.779 142.045L201.935 141.041C202.242 139.063 204.095 137.707 206.075 138.013C207.544 138.242 208.67 139.325 209.026 140.676Z" fill="url(#paint52_linear_114_1501)"/>
<path d="M183.217 157.932C183.338 158.502 183.665 159.504 183.985 160.443L185.036 163.388C185.756 165.385 186.536 167.394 187.178 169.478L188.205 172.586C188.572 173.612 188.967 174.628 189.407 175.617C189.84 176.61 190.298 177.591 190.803 178.531C191.056 179 191.305 179.471 191.579 179.91C191.851 180.339 192.141 180.79 192.408 181.08L192.419 181.091C192.932 181.647 192.898 182.514 192.341 183.026C191.785 183.54 190.918 183.505 190.405 182.949C190.398 182.942 190.387 182.929 190.381 182.921C189.917 182.392 189.585 181.933 189.247 181.451C188.915 180.975 188.588 180.51 188.277 180.037L186.437 177.216C185.837 176.273 185.219 175.34 184.596 174.406C183.963 173.479 183.328 172.549 182.721 171.602C181.475 169.723 180.443 167.731 179.489 165.67C179.014 164.636 178.573 163.58 178.179 162.467C177.981 161.91 177.796 161.337 177.635 160.722C177.55 160.416 177.478 160.095 177.41 159.748C177.375 159.576 177.345 159.396 177.318 159.196L177.273 158.832L177.26 158.625C177.158 156.972 178.414 155.548 180.069 155.445C181.575 155.351 182.89 156.384 183.192 157.817L183.217 157.932Z" fill="url(#paint53_linear_114_1501)"/>
<path d="M230.568 149.794L229.947 153.244C229.719 154.411 229.48 155.582 229.217 156.752C228.678 159.09 227.991 161.416 227.048 163.71C226.809 164.282 226.545 164.85 226.253 165.411C226.111 165.692 225.95 165.971 225.795 166.247L225.357 166.988C224.777 167.978 224.178 168.956 223.636 169.951C223.087 170.942 222.57 171.944 222.158 172.947C221.747 173.933 221.431 174.986 221.477 175.753C221.532 176.685 220.822 177.484 219.89 177.54C218.958 177.595 218.157 176.885 218.102 175.953C218.095 175.841 218.099 175.73 218.114 175.623L218.126 175.543C218.345 174.008 218.87 172.88 219.335 171.753C219.822 170.642 220.321 169.581 220.808 168.521L222.258 165.364L222.619 164.58C222.722 164.342 222.827 164.112 222.921 163.868C223.113 163.388 223.286 162.892 223.439 162.384C224.073 160.359 224.395 158.181 224.612 155.99C224.838 153.781 224.857 151.597 224.857 149.261C224.857 147.671 226.147 146.382 227.738 146.382C229.329 146.382 230.618 147.672 230.618 149.262C230.618 149.43 230.604 149.596 230.575 149.756L230.568 149.794Z" fill="url(#paint54_linear_114_1501)"/>
<path d="M240.179 169.004C239.51 170.416 238.595 171.352 237.722 172.233C236.839 173.108 235.922 173.883 235.04 174.665C234.16 175.445 233.279 176.204 232.485 176.999C232.092 177.396 231.718 177.802 231.399 178.214C231.086 178.623 230.835 179.061 230.776 179.407L230.761 179.494C230.694 179.89 230.318 180.156 229.922 180.088C229.579 180.03 229.333 179.74 229.317 179.407C229.275 178.561 229.556 177.891 229.83 177.287C230.116 176.684 230.456 176.145 230.809 175.628C231.516 174.598 232.274 173.651 233.03 172.73C233.787 171.811 234.524 170.899 235.211 170.008C235.886 169.117 236.525 168.226 236.841 167.482C237.236 166.549 238.313 166.113 239.246 166.508C240.179 166.903 240.616 167.98 240.22 168.911C240.211 168.933 240.202 168.954 240.192 168.975L240.179 169.004Z" fill="url(#paint55_linear_114_1501)"/>
<path d="M233.047 225.262C231.27 222.748 228.534 221.188 225.908 221.188C224.648 221.188 223.467 221.551 222.493 222.239C219.723 224.195 219.198 228.333 221.067 231.943C219.401 232.237 217.974 233.543 217.083 234.696C215.517 232.999 213.283 231.928 210.796 231.928C206.075 231.928 202.236 235.766 202.236 240.483C202.236 242.422 202.892 244.207 203.983 245.642C202.181 247.536 198.654 252.194 197.163 255.506L197.35 255.59C197.982 254.782 198.838 254.161 199.827 253.818C201.486 251.059 203.8 248.121 205.037 246.794C206.56 248.183 208.578 249.039 210.798 249.039C215.519 249.039 219.359 245.201 219.359 240.483C219.359 238.833 218.881 237.296 218.068 235.989C218.78 234.973 220.371 233.252 222.034 233.462C223.813 235.811 226.432 237.267 228.96 237.267C230.22 237.267 231.401 236.903 232.375 236.215C235.469 234.029 235.771 229.115 233.047 225.262ZM210.796 247.483C206.934 247.483 203.792 244.342 203.792 240.483C203.792 236.623 206.935 233.483 210.796 233.483C214.658 233.483 217.801 236.623 217.801 240.483C217.801 244.342 214.659 247.483 210.796 247.483ZM231.475 234.943C230.765 235.445 229.895 235.71 228.958 235.71C226.829 235.71 224.581 234.4 223.09 232.293C220.861 229.14 220.997 225.199 223.391 223.509C224.111 223 224.957 222.743 225.907 222.743C228.036 222.743 230.285 224.053 231.775 226.161C234.005 229.312 233.869 233.252 231.475 234.943Z" fill="url(#paint56_linear_114_1501)"/>
<path d="M182.35 234.601C182.332 234.601 182.315 234.601 182.297 234.6C181.438 234.571 180.765 233.852 180.794 232.993C180.9 229.829 181.826 225.332 183.137 223.585C183.654 222.898 184.629 222.759 185.316 223.273C186.003 223.789 186.143 224.764 185.627 225.451C184.932 226.378 184.009 229.995 183.905 233.097C183.877 233.938 183.185 234.601 182.35 234.601Z" fill="#FF57BC"/>
<path d="M222.032 233.457C225.49 234.764 233.423 239.819 233.866 242.472C234.19 244.417 228.159 246.426 227.704 245.778C227.25 245.13 225.629 241.63 223.554 238.648C222.01 236.429 220.394 234.856 220.195 233.924C220.511 233.754 221.366 233.317 222.032 233.457Z" fill="url(#paint57_linear_114_1501)"/>
<path d="M158.659 214.033C155.76 194.504 157.542 182.442 157.791 178.208C158.181 171.597 162.364 166.088 164.212 161.194C165.734 157.168 167.876 154.583 166.45 153.611C164.34 152.174 160.515 157.176 160.515 157.176C160.515 157.176 161.132 144.148 158.278 144.278C155.846 144.388 157.402 151.958 156.04 152.347C154.678 152.736 152.376 145.25 150.301 145.542C149.177 145.7 149.003 148.426 149.003 148.426C149.003 148.426 148.4 147.919 147.771 148.458C146.863 149.236 147.659 153.824 146.896 155.653C146.575 155.2 146.332 154.871 145.858 154.972C142.21 155.75 142.843 174.647 142.292 178.889C141.407 185.683 140.719 199.15 141.561 215.341C145.016 215.729 151.443 215.953 158.659 214.033Z" fill="url(#paint58_linear_114_1501)"/>
<path d="M281.251 202.623C280.509 195.493 279.897 190.134 279.783 188.351C279.394 182.259 279.135 177.203 278.486 171.499C277.837 165.795 275.632 159.574 275.243 157.499C274.854 155.425 275.578 152.601 274.578 150.256C273.735 148.279 272.713 149.073 272.713 149.073C272.713 149.073 272.645 146.255 271.416 146.351C269.957 146.464 268.011 155.409 267.006 155.554C266.428 155.638 267.136 145.346 265.385 145.151C264.128 145.011 263.195 146.756 261.98 152.395C260.931 157.26 262.472 165.86 261.688 165.86C260.812 165.86 260.326 161.971 259.45 159.444C258.575 156.916 257.553 154.436 256.24 154.583C254.934 154.728 254.713 157.806 255.297 162.181C255.761 165.655 261.299 183.166 263.634 191.138C264.543 194.245 265.127 199.187 265.421 204.794C268.656 205.252 274.489 205.363 281.251 202.623Z" fill="url(#paint59_linear_114_1501)"/>
<path d="M146.785 155.151C147.118 155.612 147.351 156.167 147.46 156.745C147.515 157.034 147.544 157.33 147.546 157.628C147.545 157.931 147.529 158.212 147.461 158.542C147.416 158.752 147.209 158.888 146.998 158.844C146.787 158.8 146.651 158.593 146.695 158.381C146.7 158.359 146.707 158.336 146.715 158.315L146.719 158.306C146.803 158.101 146.872 157.83 146.915 157.579C146.96 157.323 146.98 157.061 146.977 156.797C146.969 156.27 146.855 155.742 146.616 155.248C146.593 155.199 146.613 155.141 146.662 155.118C146.705 155.097 146.759 155.114 146.785 155.151Z" fill="#C66C50"/>
<path d="M149.131 147.519C149.02 148.548 149.158 149.584 149.34 150.604C149.433 151.115 149.544 151.624 149.662 152.133C149.778 152.646 149.909 153.145 150.007 153.693C150.045 153.904 149.904 154.107 149.692 154.145C149.481 154.183 149.278 154.042 149.24 153.83C149.238 153.819 149.236 153.808 149.235 153.797L149.235 153.79C149.191 153.298 149.104 152.77 149.033 152.25C148.96 151.728 148.893 151.202 148.843 150.674C148.75 149.62 148.702 148.539 148.909 147.488C148.921 147.427 148.979 147.387 149.04 147.398C149.098 147.407 149.137 147.461 149.131 147.519Z" fill="#C66C50"/>
<path d="M156.689 150.211C156.708 151.121 156.657 152.029 156.59 152.935C156.555 153.389 156.513 153.841 156.464 154.294C156.412 154.75 156.364 155.192 156.271 155.671C156.229 155.882 156.025 156.021 155.814 155.979C155.603 155.938 155.464 155.734 155.506 155.523C155.508 155.508 155.512 155.494 155.517 155.48L155.52 155.471C155.645 155.074 155.748 154.624 155.847 154.191C155.945 153.753 156.036 153.313 156.121 152.872C156.289 151.989 156.44 151.1 156.521 150.204C156.525 150.158 156.566 150.123 156.613 150.128C156.655 150.133 156.688 150.169 156.689 150.211Z" fill="#C66C50"/>
<path d="M161.673 155.776C160.985 156.493 160.547 157.431 160.07 158.318L158.694 161.039C158.223 161.943 157.735 162.843 157.163 163.708C156.578 164.556 155.963 165.434 154.952 166.014C154.766 166.122 154.527 166.057 154.42 165.87C154.313 165.684 154.377 165.446 154.564 165.339C154.57 165.335 154.578 165.331 154.584 165.328L154.599 165.321C155.395 164.929 156.062 164.137 156.652 163.351C157.244 162.548 157.771 161.686 158.283 160.813L159.794 158.168C160.32 157.3 160.8 156.381 161.562 155.66C161.595 155.63 161.645 155.632 161.675 155.664C161.705 155.695 161.704 155.743 161.675 155.773L161.673 155.776Z" fill="#C66C50"/>
<path d="M261.216 164.593C261.422 165.237 261.85 165.772 262.327 166.262C262.808 166.749 263.342 167.19 263.892 167.62C264.441 168.051 265.006 168.465 265.559 168.922C265.834 169.152 266.108 169.39 266.365 169.67C266.611 169.955 266.887 170.267 266.972 170.779C267.007 170.991 266.864 171.192 266.652 171.227C266.439 171.262 266.238 171.119 266.203 170.907C266.202 170.893 266.2 170.879 266.199 170.866V170.86C266.187 170.666 266.022 170.388 265.82 170.144C265.616 169.896 265.371 169.658 265.119 169.425C264.613 168.96 264.069 168.514 263.537 168.049C263.004 167.586 262.477 167.104 261.999 166.566C261.529 166.032 261.086 165.413 260.896 164.699L260.893 164.688C260.87 164.597 260.924 164.506 261.013 164.482C261.1 164.459 261.189 164.509 261.216 164.593Z" fill="#C66C50"/>
<path d="M272.944 148.591C273.014 149.231 273.007 149.859 273.009 150.489C273.007 151.119 272.993 151.748 272.974 152.376C272.931 153.636 272.885 154.883 272.776 156.156C272.759 156.37 272.569 156.529 272.355 156.511C272.141 156.493 271.982 156.304 272 156.09C272.001 156.082 272.001 156.074 272.003 156.067L272.004 156.057C272.187 154.839 272.317 153.584 272.439 152.343C272.497 151.72 272.552 151.097 272.594 150.474C272.632 149.853 272.678 149.225 272.65 148.615C272.646 148.534 272.708 148.465 272.789 148.459C272.867 148.455 272.934 148.514 272.944 148.591Z" fill="#C66C50"/>
<path d="M258.381 359.722C256.63 345.139 257.729 325.272 263.634 309.944C267.979 298.667 280.82 278.574 283.674 259.972C285.593 247.466 283.044 219.863 281.251 202.623C274.489 205.362 268.655 205.252 265.422 204.794C265.883 213.574 265.633 223.989 264.802 231.583C263.44 244.028 255.268 267.75 244.956 280.972C234.644 294.194 225.11 295.361 217.133 295.361C205.362 295.361 183.376 293.222 169.076 253.944C163.385 238.316 160.287 225.001 158.659 214.033C151.443 215.953 145.016 215.73 141.559 215.341C142.259 228.805 144.016 244.151 147.608 259.13C152.143 278.042 160.449 297.5 168.232 312.149C175.255 325.367 178.916 348.125 186.391 367.112C191.15 379.199 197.555 397.093 209.261 409.096C210.456 391.869 232.959 374.629 258.381 359.722Z" fill="url(#paint60_linear_114_1501)"/>
<path d="M145.939 239.91C145.191 239.91 144.468 239.868 143.777 239.782C143.457 239.742 143.229 239.451 143.269 239.132C143.309 238.812 143.603 238.584 143.92 238.624C149.115 239.269 156.229 237.297 162.491 233.481C162.766 233.313 163.125 233.4 163.293 233.675C163.461 233.951 163.374 234.309 163.098 234.477C157.446 237.923 151.085 239.91 145.939 239.91Z" fill="#FFA2BA"/>
<path d="M150.779 271.183C150.498 271.183 150.251 270.979 150.204 270.694C150.153 270.376 150.368 270.076 150.687 270.024C154.176 269.457 166.843 262.173 170.262 257.851C170.462 257.599 170.83 257.557 171.082 257.756C171.335 257.956 171.378 258.323 171.178 258.575C167.552 263.158 154.596 270.571 150.874 271.176C150.842 271.181 150.81 271.183 150.779 271.183Z" fill="#FFA2BA"/>
<path d="M159.324 294.141C159.04 294.141 158.791 293.933 158.748 293.644C158.7 293.325 158.92 293.028 159.239 292.98C162.922 292.43 178.175 281.191 180.452 276.733C180.598 276.446 180.951 276.332 181.237 276.479C181.524 276.625 181.639 276.977 181.492 277.264C179.049 282.046 163.368 293.544 159.412 294.135C159.382 294.138 159.353 294.141 159.324 294.141Z" fill="#FFA2BA"/>
<path d="M168.233 312.731C167.965 312.731 167.724 312.546 167.664 312.275C167.594 311.961 167.792 311.649 168.106 311.579C171.403 310.847 191.574 297.005 195.114 290.049C195.261 289.761 195.612 289.647 195.899 289.793C196.186 289.939 196.301 290.29 196.155 290.577C192.474 297.808 172.065 311.894 168.36 312.717C168.317 312.727 168.275 312.731 168.233 312.731Z" fill="#FFA2BA"/>
<path d="M273.534 232.313C269.95 232.313 266.517 231.934 264.714 231.405C264.405 231.314 264.227 230.99 264.318 230.681C264.409 230.371 264.735 230.196 265.043 230.286C268.726 231.368 279.318 231.727 283.401 229.602C283.686 229.454 284.04 229.565 284.188 229.85C284.337 230.136 284.226 230.488 283.94 230.637C281.598 231.855 277.474 232.313 273.534 232.313Z" fill="#FFA2BA"/>
<path d="M279.744 256.813C272.086 256.813 262.112 253.477 259.549 252.186C259.261 252.041 259.145 251.69 259.29 251.403C259.435 251.115 259.788 251 260.074 251.144C262.914 252.575 275.089 256.591 282.61 255.45C282.927 255.404 283.226 255.621 283.274 255.94C283.323 256.258 283.103 256.556 282.785 256.604C281.834 256.748 280.811 256.813 279.744 256.813Z" fill="#FFA2BA"/>
<path d="M277.287 281.423C277.283 281.423 277.28 281.423 277.277 281.423C264.508 281.221 254.443 272.102 252.221 268.802C252.041 268.535 252.112 268.172 252.379 267.993C252.646 267.813 253.01 267.884 253.189 268.151C255.32 271.315 264.992 280.061 277.295 280.256C277.618 280.261 277.875 280.527 277.869 280.849C277.866 281.167 277.605 281.423 277.287 281.423Z" fill="#FFA2BA"/>
<path d="M265.111 307.032C265.092 307.032 265.073 307.032 265.055 307.03C253.953 305.967 238.222 293.419 236.512 289.279C236.389 288.981 236.531 288.64 236.829 288.517C237.128 288.394 237.468 288.537 237.591 288.834C239.184 292.692 254.654 304.862 265.165 305.869C265.486 305.9 265.721 306.185 265.69 306.505C265.662 306.807 265.408 307.032 265.111 307.032Z" fill="#FFA2BA"/>
<path d="M200.887 316.388C184.902 316.388 172.028 315.555 169.051 314.671C168.742 314.579 168.566 314.254 168.658 313.945C168.751 313.637 169.077 313.462 169.384 313.552C176.152 315.559 234.603 317.294 263.479 309.381C263.793 309.294 264.111 309.479 264.196 309.79C264.282 310.1 264.099 310.421 263.788 310.506C247.414 314.994 221.552 316.388 200.887 316.388Z" fill="#FFA2BA"/>
<path d="M178.833 344.091C178.626 344.091 178.425 343.981 178.319 343.786C178.165 343.502 178.27 343.149 178.554 342.995C189.51 337.055 220.434 326.107 259.056 327.191C259.378 327.199 259.632 327.468 259.623 327.791C259.615 328.113 259.351 328.389 259.023 328.358C220.648 327.29 189.971 338.133 179.11 344.021C179.022 344.069 178.927 344.091 178.833 344.091Z" fill="#FFA2BA"/>
<path d="M185.146 364.4C184.968 364.4 184.793 364.32 184.679 364.168C184.485 363.91 184.536 363.544 184.794 363.35C202.709 349.879 227.227 342.793 257.665 342.289C258.003 342.291 258.253 342.541 258.258 342.863C258.263 343.185 258.007 343.45 257.684 343.456C227.497 343.956 203.21 350.963 185.495 364.283C185.391 364.362 185.268 364.4 185.146 364.4Z" fill="#FFA2BA"/>
<path d="M192.981 383.91C192.846 383.91 192.709 383.863 192.598 383.767C192.355 383.556 192.329 383.187 192.541 382.944C194.732 380.424 228.596 357.674 257.868 354.461C258.189 354.413 258.477 354.657 258.513 354.977C258.548 355.298 258.316 355.585 257.996 355.62C230.42 358.647 196.13 380.595 193.422 383.709C193.307 383.843 193.145 383.91 192.981 383.91Z" fill="#FFA2BA"/>
<path d="M284.351 246.684C273.228 254.717 279.132 268.326 280.938 271.136C282.146 267.409 283.109 263.662 283.675 259.972C284.205 256.517 284.392 251.907 284.351 246.684Z" fill="url(#paint61_linear_114_1501)"/>
<path d="M145.384 248.565C146.034 252.087 146.767 255.619 147.609 259.13C148.523 262.945 149.598 266.78 150.784 270.596C160.186 262.369 153.579 249.287 145.384 248.565Z" fill="url(#paint62_linear_114_1501)"/>
<path d="M303.067 386.164C303.067 386.164 249.82 410.407 255.657 414.037C261.494 417.667 277.127 422.428 289.771 426.87C304.064 431.891 317.14 438.148 317.14 438.148C317.14 438.148 307.898 447.125 298.98 457.722C298.266 458.572 297.514 459.506 296.738 460.501C299.79 464.879 307.478 472.414 318.756 475.043C332.318 465.734 355.272 449.159 356.636 435.36C358.502 416.491 307.262 388.017 303.067 386.164Z" fill="url(#paint63_linear_114_1501)"/>
<path d="M349.743 420.093C346.444 424.619 342.101 437.043 350.954 447.563C354.116 443.425 356.249 439.281 356.637 435.361C357.099 430.678 354.29 425.405 349.743 420.093Z" fill="url(#paint64_linear_114_1501)"/>
<path d="M296.738 460.501C288.986 470.452 278.778 486.689 278.306 488.339C277.787 490.153 278.746 495.703 280.431 499.852C282.117 504.001 291.457 516.736 293.143 515.148C295.417 513.007 292.754 497.13 293.662 494.148C294.57 491.166 301.769 486.889 311.692 479.889C313.426 478.665 315.882 477.017 318.756 475.044C307.478 472.414 299.79 464.879 296.738 460.501Z" fill="url(#paint65_linear_114_1501)"/>
<path d="M323.187 472.549C323.154 472.549 323.121 472.547 323.088 472.541C315.327 471.218 301.896 460.725 299.265 457.181C299.072 456.922 299.127 456.556 299.385 456.364C299.645 456.173 300.01 456.227 300.202 456.485C302.487 459.563 315.718 470.101 323.284 471.39C323.601 471.444 323.815 471.746 323.761 472.063C323.712 472.348 323.465 472.549 323.187 472.549Z" fill="#6022B6"/>
<path d="M308.435 464.987C308.272 464.987 308.11 464.92 307.996 464.788C307.784 464.545 307.808 464.177 308.051 463.965C308.239 463.8 326.932 447.359 326.932 436.982C326.932 423.558 279.235 407.685 267.429 404.475C267.118 404.391 266.934 404.069 267.019 403.758C267.104 403.448 267.425 403.265 267.735 403.349C268.339 403.513 328.099 420.502 328.099 436.982C328.099 447.887 309.605 464.156 308.818 464.843C308.709 464.94 308.572 464.987 308.435 464.987Z" fill="#6022B6"/>
<path d="M280.97 483.578C279.442 486.079 278.445 487.85 278.306 488.339C277.982 489.472 278.235 492.06 278.88 494.856C282.907 491.873 282.065 486.507 280.97 483.578Z" fill="url(#paint66_linear_114_1501)"/>
<path d="M280.756 502.056C281.923 501.472 293.569 499.396 295.607 501.602C296.436 502.499 295.997 516.315 293.792 517.352C291.867 518.257 286.023 511.748 284.613 509.749C283.203 507.749 280.756 502.056 280.756 502.056Z" fill="url(#paint67_linear_114_1501)"/>
<path d="M292.623 518.486C292.366 518.486 292.105 518.423 291.865 518.289C277.623 510.337 274.378 489.254 274.35 489.043C274.234 488.192 274.83 487.408 275.681 487.292C276.533 487.173 277.318 487.772 277.433 488.623C277.46 488.818 280.669 508.474 293.383 515.572C294.133 515.991 294.402 516.938 293.983 517.689C293.698 518.199 293.168 518.486 292.623 518.486Z" fill="url(#paint68_linear_114_1501)"/>
<path d="M381.22 370.575C366.623 356.015 346.123 340.139 323.949 339.694C294.83 339.111 265.645 356.611 258.381 359.722C232.959 374.629 210.456 391.869 209.262 409.095C216.9 416.926 226.793 422.251 239.962 421.815C283.026 420.389 296.516 382.667 326.997 382.408C339.154 382.304 351.232 386.867 361.909 392.343C366.102 389.163 375.621 378.327 381.22 370.575Z" fill="url(#paint69_linear_114_1501)"/>
<path d="M239.02 408.348C223.642 408.348 214.082 398.634 212.946 397.417C212.726 397.182 212.739 396.813 212.975 396.593C213.21 396.372 213.579 396.385 213.8 396.621C215.014 397.92 226.171 409.253 243.906 406.848C253.08 405.605 262.121 399.478 272.59 392.383C286.951 382.652 303.228 371.622 324.379 370.676C350.348 369.511 367.006 381.817 367.171 381.941C367.428 382.135 367.479 382.5 367.285 382.758C367.09 383.014 366.724 383.066 366.468 382.872C366.305 382.751 349.965 370.704 324.429 371.84C303.608 372.772 287.476 383.703 273.244 393.349C262.653 400.525 253.506 406.723 244.061 408.003C242.319 408.241 240.636 408.348 239.02 408.348Z" fill="#00E2EC"/>
<path d="M228.46 406.735C228.269 406.735 228.083 406.642 227.971 406.47C227.795 406.199 227.872 405.837 228.142 405.662C229.691 404.655 230.678 402.113 230.996 398.311C231.59 391.204 229.635 381.934 228.164 380.582C227.927 380.364 227.912 379.995 228.13 379.758C228.349 379.521 228.718 379.506 228.955 379.724C230.806 381.425 232.766 391.156 232.16 398.407C231.806 402.642 230.668 405.412 228.779 406.64C228.68 406.705 228.569 406.735 228.46 406.735Z" fill="#00E2EC"/>
<path d="M424.28 395.241C422.983 393.685 407.125 396.472 402.942 394.528C401.35 393.788 393.309 382.632 381.22 370.574C375.621 378.327 366.102 389.162 361.909 392.343C377.532 400.355 390.158 410.318 395.65 410.477C405.569 410.764 425.576 396.796 424.28 395.241Z" fill="url(#paint70_linear_114_1501)"/>
<path d="M358.277 391.13C358.073 391.13 357.875 391.024 357.768 390.834C357.61 390.554 357.708 390.198 357.989 390.039C360.61 388.559 373.926 375.472 377.069 366.875C377.18 366.572 377.516 366.417 377.818 366.528C378.121 366.639 378.276 366.973 378.165 367.277C374.871 376.287 361.346 389.484 358.563 391.056C358.473 391.106 358.374 391.13 358.277 391.13Z" fill="#00E2EC"/>
<path d="M326.868 351.037C334.315 350.949 339.639 346.32 342.264 343.397C336.357 341.182 330.22 339.82 323.949 339.694C318.697 339.589 313.444 340.079 308.316 340.96C311.105 345.291 317.701 351.146 326.868 351.037Z" fill="url(#paint71_linear_114_1501)"/>
<path d="M397.04 405.611C393.676 405.463 391.312 407.247 390.367 408.756C392.518 409.806 394.3 410.439 395.649 410.478C397.64 410.535 400.039 410.012 402.589 409.137C401.79 407.672 400.156 405.749 397.04 405.611Z" fill="url(#paint72_linear_114_1501)"/>
<path d="M416.173 390.736C414.501 391.265 411.425 400.611 416.523 407.73C417.971 406.337 423.28 401.012 424.851 399.202C426.422 397.392 431.835 389.958 432.22 389.313C432.604 388.669 422.934 388.597 416.173 390.736Z" fill="url(#paint73_linear_114_1501)"/>
<path d="M404.5 419.805C404.015 419.805 403.536 419.579 403.232 419.154C402.732 418.455 402.894 417.484 403.595 416.984C405.087 415.918 424.096 400.212 430.193 389.574C430.62 388.83 431.571 388.57 432.317 388.998C433.062 389.425 433.321 390.375 432.894 391.12C426.426 402.405 407.01 418.369 405.403 419.516C405.13 419.711 404.813 419.805 404.5 419.805Z" fill="url(#paint74_linear_114_1501)"/>
<path d="M272.654 460.349L272.719 460.327C273.25 460.124 273.519 459.522 273.314 458.986C273.161 458.586 272.77 458.318 272.342 458.318C272.215 458.318 272.091 458.341 271.97 458.386C269.566 459.305 266.946 460.149 263.476 461.123C260.884 461.828 258.117 462.468 254.762 463.14C249.293 464.238 243.492 465.019 237.027 465.526C232.463 465.86 227.9 466.03 223.461 466.03C215.906 466.03 208.482 465.54 201.399 464.574C195.005 463.699 189.378 462.502 184.195 460.915C181.123 459.971 178.517 458.957 176.226 457.814C174.907 457.154 173.718 456.458 172.691 455.746C172.418 455.557 172.15 455.36 171.896 455.166L171.539 454.884L171.142 454.556C170.604 454.107 170.09 453.65 169.613 453.193C167.527 451.198 166.001 449.093 165.078 446.934C164.104 444.668 163.765 442.283 164.074 439.847C164.363 437.547 165.285 435.146 166.738 432.906C167.441 431.816 168.237 430.816 169.103 429.937C169.843 429.182 170.931 428.27 171.691 427.937L171.768 427.902C172.571 427.527 173.178 426.862 173.479 426.03C173.78 425.198 173.739 424.298 173.363 423.498C172.819 422.34 171.64 421.591 170.36 421.591C169.873 421.591 169.401 421.696 168.956 421.905C166.884 422.875 165.597 424.06 164.355 425.29C163.165 426.507 162.113 427.834 161.15 429.337C159.194 432.427 158.012 435.713 157.64 439.104C157.442 440.927 157.493 442.727 157.794 444.455C158.1 446.197 158.646 447.904 159.418 449.524C160.779 452.391 162.864 455.087 165.615 457.541C166.217 458.077 166.851 458.603 167.5 459.104L167.99 459.472L168.529 459.856C168.872 460.091 169.219 460.316 169.577 460.538C170.883 461.345 172.304 462.081 173.919 462.787C176.576 463.941 179.416 464.883 182.858 465.751C188.137 467.056 193.903 467.91 201.003 468.438C204.849 468.722 208.856 468.86 213.252 468.86C215.149 468.86 217.082 468.835 219.162 468.782C224.799 468.655 230.705 468.248 237.216 467.539C250.501 466.069 262.093 463.719 272.654 460.349Z" fill="url(#paint75_linear_114_1501)"/>
<path d="M308.475 532.746C313.261 531.174 317.456 529.256 321.3 526.879C325.991 523.938 329.46 520.59 331.902 516.651C334.787 512.004 336.065 506.205 335.322 501.138C335.111 499.778 334.754 498.431 334.26 497.138C333.773 495.822 333.113 494.529 332.297 493.288C331.37 491.92 330.347 490.793 329.178 489.853C328.521 489.325 327.809 488.86 327.062 488.47C326.699 488.282 326.305 488.105 325.857 487.93C325.661 487.856 325.448 487.781 325.17 487.695L324.964 487.632L324.876 487.609L324.682 487.561C324.34 487.477 323.987 487.434 323.634 487.434C321.772 487.434 320.101 488.602 319.475 490.338C318.654 492.62 319.843 495.143 322.125 495.962L322.326 496.036C322.426 496.071 322.555 496.116 322.675 496.228C322.738 496.264 322.799 496.302 322.861 496.344C323.072 496.47 323.269 496.627 323.477 496.795L323.486 496.802L323.521 496.83C324.023 497.258 324.504 497.789 324.912 498.364C325.757 499.496 326.505 501.058 327.066 502.864C327.683 504.775 327.982 506.564 327.951 508.172C327.93 508.653 327.904 509.105 327.82 509.567C327.783 509.779 327.742 509.999 327.694 510.216L327.624 510.513L327.619 510.535L327.613 510.556L327.498 510.942C327.259 511.772 326.891 512.717 326.463 513.598C324.893 516.858 322.147 520.063 318.52 522.863C315.469 525.247 311.762 527.346 307.191 529.276C299.578 532.411 290.845 534.466 281.229 535.384C277.513 535.73 273.724 535.907 269.964 535.907C264.749 535.907 259.474 535.569 254.285 534.906C254.247 534.9 254.216 534.899 254.185 534.899C253.805 534.899 253.485 535.184 253.439 535.562C253.414 535.762 253.469 535.96 253.593 536.118C253.717 536.277 253.895 536.377 254.095 536.402C261.011 537.246 267.727 537.675 274.056 537.675C276.522 537.675 278.986 537.61 281.38 537.483C286.331 537.217 290.796 536.738 295.029 536.018C299.775 535.233 304.298 534.133 308.475 532.746Z" fill="url(#paint76_linear_114_1501)"/>
<path d="M348.37 507.331C348.173 507.331 348.007 507.485 347.991 507.682C347.867 509.199 347.591 510.672 347.172 512.081C346.79 513.362 346.25 514.691 345.523 516.144C344.312 518.531 342.588 520.89 340.395 523.157C338.342 525.254 336.085 527.037 333.681 528.457C332.468 529.17 331.212 529.768 330.034 530.308C329.374 530.602 328.736 530.868 328.251 531.067L327.381 531.404L327.019 531.549C326.951 531.579 326.851 531.62 326.721 531.66L326.461 531.747C325.458 532.088 324.777 533.063 324.805 534.12C324.84 535.451 325.91 536.493 327.24 536.493L327.307 536.492L327.597 536.484C327.677 536.484 327.753 536.48 327.848 536.467L327.855 536.466L327.899 536.461C328.134 536.433 328.357 536.406 328.555 536.371C329.034 536.29 329.452 536.2 329.835 536.094C330.627 535.883 331.436 535.592 332.249 535.222C333.601 534.62 334.915 533.815 336.512 532.607C339.105 530.639 341.413 528.293 343.368 525.637C345.322 522.985 346.817 520.102 347.813 517.071C348.839 513.9 349.164 510.645 348.752 507.663C348.727 507.486 348.58 507.349 348.404 507.334L348.387 506.948C348.382 506.947 348.377 506.945 348.371 506.944V507.331H348.37Z" fill="url(#paint77_linear_114_1501)"/>
<path d="M454.016 401.746C452.443 401.746 451.153 403.025 451.141 404.597C451.126 406.387 450.803 408.469 450.152 410.96C449.589 413.1 448.849 415.238 447.95 417.316C446.113 421.565 443.807 425.533 441.098 429.114C438.322 432.78 435.125 436.154 431.598 439.143C427.776 442.403 423.791 444.9 419.753 446.563C419.741 446.568 419.722 446.578 419.704 446.587C419.593 446.649 419.515 446.748 419.481 446.868C419.448 446.988 419.463 447.114 419.524 447.223C419.606 447.371 419.764 447.462 419.932 447.462C420.013 447.462 420.089 447.443 420.16 447.403C424.568 444.939 428.523 442.685 432.301 440.054C436.185 437.344 439.78 434.194 442.988 430.692C446.39 426.96 449.253 423.055 451.495 419.088C452.811 416.743 453.862 414.588 454.703 412.503C455.809 409.726 456.468 407.475 456.836 405.21L456.861 405.061C456.88 404.932 456.892 404.789 456.893 404.645C456.907 403.06 455.626 401.76 454.04 401.746L454.028 401.359C454.023 401.359 454.019 401.357 454.015 401.357V401.746H454.016Z" fill="url(#paint78_linear_114_1501)"/>
<path d="M154.138 328.953L154.181 328.928C154.552 328.688 154.66 328.193 154.421 327.824C154.274 327.595 154.022 327.458 153.749 327.458C153.597 327.458 153.447 327.503 153.318 327.586C151.372 328.839 149.345 330.028 147.384 331.179C146.703 331.578 146.02 331.978 145.339 332.383C142.191 334.22 139.699 335.845 137.491 337.503C134.945 339.466 132.481 341.473 130.409 344.36C129.226 346.047 128.448 347.713 128.036 349.446C127.482 351.664 127.74 354.059 127.942 355.29L127.987 355.566C128.026 355.798 128.094 356.036 128.186 356.266C128.717 357.593 129.984 358.45 131.413 358.45C131.854 358.45 132.287 358.367 132.701 358.201C134.48 357.49 135.348 355.465 134.637 353.687C134.182 352.552 133.9 351.617 133.895 350.467C133.885 349.416 134.182 348.213 134.754 346.989C135.753 344.847 137.452 342.546 139.804 340.149C141.674 338.231 143.872 336.257 146.521 334.119C149.169 332.022 151.659 330.335 154.138 328.953Z" fill="url(#paint79_linear_114_1501)"/>
<path d="M473.708 398.587C473.426 398.246 473.112 398.087 472.723 398.087C472.633 398.087 472.537 398.096 472.439 398.113C470.858 398.39 470.769 400.065 470.949 403.555C471.02 404.949 471.095 406.391 470.937 407.742C470.67 410.034 469.546 411.805 468.725 413.097C468.278 413.801 467.724 414.675 467.886 414.873C467.887 414.873 467.889 414.872 467.892 414.872C467.901 414.872 467.923 414.875 467.956 414.875C469.332 414.875 473.377 411.308 474.263 406.632C474.955 402.988 474.737 399.829 473.708 398.587Z" fill="url(#paint80_linear_114_1501)"/>
<path d="M376.95 424.947C376.44 424.24 375.769 423.895 374.9 423.895C374.753 423.895 374.6 423.906 374.443 423.925C372.021 424.233 372.146 427.002 372.549 431.493C372.72 433.392 372.897 435.355 372.754 437.158C372.513 440.189 371.109 442.59 370.082 444.344C369.218 445.821 368.708 446.746 369.102 447.112C369.167 447.172 369.23 447.196 369.327 447.196C370.776 447.196 374.411 442.869 376.587 436.346C378.262 431.327 378.401 426.959 376.95 424.947Z" fill="url(#paint81_linear_114_1501)"/>
<path d="M146.834 316.872C146.835 316.209 146.652 315.689 146.287 315.323C145.8 314.836 144.963 314.578 143.864 314.578C141.294 314.578 137.717 315.957 134.295 318.27C129.943 321.21 126.951 323.9 125.56 325.474C125.615 325.442 125.671 325.409 125.725 325.376C127.586 324.271 130.397 322.6 133.855 321.685C135.824 321.164 137.842 320.876 139.621 320.623C144.222 319.968 146.826 319.471 146.834 316.872Z" fill="url(#paint82_linear_114_1501)"/>
<path d="M204.922 447.575C204.285 446.749 202.651 446.18 200.549 446.054C200.222 446.035 199.831 446.025 199.388 446.014C196.41 445.94 191.425 445.817 187.824 442.654C183.314 438.691 182.903 434.475 182.705 432.45C182.693 432.325 182.679 432.189 182.665 432.061C182.589 432.142 182.508 432.258 182.426 432.42C181.422 434.423 182.05 440.223 184.973 444.132C187.372 447.34 192.242 450.683 197.711 450.918C198.367 450.946 198.949 450.96 199.49 450.96C204.123 450.96 204.966 449.874 205.18 448.813C205.278 448.325 205.197 447.932 204.922 447.575Z" fill="url(#paint83_linear_114_1501)"/>
<defs>
<linearGradient id="paint0_linear_114_1501" x1="296.937" y1="626.338" x2="296.937" y2="60.0052" gradientUnits="userSpaceOnUse">
<stop stop-color="#C7A0F6"/>
<stop offset="1" stop-color="#8CE6FD"/>
</linearGradient>
<linearGradient id="paint1_linear_114_1501" x1="60.7681" y1="255.986" x2="119.462" y2="255.986" gradientUnits="userSpaceOnUse">
<stop stop-color="#B0E1FF"/>
<stop offset="1" stop-color="white"/>
</linearGradient>
<linearGradient id="paint2_linear_114_1501" x1="69.2497" y1="263.706" x2="113.431" y2="263.706" gradientUnits="userSpaceOnUse">
<stop stop-color="#00E2EC"/>
<stop offset="1" stop-color="#0090B2"/>
</linearGradient>
<linearGradient id="paint3_linear_114_1501" x1="268.513" y1="588.03" x2="268.513" y2="480.285" gradientUnits="userSpaceOnUse">
<stop stop-color="#6B49C0"/>
<stop offset="1" stop-color="#5E7ED9"/>
</linearGradient>
<linearGradient id="paint4_linear_114_1501" x1="315.194" y1="131.019" x2="320.122" y2="131.019" gradientUnits="userSpaceOnUse">
<stop stop-color="white"/>
<stop offset="1" stop-color="#B0E1FF"/>
</linearGradient>
<linearGradient id="paint5_linear_114_1501" x1="309.682" y1="82.8333" x2="395.414" y2="82.8333" gradientUnits="userSpaceOnUse">
<stop stop-color="white"/>
<stop offset="1" stop-color="#B0E1FF"/>
</linearGradient>
<linearGradient id="paint6_linear_114_1501" x1="309.682" y1="138.963" x2="406.729" y2="138.963" gradientUnits="userSpaceOnUse">
<stop stop-color="white"/>
<stop offset="1" stop-color="#B0E1FF"/>
</linearGradient>
<linearGradient id="paint7_linear_114_1501" x1="309.682" y1="202.287" x2="405.538" y2="202.287" gradientUnits="userSpaceOnUse">
<stop stop-color="white"/>
<stop offset="1" stop-color="#B0E1FF"/>
</linearGradient>
<linearGradient id="paint8_linear_114_1501" x1="60.7668" y1="255.986" x2="113.431" y2="255.986" gradientUnits="userSpaceOnUse">
<stop stop-color="#8C6AE2"/>
<stop offset="1" stop-color="#5A55F8"/>
</linearGradient>
<linearGradient id="paint9_linear_114_1501" x1="85.8677" y1="267.556" x2="102.47" y2="267.556" gradientUnits="userSpaceOnUse">
<stop stop-color="#C07EB0"/>
<stop offset="1" stop-color="#EE5C95"/>
</linearGradient>
<linearGradient id="paint10_linear_114_1501" x1="93.4641" y1="564.92" x2="159.417" y2="564.92" gradientUnits="userSpaceOnUse">
<stop stop-color="#C07EB0"/>
<stop offset="1" stop-color="#EE5C95"/>
</linearGradient>
<linearGradient id="paint11_linear_114_1501" x1="110.9" y1="518.127" x2="141.628" y2="548.874" gradientUnits="userSpaceOnUse">
<stop stop-color="#8173CC"/>
<stop offset="1" stop-color="#271068"/>
</linearGradient>
<linearGradient id="paint12_linear_114_1501" x1="111.971" y1="394.808" x2="127.776" y2="394.808" gradientUnits="userSpaceOnUse">
<stop stop-color="#FDE1A7"/>
<stop offset="1" stop-color="#F9A144"/>
</linearGradient>
<linearGradient id="paint13_linear_114_1501" x1="127.174" y1="506.662" x2="208.94" y2="506.662" gradientUnits="userSpaceOnUse">
<stop stop-color="#00E2EC"/>
<stop offset="1" stop-color="#0090B2"/>
</linearGradient>
<linearGradient id="paint14_linear_114_1501" x1="137.167" y1="518.958" x2="163.235" y2="518.958" gradientUnits="userSpaceOnUse">
<stop stop-color="#FDE1A7"/>
<stop offset="1" stop-color="#F9A144"/>
</linearGradient>
<linearGradient id="paint15_linear_114_1501" x1="80.0357" y1="484.538" x2="117.258" y2="484.538" gradientUnits="userSpaceOnUse">
<stop stop-color="#5A55F8"/>
<stop offset="0.3102" stop-color="#6E5EEF"/>
<stop offset="0.7287" stop-color="#8467E5"/>
<stop offset="1" stop-color="#8C6AE2"/>
</linearGradient>
<linearGradient id="paint16_linear_114_1501" x1="118.301" y1="462.445" x2="156.478" y2="462.445" gradientUnits="userSpaceOnUse">
<stop stop-color="#5A55F8"/>
<stop offset="1" stop-color="#8C6AE2"/>
</linearGradient>
<linearGradient id="paint17_linear_114_1501" x1="89.688" y1="472.635" x2="155.088" y2="472.635" gradientUnits="userSpaceOnUse">
<stop stop-color="#FF57BD"/>
<stop offset="1" stop-color="#FE6A77"/>
</linearGradient>
<linearGradient id="paint18_linear_114_1501" x1="166.59" y1="508.386" x2="182.66" y2="508.386" gradientUnits="userSpaceOnUse">
<stop stop-color="#00E2EC"/>
<stop offset="1" stop-color="#0090B2"/>
</linearGradient>
<linearGradient id="paint19_linear_114_1501" x1="402.193" y1="345.139" x2="402.193" y2="321.611" gradientUnits="userSpaceOnUse">
<stop stop-color="white"/>
<stop offset="1" stop-color="#E9B6F2"/>
</linearGradient>
<linearGradient id="paint20_linear_114_1501" x1="324.014" y1="277.667" x2="475.774" y2="277.667" gradientUnits="userSpaceOnUse">
<stop stop-color="white"/>
<stop offset="1" stop-color="#F1D1F8"/>
</linearGradient>
<linearGradient id="paint21_linear_114_1501" x1="329.981" y1="275.852" x2="467.473" y2="275.852" gradientUnits="userSpaceOnUse">
<stop stop-color="#00E2EC"/>
<stop offset="1" stop-color="#0090B2"/>
</linearGradient>
<linearGradient id="paint22_linear_114_1501" x1="376.256" y1="252.007" x2="459.531" y2="252.007" gradientUnits="userSpaceOnUse">
<stop stop-color="#FDE1A7"/>
<stop offset="1" stop-color="#F9A144"/>
</linearGradient>
<linearGradient id="paint23_linear_114_1501" x1="322.853" y1="275.795" x2="427.134" y2="275.795" gradientUnits="userSpaceOnUse">
<stop stop-color="#7523AF"/>
<stop offset="0.123" stop-color="#6D2EB2"/>
<stop offset="0.3398" stop-color="#594CBA"/>
<stop offset="0.625" stop-color="#387CC7"/>
<stop offset="0.9644" stop-color="#0ABED8"/>
<stop offset="1" stop-color="#05C5DA"/>
</linearGradient>
<linearGradient id="paint24_linear_114_1501" x1="419.271" y1="291.407" x2="419.271" y2="250.975" gradientUnits="userSpaceOnUse">
<stop stop-color="#170389"/>
<stop offset="0.4221" stop-color="#3B0E9F"/>
<stop offset="0.7767" stop-color="#5215AD"/>
<stop offset="1" stop-color="#5A18B2"/>
</linearGradient>
<linearGradient id="paint25_linear_114_1501" x1="309.219" y1="257.265" x2="333.156" y2="257.265" gradientUnits="userSpaceOnUse">
<stop stop-color="#170389"/>
<stop offset="0.0772" stop-color="#1C058C"/>
<stop offset="1" stop-color="#5A18B2"/>
</linearGradient>
<linearGradient id="paint26_linear_114_1501" x1="364.405" y1="285.703" x2="397.311" y2="285.703" gradientUnits="userSpaceOnUse">
<stop stop-color="#170389"/>
<stop offset="0.0772" stop-color="#1C058C"/>
<stop offset="1" stop-color="#5A18B2"/>
</linearGradient>
<linearGradient id="paint27_linear_114_1501" x1="303.904" y1="262.226" x2="322.005" y2="262.226" gradientUnits="userSpaceOnUse">
<stop stop-color="#170389"/>
<stop offset="0.0772" stop-color="#1C058C"/>
<stop offset="1" stop-color="#5A18B2"/>
</linearGradient>
<linearGradient id="paint28_linear_114_1501" x1="311.302" y1="262.111" x2="322.005" y2="262.111" gradientUnits="userSpaceOnUse">
<stop stop-color="#F6E2FB"/>
<stop offset="1" stop-color="#FF9BBB"/>
</linearGradient>
<linearGradient id="paint29_linear_114_1501" x1="315.344" y1="238.747" x2="325.912" y2="238.747" gradientUnits="userSpaceOnUse">
<stop stop-color="#F6E2FB"/>
<stop offset="1" stop-color="#FF9BBB"/>
</linearGradient>
<linearGradient id="paint30_linear_114_1501" x1="312.081" y1="274.375" x2="345.725" y2="274.375" gradientUnits="userSpaceOnUse">
<stop stop-color="#FF9BBB"/>
<stop offset="1" stop-color="#F6E2FB"/>
</linearGradient>
<linearGradient id="paint31_linear_114_1501" x1="421.694" y1="276.991" x2="443.326" y2="298.635" gradientUnits="userSpaceOnUse">
<stop stop-color="#FDE1A7"/>
<stop offset="1" stop-color="#F9A144"/>
</linearGradient>
<linearGradient id="paint32_linear_114_1501" x1="420.786" y1="288.316" x2="442.366" y2="288.316" gradientUnits="userSpaceOnUse">
<stop stop-color="#C91C91"/>
<stop offset="1" stop-color="#FE6A77"/>
</linearGradient>
<linearGradient id="paint33_linear_114_1501" x1="492.896" y1="328.655" x2="511.703" y2="328.655" gradientUnits="userSpaceOnUse">
<stop stop-color="#FF57BD"/>
<stop offset="1" stop-color="#FE6A77"/>
</linearGradient>
<linearGradient id="paint34_linear_114_1501" x1="469.808" y1="330.536" x2="502.916" y2="330.536" gradientUnits="userSpaceOnUse">
<stop stop-color="#C07EB0"/>
<stop offset="1" stop-color="#EE5C95"/>
</linearGradient>
<linearGradient id="paint35_linear_114_1501" x1="479.663" y1="306.439" x2="493.091" y2="319.876" gradientUnits="userSpaceOnUse">
<stop stop-color="#994574"/>
<stop offset="1" stop-color="#43256F"/>
</linearGradient>
<linearGradient id="paint36_linear_114_1501" x1="480.443" y1="294.463" x2="507.752" y2="294.463" gradientUnits="userSpaceOnUse">
<stop stop-color="white"/>
<stop offset="1" stop-color="#FDE1A7"/>
</linearGradient>
<linearGradient id="paint37_linear_114_1501" x1="462.619" y1="281.677" x2="476.494" y2="281.677" gradientUnits="userSpaceOnUse">
<stop stop-color="white"/>
<stop offset="1" stop-color="#FDE1A7"/>
</linearGradient>
<linearGradient id="paint38_linear_114_1501" x1="458.219" y1="297.252" x2="469.646" y2="297.252" gradientUnits="userSpaceOnUse">
<stop stop-color="white"/>
<stop offset="1" stop-color="#FDE1A7"/>
</linearGradient>
<linearGradient id="paint39_linear_114_1501" x1="483.234" y1="371.13" x2="483.234" y2="350.26" gradientUnits="userSpaceOnUse">
<stop stop-color="#FFE2A8"/>
<stop offset="1" stop-color="#A482FF"/>
</linearGradient>
<linearGradient id="paint40_linear_114_1501" x1="344.217" y1="350.175" x2="554.378" y2="350.175" gradientUnits="userSpaceOnUse">
<stop stop-color="#F9A144"/>
<stop offset="1" stop-color="#FDE1A7"/>
</linearGradient>
<linearGradient id="paint41_linear_114_1501" x1="253.517" y1="512.958" x2="253.517" y2="442.458" gradientUnits="userSpaceOnUse">
<stop stop-color="#8173CC"/>
<stop offset="1" stop-color="#271068"/>
</linearGradient>
<linearGradient id="paint42_linear_114_1501" x1="145.162" y1="362.365" x2="212.418" y2="362.365" gradientUnits="userSpaceOnUse">
<stop stop-color="#994574"/>
<stop offset="1" stop-color="#43256F"/>
</linearGradient>
<linearGradient id="paint43_linear_114_1501" x1="144.912" y1="372.056" x2="193.765" y2="372.056" gradientUnits="userSpaceOnUse">
<stop stop-color="#8173CC"/>
<stop offset="1" stop-color="#271068"/>
</linearGradient>
<linearGradient id="paint44_linear_114_1501" x1="205.84" y1="427.28" x2="298.472" y2="427.28" gradientUnits="userSpaceOnUse">
<stop stop-color="#994574"/>
<stop offset="1" stop-color="#43256F"/>
</linearGradient>
<linearGradient id="paint45_linear_114_1501" x1="205.848" y1="434.617" x2="298.471" y2="434.617" gradientUnits="userSpaceOnUse">
<stop stop-color="#8173CC"/>
<stop offset="1" stop-color="#271068"/>
</linearGradient>
<linearGradient id="paint46_linear_114_1501" x1="188.81" y1="531.925" x2="284.588" y2="531.925" gradientUnits="userSpaceOnUse">
<stop stop-color="#271068"/>
<stop offset="1" stop-color="#8173CC"/>
</linearGradient>
<linearGradient id="paint47_linear_114_1501" x1="188.079" y1="554.815" x2="207.795" y2="554.815" gradientUnits="userSpaceOnUse">
<stop stop-color="#994574"/>
<stop offset="1" stop-color="#43256F"/>
</linearGradient>
<linearGradient id="paint48_linear_114_1501" x1="275.086" y1="523.172" x2="290.792" y2="523.172" gradientUnits="userSpaceOnUse">
<stop stop-color="#994574"/>
<stop offset="1" stop-color="#43256F"/>
</linearGradient>
<linearGradient id="paint49_linear_114_1501" x1="216.452" y1="301.236" x2="216.452" y2="259.55" gradientUnits="userSpaceOnUse">
<stop stop-color="#E8878E"/>
<stop offset="0.2186" stop-color="#E58589"/>
<stop offset="0.4692" stop-color="#DE7F7B"/>
<stop offset="0.7347" stop-color="#D27565"/>
<stop offset="1" stop-color="#C16846"/>
</linearGradient>
<linearGradient id="paint50_linear_114_1501" x1="187.038" y1="242.613" x2="238.892" y2="242.613" gradientUnits="userSpaceOnUse">
<stop stop-color="#E8878E"/>
<stop offset="1" stop-color="#F4BEA3"/>
</linearGradient>
<linearGradient id="paint51_linear_114_1501" x1="169.249" y1="227.156" x2="233.303" y2="227.156" gradientUnits="userSpaceOnUse">
<stop stop-color="#994574"/>
<stop offset="1" stop-color="#43256F"/>
</linearGradient>
<linearGradient id="paint52_linear_114_1501" x1="205.661" y1="179.943" x2="205.661" y2="137.971" gradientUnits="userSpaceOnUse">
<stop stop-color="#FDE1A7"/>
<stop offset="1" stop-color="white"/>
</linearGradient>
<linearGradient id="paint53_linear_114_1501" x1="185.018" y1="183.389" x2="185.018" y2="155.437" gradientUnits="userSpaceOnUse">
<stop stop-color="#FDE1A7"/>
<stop offset="1" stop-color="white"/>
</linearGradient>
<linearGradient id="paint54_linear_114_1501" x1="224.358" y1="177.543" x2="224.358" y2="146.383" gradientUnits="userSpaceOnUse">
<stop stop-color="#FDE1A7"/>
<stop offset="1" stop-color="white"/>
</linearGradient>
<linearGradient id="paint55_linear_114_1501" x1="234.841" y1="180.099" x2="234.841" y2="166.362" gradientUnits="userSpaceOnUse">
<stop stop-color="#FDE1A7"/>
<stop offset="1" stop-color="white"/>
</linearGradient>
<linearGradient id="paint56_linear_114_1501" x1="197.162" y1="238.388" x2="234.908" y2="238.388" gradientUnits="userSpaceOnUse">
<stop stop-color="#5A55F8"/>
<stop offset="1" stop-color="#8C6AE2"/>
</linearGradient>
<linearGradient id="paint57_linear_114_1501" x1="220.195" y1="239.666" x2="233.878" y2="239.666" gradientUnits="userSpaceOnUse">
<stop stop-color="#FF57BD"/>
<stop offset="1" stop-color="#FE6A77"/>
</linearGradient>
<linearGradient id="paint58_linear_114_1501" x1="141.178" y1="179.94" x2="166.918" y2="179.94" gradientUnits="userSpaceOnUse">
<stop stop-color="#E8878E"/>
<stop offset="1" stop-color="#F4BEA3"/>
</linearGradient>
<linearGradient id="paint59_linear_114_1501" x1="254.992" y1="175.095" x2="281.251" y2="175.095" gradientUnits="userSpaceOnUse">
<stop stop-color="#E8878E"/>
<stop offset="1" stop-color="#F4BEA3"/>
</linearGradient>
<linearGradient id="paint60_linear_114_1501" x1="141.56" y1="305.859" x2="284.357" y2="305.859" gradientUnits="userSpaceOnUse">
<stop stop-color="#FE6A77"/>
<stop offset="1" stop-color="#C91C91"/>
</linearGradient>
<linearGradient id="paint61_linear_114_1501" x1="277.753" y1="258.91" x2="284.356" y2="258.91" gradientUnits="userSpaceOnUse">
<stop stop-color="#F9A144"/>
<stop offset="1" stop-color="#FDE1A7"/>
</linearGradient>
<linearGradient id="paint62_linear_114_1501" x1="147.35" y1="259.709" x2="155.123" y2="258.338" gradientUnits="userSpaceOnUse">
<stop stop-color="#FDE1A7"/>
<stop offset="1" stop-color="#F9A144"/>
</linearGradient>
<linearGradient id="paint63_linear_114_1501" x1="255.21" y1="430.603" x2="356.685" y2="430.603" gradientUnits="userSpaceOnUse">
<stop stop-color="#00E2EC"/>
<stop offset="0.2998" stop-color="#20B5DF"/>
<stop offset="1" stop-color="#6A4EC2"/>
</linearGradient>
<linearGradient id="paint64_linear_114_1501" x1="345.718" y1="433.828" x2="356.686" y2="433.828" gradientUnits="userSpaceOnUse">
<stop stop-color="#5A18B2"/>
<stop offset="1" stop-color="#7A50C9"/>
</linearGradient>
<linearGradient id="paint65_linear_114_1501" x1="278.165" y1="487.893" x2="318.756" y2="487.893" gradientUnits="userSpaceOnUse">
<stop stop-color="#E8878E"/>
<stop offset="0.2186" stop-color="#E58589"/>
<stop offset="0.4692" stop-color="#DE7F7B"/>
<stop offset="0.7347" stop-color="#D27565"/>
<stop offset="1" stop-color="#C16846"/>
</linearGradient>
<linearGradient id="paint66_linear_114_1501" x1="278.165" y1="489.217" x2="281.875" y2="489.217" gradientUnits="userSpaceOnUse">
<stop stop-color="#F4BEA3"/>
<stop offset="1" stop-color="#E8878E"/>
</linearGradient>
<linearGradient id="paint67_linear_114_1501" x1="280.756" y1="509.024" x2="295.998" y2="509.024" gradientUnits="userSpaceOnUse">
<stop stop-color="#FE6A77"/>
<stop offset="1" stop-color="#C91C91"/>
</linearGradient>
<linearGradient id="paint68_linear_114_1501" x1="274.335" y1="502.882" x2="294.182" y2="502.882" gradientUnits="userSpaceOnUse">
<stop stop-color="#994574"/>
<stop offset="1" stop-color="#43256F"/>
</linearGradient>
<linearGradient id="paint69_linear_114_1501" x1="209.262" y1="380.76" x2="381.22" y2="380.76" gradientUnits="userSpaceOnUse">
<stop stop-color="#05C5DA"/>
<stop offset="0.0356" stop-color="#0ABED8"/>
<stop offset="0.375" stop-color="#387CC7"/>
<stop offset="0.6602" stop-color="#594CBA"/>
<stop offset="0.877" stop-color="#6D2EB2"/>
<stop offset="1" stop-color="#7523AF"/>
</linearGradient>
<linearGradient id="paint70_linear_114_1501" x1="361.909" y1="390.528" x2="424.34" y2="390.528" gradientUnits="userSpaceOnUse">
<stop stop-color="#E8878E"/>
<stop offset="0.2186" stop-color="#E58589"/>
<stop offset="0.4692" stop-color="#DE7F7B"/>
<stop offset="0.7347" stop-color="#D27565"/>
<stop offset="1" stop-color="#C16846"/>
</linearGradient>
<linearGradient id="paint71_linear_114_1501" x1="325.29" y1="351.038" x2="325.29" y2="339.681" gradientUnits="userSpaceOnUse">
<stop stop-color="#170389"/>
<stop offset="0.0772" stop-color="#1C058C"/>
<stop offset="1" stop-color="#5A18B2"/>
</linearGradient>
<linearGradient id="paint72_linear_114_1501" x1="395.889" y1="405.606" x2="396.758" y2="410.542" gradientUnits="userSpaceOnUse">
<stop stop-color="#E8878E"/>
<stop offset="1" stop-color="#F4BEA3"/>
</linearGradient>
<linearGradient id="paint73_linear_114_1501" x1="413.715" y1="398.322" x2="432.231" y2="398.322" gradientUnits="userSpaceOnUse">
<stop stop-color="#FE6A77"/>
<stop offset="1" stop-color="#C91C91"/>
</linearGradient>
<linearGradient id="paint74_linear_114_1501" x1="402.942" y1="404.299" x2="433.1" y2="404.299" gradientUnits="userSpaceOnUse">
<stop stop-color="#43256F"/>
<stop offset="1" stop-color="#994574"/>
</linearGradient>
<linearGradient id="paint75_linear_114_1501" x1="184.701" y1="476.686" x2="237.894" y2="423.46" gradientUnits="userSpaceOnUse">
<stop stop-color="white"/>
<stop offset="1" stop-color="#FDE1A7"/>
</linearGradient>
<linearGradient id="paint76_linear_114_1501" x1="283.621" y1="505.172" x2="314.007" y2="535.577" gradientUnits="userSpaceOnUse">
<stop stop-color="#FDE1A7"/>
<stop offset="1" stop-color="white"/>
</linearGradient>
<linearGradient id="paint77_linear_114_1501" x1="324.805" y1="521.717" x2="348.924" y2="521.717" gradientUnits="userSpaceOnUse">
<stop stop-color="white"/>
<stop offset="1" stop-color="#FDE1A7"/>
</linearGradient>
<linearGradient id="paint78_linear_114_1501" x1="419.464" y1="424.41" x2="456.894" y2="424.41" gradientUnits="userSpaceOnUse">
<stop stop-color="white"/>
<stop offset="1" stop-color="#FDE1A7"/>
</linearGradient>
<linearGradient id="paint79_linear_114_1501" x1="127.701" y1="342.954" x2="154.547" y2="342.954" gradientUnits="userSpaceOnUse">
<stop stop-color="white"/>
<stop offset="0.4533" stop-color="#FEEFD0"/>
<stop offset="0.8021" stop-color="#FDE5B2"/>
<stop offset="1" stop-color="#FDE1A7"/>
</linearGradient>
<linearGradient id="paint80_linear_114_1501" x1="467.857" y1="406.482" x2="474.664" y2="406.482" gradientUnits="userSpaceOnUse">
<stop stop-color="white"/>
<stop offset="1" stop-color="#FDE1A7"/>
</linearGradient>
<linearGradient id="paint81_linear_114_1501" x1="368.967" y1="435.546" x2="377.948" y2="435.546" gradientUnits="userSpaceOnUse">
<stop stop-color="white"/>
<stop offset="1" stop-color="#FDE1A7"/>
</linearGradient>
<linearGradient id="paint82_linear_114_1501" x1="125.56" y1="320.026" x2="146.834" y2="320.026" gradientUnits="userSpaceOnUse">
<stop stop-color="white"/>
<stop offset="1" stop-color="#FDE1A7"/>
</linearGradient>
<linearGradient id="paint83_linear_114_1501" x1="181.981" y1="441.511" x2="205.22" y2="441.511" gradientUnits="userSpaceOnUse">
<stop stop-color="white"/>
<stop offset="1" stop-color="#FDE1A7"/>
</linearGradient>
</defs>
</svg>
