<svg width="584" height="700" viewBox="0 0 584 700" fill="none" xmlns="http://www.w3.org/2000/svg">
<path d="M390.686 80.3701C401.469 90.0596 412.477 109.407 406.251 138.962C400.025 168.518 396.863 185.747 403.397 200.926C416.173 230.611 533.792 281.557 533.106 362.444C532.328 454.222 438.548 458.111 414.422 487.667C396.651 509.438 394.966 568.556 339.71 603.556C291.561 634.053 195.809 638.957 135.417 586.833C92.6134 549.889 94.689 504.778 96.7638 485.852C98.8386 466.926 116.695 409.463 87.7866 367.239C53.4406 317.074 57.4292 278.505 69.2797 237.414C80.5504 198.333 111.191 137.229 187.82 94.3701C272.65 46.9256 362.409 54.9632 390.686 80.3701Z" fill="url(#paint0_linear_45_321)"/>
<path d="M370.84 110.64H342.045V139.415H370.84V110.64Z" fill="#C7A0F6"/>
<path d="M119.464 213.5H77.7858C74.1615 222.063 71.3839 230.122 69.281 237.414C63.3982 257.812 59.4555 277.59 61.1755 298.472H119.464V213.5Z" fill="url(#paint1_linear_45_321)"/>
<path d="M361.23 110.64H351.656V120.206H361.23V110.64Z" fill="#FDE1A7"/>
<path d="M361.23 129.849H351.656V139.416H361.23V129.849Z" fill="#FF57BC"/>
<path d="M351.618 120.244H342.045V129.811H351.618V120.244Z" fill="#FF9BBB"/>
<path d="M370.841 120.244H361.268V129.811H370.841V120.244Z" fill="#1AA9E8"/>
<path d="M384.2 201.833V160.222C384.2 159.793 383.852 159.444 383.422 159.444H378.233C377.803 159.444 377.455 159.793 377.455 160.222V201.833H384.2Z" fill="#05C5DA"/>
<path d="M377.456 201.833V156.333C377.456 153.757 375.365 151.667 372.786 151.667H368.117C365.538 151.667 363.447 153.757 363.447 156.333V201.833H377.456Z" fill="#FDE1A7"/>
<path d="M377.456 161.259H363.447V165.667H377.456V161.259Z" fill="#C7A0F6"/>
<path d="M344.869 201.315H359.083L344.951 147.441C344.624 146.194 343.347 145.448 342.1 145.775L333.318 148.076C332.07 148.402 331.324 149.678 331.651 150.925L344.869 201.315Z" fill="#1AA9E8"/>
<path d="M344.867 201.315L330.202 145.408C330.092 144.993 329.667 144.744 329.251 144.853L320.97 147.023C320.554 147.132 320.305 147.558 320.414 147.973L334.407 201.315H344.867V201.315Z" fill="#FF9BBB"/>
<path d="M348.285 160.162L334.986 163.647L340.545 184.837L353.844 181.353L348.285 160.162Z" fill="#0090B2"/>
<path d="M100.785 242.667C93.0016 245.427 81.5231 246.556 76.2699 257.056C70.6563 268.276 77.4373 273.486 77.8264 280C78.1673 285.704 74.1032 290.231 69.25 292.833H113.432V234.578C110.865 237.34 107.195 240.393 100.785 242.667Z" fill="url(#paint2_linear_45_321)"/>
<path opacity="0.3" d="M305.597 480.408C327.372 481.218 389.324 486.889 384.979 516.185C381.181 541.795 346.78 548.699 314.417 552.482C279.865 556.521 268.694 553.583 246.449 569.593C225.072 584.978 205.85 595.778 173.293 581C148.97 569.959 149.854 541.562 154.291 536.083C166.678 520.787 184.324 522.407 195.084 517.741C203.904 513.917 219.005 495.823 238.667 488.185C258.329 480.548 292.697 479.928 305.597 480.408Z" fill="url(#paint3_linear_45_321)"/>
<path d="M320.124 202.028V60.0693C318.498 60.0304 316.854 60.0125 315.195 60.011V202.028H320.124Z" fill="url(#paint4_linear_45_321)"/>
<path d="M94.4624 235.764C100.105 232.75 89.7928 223.028 99.4238 219.139H75.4924C74.0736 222.767 72.8058 226.291 71.6797 229.683C72.4416 229.355 73.2502 229.123 74.1304 229.056C82.9831 228.375 84.4089 241.134 94.4624 235.764Z" fill="#1AA9E8"/>
<path d="M309.682 85.0368V85.2958H395.414C393.87 83.4447 392.276 81.7989 390.685 80.3701H314.351C311.773 80.3701 309.682 82.46 309.682 85.0368Z" fill="url(#paint5_linear_45_321)"/>
<path d="M309.682 141.167V141.426H405.733C405.903 140.614 406.075 139.795 406.25 138.963C406.425 138.133 406.582 137.314 406.729 136.5H314.351C311.773 136.5 309.682 138.59 309.682 141.167Z" fill="url(#paint6_linear_45_321)"/>
<path d="M309.682 204.491V204.75H405.538C404.658 203.439 403.928 202.162 403.396 200.926C403.239 200.56 403.092 200.192 402.946 199.823H314.351C311.773 199.824 309.682 201.914 309.682 204.491Z" fill="url(#paint7_linear_45_321)"/>
<path d="M77.826 280C77.4369 273.486 70.656 268.276 76.2695 257.056C81.5228 246.556 93.0013 245.427 100.785 242.667C107.195 240.393 110.865 237.34 113.431 234.578V219.139H99.4227C89.7917 223.028 100.104 232.75 94.4613 235.764C84.4078 241.134 82.982 228.375 74.1293 229.056C73.2483 229.123 72.4397 229.355 71.6786 229.683C70.7961 232.342 69.9983 234.923 69.28 237.413C63.9295 255.967 60.183 274.007 60.8429 292.833H69.2497C74.1029 290.231 78.1669 285.704 77.826 280Z" fill="url(#paint8_linear_45_321)"/>
<path d="M94.1708 275.852C98.7557 275.852 102.472 272.138 102.472 267.556C102.472 262.974 98.7557 259.259 94.1708 259.259C89.5859 259.259 85.8691 262.974 85.8691 267.556C85.8691 272.138 89.5859 275.852 94.1708 275.852Z" fill="url(#paint9_linear_45_321)"/>
<path d="M100.201 533.087C105.171 550.441 115.373 569.533 135.418 586.833C139.56 590.408 143.872 593.705 148.32 596.753L159.419 533.087H100.201V533.087Z" fill="url(#paint10_linear_45_321)"/>
<path d="M159.492 534.354C159.492 523.911 144.711 515.449 126.48 515.449C114.443 515.449 103.915 519.137 98.1465 524.648C99.7279 532.484 102.298 540.832 106.33 549.326C111.906 551.79 118.891 553.259 126.48 553.259C144.711 553.26 159.492 544.799 159.492 534.354Z" fill="#FF9BBB"/>
<path d="M153.188 533.492C153.188 525.292 141.136 518.649 126.274 518.649C112.831 518.649 101.692 524.081 99.6836 531.186C100.511 534.284 101.505 537.444 102.685 540.643C107.265 545.228 116.11 548.334 126.274 548.334C141.137 548.334 153.188 541.692 153.188 533.492Z" fill="url(#paint11_linear_45_321)"/>
<path d="M112.283 388.575C111.275 390.735 112.776 392.858 115.608 394.017C118.825 395.333 121.272 395.111 122.365 398.01C123.458 400.909 122.673 404.242 124.598 404.221C126.523 404.201 129.729 396.266 126.175 390.453C122.593 384.589 114.584 383.64 112.283 388.575Z" fill="url(#paint12_linear_45_321)"/>
<path d="M130.747 504.486C132.303 500.208 148.16 477.847 175.983 475.708C201.116 473.776 211.045 485.301 208.573 490.389C206.919 493.792 200.985 492.819 198.553 492.139C196.12 491.458 191.853 489.021 189.019 490.486C186.198 491.944 186.534 495.678 183.668 497.097C178.531 499.642 173.243 495.39 168.882 493.694C163.628 491.653 154.776 489.805 148.452 495.639C140.711 502.781 139.092 508.955 136.67 519.797C134.248 530.64 133.104 536.002 132.595 536.667C131.963 537.493 130.942 538.417 128.218 537.347C125.494 536.278 128.996 522.375 128.704 516.736C128.412 511.097 130.747 504.486 130.747 504.486Z" fill="url(#paint13_linear_45_321)"/>
<path d="M137.167 536.861C137.191 535.864 140.669 529.343 141.35 523.153C142.237 515.086 146.265 506.585 149.911 503.319C154.288 499.399 159.932 497.51 162.363 500.5C164.47 503.093 162.396 507.825 159.931 510.222C156.776 513.291 142.309 521.767 144.819 526.426C146.181 528.954 148.666 525.219 149.814 523.445C151.824 520.334 155.215 517.277 157.337 518.649C159.542 520.074 158.829 524.482 154.029 527.269C149.332 529.996 145.154 532.254 143.134 534.529C141.223 536.68 143.069 536.602 142.031 537.834C140.836 539.252 137.102 539.519 137.167 536.861Z" fill="url(#paint14_linear_45_321)"/>
<path d="M116.738 536.764C118.012 536.007 116.835 529.18 114.403 525.778C111.971 522.375 107.399 520.722 107.399 518.292C107.399 515.861 108.602 513.718 107.204 510.708C105.939 507.986 100.978 509.055 100.783 504.68C100.589 500.305 102.815 494.912 104.516 485.388C106.037 476.875 104.651 473.94 102.437 472.597C99.7132 470.944 99.1295 466.958 101.172 461.319C102.595 457.394 101.787 432.684 93.0981 432.056C85.7046 431.52 82.6577 444.684 82.5916 451.403C82.4943 461.271 86.3047 463.726 84.8291 468.806C83.078 474.833 80.6786 475.676 80.1595 482.319C79.7323 487.793 79.7704 495.25 91.2497 509.25C102.113 522.499 109.266 528.186 111.193 530.93C113.56 534.301 114.5 538.093 116.738 536.764Z" fill="url(#paint15_linear_45_321)"/>
<path d="M126.272 536.278C126.272 531.417 128.412 515.667 123.937 507.305C119.462 498.944 116.933 490.389 119.073 481.055C121.213 471.722 131.72 453.736 130.941 447.514C130.163 441.292 126.953 430.792 132.693 410.472C137.039 395.085 146.903 384.64 153.705 388.889C158.375 391.806 156.235 402.694 153.9 406.778C151.565 410.861 147.508 417.986 148.286 422.07C149.065 426.153 151.626 426.597 151.409 432.14C150.982 443.042 135.709 459.764 132.11 474.639C129.123 486.981 128.024 501.861 131.137 502.444C134.25 503.028 130.926 532.309 129.474 535.315C128.023 538.32 126.272 536.278 126.272 536.278Z" fill="url(#paint16_linear_45_321)"/>
<path d="M116.867 406.131C119.785 408.074 120.11 412.741 118.942 415.982C117.775 419.223 116.7 420.718 116.997 422.853C117.321 425.185 121.796 425.963 123.223 430.76C124.649 435.556 122.315 445.148 119.851 452.019C117.387 458.89 118.035 463.945 120.499 464.334C122.963 464.723 125.168 461.352 125.947 457.204C126.725 453.056 126.353 434.785 137.361 438.019C141.772 439.315 141.447 446.768 138.659 452.019C136.508 456.067 129.255 464.917 125.558 476.908C122.139 488 119.448 496.802 126.207 498.167C131.979 499.333 135.157 492.852 135.935 488.704C136.713 484.556 139.357 470.287 152.148 472.76C158.18 473.926 154.413 488.563 145.533 496.223C139.478 501.446 131.788 507.95 129.579 516.963C127.179 526.75 130.616 536.797 129.19 538.741C127.763 540.685 122.185 539.52 122.315 538.223C122.445 536.926 123.872 534.333 121.148 532.13C118.424 529.926 112.089 526.878 107.788 523.834C103.486 520.79 103.896 516.056 106.101 514.371C108.306 512.685 110.852 514.807 111.808 515.926C113.689 518.13 118.034 531.515 123.223 527.982C126.525 525.733 121.236 514.72 117.516 509.704C111.938 502.185 99.4214 499.333 92.3525 489.871C87.3693 483.201 90.2971 475.72 93.6498 474.445C98.2548 472.694 102.475 476.863 103.395 481.073C104.627 486.71 107.112 495.67 113.755 490.649C121.472 484.815 109.853 473.828 104.156 467.576C93.5852 455.973 88.5265 437.76 97.6711 434.909C101.742 433.64 105.129 439.315 106.102 445.798C107.219 453.237 112.693 477.042 117.517 474.316C120.5 472.63 113.884 466.928 113.625 462.131C113.366 457.335 114.014 450.464 111.68 444.372C109.345 438.279 103.214 422.156 106.491 412.613C109.473 403.926 115.568 405.266 116.867 406.131Z" fill="url(#paint17_linear_45_321)"/>
<path d="M181.187 502.688C183.863 503.952 182.938 507.987 178.04 511.569C173.406 514.958 166.759 515.091 166.595 513.311C166.432 511.531 170.162 511.424 173.21 508.521C176.259 505.617 177.625 501.005 181.187 502.688Z" fill="url(#paint18_linear_45_321)"/>
<path d="M471.608 232.18L467.99 232.192V323.296H474.216C476.795 323.296 478.886 321.207 478.886 318.629V238.486C478.886 235.278 476.876 232.18 471.608 232.18Z" fill="#9180E6"/>
<path d="M411.308 345.139C422.01 335.612 416.367 323.297 414.811 321.611H390.197C391.754 323.297 397.396 335.612 386.695 345.139H411.308Z" fill="url(#paint19_linear_45_321)"/>
<path d="M412.267 346.534L410.273 343.978C413.931 340.721 415.896 336.814 416.113 332.367C416.359 327.344 414.254 323.303 413.667 322.667L415.954 320.557C417.23 321.938 419.499 326.865 419.222 332.519C418.967 337.756 416.512 342.756 412.267 346.534Z" fill="#9180E6"/>
<path d="M412.249 346.512C412.249 346.512 411.649 344.069 411.089 343.188H368.734C366.156 343.188 364.064 345.278 364.064 347.855V348.114H412.249V346.512Z" fill="#9180E6"/>
<path d="M324.014 318.63C324.014 321.208 326.105 323.297 328.683 323.297H471.104C473.683 323.297 475.774 321.208 475.774 318.63V236.704C475.774 234.127 473.683 232.037 471.104 232.037L328.683 237.87C326.105 237.87 324.014 239.96 324.014 242.537V318.63Z" fill="url(#paint20_linear_45_321)"/>
<path d="M329.98 311.889L467.473 309.556V239.815L329.98 245.648V311.889Z" fill="url(#paint21_linear_45_321)"/>
<path d="M459.53 251.291C459.586 252.817 458.238 254.106 456.521 254.169L379.534 257.098C377.816 257.162 376.377 255.975 376.321 254.449L376.258 252.722C376.202 251.196 377.549 249.907 379.267 249.843L456.253 246.914C457.971 246.851 459.41 248.037 459.466 249.563L459.53 251.291Z" fill="url(#paint22_linear_45_321)"/>
<path d="M435.63 296.528C435.63 297.386 434.932 298.083 434.073 298.083L365.781 299.25C364.922 299.25 364.225 298.553 364.225 297.694V266.972C364.225 266.114 364.922 265.417 365.781 265.417L434.073 264.25C434.932 264.25 435.63 264.947 435.63 265.806V296.528Z" fill="#FF9BBB"/>
<path d="M342.179 258.018C344.185 258.018 345.811 256.393 345.811 254.389C345.811 252.384 344.185 250.759 342.179 250.759C340.173 250.759 338.547 252.384 338.547 254.389C338.547 256.393 340.173 258.018 342.179 258.018Z" fill="#FBBB6C"/>
<path d="M354.396 257.746C356.402 257.746 358.028 256.121 358.028 254.116C358.028 252.112 356.402 250.487 354.396 250.487C352.39 250.487 350.764 252.112 350.764 254.116C350.764 256.121 352.39 257.746 354.396 257.746Z" fill="#5265F9"/>
<path d="M366.611 257.474C368.617 257.474 370.243 255.849 370.243 253.844C370.243 251.84 368.617 250.214 366.611 250.214C364.605 250.214 362.979 251.84 362.979 253.844C362.979 255.849 364.605 257.474 366.611 257.474Z" fill="#EA4D81"/>
<path d="M426.937 273.352C416.173 273.195 378.233 274.167 365.392 272.611C352.551 271.056 337.78 265.567 332.511 261.139C332.119 260.81 331.791 260.494 331.504 260.184C332.446 263.538 333.776 266.583 332.835 271.445C332.088 275.312 328.188 280.824 322.854 283.138C325.138 284.195 327.566 285.224 329.982 286.092C339.71 289.592 359.172 291.407 372.137 291.407C385.102 291.407 427.134 291.407 427.134 291.407L426.937 273.352Z" fill="url(#paint23_linear_45_321)"/>
<path d="M426.937 273.352C423.723 273.305 418.076 273.359 411.408 273.416C413.06 274.847 417.633 282.106 411.893 291.408C420.601 291.408 427.134 291.408 427.134 291.408L426.937 273.352Z" fill="url(#paint24_linear_45_321)"/>
<path d="M332.835 271.444C333.775 266.583 332.446 263.537 331.503 260.184C329.698 258.233 329.647 256.495 327.549 252.972C325.355 249.288 324.203 246.075 324.014 244.028C323.625 239.815 326.209 236.416 325.884 233.694C325.575 231.1 318.79 230.097 316.556 233.917C314.546 237.352 315.573 242.487 315.875 244.319C316.297 246.88 315.972 247.917 315.972 247.917C315.972 247.917 309.552 255.986 309.26 262.5C308.968 269.014 310.33 276.5 310.33 276.5C310.33 276.5 315.936 279.942 322.853 283.138C328.187 280.824 332.087 275.312 332.835 271.444Z" fill="url(#paint25_linear_45_321)"/>
<path d="M397.312 291.408C394.795 284.742 388.356 280 380.805 280C373.359 280 366.994 284.614 364.406 291.134C367.785 291.315 371.022 291.408 373.931 291.408C378.841 291.408 387.924 291.408 397.312 291.408Z" fill="url(#paint26_linear_45_321)"/>
<path d="M397.312 291.991C397.076 291.991 396.854 291.847 396.766 291.614C394.274 285.017 387.861 280.583 380.805 280.583C373.768 280.583 367.544 284.809 364.949 291.349C364.83 291.649 364.492 291.794 364.191 291.677C363.891 291.558 363.745 291.219 363.863 290.919C366.636 283.932 373.286 279.417 380.805 279.417C388.343 279.417 395.196 284.153 397.858 291.202C397.972 291.503 397.819 291.839 397.517 291.953C397.45 291.979 397.38 291.991 397.312 291.991Z" fill="#AD7CF7"/>
<path d="M385.018 291.991C384.767 291.991 384.536 291.829 384.459 291.577C383.928 289.831 382.345 288.658 380.519 288.658C378.692 288.658 377.109 289.831 376.578 291.577C376.484 291.885 376.156 292.058 375.85 291.966C375.542 291.872 375.367 291.546 375.461 291.238C376.142 288.997 378.174 287.492 380.518 287.492C382.862 287.492 384.894 288.997 385.575 291.238C385.668 291.546 385.494 291.872 385.186 291.966C385.131 291.982 385.074 291.991 385.018 291.991Z" fill="#AD7CF7"/>
<path d="M305.174 258.952C304.785 258.174 302.985 252.73 306.682 249.958C310.193 247.327 314.672 246.913 317.14 248.694C319.011 250.045 321.935 252.576 322.005 256.181C322.054 258.708 320.107 260.944 320.107 260.944C320.107 260.944 321.907 262.889 321.81 265.319C321.693 268.235 319.767 269.986 319.767 269.986C319.767 269.986 320.789 275.188 317.87 276.306C315.508 277.21 313.735 275.77 312.178 275.819C310.813 275.862 310.888 276.835 310.888 276.835C310.888 276.835 307.646 277.021 306.633 275.333C305.319 273.145 306.341 269.889 306.341 269.889C306.341 269.889 304.017 266.679 303.909 263.278C303.812 260.216 305.174 258.952 305.174 258.952Z" fill="url(#paint27_linear_45_321)"/>
<path d="M317.87 276.306C320.788 275.187 319.767 269.986 319.767 269.986C319.767 269.986 321.693 268.235 321.81 265.319C321.907 262.889 320.107 260.944 320.107 260.944C320.107 260.944 322.053 258.708 322.005 256.181C321.935 252.576 319.011 250.045 317.14 248.694C316.141 247.973 314.81 247.618 313.35 247.618C314.419 248.894 315.486 251.37 314.952 253.701C314.224 256.873 311.498 257.284 311.498 257.284C311.498 257.284 313.736 259.097 313.541 262.403C313.346 265.708 311.303 267.037 311.303 267.037C311.303 267.037 314.027 268.625 313.736 271.444C313.444 274.264 311.386 276.005 311.386 276.005V276.006C311.573 275.904 311.826 275.83 312.179 275.819C313.735 275.771 315.507 277.21 317.87 276.306Z" fill="url(#paint28_linear_45_321)"/>
<path d="M324.012 243.978C323.648 239.788 326.208 236.406 325.885 233.694C325.576 231.1 318.791 230.098 316.556 233.917C314.562 237.326 315.557 242.401 315.867 244.272C317.126 245.244 318.985 246.054 320.707 246.103C321.993 246.139 323.228 244.942 324.012 243.978Z" fill="url(#paint29_linear_45_321)"/>
<path d="M345.628 277.738C346.12 273.182 344.643 268.999 343.226 266.867C338.556 265.014 334.706 262.985 332.509 261.139C332.117 260.81 331.789 260.494 331.502 260.184C332.444 263.538 333.774 266.583 332.833 271.445C332.086 275.312 328.186 280.824 322.852 283.138C325.137 284.195 327.564 285.224 329.98 286.092C332.621 287.043 335.982 287.867 339.733 288.567C340.734 287.651 345.013 283.432 345.628 277.738Z" fill="url(#paint30_linear_45_321)"/>
<path d="M411.891 291.991C411.786 291.991 411.681 291.963 411.585 291.904C411.31 291.735 411.225 291.376 411.394 291.101C416.988 282.036 412.448 275.09 411.024 273.857C410.78 273.646 410.754 273.278 410.965 273.034C411.177 272.791 411.546 272.764 411.789 272.975C413.362 274.338 418.411 281.954 412.389 291.713C412.278 291.892 412.087 291.991 411.891 291.991Z" fill="#AD7CF7"/>
<path d="M320.545 261.601C320.377 261.601 320.21 261.529 320.095 261.389C318.768 259.784 314.382 257.995 312.434 257.765C310.673 257.56 308.383 258.12 305.418 259.482C305.125 259.616 304.779 259.489 304.643 259.196C304.509 258.904 304.637 258.557 304.93 258.422C308.095 256.967 310.591 256.373 312.571 256.607C314.795 256.869 319.454 258.784 320.994 260.647C321.199 260.895 321.164 261.263 320.915 261.468C320.808 261.557 320.676 261.601 320.545 261.601Z" fill="#AD7CF7"/>
<path d="M320.033 270.885C319.795 270.885 319.572 270.739 319.485 270.503C319.072 269.379 315.732 267.682 312.884 267.489C309.955 267.295 306.73 270.472 306.698 270.504C306.471 270.732 306.101 270.733 305.872 270.505C305.644 270.277 305.644 269.908 305.872 269.68C306.019 269.533 309.504 266.089 312.963 266.325C315.856 266.521 319.9 268.249 320.581 270.1C320.693 270.403 320.537 270.738 320.235 270.849C320.169 270.874 320.1 270.885 320.033 270.885Z" fill="#AD7CF7"/>
<path d="M330.951 287.009C330.74 287.009 330.536 286.894 330.433 286.694C330.285 286.408 330.396 286.056 330.682 285.907C330.741 285.876 336.7 282.707 338.46 275.487C339.446 271.444 338.603 267.176 337.33 264.74C337.181 264.455 337.291 264.102 337.577 263.953C337.863 263.804 338.215 263.915 338.365 264.2C339.638 266.637 340.724 271.128 339.594 275.764C337.705 283.516 331.482 286.808 331.218 286.944C331.132 286.988 331.04 287.009 330.951 287.009Z" fill="#AD7CF7"/>
<path d="M432.516 303.102C440.969 303.102 447.821 296.253 447.821 287.806C447.821 279.358 440.969 272.51 432.516 272.51C424.063 272.51 417.211 279.358 417.211 287.806C417.211 296.253 424.063 303.102 432.516 303.102Z" fill="url(#paint31_linear_45_321)"/>
<path d="M441.521 279.487C440.625 278.864 439.393 279.085 438.768 279.981L431.466 290.471L423.367 283.534C422.802 283.05 421.956 283.025 421.36 283.511C420.693 284.057 420.594 285.041 421.14 285.709L430.001 296.536C430.205 296.783 430.463 297.005 430.76 297.169C432.026 297.869 433.619 297.411 434.32 296.147L434.368 296.061L442.123 282.067C442.603 281.193 442.359 280.071 441.521 279.487Z" fill="url(#paint32_linear_45_321)"/>
<path d="M502.3 320.358C497.107 320.358 492.896 324.071 492.896 328.655C492.896 333.238 497.107 336.951 502.3 336.951C507.493 336.951 511.704 333.238 511.704 328.655C511.704 324.071 507.493 320.358 502.3 320.358ZM501.765 332.285C499.759 332.285 498.133 330.66 498.133 328.655C498.133 326.65 499.759 325.025 501.765 325.025C503.77 325.025 505.397 326.65 505.397 328.655C505.397 330.66 503.771 332.285 501.765 332.285Z" fill="url(#paint33_linear_45_321)"/>
<path d="M497.08 347.278H475.646L469.809 313.794H502.917L497.08 347.278Z" fill="url(#paint34_linear_45_321)"/>
<path d="M486.382 322.648C495.535 322.648 502.955 318.684 502.955 313.794C502.955 308.904 495.535 304.939 486.382 304.939C477.229 304.939 469.809 308.904 469.809 313.794C469.809 318.684 477.229 322.648 486.382 322.648Z" fill="#FF9BBB"/>
<path d="M486.381 318.759C493.122 318.759 498.587 316.249 498.587 313.153C498.587 310.057 493.122 307.547 486.381 307.547C479.64 307.547 474.176 310.057 474.176 313.153C474.176 316.249 479.64 318.759 486.381 318.759Z" fill="url(#paint35_linear_45_321)"/>
<path d="M490.108 311.954C490.14 310.787 486.475 310.204 487.319 306.898C488.163 303.592 491.989 301.518 497.502 300.222C501.988 299.168 507.572 297.562 507.748 292.898C507.878 289.463 504.765 288.879 502.82 288.49C500.874 288.101 498.604 286.935 499.187 284.926C499.771 282.917 501.984 279.278 499.066 277.205C495.372 274.58 484.66 274.815 481.677 281.879C478.694 288.944 485.697 290.046 487.124 290.435C488.552 290.824 491.623 291.644 490.303 294.454C488.811 297.629 480.558 301.454 480.445 306.833C480.315 312.958 490.03 314.796 490.108 311.954Z" fill="url(#paint36_linear_45_321)"/>
<path d="M469.549 272.028C471.916 272.32 472.921 274.717 472.402 277.731C471.813 281.155 470.328 283.111 472.208 285.574C474.088 288.036 477.332 289.138 476.294 290.759C475.255 292.38 466.825 290.889 463.776 284.796C460.701 278.651 464.142 271.362 469.549 272.028Z" fill="url(#paint37_linear_45_321)"/>
<path d="M462.106 293.611C463.735 294.413 465.048 297.208 466.775 297.549C467.984 297.787 469.673 297.938 469.646 299.348C469.621 300.588 467.456 301.293 463.882 301.025C460.419 300.766 457.321 297.829 458.458 295.094C459.236 293.222 461.392 293.26 462.106 293.611Z" fill="url(#paint38_linear_45_321)"/>
<path d="M532.294 350.259H433.359V359.462C433.359 365.906 438.586 371.129 445.033 371.129H532.734C532.951 368.323 533.08 365.433 533.105 362.444C533.14 358.304 532.85 354.245 532.294 350.259Z" fill="url(#paint39_linear_45_321)"/>
<path d="M473.181 366.074C475.187 366.074 476.813 364.449 476.813 362.444C476.813 360.44 475.187 358.815 473.181 358.815C471.175 358.815 469.549 360.44 469.549 362.444C469.549 364.449 471.175 366.074 473.181 366.074Z" fill="#5265F9"/>
<path d="M511.834 371.713C511.511 371.713 511.25 371.452 511.25 371.13V353.85C511.25 353.528 511.511 353.267 511.834 353.267C512.156 353.267 512.417 353.528 512.417 353.85V371.13C512.417 371.452 512.156 371.713 511.834 371.713Z" fill="#FFA2BA"/>
<path d="M344.217 346.5V353.851H532.715C532.479 351.371 532.133 348.921 531.685 346.5H344.217Z" fill="url(#paint40_linear_45_321)"/>
<path d="M247.387 442.458C247.559 450.334 247.225 503.999 246.576 511.648C249.05 514.739 253.451 511.389 253.451 511.389C253.451 511.389 257.017 496.805 258.639 477.037C260.042 459.934 260.455 442.944 260.455 442.944L247.387 442.458Z" fill="url(#paint41_linear_45_321)"/>
<path d="M249.912 479.494C248.577 479.494 247.517 479.404 247.067 479.278C246.654 479.162 246.413 478.732 246.529 478.318C246.646 477.905 247.077 477.665 247.49 477.781C248.657 478.112 255.742 478.073 258.202 476.395C258.558 476.155 259.042 476.245 259.284 476.6C259.527 476.954 259.435 477.438 259.08 477.681C257.044 479.068 252.824 479.494 249.912 479.494Z" fill="#7B7BEF"/>
<path d="M180.555 325.111C173.139 326.116 148.17 334.336 145.169 351.447C145.073 351.993 146.04 353.351 146.215 353.889C152.246 372.458 179.485 397.444 189.894 399.194C190.354 399.272 191.007 399.758 191.468 399.579C198.643 396.803 206.114 383.03 212.269 378.583C214.945 376.651 180.555 325.111 180.555 325.111Z" fill="url(#paint42_linear_45_321)"/>
<path d="M148.051 344.058C146.37 346.767 145.244 349.778 144.95 353.111C143.588 368.537 179.31 401.905 190.089 399.972C191.305 399.754 192.533 399.175 193.765 398.341C171.484 389.637 151.259 357.148 148.051 344.058Z" fill="url(#paint43_linear_45_321)"/>
<path d="M245.345 412.611C252.349 412.597 287.778 413.251 293.791 416.889C298.72 419.871 299.785 424.816 296.846 429.483C293.908 434.149 279.977 442.847 251.96 443.042C223.943 443.236 206.043 437.306 205.848 430.5C205.653 423.694 208.821 413.516 226.083 411.833C236.719 410.797 241.453 412.619 245.345 412.611Z" fill="url(#paint44_linear_45_321)"/>
<path d="M252.545 445.861C280.562 445.667 293.909 434.149 296.848 429.483C298.137 427.436 298.655 425.335 298.415 423.37C290.868 428.629 274.102 433.992 251.768 434.908C229.83 435.807 211.511 432.504 205.85 430.437C205.85 430.457 205.85 430.48 205.85 430.5C206.044 437.306 224.528 446.056 252.545 445.861Z" fill="url(#paint45_linear_45_321)"/>
<path d="M188.809 551.089C190.931 544.963 204.194 522.667 231.53 512.815C257.308 503.526 277.663 511.352 282.938 515.324C288.213 519.297 279.533 526.395 275.103 522.816C270.346 518.973 257.894 515.181 243.502 519.165C224.591 524.4 207.502 540.167 207.39 552.024C194.174 560.13 188.809 551.089 188.809 551.089Z" fill="url(#paint46_linear_45_321)"/>
<path d="M243.308 516.465C226.657 520.813 204.25 532.915 200.773 554.946C202.714 554.458 204.915 553.541 207.39 552.023C207.502 540.167 224.591 524.399 243.502 519.164C257.894 515.181 270.346 518.972 275.103 522.815C276.822 524.204 279.18 523.981 281.115 522.961C272.821 514.113 259.459 512.248 243.308 516.465Z" fill="#665EDB"/>
<path d="M197.936 564.667C203.381 564.667 207.794 560.256 207.794 554.815C207.794 549.373 203.381 544.962 197.936 544.962C192.492 544.962 188.078 549.373 188.078 554.815C188.078 560.256 192.492 564.667 197.936 564.667Z" fill="url(#paint47_linear_45_321)"/>
<path d="M282.939 531.019C287.275 531.019 290.791 527.506 290.791 523.171C290.791 518.837 287.275 515.324 282.939 515.324C278.602 515.324 275.086 518.837 275.086 523.171C275.086 527.506 278.602 531.019 282.939 531.019Z" fill="url(#paint48_linear_45_321)"/>
<path d="M197.935 557.861C196.254 557.861 194.887 556.495 194.887 554.815C194.887 553.135 196.254 551.768 197.935 551.768C199.616 551.768 200.984 553.135 200.984 554.815C200.984 556.495 199.616 557.861 197.935 557.861ZM197.935 552.935C196.898 552.935 196.054 553.778 196.054 554.815C196.054 555.851 196.898 556.694 197.935 556.694C198.973 556.694 199.816 555.851 199.816 554.815C199.816 553.778 198.973 552.935 197.935 552.935Z" fill="#7B7BEF"/>
<path d="M282.939 526.218C281.258 526.218 279.891 524.851 279.891 523.171C279.891 521.491 281.258 520.125 282.939 520.125C284.62 520.125 285.987 521.491 285.987 523.171C285.987 524.851 284.62 526.218 282.939 526.218ZM282.939 521.292C281.902 521.292 281.058 522.135 281.058 523.171C281.058 524.208 281.902 525.051 282.939 525.051C283.976 525.051 284.82 524.208 284.82 523.171C284.82 522.135 283.976 521.292 282.939 521.292Z" fill="#7B7BEF"/>
<path d="M205.157 259.551C205.526 264.51 204.164 285.185 196.965 295.297C199.517 301.049 213.258 301.53 217.913 301.13C228.484 300.222 235.943 294.389 235.943 294.389C235.943 294.389 231.922 273.13 227.382 266C223.871 264.884 219.146 264.38 214.736 262.953C210.325 261.527 205.157 259.551 205.157 259.551Z" fill="url(#paint49_linear_45_321)"/>
<path d="M233.607 235.148C228.023 225.764 219.756 218.782 218.431 217.389C218.431 217.389 194.403 212.847 187.82 231.13C183.993 241.76 195.473 253.556 195.473 253.556C195.473 253.556 196.523 253.955 198.119 254.788C196.951 255.775 196.207 257.248 196.207 258.896C196.207 261.867 198.618 264.276 201.591 264.276C203.865 264.276 205.806 262.864 206.594 260.871C206.685 260.96 206.778 261.042 206.868 261.133C210.778 265.029 225.73 272.91 234.533 264.836C242.168 257.833 238.409 243.219 233.607 235.148Z" fill="url(#paint50_linear_45_321)"/>
<path d="M231.662 195.417C228.742 193.471 222.517 196.972 219.21 200.342C215.902 203.712 211.362 206.24 210.13 204.879C208.898 203.518 212.052 202.09 210.583 200.212C208.962 198.138 200.012 200.731 195.927 207.731C191.841 214.731 188.598 224.129 185.161 225.167C181.723 226.204 182.696 220.824 179.129 220.694C175.563 220.565 171.022 225.167 169.92 228.797C168.282 234.191 169.856 238.065 172.385 238.26C176.938 238.61 179.584 231.584 182.762 233.204C184.933 234.311 183.475 238.972 182.308 242.991C181.14 247.01 182.632 252.389 187.302 256.083C190.795 258.847 194.136 259.425 196.237 259.453C196.218 259.27 196.208 259.083 196.208 258.895C196.208 256.041 198.432 253.713 201.243 253.532C201.584 252.169 201.665 250.742 201.181 249.471C199.624 245.388 188.69 236.477 190.739 231.842C191.971 229.055 195.278 228.989 201.245 228.795C207.212 228.601 210.883 229.109 211.492 226.786C212.206 224.064 206.849 225.062 207.212 223.61C207.796 221.277 217.629 223.133 226.02 214.277C234.126 205.722 234.58 197.361 231.662 195.417Z" fill="url(#paint51_linear_45_321)"/>
<path d="M220.441 253.297C220.441 253.297 224.463 252.972 226.667 252.713C228.872 252.454 234.385 252.065 234.385 252.065C234.385 252.065 232.44 258.158 227.965 258.677C223.49 259.195 220.441 253.297 220.441 253.297Z" fill="white"/>
<path d="M209.537 244.11C209.4 244.11 209.269 244.039 209.197 243.912C208.225 242.185 208.443 240.153 209.741 238.856C210.906 237.69 212.711 237.388 214.34 238.086C214.538 238.171 214.63 238.4 214.545 238.597C214.46 238.794 214.23 238.886 214.034 238.801C212.7 238.229 211.23 238.467 210.291 239.405C209.242 240.453 209.076 242.111 209.875 243.531C209.981 243.718 209.914 243.955 209.727 244.06C209.667 244.095 209.601 244.11 209.537 244.11Z" fill="#212F66"/>
<path d="M224.676 232.458C224.501 232.458 224.343 232.34 224.299 232.164C223.977 230.887 224.247 229.7 225.039 228.909C225.971 227.977 227.47 227.776 228.949 228.386C229.147 228.468 229.242 228.695 229.161 228.894C229.079 229.093 228.852 229.186 228.652 229.105C227.469 228.618 226.295 228.754 225.589 229.459C224.995 230.053 224.799 230.97 225.053 231.975C225.105 232.183 224.979 232.395 224.771 232.447C224.739 232.454 224.708 232.458 224.676 232.458Z" fill="#212F66"/>
<path d="M209.028 140.676C209.19 141.293 209.253 141.692 209.318 142.119C209.383 142.536 209.42 142.937 209.458 143.334C209.523 144.128 209.555 144.907 209.556 145.686C209.554 147.241 209.486 148.786 209.414 150.328C209.263 153.412 208.974 156.49 208.778 159.561C208.527 162.635 208.408 165.7 208.374 168.76C208.362 169.525 208.367 170.29 208.394 171.053C208.404 171.817 208.445 172.579 208.49 173.341C208.533 174.102 208.602 174.864 208.685 175.621C208.771 176.363 208.871 177.168 209.033 177.821C209.261 178.736 208.703 179.664 207.787 179.891C206.871 180.119 205.943 179.562 205.715 178.645C205.675 178.485 205.659 178.324 205.666 178.167L205.667 178.14C205.705 177.27 205.74 176.548 205.747 175.764C205.754 174.995 205.754 174.228 205.728 173.464C205.705 172.699 205.679 171.935 205.623 171.172C205.583 170.409 205.523 169.646 205.445 168.884C205.15 165.837 204.772 162.794 204.251 159.761L202.743 150.676C202.51 149.166 202.273 147.659 202.076 146.164C201.979 145.417 201.908 144.671 201.851 143.943C201.827 143.578 201.799 143.217 201.788 142.874C201.772 142.543 201.76 142.179 201.781 142.046L201.936 141.041C202.243 139.063 204.096 137.707 206.076 138.014C207.545 138.242 208.671 139.325 209.028 140.676Z" fill="url(#paint52_linear_45_321)"/>
<path d="M183.218 157.932C183.339 158.503 183.667 159.504 183.987 160.443L185.037 163.388C185.758 165.385 186.538 167.394 187.179 169.479L188.206 172.587C188.574 173.612 188.968 174.628 189.409 175.617C189.841 176.61 190.299 177.591 190.805 178.531C191.058 179 191.306 179.471 191.58 179.91C191.852 180.339 192.142 180.79 192.41 181.08L192.421 181.092C192.933 181.647 192.899 182.514 192.343 183.027C191.786 183.54 190.919 183.505 190.406 182.949C190.399 182.942 190.389 182.929 190.382 182.922C189.919 182.392 189.586 181.933 189.248 181.451C188.916 180.975 188.589 180.511 188.279 180.038L186.438 177.217C185.838 176.273 185.22 175.34 184.598 174.407C183.964 173.479 183.33 172.549 182.723 171.603C181.476 169.723 180.445 167.731 179.491 165.67C179.016 164.636 178.575 163.58 178.18 162.468C177.982 161.91 177.798 161.338 177.636 160.722C177.551 160.416 177.48 160.095 177.411 159.749C177.376 159.576 177.347 159.396 177.319 159.196L177.275 158.832L177.262 158.625C177.159 156.973 178.416 155.548 180.07 155.445C181.576 155.351 182.892 156.385 183.194 157.817L183.218 157.932Z" fill="url(#paint53_linear_45_321)"/>
<path d="M230.569 149.794L229.948 153.244C229.72 154.411 229.481 155.582 229.218 156.752C228.679 159.09 227.992 161.416 227.049 163.71C226.81 164.282 226.546 164.85 226.254 165.412C226.112 165.692 225.951 165.972 225.796 166.247L225.357 166.988C224.778 167.978 224.179 168.956 223.637 169.951C223.088 170.942 222.571 171.944 222.159 172.947C221.748 173.933 221.432 174.986 221.478 175.753C221.533 176.685 220.822 177.484 219.891 177.54C218.959 177.595 218.158 176.885 218.102 175.954C218.096 175.841 218.1 175.73 218.115 175.623L218.127 175.543C218.346 174.008 218.871 172.88 219.336 171.753C219.823 170.642 220.322 169.581 220.809 168.521L222.259 165.364L222.62 164.58C222.723 164.342 222.828 164.112 222.921 163.868C223.114 163.388 223.286 162.892 223.44 162.384C224.074 160.359 224.395 158.181 224.613 155.99C224.839 153.781 224.858 151.597 224.858 149.261C224.858 147.671 226.148 146.382 227.739 146.382C229.33 146.382 230.619 147.672 230.619 149.262C230.619 149.431 230.604 149.596 230.576 149.756L230.569 149.794Z" fill="url(#paint54_linear_45_321)"/>
<path d="M240.179 169.004C239.51 170.417 238.594 171.352 237.722 172.233C236.839 173.108 235.922 173.883 235.04 174.665C234.16 175.446 233.279 176.204 232.485 176.999C232.091 177.396 231.718 177.802 231.399 178.215C231.086 178.623 230.835 179.061 230.776 179.408L230.761 179.494C230.693 179.89 230.318 180.156 229.921 180.088C229.579 180.03 229.333 179.741 229.317 179.408C229.275 178.561 229.556 177.891 229.83 177.287C230.116 176.684 230.456 176.145 230.809 175.628C231.516 174.598 232.273 173.651 233.03 172.73C233.786 171.811 234.524 170.899 235.21 170.008C235.885 169.117 236.525 168.226 236.841 167.482C237.235 166.549 238.313 166.113 239.246 166.508C240.179 166.903 240.615 167.98 240.22 168.912C240.211 168.933 240.201 168.954 240.192 168.975L240.179 169.004Z" fill="url(#paint55_linear_45_321)"/>
<path d="M233.049 225.262C231.271 222.749 228.536 221.188 225.909 221.188C224.649 221.188 223.468 221.551 222.494 222.239C219.724 224.195 219.199 228.333 221.068 231.944C219.402 232.237 217.975 233.543 217.084 234.696C215.518 232.999 213.284 231.928 210.798 231.928C206.077 231.928 202.237 235.766 202.237 240.483C202.237 242.422 202.893 244.207 203.985 245.642C202.182 247.536 198.655 252.194 197.164 255.506L197.352 255.59C197.984 254.782 198.84 254.162 199.828 253.819C201.487 251.059 203.801 248.121 205.038 246.794C206.561 248.184 208.58 249.039 210.799 249.039C215.52 249.039 219.36 245.201 219.36 240.483C219.36 238.833 218.882 237.296 218.07 235.989C218.782 234.973 220.372 233.252 222.036 233.462C223.814 235.811 226.433 237.267 228.961 237.267C230.221 237.267 231.402 236.903 232.376 236.215C235.47 234.029 235.772 229.115 233.049 225.262ZM210.798 247.483C206.935 247.483 203.793 244.342 203.793 240.483C203.793 236.623 206.936 233.483 210.798 233.483C214.659 233.483 217.802 236.623 217.802 240.483C217.802 244.342 214.66 247.483 210.798 247.483ZM231.477 234.943C230.766 235.445 229.896 235.71 228.96 235.71C226.83 235.71 224.582 234.4 223.092 232.293C220.863 229.14 220.998 225.199 223.392 223.509C224.112 223.001 224.959 222.743 225.908 222.743C228.037 222.743 230.286 224.053 231.776 226.161C234.006 229.312 233.87 233.253 231.477 234.943Z" fill="url(#paint56_linear_45_321)"/>
<path d="M182.35 234.601C182.332 234.601 182.315 234.601 182.297 234.6C181.438 234.572 180.765 233.852 180.794 232.993C180.9 229.829 181.826 225.332 183.137 223.585C183.654 222.898 184.629 222.759 185.316 223.274C186.004 223.789 186.144 224.765 185.628 225.451C184.932 226.378 184.009 229.995 183.905 233.097C183.877 233.939 183.185 234.601 182.35 234.601Z" fill="#FF57BC"/>
<path d="M222.032 233.457C225.491 234.764 233.423 239.819 233.866 242.472C234.191 244.417 228.159 246.426 227.705 245.778C227.25 245.13 225.629 241.63 223.554 238.648C222.01 236.429 220.394 234.856 220.195 233.924C220.511 233.754 221.366 233.317 222.032 233.457Z" fill="url(#paint57_linear_45_321)"/>
<path d="M158.66 214.033C155.761 194.504 157.542 182.442 157.792 178.208C158.181 171.597 162.365 166.088 164.213 161.194C165.734 157.168 167.877 154.583 166.45 153.611C164.341 152.174 160.516 157.176 160.516 157.176C160.516 157.176 161.133 144.148 158.279 144.278C155.847 144.388 157.403 151.958 156.041 152.347C154.679 152.736 152.377 145.25 150.302 145.542C149.178 145.7 149.004 148.426 149.004 148.426C149.004 148.426 148.401 147.919 147.772 148.458C146.864 149.236 147.66 153.824 146.897 155.653C146.576 155.2 146.332 154.871 145.859 154.972C142.211 155.75 142.844 174.647 142.293 178.889C141.408 185.683 140.72 199.15 141.562 215.341C145.017 215.729 151.444 215.953 158.66 214.033Z" fill="url(#paint58_linear_45_321)"/>
<path d="M281.252 202.623C280.51 195.493 279.897 190.134 279.784 188.351C279.395 182.259 279.135 177.203 278.486 171.499C277.837 165.795 275.633 159.574 275.243 157.499C274.854 155.425 275.579 152.601 274.579 150.256C273.736 148.279 272.714 149.073 272.714 149.073C272.714 149.073 272.646 146.255 271.417 146.351C269.957 146.464 268.012 155.409 267.006 155.554C266.429 155.638 267.136 145.346 265.385 145.151C264.128 145.011 263.196 146.756 261.98 152.395C260.931 157.26 262.473 165.86 261.689 165.86C260.813 165.86 260.327 161.971 259.451 159.444C258.575 156.916 257.554 154.436 256.241 154.583C254.935 154.728 254.714 157.806 255.297 162.181C255.761 165.655 261.299 183.166 263.634 191.138C264.544 194.245 265.128 199.187 265.422 204.794C268.656 205.252 274.49 205.363 281.252 202.623Z" fill="url(#paint59_linear_45_321)"/>
<path d="M146.786 155.151C147.119 155.612 147.352 156.167 147.461 156.745C147.515 157.034 147.545 157.33 147.546 157.628C147.546 157.931 147.53 158.212 147.462 158.542C147.417 158.752 147.21 158.888 146.998 158.844C146.788 158.8 146.651 158.593 146.696 158.381C146.7 158.359 146.707 158.336 146.716 158.315L146.72 158.306C146.804 158.101 146.873 157.83 146.916 157.579C146.96 157.323 146.981 157.061 146.977 156.797C146.97 156.27 146.855 155.742 146.617 155.248C146.594 155.199 146.614 155.141 146.662 155.118C146.706 155.097 146.76 155.114 146.786 155.151Z" fill="#C66C50"/>
<path d="M149.132 147.519C149.02 148.548 149.158 149.584 149.34 150.604C149.434 151.115 149.545 151.624 149.662 152.133C149.778 152.646 149.909 153.145 150.007 153.693C150.045 153.904 149.904 154.107 149.693 154.145C149.481 154.183 149.279 154.042 149.241 153.83C149.238 153.819 149.237 153.808 149.236 153.797L149.235 153.79C149.192 153.298 149.104 152.77 149.034 152.25C148.96 151.728 148.893 151.202 148.844 150.674C148.75 149.62 148.702 148.539 148.91 147.488C148.921 147.427 148.979 147.387 149.041 147.398C149.098 147.407 149.137 147.461 149.132 147.519Z" fill="#C66C50"/>
<path d="M156.69 150.211C156.71 151.121 156.658 152.029 156.591 152.935C156.556 153.389 156.514 153.841 156.465 154.294C156.413 154.751 156.366 155.192 156.272 155.671C156.231 155.882 156.026 156.021 155.815 155.979C155.605 155.938 155.466 155.734 155.507 155.523C155.51 155.508 155.513 155.494 155.518 155.48L155.521 155.471C155.647 155.074 155.749 154.625 155.848 154.191C155.946 153.753 156.037 153.313 156.123 152.872C156.29 151.989 156.441 151.1 156.523 150.204C156.527 150.158 156.568 150.124 156.615 150.128C156.657 150.133 156.689 150.169 156.69 150.211Z" fill="#C66C50"/>
<path d="M161.674 155.776C160.986 156.493 160.548 157.431 160.071 158.318L158.694 161.039C158.224 161.944 157.736 162.843 157.164 163.708C156.579 164.556 155.964 165.434 154.953 166.014C154.767 166.122 154.528 166.057 154.421 165.871C154.314 165.684 154.378 165.447 154.565 165.339C154.571 165.335 154.579 165.332 154.585 165.328L154.6 165.321C155.396 164.929 156.063 164.138 156.653 163.351C157.245 162.549 157.772 161.686 158.284 160.813L159.795 158.168C160.321 157.3 160.801 156.382 161.563 155.661C161.596 155.63 161.646 155.632 161.676 155.664C161.706 155.695 161.705 155.743 161.676 155.773L161.674 155.776Z" fill="#C66C50"/>
<path d="M261.217 164.593C261.423 165.237 261.851 165.772 262.328 166.262C262.809 166.749 263.343 167.19 263.893 167.62C264.441 168.051 265.007 168.465 265.56 168.922C265.835 169.152 266.109 169.39 266.366 169.67C266.612 169.955 266.888 170.267 266.973 170.779C267.008 170.991 266.865 171.192 266.652 171.227C266.44 171.262 266.239 171.119 266.204 170.907C266.203 170.893 266.201 170.879 266.2 170.866V170.86C266.188 170.666 266.023 170.388 265.821 170.144C265.617 169.895 265.371 169.657 265.12 169.425C264.614 168.96 264.069 168.514 263.538 168.049C263.005 167.585 262.478 167.104 262 166.566C261.53 166.031 261.086 165.412 260.897 164.698L260.894 164.687C260.871 164.597 260.924 164.505 261.014 164.481C261.101 164.459 261.19 164.509 261.217 164.593Z" fill="#C66C50"/>
<path d="M272.945 148.591C273.015 149.231 273.008 149.859 273.011 150.489C273.008 151.119 272.994 151.748 272.976 152.376C272.933 153.636 272.886 154.883 272.778 156.156C272.76 156.37 272.571 156.529 272.357 156.511C272.143 156.493 271.983 156.304 272.001 156.09C272.002 156.082 272.003 156.074 272.004 156.067L272.005 156.057C272.188 154.839 272.318 153.584 272.44 152.343C272.499 151.72 272.553 151.097 272.596 150.474C272.634 149.853 272.68 149.225 272.652 148.615C272.647 148.534 272.71 148.465 272.791 148.459C272.868 148.455 272.935 148.514 272.945 148.591Z" fill="#C66C50"/>
<path d="M258.382 359.722C256.631 345.139 257.73 325.272 263.636 309.944C267.981 298.667 280.822 278.574 283.676 259.972C285.594 247.466 283.045 219.863 281.252 202.623C274.491 205.362 268.656 205.252 265.423 204.794C265.884 213.574 265.634 223.989 264.803 231.583C263.441 244.028 255.269 267.75 244.957 280.972C234.645 294.194 225.112 295.361 217.135 295.361C205.364 295.361 183.378 293.222 169.077 253.944C163.387 238.316 160.289 225.001 158.66 214.033C151.444 215.953 145.018 215.73 141.561 215.341C142.26 228.805 144.017 244.151 147.609 259.13C152.145 278.042 160.45 297.5 168.233 312.149C175.256 325.367 178.917 348.125 186.392 367.112C191.151 379.199 197.556 397.093 209.263 409.096C210.457 391.869 232.961 374.629 258.382 359.722Z" fill="url(#paint60_linear_45_321)"/>
<path d="M145.94 239.91C145.192 239.91 144.469 239.868 143.778 239.782C143.458 239.742 143.23 239.451 143.27 239.132C143.31 238.812 143.604 238.584 143.921 238.624C149.116 239.269 156.23 237.297 162.492 233.481C162.767 233.313 163.126 233.4 163.294 233.675C163.462 233.951 163.375 234.309 163.099 234.477C157.447 237.923 151.086 239.91 145.94 239.91Z" fill="#FFA2BA"/>
<path d="M150.78 271.183C150.499 271.183 150.252 270.979 150.205 270.694C150.153 270.376 150.369 270.076 150.687 270.024C154.176 269.457 166.843 262.173 170.263 257.851C170.463 257.598 170.83 257.556 171.083 257.756C171.336 257.955 171.379 258.323 171.179 258.575C167.552 263.158 154.597 270.571 150.875 271.176C150.842 271.181 150.811 271.183 150.78 271.183Z" fill="#FFA2BA"/>
<path d="M159.325 294.141C159.041 294.141 158.792 293.933 158.749 293.644C158.701 293.325 158.921 293.028 159.24 292.98C162.922 292.43 178.175 281.191 180.453 276.733C180.599 276.446 180.951 276.332 181.238 276.479C181.525 276.625 181.639 276.977 181.492 277.264C179.049 282.046 163.368 293.544 159.412 294.135C159.383 294.138 159.354 294.141 159.325 294.141Z" fill="#FFA2BA"/>
<path d="M168.233 312.731C167.966 312.731 167.724 312.546 167.664 312.275C167.594 311.96 167.793 311.649 168.107 311.579C171.404 310.847 191.575 297.005 195.115 290.049C195.261 289.761 195.612 289.647 195.9 289.793C196.187 289.939 196.302 290.29 196.156 290.577C192.475 297.808 172.066 311.894 168.361 312.716C168.317 312.727 168.275 312.731 168.233 312.731Z" fill="#FFA2BA"/>
<path d="M273.534 232.313C269.95 232.313 266.517 231.934 264.714 231.405C264.405 231.314 264.228 230.99 264.319 230.681C264.41 230.372 264.735 230.196 265.043 230.286C268.726 231.368 279.318 231.727 283.402 229.602C283.686 229.454 284.041 229.565 284.188 229.85C284.337 230.136 284.227 230.488 283.94 230.637C281.598 231.855 277.474 232.313 273.534 232.313Z" fill="#FFA2BA"/>
<path d="M279.745 256.813C272.087 256.813 262.113 253.477 259.55 252.186C259.262 252.04 259.146 251.69 259.291 251.403C259.436 251.115 259.789 251 260.075 251.144C262.915 252.575 275.09 256.59 282.61 255.45C282.927 255.404 283.227 255.621 283.275 255.939C283.323 256.258 283.104 256.555 282.786 256.604C281.835 256.748 280.812 256.813 279.745 256.813Z" fill="#FFA2BA"/>
<path d="M277.288 281.423C277.285 281.423 277.282 281.423 277.278 281.423C264.509 281.221 254.444 272.102 252.222 268.802C252.043 268.535 252.113 268.172 252.38 267.993C252.647 267.813 253.012 267.884 253.191 268.151C255.321 271.315 264.993 280.061 277.296 280.256C277.619 280.261 277.876 280.527 277.871 280.849C277.867 281.167 277.606 281.423 277.288 281.423Z" fill="#FFA2BA"/>
<path d="M265.112 307.032C265.093 307.032 265.074 307.032 265.056 307.03C253.954 305.967 238.223 293.419 236.513 289.279C236.39 288.981 236.532 288.64 236.83 288.517C237.129 288.395 237.469 288.537 237.592 288.834C239.185 292.692 254.655 304.862 265.166 305.869C265.488 305.9 265.723 306.185 265.691 306.505C265.663 306.807 265.409 307.032 265.112 307.032Z" fill="#FFA2BA"/>
<path d="M200.889 316.388C184.903 316.388 172.029 315.555 169.052 314.671C168.743 314.579 168.567 314.254 168.659 313.945C168.752 313.637 169.078 313.462 169.385 313.552C176.153 315.559 234.604 317.294 263.481 309.381C263.794 309.293 264.113 309.479 264.197 309.79C264.283 310.1 264.1 310.421 263.789 310.506C247.415 314.994 221.554 316.388 200.889 316.388Z" fill="#FFA2BA"/>
<path d="M178.835 344.091C178.628 344.091 178.427 343.981 178.321 343.786C178.167 343.502 178.272 343.149 178.556 342.995C189.512 337.055 220.436 326.107 259.057 327.191C259.38 327.199 259.633 327.468 259.625 327.791C259.616 328.113 259.353 328.389 259.025 328.358C220.65 327.29 189.972 338.133 179.112 344.021C179.024 344.069 178.929 344.091 178.835 344.091Z" fill="#FFA2BA"/>
<path d="M185.147 364.401C184.969 364.401 184.794 364.32 184.68 364.168C184.486 363.911 184.537 363.544 184.795 363.351C202.711 349.88 227.228 342.793 257.666 342.289C258.004 342.292 258.255 342.541 258.259 342.863C258.265 343.185 258.008 343.45 257.685 343.456C227.499 343.956 203.211 350.963 185.496 364.283C185.392 364.362 185.269 364.401 185.147 364.401Z" fill="#FFA2BA"/>
<path d="M192.982 383.91C192.847 383.91 192.71 383.863 192.599 383.767C192.356 383.556 192.33 383.187 192.542 382.943C194.733 380.423 228.597 357.674 257.869 354.461C258.19 354.413 258.478 354.657 258.514 354.977C258.549 355.297 258.318 355.585 257.997 355.62C230.421 358.647 196.131 380.595 193.423 383.709C193.308 383.843 193.146 383.91 192.982 383.91Z" fill="#FFA2BA"/>
<path d="M284.352 246.684C273.229 254.717 279.133 268.326 280.939 271.137C282.147 267.409 283.109 263.662 283.676 259.972C284.205 256.517 284.393 251.907 284.352 246.684Z" fill="url(#paint61_linear_45_321)"/>
<path d="M145.385 248.565C146.035 252.087 146.768 255.619 147.61 259.13C148.524 262.945 149.599 266.78 150.785 270.596C160.187 262.369 153.58 249.287 145.385 248.565Z" fill="url(#paint62_linear_45_321)"/>
<path d="M303.068 386.164C303.068 386.164 249.821 410.407 255.658 414.037C261.495 417.667 277.128 422.428 289.771 426.87C304.065 431.891 317.14 438.148 317.14 438.148C317.14 438.148 307.898 447.125 298.981 457.722C298.267 458.572 297.515 459.506 296.739 460.501C299.791 464.879 307.479 472.414 318.757 475.043C332.319 465.734 355.272 449.159 356.637 435.36C358.502 416.491 307.263 388.017 303.068 386.164Z" fill="url(#paint63_linear_45_321)"/>
<path d="M349.745 420.093C346.446 424.619 342.102 437.044 350.956 447.563C354.118 443.425 356.251 439.281 356.638 435.361C357.101 430.678 354.291 425.405 349.745 420.093Z" fill="url(#paint64_linear_45_321)"/>
<path d="M296.739 460.501C288.987 470.452 278.779 486.689 278.307 488.339C277.788 490.153 278.747 495.703 280.433 499.852C282.118 504.001 291.458 516.736 293.144 515.148C295.418 513.007 292.755 497.13 293.663 494.148C294.571 491.166 301.77 486.889 311.693 479.889C313.427 478.665 315.883 477.017 318.757 475.044C307.479 472.414 299.791 464.879 296.739 460.501Z" fill="url(#paint65_linear_45_321)"/>
<path d="M323.187 472.549C323.155 472.549 323.122 472.547 323.089 472.541C315.328 471.218 301.897 460.725 299.265 457.181C299.073 456.922 299.128 456.556 299.386 456.364C299.646 456.173 300.011 456.227 300.203 456.485C302.488 459.563 315.718 470.101 323.285 471.39C323.602 471.444 323.816 471.746 323.762 472.063C323.713 472.348 323.466 472.549 323.187 472.549Z" fill="#6022B6"/>
<path d="M308.436 464.988C308.274 464.988 308.112 464.92 307.997 464.788C307.786 464.545 307.81 464.177 308.053 463.965C308.241 463.8 326.934 447.359 326.934 436.982C326.934 423.558 279.237 407.685 267.431 404.475C267.12 404.391 266.936 404.07 267.021 403.759C267.106 403.448 267.427 403.265 267.737 403.349C268.341 403.514 328.101 420.502 328.101 436.982C328.101 447.887 309.607 464.156 308.82 464.843C308.71 464.94 308.573 464.988 308.436 464.988Z" fill="#6022B6"/>
<path d="M280.971 483.578C279.442 486.079 278.446 487.85 278.307 488.339C277.983 489.472 278.235 492.06 278.88 494.856C282.908 491.873 282.066 486.507 280.971 483.578Z" fill="url(#paint66_linear_45_321)"/>
<path d="M280.758 502.056C281.925 501.472 293.571 499.396 295.609 501.602C296.438 502.499 295.998 516.315 293.794 517.352C291.869 518.257 286.025 511.748 284.615 509.749C283.205 507.749 280.758 502.056 280.758 502.056Z" fill="url(#paint67_linear_45_321)"/>
<path d="M292.624 518.486C292.367 518.486 292.106 518.423 291.866 518.289C277.624 510.337 274.379 489.254 274.35 489.043C274.234 488.192 274.831 487.408 275.682 487.292C276.533 487.173 277.319 487.772 277.434 488.623C277.461 488.818 280.67 508.474 293.383 515.572C294.134 515.991 294.403 516.938 293.983 517.689C293.699 518.199 293.169 518.486 292.624 518.486Z" fill="url(#paint68_linear_45_321)"/>
<path d="M381.22 370.575C366.623 356.015 346.123 340.139 323.949 339.694C294.829 339.111 265.644 356.611 258.381 359.722C232.959 374.629 210.456 391.869 209.262 409.095C216.9 416.926 226.793 422.251 239.962 421.815C283.026 420.389 296.515 382.667 326.996 382.408C339.153 382.304 351.231 386.867 361.908 392.343C366.101 389.163 375.62 378.327 381.22 370.575Z" fill="url(#paint69_linear_45_321)"/>
<path d="M239.02 408.348C223.642 408.348 214.082 398.634 212.946 397.417C212.726 397.182 212.739 396.813 212.975 396.593C213.21 396.372 213.579 396.385 213.8 396.621C215.014 397.92 226.172 409.253 243.907 406.848C253.08 405.605 262.121 399.478 272.59 392.383C286.951 382.652 303.228 371.622 324.379 370.676C350.348 369.511 367.006 381.817 367.171 381.941C367.428 382.135 367.479 382.5 367.285 382.758C367.091 383.014 366.724 383.066 366.468 382.872C366.305 382.751 349.965 370.704 324.43 371.84C303.608 372.772 287.477 383.703 273.244 393.349C262.653 400.525 253.506 406.723 244.062 408.003C242.319 408.241 240.636 408.348 239.02 408.348Z" fill="#00E2EC"/>
<path d="M228.459 406.735C228.268 406.735 228.081 406.642 227.969 406.47C227.794 406.199 227.871 405.837 228.141 405.662C229.69 404.655 230.677 402.113 230.995 398.311C231.588 391.204 229.634 381.934 228.163 380.582C227.926 380.364 227.91 379.995 228.129 379.758C228.348 379.521 228.717 379.506 228.954 379.724C230.805 381.425 232.764 391.156 232.159 398.407C231.805 402.642 230.667 405.412 228.778 406.64C228.678 406.705 228.568 406.735 228.459 406.735Z" fill="#00E2EC"/>
<path d="M424.278 395.241C422.982 393.685 407.124 396.472 402.941 394.528C401.349 393.788 393.308 382.632 381.219 370.574C375.62 378.327 366.101 389.162 361.908 392.343C377.531 400.355 390.157 410.318 395.649 410.477C405.568 410.764 425.575 396.796 424.278 395.241Z" fill="url(#paint70_linear_45_321)"/>
<path d="M358.276 391.13C358.072 391.13 357.874 391.024 357.767 390.834C357.609 390.554 357.708 390.198 357.988 390.039C360.609 388.559 373.925 375.472 377.068 366.875C377.179 366.572 377.515 366.417 377.817 366.529C378.12 366.639 378.275 366.973 378.164 367.277C374.87 376.287 361.345 389.484 358.562 391.056C358.472 391.106 358.373 391.13 358.276 391.13Z" fill="#00E2EC"/>
<path d="M326.867 351.037C334.314 350.949 339.638 346.319 342.263 343.397C336.356 341.181 330.218 339.82 323.948 339.694C318.696 339.589 313.442 340.079 308.314 340.96C311.104 345.29 317.699 351.146 326.867 351.037Z" fill="url(#paint71_linear_45_321)"/>
<path d="M397.04 405.611C393.676 405.463 391.312 407.247 390.367 408.756C392.518 409.806 394.3 410.439 395.649 410.478C397.64 410.535 400.039 410.012 402.589 409.137C401.79 407.672 400.156 405.749 397.04 405.611Z" fill="url(#paint72_linear_45_321)"/>
<path d="M416.173 390.736C414.501 391.265 411.426 400.612 416.523 407.73C417.971 406.338 423.28 401.012 424.851 399.202C426.423 397.392 431.835 389.958 432.22 389.313C432.604 388.669 422.934 388.597 416.173 390.736Z" fill="url(#paint73_linear_45_321)"/>
<path d="M404.5 419.805C404.014 419.805 403.536 419.579 403.231 419.154C402.732 418.455 402.894 417.484 403.594 416.984C405.087 415.918 424.096 400.212 430.193 389.574C430.619 388.83 431.571 388.57 432.316 388.998C433.062 389.425 433.32 390.375 432.893 391.12C426.426 402.405 407.009 418.369 405.403 419.516C405.13 419.711 404.813 419.805 404.5 419.805Z" fill="url(#paint74_linear_45_321)"/>
<path d="M272.656 460.349L272.72 460.327C273.251 460.124 273.52 459.522 273.316 458.986C273.162 458.586 272.772 458.318 272.344 458.318C272.217 458.318 272.092 458.341 271.972 458.386C269.568 459.305 266.947 460.149 263.477 461.123C260.885 461.828 258.118 462.468 254.763 463.14C249.294 464.238 243.493 465.019 237.028 465.526C232.464 465.86 227.901 466.03 223.462 466.03C215.907 466.03 208.484 465.54 201.4 464.574C195.007 463.699 189.379 462.502 184.196 460.915C181.124 459.971 178.518 458.957 176.227 457.814C174.908 457.154 173.719 456.458 172.693 455.746C172.419 455.557 172.152 455.36 171.897 455.166L171.541 454.884L171.143 454.556C170.605 454.107 170.092 453.65 169.615 453.193C167.528 451.198 166.002 449.093 165.079 446.934C164.105 444.668 163.767 442.283 164.075 439.847C164.364 437.547 165.286 435.146 166.74 432.906C167.442 431.816 168.239 430.816 169.105 429.937C169.844 429.182 170.932 428.27 171.693 427.937L171.77 427.902C172.572 427.527 173.179 426.862 173.48 426.03C173.781 425.198 173.74 424.298 173.364 423.498C172.82 422.34 171.641 421.591 170.361 421.591C169.875 421.591 169.402 421.696 168.957 421.905C166.885 422.875 165.599 424.06 164.356 425.29C163.166 426.507 162.115 427.834 161.152 429.337C159.195 432.427 158.013 435.713 157.641 439.104C157.443 440.927 157.495 442.727 157.795 444.455C158.101 446.197 158.647 447.904 159.419 449.524C160.781 452.391 162.866 455.087 165.616 457.541C166.218 458.077 166.853 458.603 167.501 459.104L167.991 459.472L168.53 459.856C168.874 460.091 169.221 460.316 169.578 460.538C170.885 461.345 172.306 462.081 173.921 462.787C176.577 463.941 179.418 464.883 182.859 465.751C188.138 467.056 193.904 467.91 201.004 468.438C204.85 468.722 208.857 468.86 213.253 468.86C215.15 468.86 217.084 468.835 219.163 468.782C224.801 468.655 230.706 468.248 237.217 467.539C250.502 466.069 262.095 463.719 272.656 460.349Z" fill="url(#paint75_linear_45_321)"/>
<path d="M308.476 532.746C313.262 531.174 317.457 529.256 321.301 526.879C325.992 523.938 329.461 520.59 331.902 516.651C334.787 512.004 336.066 506.205 335.323 501.138C335.112 499.778 334.755 498.431 334.261 497.138C333.774 495.822 333.114 494.529 332.298 493.288C331.371 491.92 330.348 490.793 329.179 489.853C328.522 489.325 327.81 488.86 327.063 488.47C326.7 488.282 326.306 488.105 325.858 487.93C325.662 487.856 325.449 487.781 325.171 487.695L324.965 487.632L324.876 487.609L324.683 487.561C324.341 487.477 323.988 487.434 323.635 487.434C321.773 487.434 320.102 488.602 319.476 490.338C318.655 492.62 319.844 495.143 322.126 495.962L322.327 496.036C322.427 496.071 322.556 496.116 322.676 496.228C322.739 496.264 322.8 496.302 322.862 496.344C323.073 496.47 323.27 496.627 323.478 496.795L323.487 496.802L323.521 496.83C324.023 497.258 324.504 497.789 324.913 498.364C325.758 499.496 326.506 501.058 327.066 502.864C327.684 504.775 327.983 506.564 327.952 508.172C327.931 508.653 327.905 509.105 327.821 509.567C327.784 509.779 327.743 509.999 327.695 510.216L327.625 510.513L327.62 510.535L327.614 510.556L327.499 510.942C327.259 511.772 326.892 512.717 326.464 513.598C324.894 516.858 322.148 520.063 318.521 522.863C315.47 525.247 311.763 527.346 307.192 529.276C299.578 532.411 290.846 534.466 281.229 535.384C277.514 535.73 273.725 535.907 269.965 535.907C264.75 535.907 259.475 535.569 254.285 534.906C254.248 534.9 254.217 534.899 254.186 534.899C253.806 534.899 253.485 535.184 253.439 535.562C253.415 535.762 253.47 535.96 253.594 536.118C253.718 536.277 253.896 536.377 254.096 536.402C261.012 537.246 267.728 537.675 274.057 537.675C276.523 537.675 278.987 537.61 281.381 537.483C286.332 537.217 290.797 536.738 295.03 536.018C299.776 535.233 304.299 534.133 308.476 532.746Z" fill="url(#paint76_linear_45_321)"/>
<path d="M348.37 507.331C348.174 507.331 348.007 507.485 347.991 507.682C347.867 509.199 347.591 510.672 347.173 512.081C346.79 513.362 346.25 514.691 345.524 516.144C344.312 518.531 342.588 520.89 340.395 523.157C338.343 525.254 336.085 527.037 333.681 528.457C332.468 529.17 331.212 529.768 330.034 530.308C329.375 530.602 328.736 530.868 328.252 531.067L327.382 531.404L327.019 531.549C326.951 531.579 326.851 531.62 326.721 531.66L326.462 531.747C325.459 532.088 324.777 533.063 324.806 534.12C324.841 535.451 325.91 536.493 327.241 536.493L327.307 536.492L327.597 536.484C327.677 536.484 327.754 536.48 327.849 536.467L327.855 536.466L327.899 536.461C328.134 536.433 328.357 536.406 328.555 536.371C329.035 536.29 329.452 536.2 329.835 536.094C330.627 535.883 331.436 535.592 332.25 535.222C333.601 534.62 334.915 533.815 336.512 532.607C339.105 530.639 341.413 528.293 343.368 525.637C345.322 522.985 346.817 520.102 347.813 517.071C348.839 513.9 349.164 510.645 348.752 507.663C348.728 507.486 348.581 507.349 348.404 507.334L348.388 506.948C348.382 506.947 348.377 506.945 348.371 506.944V507.331H348.37Z" fill="url(#paint77_linear_45_321)"/>
<path d="M454.017 401.746C452.444 401.746 451.154 403.025 451.142 404.597C451.127 406.387 450.804 408.469 450.153 410.96C449.59 413.1 448.85 415.238 447.952 417.316C446.114 421.565 443.808 425.533 441.099 429.114C438.323 432.78 435.126 436.154 431.599 439.143C427.778 442.403 423.792 444.9 419.755 446.563C419.742 446.568 419.723 446.578 419.706 446.587C419.594 446.649 419.516 446.748 419.482 446.868C419.449 446.988 419.464 447.114 419.525 447.223C419.607 447.371 419.765 447.462 419.934 447.462C420.014 447.462 420.09 447.443 420.162 447.403C424.569 444.939 428.524 442.685 432.302 440.054C436.186 437.344 439.781 434.194 442.989 430.692C446.391 426.96 449.254 423.055 451.496 419.088C452.813 416.743 453.863 414.588 454.705 412.503C455.81 409.726 456.469 407.475 456.837 405.21L456.862 405.061C456.881 404.932 456.893 404.789 456.895 404.645C456.908 403.06 455.628 401.76 454.041 401.746L454.029 401.359C454.024 401.359 454.02 401.357 454.016 401.357V401.746H454.017Z" fill="url(#paint78_linear_45_321)"/>
<path d="M154.139 328.953L154.182 328.928C154.553 328.688 154.66 328.193 154.422 327.824C154.274 327.595 154.023 327.458 153.75 327.458C153.597 327.458 153.448 327.503 153.319 327.586C151.373 328.839 149.346 330.028 147.385 331.179C146.704 331.578 146.021 331.978 145.339 332.383C142.192 334.22 139.7 335.845 137.491 337.503C134.946 339.466 132.482 341.473 130.41 344.36C129.227 346.047 128.449 347.713 128.037 349.446C127.483 351.664 127.741 354.059 127.943 355.29L127.987 355.566C128.027 355.798 128.095 356.036 128.186 356.266C128.717 357.593 129.984 358.45 131.413 358.45C131.854 358.45 132.288 358.367 132.702 358.201C134.48 357.49 135.349 355.465 134.637 353.687C134.183 352.552 133.9 351.617 133.896 350.467C133.886 349.416 134.183 348.213 134.755 346.989C135.753 344.847 137.452 342.546 139.805 340.149C141.674 338.231 143.872 336.257 146.521 334.119C149.17 332.022 151.659 330.335 154.139 328.953Z" fill="url(#paint79_linear_45_321)"/>
<path d="M473.709 398.587C473.426 398.246 473.112 398.087 472.723 398.087C472.633 398.087 472.537 398.096 472.439 398.113C470.858 398.39 470.769 400.065 470.949 403.555C471.02 404.949 471.095 406.391 470.937 407.742C470.67 410.034 469.546 411.805 468.725 413.097C468.279 413.801 467.724 414.675 467.886 414.873C467.887 414.873 467.889 414.872 467.892 414.872C467.901 414.872 467.923 414.875 467.956 414.875C469.332 414.875 473.377 411.308 474.264 406.632C474.955 402.988 474.737 399.829 473.709 398.587Z" fill="url(#paint80_linear_45_321)"/>
<path d="M376.95 424.947C376.44 424.24 375.769 423.895 374.9 423.895C374.753 423.895 374.6 423.906 374.444 423.925C372.021 424.233 372.146 427.002 372.549 431.493C372.721 433.392 372.897 435.355 372.754 437.159C372.513 440.189 371.109 442.591 370.082 444.344C369.218 445.821 368.708 446.746 369.102 447.112C369.167 447.172 369.23 447.197 369.327 447.197C370.777 447.197 374.411 442.869 376.587 436.346C378.262 431.327 378.401 426.959 376.95 424.947Z" fill="url(#paint81_linear_45_321)"/>
<path d="M146.834 316.872C146.836 316.209 146.652 315.689 146.287 315.323C145.801 314.836 144.963 314.578 143.864 314.578C141.295 314.578 137.718 315.957 134.296 318.27C129.944 321.21 126.951 323.9 125.561 325.474C125.616 325.442 125.671 325.409 125.726 325.376C127.586 324.271 130.397 322.6 133.855 321.685C135.824 321.164 137.842 320.876 139.621 320.623C144.222 319.968 146.826 319.471 146.834 316.872Z" fill="url(#paint82_linear_45_321)"/>
<path d="M204.922 447.575C204.285 446.749 202.651 446.18 200.549 446.054C200.222 446.035 199.83 446.025 199.388 446.014C196.41 445.94 191.424 445.817 187.824 442.654C183.314 438.691 182.902 434.475 182.705 432.45C182.692 432.325 182.679 432.189 182.665 432.061C182.589 432.142 182.508 432.258 182.426 432.42C181.422 434.423 182.049 440.223 184.973 444.132C187.372 447.34 192.242 450.683 197.71 450.918C198.366 450.946 198.949 450.96 199.49 450.96C204.122 450.96 204.966 449.874 205.18 448.813C205.278 448.325 205.196 447.932 204.922 447.575Z" fill="url(#paint83_linear_45_321)"/>
<defs>
<linearGradient id="paint0_linear_45_321" x1="296.938" y1="626.337" x2="296.938" y2="60.0051" gradientUnits="userSpaceOnUse">
<stop stop-color="#C7A0F6"/>
<stop offset="1" stop-color="#8CE6FD"/>
</linearGradient>
<linearGradient id="paint1_linear_45_321" x1="60.7696" y1="255.986" x2="119.464" y2="255.986" gradientUnits="userSpaceOnUse">
<stop stop-color="#B0E1FF"/>
<stop offset="1" stop-color="white"/>
</linearGradient>
<linearGradient id="paint2_linear_45_321" x1="69.2504" y1="263.705" x2="113.432" y2="263.705" gradientUnits="userSpaceOnUse">
<stop stop-color="#00E2EC"/>
<stop offset="1" stop-color="#0090B2"/>
</linearGradient>
<linearGradient id="paint3_linear_45_321" x1="268.515" y1="588.03" x2="268.515" y2="480.285" gradientUnits="userSpaceOnUse">
<stop stop-color="#6B49C0"/>
<stop offset="1" stop-color="#5E7ED9"/>
</linearGradient>
<linearGradient id="paint4_linear_45_321" x1="315.195" y1="131.019" x2="320.124" y2="131.019" gradientUnits="userSpaceOnUse">
<stop stop-color="white"/>
<stop offset="1" stop-color="#B0E1FF"/>
</linearGradient>
<linearGradient id="paint5_linear_45_321" x1="309.682" y1="82.8333" x2="395.414" y2="82.8333" gradientUnits="userSpaceOnUse">
<stop stop-color="white"/>
<stop offset="1" stop-color="#B0E1FF"/>
</linearGradient>
<linearGradient id="paint6_linear_45_321" x1="309.682" y1="138.963" x2="406.73" y2="138.963" gradientUnits="userSpaceOnUse">
<stop stop-color="white"/>
<stop offset="1" stop-color="#B0E1FF"/>
</linearGradient>
<linearGradient id="paint7_linear_45_321" x1="309.682" y1="202.287" x2="405.538" y2="202.287" gradientUnits="userSpaceOnUse">
<stop stop-color="white"/>
<stop offset="1" stop-color="#B0E1FF"/>
</linearGradient>
<linearGradient id="paint8_linear_45_321" x1="60.7671" y1="255.986" x2="113.431" y2="255.986" gradientUnits="userSpaceOnUse">
<stop stop-color="#8C6AE2"/>
<stop offset="1" stop-color="#5A55F8"/>
</linearGradient>
<linearGradient id="paint9_linear_45_321" x1="85.8695" y1="267.556" x2="102.472" y2="267.556" gradientUnits="userSpaceOnUse">
<stop stop-color="#C07EB0"/>
<stop offset="1" stop-color="#EE5C95"/>
</linearGradient>
<linearGradient id="paint10_linear_45_321" x1="93.4655" y1="564.92" x2="159.419" y2="564.92" gradientUnits="userSpaceOnUse">
<stop stop-color="#C07EB0"/>
<stop offset="1" stop-color="#EE5C95"/>
</linearGradient>
<linearGradient id="paint11_linear_45_321" x1="110.902" y1="518.128" x2="141.629" y2="548.874" gradientUnits="userSpaceOnUse">
<stop stop-color="#8173CC"/>
<stop offset="1" stop-color="#271068"/>
</linearGradient>
<linearGradient id="paint12_linear_45_321" x1="111.969" y1="394.808" x2="127.774" y2="394.808" gradientUnits="userSpaceOnUse">
<stop stop-color="#FDE1A7"/>
<stop offset="1" stop-color="#F9A144"/>
</linearGradient>
<linearGradient id="paint13_linear_45_321" x1="127.174" y1="506.661" x2="208.94" y2="506.661" gradientUnits="userSpaceOnUse">
<stop stop-color="#00E2EC"/>
<stop offset="1" stop-color="#0090B2"/>
</linearGradient>
<linearGradient id="paint14_linear_45_321" x1="137.166" y1="518.958" x2="163.234" y2="518.958" gradientUnits="userSpaceOnUse">
<stop stop-color="#FDE1A7"/>
<stop offset="1" stop-color="#F9A144"/>
</linearGradient>
<linearGradient id="paint15_linear_45_321" x1="80.0349" y1="484.538" x2="117.257" y2="484.538" gradientUnits="userSpaceOnUse">
<stop stop-color="#5A55F8"/>
<stop offset="0.3102" stop-color="#6E5EEF"/>
<stop offset="0.7287" stop-color="#8467E5"/>
<stop offset="1" stop-color="#8C6AE2"/>
</linearGradient>
<linearGradient id="paint16_linear_45_321" x1="118.301" y1="462.445" x2="156.478" y2="462.445" gradientUnits="userSpaceOnUse">
<stop stop-color="#5A55F8"/>
<stop offset="1" stop-color="#8C6AE2"/>
</linearGradient>
<linearGradient id="paint17_linear_45_321" x1="89.6863" y1="472.635" x2="155.086" y2="472.635" gradientUnits="userSpaceOnUse">
<stop stop-color="#FF57BD"/>
<stop offset="1" stop-color="#FE6A77"/>
</linearGradient>
<linearGradient id="paint18_linear_45_321" x1="166.589" y1="508.386" x2="182.659" y2="508.386" gradientUnits="userSpaceOnUse">
<stop stop-color="#00E2EC"/>
<stop offset="1" stop-color="#0090B2"/>
</linearGradient>
<linearGradient id="paint19_linear_45_321" x1="402.193" y1="345.139" x2="402.193" y2="321.611" gradientUnits="userSpaceOnUse">
<stop stop-color="white"/>
<stop offset="1" stop-color="#E9B6F2"/>
</linearGradient>
<linearGradient id="paint20_linear_45_321" x1="324.014" y1="277.667" x2="475.774" y2="277.667" gradientUnits="userSpaceOnUse">
<stop stop-color="white"/>
<stop offset="1" stop-color="#F1D1F8"/>
</linearGradient>
<linearGradient id="paint21_linear_45_321" x1="329.98" y1="275.852" x2="467.473" y2="275.852" gradientUnits="userSpaceOnUse">
<stop stop-color="#00E2EC"/>
<stop offset="1" stop-color="#0090B2"/>
</linearGradient>
<linearGradient id="paint22_linear_45_321" x1="376.256" y1="252.007" x2="459.531" y2="252.007" gradientUnits="userSpaceOnUse">
<stop stop-color="#FDE1A7"/>
<stop offset="1" stop-color="#F9A144"/>
</linearGradient>
<linearGradient id="paint23_linear_45_321" x1="322.853" y1="275.796" x2="427.134" y2="275.796" gradientUnits="userSpaceOnUse">
<stop stop-color="#7523AF"/>
<stop offset="0.123" stop-color="#6D2EB2"/>
<stop offset="0.3398" stop-color="#594CBA"/>
<stop offset="0.625" stop-color="#387CC7"/>
<stop offset="0.9644" stop-color="#0ABED8"/>
<stop offset="1" stop-color="#05C5DA"/>
</linearGradient>
<linearGradient id="paint24_linear_45_321" x1="419.271" y1="291.407" x2="419.271" y2="250.975" gradientUnits="userSpaceOnUse">
<stop stop-color="#170389"/>
<stop offset="0.4221" stop-color="#3B0E9F"/>
<stop offset="0.7767" stop-color="#5215AD"/>
<stop offset="1" stop-color="#5A18B2"/>
</linearGradient>
<linearGradient id="paint25_linear_45_321" x1="309.219" y1="257.265" x2="333.156" y2="257.265" gradientUnits="userSpaceOnUse">
<stop stop-color="#170389"/>
<stop offset="0.0772" stop-color="#1C058C"/>
<stop offset="1" stop-color="#5A18B2"/>
</linearGradient>
<linearGradient id="paint26_linear_45_321" x1="364.406" y1="285.703" x2="397.311" y2="285.703" gradientUnits="userSpaceOnUse">
<stop stop-color="#170389"/>
<stop offset="0.0772" stop-color="#1C058C"/>
<stop offset="1" stop-color="#5A18B2"/>
</linearGradient>
<linearGradient id="paint27_linear_45_321" x1="303.904" y1="262.226" x2="322.005" y2="262.226" gradientUnits="userSpaceOnUse">
<stop stop-color="#170389"/>
<stop offset="0.0772" stop-color="#1C058C"/>
<stop offset="1" stop-color="#5A18B2"/>
</linearGradient>
<linearGradient id="paint28_linear_45_321" x1="311.302" y1="262.112" x2="322.005" y2="262.112" gradientUnits="userSpaceOnUse">
<stop stop-color="#F6E2FB"/>
<stop offset="1" stop-color="#FF9BBB"/>
</linearGradient>
<linearGradient id="paint29_linear_45_321" x1="315.344" y1="238.747" x2="325.913" y2="238.747" gradientUnits="userSpaceOnUse">
<stop stop-color="#F6E2FB"/>
<stop offset="1" stop-color="#FF9BBB"/>
</linearGradient>
<linearGradient id="paint30_linear_45_321" x1="312.08" y1="274.376" x2="345.725" y2="274.376" gradientUnits="userSpaceOnUse">
<stop stop-color="#FF9BBB"/>
<stop offset="1" stop-color="#F6E2FB"/>
</linearGradient>
<linearGradient id="paint31_linear_45_321" x1="421.694" y1="276.991" x2="443.326" y2="298.635" gradientUnits="userSpaceOnUse">
<stop stop-color="#FDE1A7"/>
<stop offset="1" stop-color="#F9A144"/>
</linearGradient>
<linearGradient id="paint32_linear_45_321" x1="420.787" y1="288.316" x2="442.367" y2="288.316" gradientUnits="userSpaceOnUse">
<stop stop-color="#C91C91"/>
<stop offset="1" stop-color="#FE6A77"/>
</linearGradient>
<linearGradient id="paint33_linear_45_321" x1="492.896" y1="328.655" x2="511.704" y2="328.655" gradientUnits="userSpaceOnUse">
<stop stop-color="#FF57BD"/>
<stop offset="1" stop-color="#FE6A77"/>
</linearGradient>
<linearGradient id="paint34_linear_45_321" x1="469.809" y1="330.536" x2="502.917" y2="330.536" gradientUnits="userSpaceOnUse">
<stop stop-color="#C07EB0"/>
<stop offset="1" stop-color="#EE5C95"/>
</linearGradient>
<linearGradient id="paint35_linear_45_321" x1="479.663" y1="306.439" x2="493.091" y2="319.875" gradientUnits="userSpaceOnUse">
<stop stop-color="#994574"/>
<stop offset="1" stop-color="#43256F"/>
</linearGradient>
<linearGradient id="paint36_linear_45_321" x1="480.443" y1="294.463" x2="507.752" y2="294.463" gradientUnits="userSpaceOnUse">
<stop stop-color="white"/>
<stop offset="1" stop-color="#FDE1A7"/>
</linearGradient>
<linearGradient id="paint37_linear_45_321" x1="462.619" y1="281.677" x2="476.494" y2="281.677" gradientUnits="userSpaceOnUse">
<stop stop-color="white"/>
<stop offset="1" stop-color="#FDE1A7"/>
</linearGradient>
<linearGradient id="paint38_linear_45_321" x1="458.219" y1="297.252" x2="469.646" y2="297.252" gradientUnits="userSpaceOnUse">
<stop stop-color="white"/>
<stop offset="1" stop-color="#FDE1A7"/>
</linearGradient>
<linearGradient id="paint39_linear_45_321" x1="483.234" y1="371.13" x2="483.234" y2="350.26" gradientUnits="userSpaceOnUse">
<stop stop-color="#FFE2A8"/>
<stop offset="1" stop-color="#A482FF"/>
</linearGradient>
<linearGradient id="paint40_linear_45_321" x1="344.217" y1="350.175" x2="554.379" y2="350.175" gradientUnits="userSpaceOnUse">
<stop stop-color="#F9A144"/>
<stop offset="1" stop-color="#FDE1A7"/>
</linearGradient>
<linearGradient id="paint41_linear_45_321" x1="253.516" y1="512.958" x2="253.516" y2="442.458" gradientUnits="userSpaceOnUse">
<stop stop-color="#8173CC"/>
<stop offset="1" stop-color="#271068"/>
</linearGradient>
<linearGradient id="paint42_linear_45_321" x1="145.162" y1="362.365" x2="212.418" y2="362.365" gradientUnits="userSpaceOnUse">
<stop stop-color="#994574"/>
<stop offset="1" stop-color="#43256F"/>
</linearGradient>
<linearGradient id="paint43_linear_45_321" x1="144.912" y1="372.056" x2="193.765" y2="372.056" gradientUnits="userSpaceOnUse">
<stop stop-color="#8173CC"/>
<stop offset="1" stop-color="#271068"/>
</linearGradient>
<linearGradient id="paint44_linear_45_321" x1="205.84" y1="427.28" x2="298.471" y2="427.28" gradientUnits="userSpaceOnUse">
<stop stop-color="#994574"/>
<stop offset="1" stop-color="#43256F"/>
</linearGradient>
<linearGradient id="paint45_linear_45_321" x1="205.849" y1="434.617" x2="298.472" y2="434.617" gradientUnits="userSpaceOnUse">
<stop stop-color="#8173CC"/>
<stop offset="1" stop-color="#271068"/>
</linearGradient>
<linearGradient id="paint46_linear_45_321" x1="188.809" y1="531.925" x2="284.587" y2="531.925" gradientUnits="userSpaceOnUse">
<stop stop-color="#271068"/>
<stop offset="1" stop-color="#8173CC"/>
</linearGradient>
<linearGradient id="paint47_linear_45_321" x1="188.079" y1="554.815" x2="207.795" y2="554.815" gradientUnits="userSpaceOnUse">
<stop stop-color="#994574"/>
<stop offset="1" stop-color="#43256F"/>
</linearGradient>
<linearGradient id="paint48_linear_45_321" x1="275.086" y1="523.172" x2="290.792" y2="523.172" gradientUnits="userSpaceOnUse">
<stop stop-color="#994574"/>
<stop offset="1" stop-color="#43256F"/>
</linearGradient>
<linearGradient id="paint49_linear_45_321" x1="216.454" y1="301.236" x2="216.454" y2="259.55" gradientUnits="userSpaceOnUse">
<stop stop-color="#E8878E"/>
<stop offset="0.2186" stop-color="#E58589"/>
<stop offset="0.4692" stop-color="#DE7F7B"/>
<stop offset="0.7347" stop-color="#D27565"/>
<stop offset="1" stop-color="#C16846"/>
</linearGradient>
<linearGradient id="paint50_linear_45_321" x1="187.039" y1="242.613" x2="238.892" y2="242.613" gradientUnits="userSpaceOnUse">
<stop stop-color="#E8878E"/>
<stop offset="1" stop-color="#F4BEA3"/>
</linearGradient>
<linearGradient id="paint51_linear_45_321" x1="169.25" y1="227.156" x2="233.303" y2="227.156" gradientUnits="userSpaceOnUse">
<stop stop-color="#994574"/>
<stop offset="1" stop-color="#43256F"/>
</linearGradient>
<linearGradient id="paint52_linear_45_321" x1="205.663" y1="179.943" x2="205.663" y2="137.971" gradientUnits="userSpaceOnUse">
<stop stop-color="#FDE1A7"/>
<stop offset="1" stop-color="white"/>
</linearGradient>
<linearGradient id="paint53_linear_45_321" x1="185.019" y1="183.389" x2="185.019" y2="155.437" gradientUnits="userSpaceOnUse">
<stop stop-color="#FDE1A7"/>
<stop offset="1" stop-color="white"/>
</linearGradient>
<linearGradient id="paint54_linear_45_321" x1="224.359" y1="177.543" x2="224.359" y2="146.383" gradientUnits="userSpaceOnUse">
<stop stop-color="#FDE1A7"/>
<stop offset="1" stop-color="white"/>
</linearGradient>
<linearGradient id="paint55_linear_45_321" x1="234.84" y1="180.099" x2="234.84" y2="166.362" gradientUnits="userSpaceOnUse">
<stop stop-color="#FDE1A7"/>
<stop offset="1" stop-color="white"/>
</linearGradient>
<linearGradient id="paint56_linear_45_321" x1="197.164" y1="238.388" x2="234.909" y2="238.388" gradientUnits="userSpaceOnUse">
<stop stop-color="#5A55F8"/>
<stop offset="1" stop-color="#8C6AE2"/>
</linearGradient>
<linearGradient id="paint57_linear_45_321" x1="220.195" y1="239.666" x2="233.879" y2="239.666" gradientUnits="userSpaceOnUse">
<stop stop-color="#FF57BD"/>
<stop offset="1" stop-color="#FE6A77"/>
</linearGradient>
<linearGradient id="paint58_linear_45_321" x1="141.179" y1="179.94" x2="166.919" y2="179.94" gradientUnits="userSpaceOnUse">
<stop stop-color="#E8878E"/>
<stop offset="1" stop-color="#F4BEA3"/>
</linearGradient>
<linearGradient id="paint59_linear_45_321" x1="254.993" y1="175.095" x2="281.252" y2="175.095" gradientUnits="userSpaceOnUse">
<stop stop-color="#E8878E"/>
<stop offset="1" stop-color="#F4BEA3"/>
</linearGradient>
<linearGradient id="paint60_linear_45_321" x1="141.561" y1="305.859" x2="284.358" y2="305.859" gradientUnits="userSpaceOnUse">
<stop stop-color="#FE6A77"/>
<stop offset="1" stop-color="#C91C91"/>
</linearGradient>
<linearGradient id="paint61_linear_45_321" x1="277.754" y1="258.91" x2="284.357" y2="258.91" gradientUnits="userSpaceOnUse">
<stop stop-color="#F9A144"/>
<stop offset="1" stop-color="#FDE1A7"/>
</linearGradient>
<linearGradient id="paint62_linear_45_321" x1="147.351" y1="259.709" x2="155.124" y2="258.338" gradientUnits="userSpaceOnUse">
<stop stop-color="#FDE1A7"/>
<stop offset="1" stop-color="#F9A144"/>
</linearGradient>
<linearGradient id="paint63_linear_45_321" x1="255.211" y1="430.603" x2="356.686" y2="430.603" gradientUnits="userSpaceOnUse">
<stop stop-color="#00E2EC"/>
<stop offset="0.2998" stop-color="#20B5DF"/>
<stop offset="1" stop-color="#6A4EC2"/>
</linearGradient>
<linearGradient id="paint64_linear_45_321" x1="345.72" y1="433.828" x2="356.687" y2="433.828" gradientUnits="userSpaceOnUse">
<stop stop-color="#5A18B2"/>
<stop offset="1" stop-color="#7A50C9"/>
</linearGradient>
<linearGradient id="paint65_linear_45_321" x1="278.166" y1="487.893" x2="318.757" y2="487.893" gradientUnits="userSpaceOnUse">
<stop stop-color="#E8878E"/>
<stop offset="0.2186" stop-color="#E58589"/>
<stop offset="0.4692" stop-color="#DE7F7B"/>
<stop offset="0.7347" stop-color="#D27565"/>
<stop offset="1" stop-color="#C16846"/>
</linearGradient>
<linearGradient id="paint66_linear_45_321" x1="278.166" y1="489.217" x2="281.876" y2="489.217" gradientUnits="userSpaceOnUse">
<stop stop-color="#F4BEA3"/>
<stop offset="1" stop-color="#E8878E"/>
</linearGradient>
<linearGradient id="paint67_linear_45_321" x1="280.758" y1="509.024" x2="296" y2="509.024" gradientUnits="userSpaceOnUse">
<stop stop-color="#FE6A77"/>
<stop offset="1" stop-color="#C91C91"/>
</linearGradient>
<linearGradient id="paint68_linear_45_321" x1="274.336" y1="502.882" x2="294.183" y2="502.882" gradientUnits="userSpaceOnUse">
<stop stop-color="#994574"/>
<stop offset="1" stop-color="#43256F"/>
</linearGradient>
<linearGradient id="paint69_linear_45_321" x1="209.262" y1="380.76" x2="381.22" y2="380.76" gradientUnits="userSpaceOnUse">
<stop stop-color="#05C5DA"/>
<stop offset="0.0356" stop-color="#0ABED8"/>
<stop offset="0.375" stop-color="#387CC7"/>
<stop offset="0.6602" stop-color="#594CBA"/>
<stop offset="0.877" stop-color="#6D2EB2"/>
<stop offset="1" stop-color="#7523AF"/>
</linearGradient>
<linearGradient id="paint70_linear_45_321" x1="361.908" y1="390.528" x2="424.338" y2="390.528" gradientUnits="userSpaceOnUse">
<stop stop-color="#E8878E"/>
<stop offset="0.2186" stop-color="#E58589"/>
<stop offset="0.4692" stop-color="#DE7F7B"/>
<stop offset="0.7347" stop-color="#D27565"/>
<stop offset="1" stop-color="#C16846"/>
</linearGradient>
<linearGradient id="paint71_linear_45_321" x1="325.289" y1="351.038" x2="325.289" y2="339.681" gradientUnits="userSpaceOnUse">
<stop stop-color="#170389"/>
<stop offset="0.0772" stop-color="#1C058C"/>
<stop offset="1" stop-color="#5A18B2"/>
</linearGradient>
<linearGradient id="paint72_linear_45_321" x1="395.889" y1="405.606" x2="396.758" y2="410.542" gradientUnits="userSpaceOnUse">
<stop stop-color="#E8878E"/>
<stop offset="1" stop-color="#F4BEA3"/>
</linearGradient>
<linearGradient id="paint73_linear_45_321" x1="413.715" y1="398.322" x2="432.231" y2="398.322" gradientUnits="userSpaceOnUse">
<stop stop-color="#FE6A77"/>
<stop offset="1" stop-color="#C91C91"/>
</linearGradient>
<linearGradient id="paint74_linear_45_321" x1="402.942" y1="404.299" x2="433.099" y2="404.299" gradientUnits="userSpaceOnUse">
<stop stop-color="#43256F"/>
<stop offset="1" stop-color="#994574"/>
</linearGradient>
<linearGradient id="paint75_linear_45_321" x1="184.702" y1="476.686" x2="237.895" y2="423.46" gradientUnits="userSpaceOnUse">
<stop stop-color="white"/>
<stop offset="1" stop-color="#FDE1A7"/>
</linearGradient>
<linearGradient id="paint76_linear_45_321" x1="283.622" y1="505.172" x2="314.008" y2="535.577" gradientUnits="userSpaceOnUse">
<stop stop-color="#FDE1A7"/>
<stop offset="1" stop-color="white"/>
</linearGradient>
<linearGradient id="paint77_linear_45_321" x1="324.805" y1="521.717" x2="348.924" y2="521.717" gradientUnits="userSpaceOnUse">
<stop stop-color="white"/>
<stop offset="1" stop-color="#FDE1A7"/>
</linearGradient>
<linearGradient id="paint78_linear_45_321" x1="419.465" y1="424.41" x2="456.895" y2="424.41" gradientUnits="userSpaceOnUse">
<stop stop-color="white"/>
<stop offset="1" stop-color="#FDE1A7"/>
</linearGradient>
<linearGradient id="paint79_linear_45_321" x1="127.701" y1="342.954" x2="154.548" y2="342.954" gradientUnits="userSpaceOnUse">
<stop stop-color="white"/>
<stop offset="0.4533" stop-color="#FEEFD0"/>
<stop offset="0.8021" stop-color="#FDE5B2"/>
<stop offset="1" stop-color="#FDE1A7"/>
</linearGradient>
<linearGradient id="paint80_linear_45_321" x1="467.858" y1="406.482" x2="474.664" y2="406.482" gradientUnits="userSpaceOnUse">
<stop stop-color="white"/>
<stop offset="1" stop-color="#FDE1A7"/>
</linearGradient>
<linearGradient id="paint81_linear_45_321" x1="368.967" y1="435.546" x2="377.948" y2="435.546" gradientUnits="userSpaceOnUse">
<stop stop-color="white"/>
<stop offset="1" stop-color="#FDE1A7"/>
</linearGradient>
<linearGradient id="paint82_linear_45_321" x1="125.561" y1="320.026" x2="146.834" y2="320.026" gradientUnits="userSpaceOnUse">
<stop stop-color="white"/>
<stop offset="1" stop-color="#FDE1A7"/>
</linearGradient>
<linearGradient id="paint83_linear_45_321" x1="181.98" y1="441.511" x2="205.22" y2="441.511" gradientUnits="userSpaceOnUse">
<stop stop-color="white"/>
<stop offset="1" stop-color="#FDE1A7"/>
</linearGradient>
</defs>
</svg>
