<svg width="364" height="274" viewBox="0 0 364 274" fill="none" xmlns="http://www.w3.org/2000/svg">
<g clip-path="url(#clip0_98_197)">
<path d="M198.976 201.01C254.55 201.01 299.601 156.012 299.601 100.505C299.601 44.9976 254.55 0 198.976 0C143.402 0 98.3511 44.9976 98.3511 100.505C98.3511 156.012 143.402 201.01 198.976 201.01Z" fill="white"/>
<path d="M19.7525 243C22.4857 243.96 25.4203 244.2 28.2736 243.698C31.1269 243.196 33.8026 241.968 36.043 240.134C41.7488 235.35 43.5378 227.47 44.9934 220.173L49.2988 198.59L40.285 204.789C33.8028 209.247 27.1746 213.848 22.6864 220.305C18.1981 226.763 16.239 235.577 19.8452 242.564" fill="#4DDFD2"/>
<path d="M20.5227 269.131C19.6104 262.493 18.6723 255.771 19.3122 249.062C19.8805 243.104 21.7004 237.285 25.4053 232.514C27.3719 229.986 29.7649 227.82 32.4767 226.113C33.1838 225.668 33.8347 226.787 33.1306 227.231C28.4385 230.193 24.8093 234.566 22.7662 239.721C20.5098 245.454 20.1474 251.703 20.5363 257.792C20.7714 261.475 21.2698 265.133 21.772 268.787C21.8116 268.952 21.7869 269.126 21.7029 269.274C21.6189 269.421 21.4819 269.532 21.3196 269.583C21.1539 269.627 20.9774 269.605 20.8282 269.52C20.679 269.436 20.5692 269.296 20.5227 269.131Z" fill="#263238"/>
<path d="M80.8984 259.989C81.9654 261.248 83.3389 262.211 84.8866 262.785C86.4344 263.36 88.1042 263.527 89.7353 263.27C93.9211 262.561 97.075 259.201 99.8966 256.033L108.242 246.66L102.021 247.113C97.5476 247.439 92.9609 247.793 88.8906 249.675C84.8203 251.558 81.3131 255.328 81.0697 259.801" fill="#4DDFD2"/>
<path d="M73.7357 273.059C75.2027 269.532 76.6816 265.957 78.9323 262.843C80.9312 260.077 83.5054 257.74 86.704 256.461C88.4005 255.784 90.2021 255.408 92.0279 255.35C92.5042 255.334 92.5012 256.072 92.0269 256.087C88.8651 256.193 85.8185 257.298 83.3263 259.245C80.5625 261.413 78.581 264.382 77.0147 267.488C76.0676 269.366 75.2568 271.308 74.4492 273.249C74.421 273.342 74.3586 273.42 74.2747 273.469C74.1908 273.517 74.0915 273.532 73.9971 273.51C73.9028 273.484 73.8224 273.423 73.7735 273.338C73.7246 273.253 73.711 273.153 73.7357 273.059H73.7357Z" fill="#263238"/>
<path d="M29.3101 257.386C30.4823 259.165 32.0936 260.613 33.9888 261.59C35.8839 262.567 37.9991 263.04 40.1304 262.964C45.6078 262.704 50.1743 258.886 54.2849 255.261L66.4434 244.538L58.3965 244.154C52.6097 243.877 46.6735 243.619 41.1617 245.402C35.6499 247.184 30.5667 251.474 29.5588 257.172" fill="#4DDFD2"/>
<path d="M17.9447 272.946C22.3358 265.186 27.4291 256.561 36.5299 253.804C39.0604 253.04 41.7138 252.767 44.3472 252.998C45.1772 253.069 44.9699 254.347 44.1415 254.276C39.7273 253.91 35.3217 255.074 31.6663 257.572C28.1488 259.964 25.41 263.288 23.092 266.814C21.6721 268.974 20.4003 271.225 19.1282 273.473C18.7216 274.192 17.5334 273.673 17.9447 272.946Z" fill="#263238"/>
<path d="M207.581 140.483C216.312 135.69 227.178 136.652 236.585 139.929C245.993 143.206 254.517 148.575 263.653 152.546C291.569 164.68 325.215 162.723 351.532 147.435C354.021 153.218 351.351 159.832 348.418 165.403C345.485 170.975 342.142 177.013 343.349 183.191C344.894 191.096 353.193 195.836 356.555 203.157C359.747 210.107 358.034 218.268 355.585 225.513C353.137 232.757 349.959 240.056 350.375 247.691C350.791 255.326 356.345 263.399 364 263.405C352.655 265.166 341.087 266.927 329.749 265.123C318.411 263.319 307.133 257.33 301.868 247.139C299.237 242.045 298.223 236.188 295.201 231.316C290.054 223.016 280.176 219.113 270.856 216.172C261.535 213.23 251.561 210.397 244.999 203.161C238.747 196.267 236.766 186.664 233.454 177.97C227.875 163.417 218.184 150.795 205.56 141.638" fill="#FD435A"/>
<path d="M217.697 104.363C214.632 102.939 210.869 102.472 207.75 103.795C204.632 105.119 202.506 108.511 203.514 111.513C203.971 112.874 205.013 114.212 204.607 115.587C204.295 116.645 203.205 117.343 202.136 117.84C201.066 118.337 199.895 118.754 199.122 119.592C198.348 120.43 198.187 121.872 199.153 122.521C199.472 122.736 199.87 122.837 200.178 123.063C200.442 123.276 200.631 123.566 200.722 123.893C200.812 124.219 200.798 124.566 200.681 124.884C200.424 125.524 199.999 126.083 199.45 126.502C198.353 127.447 196.903 128.528 197.244 129.87C197.37 130.229 197.581 130.551 197.859 130.811C198.137 131.071 198.474 131.26 198.84 131.362C199.602 131.581 200.392 131.685 201.184 131.67L233.559 132.689C234.628 132.769 235.703 132.709 236.756 132.511C237.268 132.418 237.755 132.22 238.187 131.93C238.619 131.64 238.986 131.264 239.266 130.826C239.886 129.68 239.479 128.268 238.713 127.198C237.948 126.128 236.864 125.283 235.969 124.3C235.074 123.318 234.341 122.091 234.499 120.821C234.625 119.804 235.297 118.925 235.779 118.001C236.26 117.077 236.54 115.923 235.916 115.073C235.037 113.875 232.925 113.983 231.925 112.867C231.17 112.025 231.315 110.812 231.24 109.726C231.06 107.114 229.249 104.647 226.671 103.501C225.36 102.939 223.934 102.696 222.511 102.793C221.088 102.89 219.708 103.323 218.486 104.058L217.697 104.363Z" fill="#2F2E41"/>
<path d="M197.239 268.343L192.168 266.822L195.631 246.562L203.115 248.808L197.239 268.343Z" fill="#A0616A"/>
<path d="M197.055 273.641L180.705 268.734L180.767 268.528C181.018 267.693 181.431 266.916 181.983 266.241C182.535 265.565 183.215 265.005 183.983 264.592C184.751 264.179 185.594 263.922 186.462 263.834C187.33 263.746 188.207 263.83 189.043 264.081L189.043 264.081L199.029 267.078L197.055 273.641Z" fill="#2F2E41"/>
<path d="M245.088 268.515L239.794 268.514L237.275 248.116L245.089 248.117L245.088 268.515Z" fill="#A0616A"/>
<path d="M246.438 273.641L229.366 273.64V273.424C229.366 272.553 229.538 271.69 229.872 270.885C230.206 270.079 230.695 269.348 231.312 268.731C231.929 268.115 232.662 267.626 233.468 267.293C234.274 266.959 235.139 266.788 236.011 266.788H236.012L246.438 266.788L246.438 273.641Z" fill="#2F2E41"/>
<path d="M237.738 253.087C237.276 253.087 236.829 252.922 236.478 252.623C236.126 252.323 235.893 251.908 235.82 251.453L227.959 202.471C227.906 202.146 227.75 201.848 227.512 201.62C227.275 201.393 226.97 201.249 226.643 201.21C226.316 201.172 225.986 201.241 225.702 201.407C225.418 201.573 225.196 201.827 225.07 202.13L204.703 251.104C204.513 251.557 204.16 251.921 203.713 252.124C203.266 252.327 202.76 252.355 202.293 252.202L194.937 249.752C194.479 249.601 194.094 249.285 193.857 248.865C193.62 248.446 193.548 247.953 193.656 247.483L210.347 173.713C210.429 173.357 210.608 173.032 210.866 172.773C211.123 172.515 211.448 172.333 211.803 172.25L234.188 167.06C234.463 166.997 234.748 166.995 235.025 167.052C235.301 167.109 235.562 167.225 235.789 167.392C250.529 178.089 249.284 213.038 246.537 250.987C246.502 251.462 246.295 251.907 245.953 252.239C245.611 252.571 245.158 252.766 244.682 252.787L237.823 253.085C237.795 253.086 237.766 253.087 237.738 253.087Z" fill="#2F2E41"/>
<path d="M218.895 132.439C224.753 132.439 229.502 127.695 229.502 121.844C229.502 115.993 224.753 111.25 218.895 111.25C213.037 111.25 208.288 115.993 208.288 121.844C208.288 127.695 213.037 132.439 218.895 132.439Z" fill="#A0616A"/>
<path d="M219.353 176.754C216.807 176.738 214.296 176.158 212.001 175.057L211.922 175.02L211.891 174.939L202.377 150.319L202.196 146.041C202.136 144.611 202.376 143.183 202.901 141.851C203.426 140.519 204.224 139.311 205.245 138.306C206.266 137.301 207.486 136.52 208.827 136.014C210.168 135.509 211.601 135.289 213.032 135.37L223.132 135.938C225.741 136.086 228.196 137.222 229.996 139.114C231.796 141.006 232.807 143.512 232.822 146.122C233.084 146.626 234.947 150.562 231.296 154.26C231.16 155.102 229.883 163.856 234.702 168.67L234.838 168.805L234.719 168.956C234.643 169.053 228.453 176.753 219.353 176.754Z" fill="#3F3D56"/>
<path d="M233.536 178.611C234.133 178.395 234.675 178.051 235.125 177.603C235.574 177.155 235.919 176.614 236.137 176.018C236.354 175.422 236.438 174.786 236.382 174.154C236.327 173.523 236.133 172.911 235.815 172.362L245.903 160.697L237.951 159.663L229.59 170.899C228.702 171.493 228.064 172.392 227.795 173.426C227.527 174.459 227.647 175.555 228.134 176.506C228.62 177.456 229.439 178.196 230.434 178.584C231.43 178.972 232.534 178.982 233.536 178.611Z" fill="#A0616A"/>
<path d="M239.843 169.608C239.464 169.608 239.094 169.497 238.777 169.288L233.788 166.02C233.368 165.746 233.071 165.321 232.959 164.833C232.846 164.346 232.927 163.834 233.184 163.404L236.796 157.343C236.991 157.015 237.115 156.649 237.159 156.27C237.203 155.891 237.166 155.507 237.051 155.143C236.936 154.779 236.745 154.444 236.491 154.159C236.236 153.874 235.925 153.646 235.576 153.49L225.199 148.843C223.923 148.265 222.881 147.27 222.245 146.023C221.608 144.776 221.415 143.35 221.696 141.978C221.89 141.054 222.295 140.186 222.879 139.443C223.464 138.7 224.212 138.102 225.066 137.694C225.92 137.287 226.856 137.083 227.802 137.096C228.748 137.109 229.678 137.34 230.52 137.771L246.263 145.828C247.325 146.372 248.256 147.138 248.994 148.075C249.732 149.012 250.259 150.096 250.538 151.255C250.817 152.414 250.842 153.62 250.611 154.789C250.381 155.958 249.9 157.064 249.201 158.031L241.419 168.801C241.239 169.051 241.003 169.254 240.729 169.395C240.455 169.535 240.151 169.608 239.843 169.608Z" fill="#3F3D56"/>
<path d="M208.044 120.338C211.394 120.069 214.175 116.727 213.826 113.389C213.787 114.765 214.256 116.107 215.143 117.16C216.03 118.214 217.274 118.905 218.638 119.102C220.174 119.271 221.859 118.807 223.196 119.581C224.678 120.439 225.152 122.521 226.695 123.262C228.186 123.977 230.08 123.001 230.816 121.522C231.553 120.043 231.372 118.265 230.884 116.686C230.188 114.435 228.92 112.402 227.204 110.785C225.488 109.168 223.382 108.022 221.092 107.459C218.801 106.895 216.403 106.933 214.132 107.57C211.86 108.206 209.792 109.419 208.129 111.09C206.721 112.505 205.602 114.308 205.421 116.295C205.24 118.282 206.162 120.439 207.949 121.331L208.044 120.338Z" fill="#2F2E41"/>
<path d="M183.366 90.9911C183.925 91.292 184.411 91.7117 184.79 92.2205C185.169 92.7293 185.432 93.3149 185.559 93.936C185.687 94.5571 185.677 95.1987 185.53 95.8155C185.383 96.4324 185.102 97.0094 184.707 97.5061L192.981 110.518L184.963 110.381L178.335 98.0455C177.543 97.3279 177.043 96.3452 176.928 95.2837C176.814 94.2222 177.093 93.1557 177.713 92.2861C178.334 91.4166 179.252 90.8045 180.294 90.5658C181.335 90.3272 182.429 90.4785 183.366 90.9912V90.9911Z" fill="#A0616A"/>
<path d="M190.036 100.256L200.691 125.405L211.863 144.326C212.335 145.125 212.618 146.02 212.693 146.944C212.767 147.868 212.63 148.798 212.292 149.661C211.955 150.525 211.425 151.301 210.743 151.93C210.061 152.559 209.245 153.026 208.356 153.294C206.947 153.711 205.434 153.612 204.091 153.013C202.749 152.414 201.665 151.356 201.036 150.029L179.504 104.076C179.387 103.826 179.325 103.554 179.321 103.279C179.317 103.003 179.372 102.73 179.483 102.477C179.593 102.225 179.756 101.998 179.961 101.814C180.165 101.629 180.407 101.489 180.67 101.405L187.651 99.1651C187.784 99.1226 187.92 99.094 188.058 99.08C188.471 99.0384 188.885 99.1303 189.241 99.3421C189.597 99.5539 189.876 99.8745 190.036 100.256Z" fill="#3F3D56"/>
<path d="M289.924 274H-36.5681C-36.6827 274 -36.7925 273.955 -36.8735 273.874C-36.9545 273.793 -37 273.683 -37 273.569C-37 273.454 -36.9545 273.345 -36.8735 273.264C-36.7925 273.183 -36.6827 273.137 -36.5681 273.137H289.924C290.038 273.137 290.148 273.183 290.229 273.264C290.31 273.345 290.355 273.454 290.355 273.569C290.355 273.683 290.31 273.793 290.229 273.874C290.148 273.955 290.038 274 289.924 274Z" fill="#CCCCCC"/>
<path d="M221.195 46.6777V82.0485C221.195 82.1629 221.15 82.2727 221.069 82.3535C220.988 82.4344 220.878 82.4799 220.763 82.4799C220.649 82.4799 220.539 82.4344 220.458 82.3535C220.377 82.2727 220.332 82.1629 220.332 82.0485V46.6777C220.332 46.5633 220.377 46.4536 220.458 46.3727C220.539 46.2918 220.649 46.2463 220.763 46.2463C220.878 46.2463 220.988 46.2918 221.069 46.3727C221.15 46.4536 221.195 46.5633 221.195 46.6777Z" fill="#CCCCCC"/>
<path d="M258.692 76.6847L246.477 88.8851C246.396 88.9657 246.286 89.0109 246.172 89.0108C246.058 89.0107 245.948 88.9652 245.867 88.8845C245.786 88.8037 245.741 88.6942 245.741 88.5799C245.741 88.4657 245.786 88.3561 245.867 88.2751L258.082 76.0746C258.122 76.0344 258.169 76.0025 258.222 75.9807C258.274 75.9589 258.33 75.9477 258.387 75.9476C258.444 75.9476 258.5 75.9587 258.553 75.9804C258.605 76.002 258.653 76.0339 258.693 76.074C258.733 76.1141 258.765 76.1617 258.787 76.2141C258.808 76.2666 258.82 76.3227 258.819 76.3795C258.819 76.4362 258.808 76.4923 258.786 76.5447C258.764 76.5971 258.733 76.6447 258.692 76.6847Z" fill="#CCCCCC"/>
<path d="M182.835 76.6847L195.05 88.8851C195.131 88.966 195.241 89.0115 195.355 89.0115C195.47 89.0115 195.58 88.966 195.661 88.8851C195.741 88.8042 195.787 88.6945 195.787 88.5801C195.787 88.4657 195.741 88.356 195.661 88.2751L183.445 76.0746C183.405 76.0344 183.358 76.0025 183.305 75.9807C183.253 75.9589 183.197 75.9477 183.14 75.9476C183.083 75.9476 183.027 75.9587 182.974 75.9804C182.922 76.002 182.874 76.0339 182.834 76.074C182.794 76.1141 182.762 76.1617 182.74 76.2141C182.719 76.2666 182.707 76.3227 182.708 76.3795C182.708 76.4362 182.719 76.4923 182.741 76.5447C182.763 76.5971 182.794 76.6447 182.835 76.6847Z" fill="#CCCCCC"/>
</g>
<defs>
<clipPath id="clip0_98_197">
<rect width="401" height="274" fill="white" transform="translate(-37)"/>
</clipPath>
</defs>
</svg>
